<?xml version="1.0" encoding="UTF-8"?>
<svg width="74px" height="16px" viewBox="0 0 74 16" version="1.1" xmlns="http://www.w3.org/2000/svg" xmlns:xlink="http://www.w3.org/1999/xlink">
    <g id="Prelaunch-Campaign-desktop" stroke="none" stroke-width="1" fill="none" fill-rule="evenodd">
        <g id="Prelauch-01" transform="translate(-85.000000, -62.000000)" fill="#FFFFFF">
            <g id="Group-9" transform="translate(85.000000, 62.000000)">
                <path d="M7.2935742,9.39327804 L6.66777486,9.39327804 C5.70572512,9.39327804 5.02972172,8.44929434 5.34145386,7.54255784 L6.03497029,5.53120908 C6.13888101,5.22741161 6.26263983,4.84213589 6.38639866,4.45336825 C6.559194,3.90513604 7.33210289,3.89116834 7.52241127,4.4324167 C7.66018053,4.82234832 7.79678226,5.19714826 7.9147034,5.53120908 L8.61639259,7.53557399 C8.93396241,8.44463844 8.25795901,9.39327804 7.2935742,9.39327804 L7.2935742,9.39327804 Z M8.95848067,1.17095882 C8.68877983,0.46558999 8.01044136,0 7.25271044,0 L6.78336093,0 C6.02913261,0 5.35079414,0.46326204 5.07992577,1.16630292 L0.0945466595,14.1003928 C-0.25804924,15.0164411 0.419121693,16 1.40335462,16 L1.41035983,16 C2.01047339,16 2.54286984,15.6205442 2.73668083,15.0548523 L3.53177291,12.7385421 C3.7255839,12.1740143 4.25798036,11.7945584 4.85809391,11.7945584 L9.12310326,11.7945584 C9.71854666,11.7945584 10.2474405,12.1670304 10.4459216,12.7257384 L11.2748723,15.067656 C11.4733534,15.6252001 12.0034148,16 12.5976907,16 C13.5795885,16 14.2567595,15.0187691 13.9064986,14.1038848 L8.95848067,1.17095882 Z" id="Fill-1"></path>
                <path d="M27.9390593,0 L27.328622,0 C26.9463961,0 26.5945235,0.21300742 26.4067831,0.556380038 L24.5473665,3.95402299 C24.3562536,4.30205151 24.1583954,4.68965517 23.9504196,5.10170231 C23.5547034,5.88738542 22.4676079,5.88622145 22.0707675,5.10053834 C21.8133271,4.5860614 21.5918609,4.15655463 21.4783174,3.95402299 L19.6402605,0.559871963 C19.4536443,0.214171395 19.1006474,0 18.7172973,0 L18.0618923,0 C17.2356099,0 16.7274743,0.934671905 17.1546679,1.66564819 L21.4569577,9.01731413 C21.5581351,9.18958242 21.6109722,9.38513022 21.6109722,9.58649789 L21.6109722,14.9035356 C21.6109722,15.5088026 22.085382,16 22.6699628,16 L23.3118775,16 C23.8964583,16 24.3708681,15.5088026 24.3708681,14.9035356 L24.3708681,9.58649789 C24.3708681,9.38629419 24.4237052,9.18958242 24.5248826,9.01731413 L28.8440353,1.66681216 C29.2734773,0.93583588 28.7653417,0 27.9390593,0" id="Fill-3"></path>
                <path d="M51.6635408,8.00946478 L40.6706451,4.02968569 C40.5160557,3.97346751 40.3455527,3.99806297 40.2125604,4.09527358 C40.0795681,4.19248419 40,4.35059784 40,4.52042361 L40,12.4799818 C40,12.6486363 40.0795681,12.80675 40.2125604,12.9051318 C40.2989486,12.9672061 40.4012504,13 40.5046888,13 C40.5592498,13 40.6160841,12.9906303 40.6706451,12.9695485 L51.6635408,8.9897694 C51.865871,8.91598303 52,8.71921938 52,8.50020269 C52,8.27884359 51.865871,8.08207994 51.6635408,8.00946478" id="Fill-5"></path>
                <path d="M68.0775969,6.54136185 C65.9091984,6.18795723 64.1653734,5.74563872 64.1653734,4.33089477 C64.1653734,2.87225661 65.5734096,2.20821609 67.1601538,2.20821609 C68.9301589,2.20821609 70.1094035,2.94653911 70.5055204,4.43218908 C70.648942,4.97017445 71.1657152,5.32470456 71.7211895,5.2301632 L72.4291916,5.10861002 C73.0506853,5.00281373 73.4502171,4.41643219 73.2897214,3.81316826 C72.5475713,1.01519415 70.1481046,0 67.1829191,0 C64.3657084,0 61.3265355,1.1705121 61.3265355,4.46257738 C61.3265355,7.42487338 63.85235,8.44119302 66.6911878,9.06021384 C69.0382943,9.56893641 71.1383968,9.50253236 71.1383968,11.337085 C71.1383968,13.1491277 69.5300256,13.7681486 67.5403349,13.7681486 C65.6838215,13.7681486 64.2541582,12.9251548 63.8796684,11.2537985 C63.7658417,10.7371975 63.2570363,10.3995498 62.7243274,10.4569499 L61.9616885,10.5379854 C61.341333,10.6043894 60.8951324,11.1806415 61.02148,11.7839055 C61.6213467,14.6685425 64.3930268,16 67.5187079,16 C70.7582157,16 74,14.9611705 74,11.2267867 C74,7.9110861 71.3626354,7.07146877 68.0775969,6.54136185" id="Fill-7"></path>
            </g>
        </g>
    </g>
</svg>