<svg id="Layer_1" data-name="Layer 1" xmlns="http://www.w3.org/2000/svg" viewBox="0 0 571.87 68.44"><defs><style>.cls-1{fill:#231f20;}</style></defs><title>James_Ay_logo_black</title><path class="cls-1" d="M209.22,2H198.83a4.52,4.52,0,0,0-4.32,3.17l-9.78,31c-2,6.52-4.34,15-5.67,20H179c-1.23-5-3.22-11.91-5.77-20.13L163.43,5.13A4.54,4.54,0,0,0,159.1,2H148.62a4.53,4.53,0,0,0-4.53,4.53V63.6a4.53,4.53,0,0,0,4.53,4.53h2.08a4.53,4.53,0,0,0,4.54-4.53V29.47c0-.83,0-2.59-.09-4.75a1.73,1.73,0,0,1,3.39-.49c.74,2.47,1.38,4.6,1.81,5.9L171.53,65a4.53,4.53,0,0,0,4.32,3.15h6.06A4.51,4.51,0,0,0,186.22,65l11.27-34.68c.46-1.4,1.11-3.54,1.88-6.13h0a1.68,1.68,0,0,1,3.29.49h0c0,2.07-.06,3.75-.06,4.6V63.6a4.53,4.53,0,0,0,4.54,4.53h2.08a4.53,4.53,0,0,0,4.53-4.53V6.5A4.53,4.53,0,0,0,209.22,2Z" transform="translate(-5.55 -0.26)"/><path class="cls-1" d="M41.35,1.4H38.28A4.38,4.38,0,0,0,33.9,5.77V48.94c0,5.68-1.32,10.21-7.94,10.21-7.27,0-8.6-5.2-8.6-12V46.09a3.48,3.48,0,0,0-3.48-3.48H9a3.47,3.47,0,0,0-3.47,3.48v2c0,13.24,7,20.61,20.32,20.61,15.31,0,19.85-9.55,19.85-18.43V5.77A4.37,4.37,0,0,0,41.35,1.4Z" transform="translate(-5.55 -0.26)"/><path class="cls-1" d="M102,6.24A7.54,7.54,0,0,0,95,1.4H93.05a7.52,7.52,0,0,0-7,4.82L65.47,59.71a5.79,5.79,0,0,0,5.4,7.86h0a5.77,5.77,0,0,0,5.46-3.91l3.28-9.58a5.78,5.78,0,0,1,5.47-3.91H102.7A5.79,5.79,0,0,1,108.15,54l3.42,9.68A5.79,5.79,0,0,0,117,67.57h0a5.78,5.78,0,0,0,5.4-7.84Zm-6.87,34H92.57a5.78,5.78,0,0,1-5.46-7.66L90,24.27c.43-1.25.94-2.84,1.45-4.45a2.47,2.47,0,0,1,4.69-.09c.56,1.61,1.13,3.16,1.61,4.54l2.9,8.29A5.79,5.79,0,0,1,95.15,40.25Z" transform="translate(-5.55 -0.26)"/><path class="cls-1" d="M284.45,1.4H246.32a3.38,3.38,0,0,0-3.38,3.38v59.4a3.38,3.38,0,0,0,3.38,3.39h38.13a3.38,3.38,0,0,0,3.38-3.39V61.12a3.38,3.38,0,0,0-3.38-3.38H263.69a9,9,0,0,1-8.94-9V48A8.94,8.94,0,0,1,263.69,39H281a3.39,3.39,0,0,0,3.39-3.39v-3A3.39,3.39,0,0,0,281,29.28H262.63a7.87,7.87,0,0,1-7.88-7.87V20.1a7.88,7.88,0,0,1,7.88-7.88h21.82a3.38,3.38,0,0,0,3.38-3.38V4.78A3.38,3.38,0,0,0,284.45,1.4Z" transform="translate(-5.55 -0.26)"/><path class="cls-1" d="M340.11,28.24c-9.17-1.51-16.54-3.4-16.54-9.45,0-6.24,5.95-9.07,12.67-9.07,7.48,0,12.47,3.15,14.14,9.5a4.55,4.55,0,0,0,5.14,3.42l3-.52a4.46,4.46,0,0,0,3.63-5.54C359,4.61,348.87.26,336.33.26c-11.91,0-24.77,5-24.77,19.1,0,12.66,10.69,17,22.69,19.66,9.93,2.17,18.81,1.89,18.81,9.74s-6.8,10.39-15.22,10.39c-7.85,0-13.9-3.6-15.47-10.75A4.48,4.48,0,0,0,317.48,45l-3.23.35a4.51,4.51,0,0,0-4,5.33c2.54,12.33,14.26,18,27.48,18,13.7,0,27.41-4.44,27.41-20.42C365.16,34.1,354,30.51,340.11,28.24Z" transform="translate(-5.55 -0.26)"/><path class="cls-1" d="M572.87,1.4h-2.61a4.54,4.54,0,0,0-4,2.3l-8,14.05c-.82,1.44-1.67,3-2.55,4.74a4.54,4.54,0,0,1-8,0c-1.11-2.12-2-3.9-2.54-4.74l-7.87-14a4.53,4.53,0,0,0-4-2.32h-2.81a4.54,4.54,0,0,0-3.88,6.89l18.42,30.4a4.53,4.53,0,0,1,.66,2.35V63a4.54,4.54,0,0,0,4.54,4.54h2.74A4.54,4.54,0,0,0,557.59,63v-22a4.48,4.48,0,0,1,.67-2.36l18.49-30.4A4.53,4.53,0,0,0,572.87,1.4Z" transform="translate(-5.55 -0.26)"/><path class="cls-1" d="M490.77,6.24a7.53,7.53,0,0,0-7-4.84H481.8a7.53,7.53,0,0,0-7,4.82L454.22,59.71a5.79,5.79,0,0,0,5.4,7.86h0a5.78,5.78,0,0,0,5.47-3.91l3.28-9.58a5.77,5.77,0,0,1,5.46-3.91h17.59A5.79,5.79,0,0,1,496.9,54l3.42,9.68a5.78,5.78,0,1,0,10.85-4Zm-6.87,34h-2.57a5.78,5.78,0,0,1-5.47-7.66l2.85-8.32c.43-1.25.94-2.84,1.45-4.45a2.47,2.47,0,0,1,4.69-.09c.57,1.61,1.13,3.16,1.61,4.54l2.9,8.29A5.79,5.79,0,0,1,483.9,40.25Z" transform="translate(-5.55 -0.26)"/></svg>