<svg id="Layer_1" data-name="Layer 1" xmlns="http://www.w3.org/2000/svg" viewBox="0 0 315.79 68.97"><defs><style>.cls-1{fill:#231f20;}</style></defs><title>James_Ay_mark_black</title><path class="cls-1" d="M219.52,32.45,172.61,16a2.14,2.14,0,0,0-2.86,2V51a2.15,2.15,0,0,0,.9,1.75,2.19,2.19,0,0,0,1.25.4,2.16,2.16,0,0,0,.71-.12l46.91-16.49a2.15,2.15,0,0,0,0-4.06Z" transform="translate(0)"/><path class="cls-1" d="M264.48,45.42l3.26-.35a4.51,4.51,0,0,1,4.92,3.44c1.59,7.2,7.69,10.83,15.6,10.83,8.48,0,15.34-2.66,15.34-10.47s-9-7.62-19-9.82c-12.1-2.66-22.86-7-22.86-19.81,0-14.19,13-19.24,25-19.24,12.63,0,22.86,4.38,26,16.44A4.5,4.5,0,0,1,309.1,22l-3,.52a4.57,4.57,0,0,1-5.18-3.43c-1.69-6.41-6.72-9.58-14.26-9.58-6.76,0-12.76,2.85-12.76,9.14,0,6.1,7.43,8,16.67,9.53,14,2.28,25.24,5.9,25.24,20.19C315.79,64.49,302,69,288.16,69c-13.32,0-25.13-5.75-27.68-18.18A4.54,4.54,0,0,1,264.48,45.42Z" transform="translate(0)"/><path class="cls-1" d="M92.53,38.72,74,8.08a4.57,4.57,0,0,1,3.91-6.94H80.7a4.59,4.59,0,0,1,4,2.34l7.93,14.14c.49.85,1.44,2.64,2.55,4.78a4.58,4.58,0,0,0,8.11,0c.9-1.71,1.75-3.33,2.58-4.78l8-14.16a4.58,4.58,0,0,1,4-2.32h2.63a4.57,4.57,0,0,1,3.91,7L105.76,38.72a4.64,4.64,0,0,0-.66,2.38V63.25a4.57,4.57,0,0,1-4.58,4.57H97.76a4.57,4.57,0,0,1-4.57-4.57V41.09A4.63,4.63,0,0,0,92.53,38.72Z" transform="translate(0)"/><path class="cls-1" d="M37.91,50.29H20.18a5.84,5.84,0,0,0-5.51,3.94l-3.3,9.65a5.82,5.82,0,0,1-5.51,3.94h0A5.83,5.83,0,0,1,.39,59.91L21.11,6a7.58,7.58,0,0,1,7.08-4.87h1.94A7.58,7.58,0,0,1,37.22,6l20.56,53.9a5.83,5.83,0,0,1-5.44,7.9h0a5.81,5.81,0,0,1-5.49-3.88L43.4,54.18A5.82,5.82,0,0,0,37.91,50.29Zm-7.61-10a5.82,5.82,0,0,0,5.5-7.74l-2.92-8.36c-.49-1.39-1.05-3-1.62-4.57a2.49,2.49,0,0,0-4.73.08c-.51,1.62-1,3.23-1.46,4.49l-2.88,8.39a5.83,5.83,0,0,0,5.51,7.71Z" transform="translate(0)"/></svg>