<?xml version="1.0" standalone="no"?>
<!DOCTYPE svg PUBLIC "-//W3C//DTD SVG 1.1//EN" "http://www.w3.org/Graphics/SVG/1.1/DTD/svg11.dtd" >
<svg xmlns="http://www.w3.org/2000/svg" xmlns:xlink="http://www.w3.org/1999/xlink" version="1.1">
<metadata>
Created by FontForge 20170731 at Tue Sep 11 19:05:25 2018
 By Aleksey,,,
Copyright (c) 2018 Dinamo (Johannes Breyer, Fabian Harb) &#38; Kasper-Florio, St.Gallen, Switzerland. All rights reserved.
</metadata>
<defs>
<font id="MonumentGrotesk-Semi-Mono" horiz-adv-x="620" >
  <font-face 
    font-family="Monument Grotesk Semi-Mono"
    font-weight="400"
    font-stretch="semi-condensed"
    units-per-em="1000"
    panose-1="2 1 5 4 3 0 0 2 0 4"
    ascent="795"
    descent="-205"
    x-height="500"
    cap-height="700"
    bbox="-669 -237 1264 1043"
    underline-thickness="50"
    underline-position="-200"
    unicode-range="U+000D-FB02"
  />
<missing-glyph horiz-adv-x="640" 
d="M78 0v700h485v-700h-485zM153 75h335v550h-335v-550z" />
    <glyph glyph-name="fi" unicode="fi" horiz-adv-x="881" 
d="M731 708v-116h-99v116h99zM262 583v-83h142v-75h-142v-425h-89v425h-105v75h105v85q0 61 37.5 90.5t118.5 29.5q44 0 70 -6l-2 -80q-29 6 -63 6q-39 0 -55.5 -9t-16.5 -33zM730 76h92v-76h-281v76h99v348h-85v76h175v-424z" />
    <glyph glyph-name="fl" unicode="fl" horiz-adv-x="881" 
d="M262 583v-83h142v-75h-142v-425h-89v425h-105v75h105v85q0 61 37.5 90.5t118.5 29.5q44 0 70 -6l-2 -80q-29 6 -63 6q-39 0 -55.5 -9t-16.5 -33zM728 76h91v-76h-281v76h100v548h-83v76h173v-624z" />
    <glyph glyph-name="f_f" unicode="ff" horiz-adv-x="903" 
d="M404 463l1 -1l-1 -1v-36h-142v-425h-89v425h-105v75h105v85q0 61 37.5 90.5t118.5 29.5q44 0 70 -6l-2 -80q-29 6 -63 6q-39 0 -55.5 -9t-16.5 -33v-83h142v-37zM705 500h142v-75h-142v-425h-89v425h-105v75h105v85q0 61 37.5 90.5t118.5 29.5q44 0 70 -6l-2 -80
q-28 6 -63 6q-39 0 -55.5 -9t-16.5 -33v-83z" />
    <glyph glyph-name="f_f_i" unicode="ffi" horiz-adv-x="1323" 
d="M1173 708v-116h-99v116h99zM404 463l1 -1l-1 -1v-36h-142v-425h-89v425h-105v75h105v85q0 61 37.5 90.5t118.5 29.5q44 0 70 -6l-2 -80q-29 6 -63 6q-39 0 -55.5 -9t-16.5 -33v-83h142v-37zM705 583v-83h142v-75h-142v-425h-89v425h-105v75h105v85q0 61 37.5 90.5
t118.5 29.5q44 0 70 -6l-2 -80q-28 6 -63 6q-39 0 -55.5 -9t-16.5 -33zM1172 76h92v-76h-281v76h99v348h-85v76h175v-424z" />
    <glyph glyph-name="f_f_l" unicode="ffl" horiz-adv-x="1323" 
d="M404 463l1 -1l-1 -1v-36h-142v-425h-89v425h-105v75h105v85q0 61 37.5 90.5t118.5 29.5q44 0 70 -6l-2 -80q-29 6 -63 6q-39 0 -55.5 -9t-16.5 -33v-83h142v-37zM705 583v-83h142v-75h-142v-425h-89v425h-105v75h105v85q0 61 37.5 90.5t118.5 29.5q44 0 70 -6l-2 -80
q-28 6 -63 6q-39 0 -55.5 -9t-16.5 -33zM1170 76h91v-76h-281v76h100v548h-83v76h173v-624z" />
    <glyph glyph-name=".notdef" horiz-adv-x="640" 
d="M78 0v700h485v-700h-485zM153 75h335v550h-335v-550z" />
    <glyph glyph-name=".null" horiz-adv-x="310" 
 />
    <glyph glyph-name="nonmarkingreturn" horiz-adv-x="333" 
 />
    <glyph glyph-name="CR" unicode="&#xd;" horiz-adv-x="423" 
 />
    <glyph glyph-name="space" unicode=" " horiz-adv-x="422" 
 />
    <glyph glyph-name="exclam" unicode="!" horiz-adv-x="430" 
d="M182 174l-12 283v243h89v-243l-12 -283h-65zM168 0v111h106v-111h-106z" />
    <glyph glyph-name="quotedbl" unicode="&#x22;" horiz-adv-x="474" 
d="M123 438q0 3 -5.5 110t-6.5 152h95q-1 -43 -14 -262h-69zM281 438q0 3 -5.5 110t-6.5 152h95q-1 -43 -14 -262h-69z" />
    <glyph glyph-name="numbersign" unicode="#" horiz-adv-x="600" 
d="M549 424h-90l-22 -147h91l-10 -73h-91l-30 -204h-79l30 204h-133l-30 -204h-79l30 204h-95l11 73h94l22 147h-95l11 73h95l27 188h79l-27 -188h133l27 188h79l-27 -188h89zM224 277h134l21 147h-133z" />
    <glyph glyph-name="dollar" unicode="$" horiz-adv-x="628" 
d="M590 204q0 -56 -20 -97.5t-54.5 -65.5t-74.5 -36.5t-87 -15.5v-57h-75v58q-104 10 -172 70t-70 163l95 9q2 -68 42 -111.5t105 -53.5v250h-2q-37 9 -63.5 17.5t-58.5 25t-51.5 36t-33 50.5t-13.5 69q0 48 19.5 86t52 60.5t70.5 35t80 14.5v57h75v-59q90 -11 146.5 -63
t67.5 -151l-95 -17q-1 61 -32.5 100.5t-86.5 52.5v-233q46 -8 75 -15t63 -21.5t53 -34t32 -50.5t13 -73zM150 518q0 -42 34.5 -66t94.5 -39v223q-54 -6 -91.5 -36.5t-37.5 -81.5zM354 66q64 7 103 38.5t39 92.5q0 49 -36 70t-106 35v-236z" />
    <glyph glyph-name="percent" unicode="%" horiz-adv-x="721" 
d="M170 335q-66 0 -101.5 47.5t-35.5 133.5q0 83 36.5 132t100.5 49q63 0 99.5 -49.5t36.5 -131.5t-36 -131.5t-100 -49.5zM126 0l384 685h82l-383 -685h-83zM170 399q34 0 48 27t14 90q0 62 -14 89.5t-48 27.5t-49 -27.5t-15 -89.5t15 -89.5t49 -27.5zM552 -9
q-66 0 -101.5 47.5t-35.5 133.5q0 83 36.5 132t100.5 49q63 0 99.5 -49.5t36.5 -131.5t-36 -131.5t-100 -49.5zM552 55q34 0 48 27t14 90q0 62 -14 89.5t-48 27.5t-49 -27.5t-15 -89.5t15 -89.5t49 -27.5z" />
    <glyph glyph-name="ampersand" unicode="&#x26;" horiz-adv-x="625" 
d="M495 158l131 -158h-111l-68 85q-79 -97 -195 -97q-58 0 -103 20.5t-69 52.5t-36 64t-12 62q0 74 41 123t117 90q-40 52 -57.5 87.5t-17.5 76.5q0 61 46 104.5t122 43.5q73 0 119.5 -40t46.5 -109q0 -107 -134 -185l118 -146q20 53 23 111l86 -12q-6 -84 -47 -173z
M283 640q-38 0 -59 -21.5t-21 -58.5q0 -44 64 -121q27 18 43.5 31t34.5 38.5t18 51.5q0 32 -19.5 56t-60.5 24zM255 66q82 0 141 82l-156 193q-57 -33 -85 -64t-28 -83q0 -58 38 -93t90 -35z" />
    <glyph glyph-name="quotesingle" unicode="'" horiz-adv-x="405" 
d="M168 438q0 3 -5.5 110t-6.5 152h95q-1 -43 -14 -262h-69z" />
    <glyph glyph-name="parenleft" unicode="(" horiz-adv-x="447" 
d="M269 -160q-146 232 -146 456q0 117 38 234t109 212h74l1 -3q-127 -203 -127 -443q0 -247 126 -453l-1 -3h-74z" />
    <glyph glyph-name="parenright" unicode=")" horiz-adv-x="447" 
d="M178 -160h-74l-1 3q126 206 126 453q0 240 -127 443l1 3h74q71 -95 109 -212t38 -234q0 -224 -146 -456z" />
    <glyph glyph-name="asterisk" unicode="*" horiz-adv-x="488" 
d="M312 407l-68 101l-68 -100l-46 32l67 95l-101 32l17 53l103 -36v116h55v-116l105 37l17 -54l-103 -32l68 -96z" />
    <glyph glyph-name="plus" unicode="+" horiz-adv-x="563" 
d="M247 92v195h-194v67h194v196h71v-196h193v-67h-193v-195h-71z" />
    <glyph glyph-name="comma" unicode="," horiz-adv-x="421" 
d="M156 -144v55q49 18 50 89h-51v119h111v-121q0 -58 -29 -95t-81 -47z" />
    <glyph glyph-name="hyphen" unicode="-" horiz-adv-x="508" 
d="M109 243v80h290v-80h-290z" />
    <glyph glyph-name="period" unicode="." horiz-adv-x="417" 
d="M153 0v117h111v-117h-111z" />
    <glyph glyph-name="slash" unicode="/" horiz-adv-x="520" 
d="M52 -24l325 748h91l-325 -748h-91z" />
    <glyph glyph-name="zero" unicode="0" horiz-adv-x="604" 
d="M302 697q121 0 184.5 -96.5t63.5 -257.5q0 -163 -63 -259t-185 -96q-121 0 -184 90t-63 265q0 162 63 258t184 96zM302 620q-87 0 -119 -67t-32 -210q0 -121 21 -185l212 440q-31 22 -82 22zM302 63q86 0 119 68.5t33 211.5q0 127 -23 189l-213 -444q31 -25 84 -25z" />
    <glyph glyph-name="one" unicode="1" horiz-adv-x="491" 
d="M330 79h85v-79h-267v79h93v447q-38 -46 -145 -46q-4 0 -13 0.5t-13 0.5l-1 2v74l1 2q168 0 190 126h70v-606z" />
    <glyph glyph-name="two" unicode="2" horiz-adv-x="575" 
d="M156 79h356v-79h-457q4 60 21.5 108.5t47 84t58.5 59.5t69 50q7 5 34 21.5t40 25t35 27t33 33.5t20 37.5t9 46.5q0 63 -30.5 96t-88.5 33q-42 0 -70.5 -15.5t-40.5 -41.5t-16.5 -47.5t-4.5 -46.5l-89 14q0 36 10.5 70t34.5 67.5t70.5 54t109.5 20.5q93 0 148.5 -55.5
t55.5 -149.5q0 -42 -14 -77.5t-42.5 -64t-52.5 -47t-62 -41.5q-41 -25 -62 -39t-51.5 -39t-47.5 -50.5t-23 -54.5z" />
    <glyph glyph-name="three" unicode="3" horiz-adv-x="581" 
d="M412 369q54 -16 82.5 -64t28.5 -107q0 -101 -66 -155.5t-167 -54.5q-108 0 -168.5 62t-58.5 160l87 13q-1 -70 35 -115t105 -45t106.5 35t37.5 99q0 63 -37.5 92t-100.5 29h-56v80h44q52 0 87.5 29t35.5 79q0 54 -31 85.5t-87 31.5q-40 0 -68 -17t-39.5 -43t-16 -47.5
t-3.5 -40.5l-90 14q2 92 62.5 150t154.5 58q89 0 147.5 -48.5t58.5 -143.5q0 -42 -22 -78.5t-61 -57.5z" />
    <glyph glyph-name="four" unicode="4" horiz-adv-x="572" 
d="M517 233v-77h-88v-156h-89v156h-295v88l310 441h74v-452h88zM224 233h116v176q0 90 2 140q-26 -45 -79 -122l-62 -90q-33 -48 -74 -106q68 2 97 2z" />
    <glyph glyph-name="five" unicode="5" horiz-adv-x="577" 
d="M302 451q97 0 160.5 -57.5t63.5 -172.5q0 -101 -63.5 -167t-178.5 -66q-97 0 -157 61t-60 159l87 13q0 -75 38 -116.5t96 -41.5q153 0 153 165q0 70 -39.5 107t-112.5 37q-85 0 -132 -63l-76 6l53 370h356v-79h-283l-30 -202q44 47 125 47z" />
    <glyph glyph-name="six" unicode="6" horiz-adv-x="588" 
d="M322 447q96 0 153.5 -63.5t57.5 -162.5q0 -41 -12.5 -80t-37.5 -74.5t-72 -57t-108 -21.5q-236 0 -236 334q0 87 12.5 153t40.5 117.5t78 78t121 26.5q90 0 138 -50t59 -128l-83 -14q-11 117 -117 117q-166 0 -166 -271q54 96 172 96zM302 63q74 0 110 38.5t36 120.5
q0 148 -141 148q-67 0 -106 -41t-39 -112q0 -68 35.5 -111t104.5 -43z" />
    <glyph glyph-name="seven" unicode="7" horiz-adv-x="543" 
d="M61 685h429v-83q-110 -105 -181.5 -269t-79.5 -333h-93q11 166 79 325t182 281h-336v79z" />
    <glyph glyph-name="eight" unicode="8" horiz-adv-x="589" 
d="M416 373q114 -36 114 -169q0 -103 -65 -159.5t-170 -56.5q-109 0 -172.5 58t-63.5 158q0 133 113 169q-84 44 -84 143q0 78 51 129.5t157 51.5q104 0 154.5 -51.5t50.5 -129.5q0 -100 -85 -143zM295 622q-58 0 -89.5 -29.5t-31.5 -82.5q0 -52 32 -81t89 -29q56 0 88 29
t32 81q0 54 -31.5 83t-88.5 29zM295 63q67 0 107 38t40 100q0 59 -40 93.5t-107 34.5q-66 0 -107 -34t-41 -94q0 -62 40.5 -100t107.5 -38z" />
    <glyph glyph-name="nine" unicode="9" horiz-adv-x="588" 
d="M289 697q236 0 236 -336q0 -178 -57.5 -275.5t-194.5 -97.5q-90 0 -138.5 52.5t-56.5 135.5l81 14q3 -55 32 -91t85 -36q159 0 165 265q-65 -96 -171 -96q-97 0 -154 64.5t-57 165.5q0 42 12.5 81t37.5 75t72 57.5t108 21.5zM285 310q67 0 106 42.5t39 114.5
q0 68 -35.5 111.5t-104.5 43.5q-146 0 -146 -162q0 -150 141 -150z" />
    <glyph glyph-name="colon" unicode=":" horiz-adv-x="419" 
d="M154 349v117h111v-117h-111zM154 0v117h111v-117h-111z" />
    <glyph glyph-name="semicolon" unicode=";" horiz-adv-x="419" 
d="M154 349v117h111v-117h-111zM155 -144v55q49 18 50 89h-51v119h111v-121q0 -58 -29 -95t-81 -47z" />
    <glyph glyph-name="less" unicode="&#x3c;" horiz-adv-x="553" 
d="M469 88l-399 169v78l399 169v-79l-213 -87q-32 -13 -121 -42q81 -26 120 -42l214 -87v-79z" />
    <glyph glyph-name="equal" unicode="=" horiz-adv-x="595" 
d="M71 378v67h454v-67h-454zM71 200v67h454v-67h-454z" />
    <glyph glyph-name="greater" unicode="&#x3e;" horiz-adv-x="553" 
d="M84 88v79l214 87q39 16 120 42q-89 29 -121 42l-213 87v79l399 -169v-78z" />
    <glyph glyph-name="question" unicode="?" horiz-adv-x="558" 
d="M239 174v51q0 45 19 81.5t67 80.5q27 25 38.5 37t24.5 36.5t13 51.5q0 125 -119 125q-133 0 -133 -148l-89 15q0 35 11 68.5t35 66.5t70.5 53t109.5 20q93 0 148.5 -54.5t55.5 -146.5q0 -38 -13 -69.5t-28 -48.5t-46 -46q-27 -24 -40 -38.5t-26 -43t-13 -62.5v-29h-85z
M235 0v111h106v-111h-106z" />
    <glyph glyph-name="at" unicode="@" 
d="M370 -112q-153 0 -240.5 102.5t-87.5 296.5q0 176 78.5 285.5t225.5 109.5q103 0 162.5 -58.5t59.5 -155.5v-374h-77v54q-42 -63 -116 -63q-76 0 -123.5 53.5t-47.5 145.5q0 90 46.5 145t122.5 55t117 -55v33q0 150 -143 150q-224 0 -224 -329q0 -323 251 -323
q84 0 144 58l54 -60q-77 -70 -202 -70zM386 149q103 0 103 134q0 136 -101 136q-54 0 -77 -34t-23 -101t21.5 -101t76.5 -34z" />
    <glyph glyph-name="A" unicode="A" horiz-adv-x="634" 
d="M522 0l-71 209h-268l-70 -209h-95l250 700h99l249 -700h-94zM210 289h214l-71 211q-28 86 -36 113h-1q-4 -11 -15.5 -49.5t-20.5 -63.5z" />
    <glyph glyph-name="B" unicode="B" horiz-adv-x="640" 
d="M482 358q112 -44 112 -165q0 -38 -9 -68t-23 -50t-37 -34.5t-44.5 -22t-53 -12t-55.5 -5.5t-58 -1h-225v700h218q44 0 76 -3t69.5 -14t61.5 -31t40 -56.5t16 -86.5q0 -103 -88 -151zM178 622v-226h122q29 0 45.5 0.5t41.5 3.5t38.5 10.5t28.5 19t21.5 31.5t6.5 47
q0 33 -11.5 55.5t-26.5 33.5t-43 17t-47 7t-54 1h-122zM314 77q40 0 59.5 1t50 6.5t45 17.5t26 34.5t11.5 56.5q0 36 -13 61t-29.5 37t-46.5 18.5t-48 7.5t-50 1h-141v-241h136z" />
    <glyph glyph-name="C" unicode="C" horiz-adv-x="662" 
d="M353 -12q-146 0 -223.5 93t-77.5 269q0 164 78.5 263t224.5 99q102 0 174.5 -55t98.5 -159l-99 -19q-15 69 -58 112t-115 43q-101 0 -151 -66t-50 -218q0 -148 47 -215q49 -69 152 -69q130 0 176 143l102 -26q-79 -195 -279 -195z" />
    <glyph glyph-name="D" unicode="D" horiz-adv-x="658" 
d="M87 0v700h226q145 0 224.5 -94t79.5 -256q0 -166 -80.5 -258t-224.5 -92h-225zM177 78h126q119 0 166 71q46 70 46 201q0 132 -45 202q-46 70 -167 70h-126v-544z" />
    <glyph glyph-name="E" unicode="E" horiz-adv-x="601" 
d="M97 0v700h446v-81h-356v-225h321v-81h-321v-232h356v-81h-446z" />
    <glyph glyph-name="F" unicode="F" horiz-adv-x="591" 
d="M101 0v700h442v-81h-352v-225h315v-81h-315v-313h-90z" />
    <glyph glyph-name="G" unicode="G" horiz-adv-x="677" 
d="M355 371h268v-371h-73l-8 90q-64 -102 -197 -102q-145 0 -222.5 93t-77.5 269q0 165 78 263.5t224 98.5q103 0 173 -54t97 -158l-98 -19q-36 153 -170 153q-104 0 -154 -68q-49 -71 -49 -216q0 -151 45 -215q50 -69 164 -69q86 0 132.5 56.5t49.5 163.5h-182v85z" />
    <glyph glyph-name="H" unicode="H" horiz-adv-x="660" 
d="M76 0v700h91v-306h326v306h91v-700h-91v313h-326v-313h-91z" />
    <glyph glyph-name="I" unicode="I" horiz-adv-x="439" 
d="M348 621h-83v-542h83v-79h-257v79h83v542h-83v79h257v-79z" />
    <glyph glyph-name="J" unicode="J" horiz-adv-x="562" 
d="M268 -12q-97 0 -150.5 55t-53.5 153v59h91v-45q0 -33 4 -56t15.5 -44.5t35.5 -32.5t60 -11q61 0 82.5 34.5t21.5 96.5v503h91v-517q0 -36 -9.5 -68t-30 -62t-61 -47.5t-96.5 -17.5z" />
    <glyph glyph-name="K" unicode="K" horiz-adv-x="624" 
d="M501 0l-231 344l-93 -98v-246h-91v700h91v-332l310 332h119l-272 -288l279 -412h-112z" />
    <glyph glyph-name="L" unicode="L" horiz-adv-x="583" 
d="M102 0v700h90v-621h351v-79h-441z" />
    <glyph glyph-name="M" unicode="M" horiz-adv-x="744" 
d="M72 0v700h136l105 -330q54 -178 59 -200h2q5 22 57 200l106 330h136v-700h-87v425q0 80 5 175h-3q-21 -87 -50 -177l-116 -353h-99l-116 353q-44 151 -51 177h-2q5 -95 5 -175v-425h-87z" />
    <glyph glyph-name="N" unicode="N" horiz-adv-x="660" 
d="M76 0v700h100l240 -416q9 -15 83 -156h1q-5 97 -5 176v396h89v-700h-102l-240 421q-12 22 -81 157h-1q5 -112 5 -177v-401h-89z" />
    <glyph glyph-name="O" unicode="O" horiz-adv-x="683" 
d="M343 -12q-145 0 -223 93.5t-78 268.5q0 165 78.5 263.5t222.5 98.5q142 0 220.5 -99t78.5 -263q0 -165 -78.5 -263.5t-220.5 -98.5zM343 66q97 0 144 63q53 70 53 221q0 142 -47 213t-146 71q-104 0 -152 -65q-50 -67 -50 -219q0 -157 49 -219q51 -65 149 -65z" />
    <glyph glyph-name="P" unicode="P" horiz-adv-x="621" 
d="M91 0v700h224q42 0 75 -3.5t71 -16.5t63 -35t42 -62t17 -95q0 -53 -17 -91.5t-42 -60t-63 -33.5t-71 -15.5t-76 -3.5h-133v-284h-90zM181 361h133q31 0 51.5 1.5t47.5 8.5t43 20t27.5 37.5t11.5 59.5q0 38 -12 64.5t-27 40t-43 20.5t-47 8t-51 1h-134v-261z" />
    <glyph glyph-name="Q" unicode="Q" horiz-adv-x="684" 
d="M642 350q0 -178 -91 -277l82 -72l-54 -60l-92 81q-61 -34 -144 -34q-145 0 -223 93.5t-78 268.5q0 165 78.5 263.5t222.5 98.5q142 0 220.5 -99t78.5 -263zM194 130q51 -65 149 -65q49 0 81 14l-84 73l54 60l94 -82q52 66 52 220q0 142 -47 213q-46 70 -146 70
q-104 0 -152 -65q-50 -67 -50 -218q0 -158 49 -220z" />
    <glyph glyph-name="R" unicode="R" horiz-adv-x="641" 
d="M561 175q0 -66 8 -103.5t32 -68.5l-1 -3h-99q-18 27 -24 60t-6 105q0 70 -33.5 97.5t-123.5 27.5h-144v-290h-90v700h225q44 0 76.5 -3t72 -15t64.5 -33t42.5 -60.5t17.5 -94.5q0 -63 -30.5 -109t-77.5 -62q91 -34 91 -148zM304 367q31 0 52.5 1.5t48.5 8.5t44 19.5
t28.5 36.5t11.5 57q0 32 -7 55.5t-22.5 37.5t-30 22.5t-40 12t-41 4t-43.5 0.5h-135v-255h134z" />
    <glyph glyph-name="S" unicode="S" horiz-adv-x="630" 
d="M323 -12q-120 0 -200.5 60.5t-82.5 174.5l96 10q2 -80 53 -124.5t131 -44.5q79 0 129 32t50 101q0 23 -10 41t-24 28t-38.5 18.5t-44.5 12.5t-51.5 10t-50.5 11q-47 11 -80 23.5t-68 34.5t-53.5 57t-18.5 82q0 98 73 147.5t169 49.5q113 0 185.5 -52t83.5 -166l-94 -17
q-3 76 -49 118t-125 42q-60 0 -105 -31t-45 -87q0 -29 16 -50t47.5 -34t59 -20.5t69.5 -14.5q49 -8 78.5 -15t66 -21.5t56 -33.5t33.5 -51t14 -75q0 -61 -23.5 -105t-64 -67t-85.5 -33.5t-97 -10.5z" />
    <glyph glyph-name="T" unicode="T" horiz-adv-x="597" 
d="M253 0v621h-224v79h539v-79h-224v-621h-91z" />
    <glyph glyph-name="U" unicode="U" horiz-adv-x="660" 
d="M330 -12q-126 0 -191.5 61.5t-65.5 181.5v469h91v-469q0 -82 46 -122.5t120 -40.5t120 41t46 122v469h91v-469q0 -120 -65.5 -181.5t-191.5 -61.5z" />
    <glyph glyph-name="V" unicode="V" horiz-adv-x="617" 
d="M262 0l-239 700h98l126 -401q58 -187 62 -198h1q2 5 9.5 31.5t22 72.5t29.5 94l126 401h98l-239 -700h-94z" />
    <glyph glyph-name="W" unicode="W" horiz-adv-x="761" 
d="M154 0l-131 700h95l64 -421q15 -86 26 -169h2q9 48 37 169l85 351h99l85 -351q25 -106 38 -169h2q3 28 24 169l63 421h95l-131 -700h-104l-86 354q-24 102 -36 167h-2q-13 -72 -35 -168l-84 -353h-106z" />
    <glyph glyph-name="X" unicode="X" horiz-adv-x="609" 
d="M358 360l234 -360h-109l-106 173q-28 45 -73 122q-45 -78 -73 -122l-107 -173h-107l234 361l-221 339h105l101 -159q41 -65 68 -116q31 56 69 116l100 159h106z" />
    <glyph glyph-name="Y" unicode="Y" horiz-adv-x="613" 
d="M261 0v299l-241 401h105l111 -200q3 -5 14.5 -27t28.5 -53t27 -50q29 55 70 130l111 200h106l-241 -401v-299h-91z" />
    <glyph glyph-name="Z" unicode="Z" horiz-adv-x="605" 
d="M42 0v69l315 432q32 45 92 118v1q-15 0 -41.5 -1t-49 -1.5t-43.5 -0.5h-245v83h485v-69l-320 -442q-58 -79 -82 -108v-1q74 3 141 3h265v-83h-517z" />
    <glyph glyph-name="bracketleft" unicode="[" horiz-adv-x="465" 
d="M152 -160v900h225v-69h-138v-760h138v-71h-225z" />
    <glyph glyph-name="backslash" unicode="\" horiz-adv-x="520" 
d="M468 -24h-91l-325 748h91z" />
    <glyph glyph-name="bracketright" unicode="]" horiz-adv-x="465" 
d="M313 -160h-225v71h138v760h-138v69h225v-900z" />
    <glyph glyph-name="asciicircum" unicode="^" horiz-adv-x="553" 
d="M66 418l164 282h93l164 -282h-93l-75 132q-13 23 -42 79q-23 -45 -43 -80l-75 -131h-93z" />
    <glyph glyph-name="underscore" unicode="_" horiz-adv-x="536" 
d="M35 -136v70h466v-70h-466z" />
    <glyph glyph-name="grave" unicode="`" horiz-adv-x="443" 
d="M304 573h-74l-92 127h101z" />
    <glyph glyph-name="a" unicode="a" horiz-adv-x="580" 
d="M233 -12q-69 0 -118.5 37.5t-49.5 106.5q0 39 14.5 67t41.5 45t53 25.5t61 15.5l165 32q0 67 -17 91q-23 33 -91 33q-65 0 -93.5 -25.5t-28.5 -82.5l-88 12q3 91 62 130q56 37 153 37q190 0 190 -165v-239q0 -16 1 -22t7.5 -11t20.5 -5q12 0 29 4l2 -74q-25 -4 -56 -4
q-83 0 -90 78q-42 -86 -168 -86zM247 60q78 0 115.5 35.5t37.5 93.5v61l-151 -33q-47 -11 -69.5 -28t-22.5 -56q0 -34 26 -53.5t64 -19.5z" />
    <glyph glyph-name="b" unicode="b" horiz-adv-x="601" 
d="M332 513q101 0 164 -72.5t63 -190.5q0 -120 -64 -191t-166 -71q-103 0 -158 85v-73h-90v700h90v-265q56 78 161 78zM313 57q83 0 115 49t32 144t-34 143.5t-115 48.5q-143 0 -143 -193q0 -192 145 -192z" />
    <glyph glyph-name="c" unicode="c" horiz-adv-x="576" 
d="M307 -12q-115 0 -181.5 69.5t-66.5 192.5q0 117 67.5 189.5t180.5 72.5q91 0 147 -47.5t72 -123.5l-84 -16q-14 52 -44 83.5t-91 31.5q-85 0 -117 -49t-32 -141q0 -93 32 -141.5t117 -48.5q58 0 90 24t46 78l85 -9q-13 -76 -73.5 -120.5t-147.5 -44.5z" />
    <glyph glyph-name="d" unicode="d" horiz-adv-x="601" 
d="M433 700h90v-700h-90v73q-55 -85 -158 -85q-102 0 -166 71t-64 191q0 118 62.5 190t164.5 72q106 0 161 -77v265zM291 59q145 0 145 190q0 39 -5.5 69.5t-20 60t-44 45.5t-73.5 16q-81 0 -115 -47.5t-34 -142.5t32 -143t115 -48z" />
    <glyph glyph-name="e" unicode="e" horiz-adv-x="585" 
d="M490 413q48 -77 42 -190h-379q3 -163 142 -163q125 0 143 112l87 -7q-16 -87 -74.5 -132t-154.5 -45q-116 0 -180 73q-61 68 -61 190q0 115 63 186q66 75 177 75q61 0 113 -25.5t82 -73.5zM296 439q-85 0 -118 -54q-24 -40 -24 -89h286q-2 51 -27 89q-37 54 -117 54z" />
    <glyph glyph-name="f" unicode="f" horiz-adv-x="460" 
d="M173 0v425h-105v75h105v85q0 61 37.5 90.5t118.5 29.5q44 0 70 -6l-2 -80q-29 6 -63 6q-39 0 -55.5 -9t-16.5 -33v-83h142v-75h-142v-425h-89z" />
    <glyph glyph-name="g" unicode="g" horiz-adv-x="600" 
d="M437 500h90v-489q0 -100 -64.5 -158t-175.5 -58q-54 0 -99 15t-78.5 54.5t-35.5 99.5l86 6q3 -59 37.5 -82t99.5 -23q63 0 101.5 37t38.5 103v85q-55 -86 -158 -86t-166 71t-63 188q0 111 62.5 180t163.5 69q107 0 161 -82v70zM293 76q79 0 113.5 53.5t34.5 133.5
q0 177 -146 177q-80 0 -113.5 -45.5t-33.5 -131.5q0 -94 31.5 -140.5t113.5 -46.5z" />
    <glyph glyph-name="h" unicode="h" horiz-adv-x="590" 
d="M476 456q18 -19 27 -49t10.5 -51.5t1.5 -56.5v-299h-93v294q0 31 -1 45t-7.5 34.5t-21.5 34.5q-29 29 -89 29q-130 0 -130 -156v-281h-90v700h90v-275q41 87 154 87q96 0 149 -56z" />
    <glyph glyph-name="i" unicode="i" horiz-adv-x="421" 
d="M271 708v-116h-99v116h99zM270 76h92v-76h-281v76h99v348h-85v76h175v-424z" />
    <glyph glyph-name="j" unicode="j" horiz-adv-x="424" 
d="M192 708h99v-116h-99v116zM291 500v-557q0 -71 -41.5 -110t-114.5 -39q-29 0 -64 6l2 84q26 -7 57 -7q40 0 55.5 19t15.5 58v470h-92v76h182z" />
    <glyph glyph-name="k" unicode="k" horiz-adv-x="559" 
d="M421 0l-165 257l-70 -66v-191h-90v700h90v-407l209 207h122l-197 -184l206 -316h-105z" />
    <glyph glyph-name="l" unicode="l" horiz-adv-x="421" 
d="M268 76h91v-76h-281v76h100v548h-83v76h173v-624z" />
    <glyph glyph-name="m" unicode="m" horiz-adv-x="744" 
d="M542 512q145 0 145 -182v-330h-88v304q0 47 -4 72t-20 41q-22 21 -63 21q-36 0 -59 -22q-34 -34 -34 -122v-294h-88v304q0 46 -4 71t-20 41q-21 22 -63 22q-37 0 -59 -22q-34 -34 -34 -122v-294h-87v500h85v-65q10 25 31 45q37 32 95 32q98 0 128 -93q12 36 41 60
q36 33 98 33z" />
    <glyph glyph-name="n" unicode="n" horiz-adv-x="590" 
d="M476 456q39 -42 39 -159v-297h-93v292q0 32 -1 46t-8 35t-21 35q-29 29 -89 29q-21 0 -40 -5.5t-41 -20.5t-35.5 -50t-13.5 -85v-276h-90v500h90v-76q39 88 154 88q96 0 149 -56z" />
    <glyph glyph-name="o" unicode="o" horiz-adv-x="596" 
d="M299 -12q-117 0 -183.5 70t-66.5 192q0 116 68 189t182 73q113 0 181 -73.5t68 -188.5q0 -118 -68.5 -190t-180.5 -72zM299 59q81 0 116.5 49t35.5 142t-35.5 142t-116.5 49q-83 0 -118 -48.5t-35 -142.5t35 -142.5t118 -48.5z" />
    <glyph glyph-name="p" unicode="p" horiz-adv-x="601" 
d="M329 512q102 0 166 -71t64 -191q0 -118 -62.5 -190t-164.5 -72q-106 0 -161 77v-265h-90v700h90v-73q55 85 158 85zM311 60q81 0 115 47.5t34 142.5t-32 143t-115 48q-145 0 -145 -190q0 -39 5.5 -69.5t20 -60t44 -45.5t73.5 -16z" />
    <glyph glyph-name="q" unicode="q" horiz-adv-x="601" 
d="M433 500h90v-700h-90v265q-55 -77 -161 -77q-102 0 -164.5 72t-62.5 190q0 120 64.5 191.5t165.5 71.5q102 0 158 -86v73zM293 60q44 0 73.5 16t44 45.5t20 60t5.5 69.5q0 191 -145 191q-83 0 -115 -48.5t-32 -143.5t34 -142.5t115 -47.5z" />
    <glyph glyph-name="r" unicode="r" horiz-adv-x="487" 
d="M391 511q9 1 41 1l-2 -85q-8 1 -31 1q-88 0 -136 -42.5t-48 -156.5v-229h-90v500h90v-94q14 42 62 70.5t114 34.5z" />
    <glyph glyph-name="s" unicode="s" horiz-adv-x="554" 
d="M281 -12q-91 0 -152 44t-60 132l82 8q-1 -52 34 -82.5t94 -30.5q123 0 123 81q0 16 -9 28t-29 20.5t-35.5 13t-45 11t-42.5 9.5q-38 10 -60.5 18t-49 24t-39 41.5t-12.5 60.5q0 72 55 109t130 37q87 0 144 -39t65 -125l-84 -13q-1 52 -34 79t-92 27q-40 0 -70 -18.5
t-30 -50.5q0 -16 9 -28t29.5 -20.5t36 -12.5t45.5 -11q103 -22 137 -41q66 -36 66 -114q0 -58 -31.5 -94.5t-75 -49.5t-99.5 -13z" />
    <glyph glyph-name="t" unicode="t" horiz-adv-x="464" 
d="M318 -5q-81 0 -118 30t-37 98v302h-105v75h105v139h89v-139h142v-75h-142v-299q0 -29 16 -39.5t57 -10.5q27 0 65 9l2 -82q-32 -8 -74 -8z" />
    <glyph glyph-name="u" unicode="u" horiz-adv-x="590" 
d="M419 500h90v-500h-90v75q-41 -87 -154 -87q-95 0 -148 56q-18 19 -27.5 49t-11 51.5t-1.5 56.5v299h93v-294q0 -31 1 -45t7.5 -34.5t20.5 -34.5q30 -29 91 -29q129 0 129 156v281z" />
    <glyph glyph-name="v" unicode="v" horiz-adv-x="552" 
d="M228 0l-187 500h96l89 -259q19 -56 50 -158q32 102 51 158l90 259h94l-187 -500h-96z" />
    <glyph glyph-name="w" unicode="w" horiz-adv-x="675" 
d="M152 0l-132 500h96l57 -267l29 -146h2q16 76 33 146l58 232h85l58 -232q19 -79 31 -146h2q21 109 29 146l60 267h95l-132 -500h-99l-58 223q-13 51 -28 132h-2q-9 -55 -28 -132l-56 -223h-100z" />
    <glyph glyph-name="x" unicode="x" horiz-adv-x="549" 
d="M321 261l188 -261h-97l-83 118q-13 19 -54 85q-40 -63 -55 -85l-83 -118h-97l188 261l-173 239h97l81 -113q12 -17 42 -65q32 50 43 65l79 113h98z" />
    <glyph glyph-name="y" unicode="y" horiz-adv-x="552" 
d="M420 500h94l-204 -546q-32 -86 -64.5 -122.5t-82.5 -36.5q-42 0 -78 10l2 84q33 -11 64 -11q26 0 42.5 26.5t45.5 100.5l-195 495h96l95 -270q15 -44 44 -133q23 70 45 133z" />
    <glyph glyph-name="z" unicode="z" horiz-adv-x="542" 
d="M65 0v70l238 290q19 23 56 64v1q-58 -2 -84 -2h-194v77h381v-62l-232 -286q-17 -22 -63 -74v-1h311v-77h-413z" />
    <glyph glyph-name="braceleft" unicode="{" horiz-adv-x="470" 
d="M348 -160q-85 0 -126 38t-41 128v178q0 36 -19 54t-62 19v73q43 2 62 19.5t19 52.5v175q0 91 40.5 127t126.5 36h35v-74h-34q-43 0 -61.5 -20t-18.5 -73v-180q0 -82 -64 -100q34 -11 48.5 -33.5t14.5 -65.5v-184q0 -54 18.5 -74t62.5 -20h34v-76h-35z" />
    <glyph glyph-name="bar" unicode="|" horiz-adv-x="432" 
d="M172 -160v860h87v-860h-87z" />
    <glyph glyph-name="braceright" unicode="}" horiz-adv-x="470" 
d="M122 -160h-35v76h34q44 0 62.5 20t18.5 74v184q0 43 14.5 65.5t48.5 33.5q-64 18 -64 100v180q0 53 -18.5 73t-61.5 20h-34v74h35q86 0 126.5 -36t40.5 -127v-175q0 -35 19 -52.5t62 -19.5v-73q-43 -1 -62 -19t-19 -54v-178q0 -90 -41 -128t-126 -38z" />
    <glyph glyph-name="asciitilde" unicode="~" horiz-adv-x="545" 
d="M339 272q-36 0 -76 24t-60 24q-43 0 -48 -44h-65q0 47 32 82q34 36 88 36q31 0 71.5 -24.5t57.5 -24.5q15 0 24.5 7t12 13t8.5 23h69q-9 -62 -35 -85q-32 -31 -79 -31z" />
    <glyph glyph-name="uni00A0" unicode="&#xa0;" horiz-adv-x="423" 
 />
    <glyph glyph-name="exclamdown" unicode="&#xa1;" horiz-adv-x="424" 
d="M260 554v-111h-106v111h106zM246 380l12 -283v-243h-89v243l12 283h65z" />
    <glyph glyph-name="cent" unicode="&#xa2;" horiz-adv-x="581" 
d="M527 153q-12 -69 -64 -112.5t-128 -51.5v-83h-65v84q-100 11 -156 79t-56 181q0 107 57 177.5t155 82.5v85h65v-84q79 -8 127.5 -54.5t62.5 -115.5l-84 -16q-25 100 -106 113v-376q84 10 107 100zM157 250q0 -83 24.5 -130t88.5 -57v374q-64 -10 -88.5 -57.5
t-24.5 -129.5z" />
    <glyph glyph-name="sterling" unicode="&#xa3;" horiz-adv-x="605" 
d="M514 121l52 -70q-70 -63 -157 -63q-48 0 -107.5 26t-95.5 26q-38 0 -100 -44l-54 75q59 45 82.5 81t23.5 82q0 25 -11 69h-85v72h60q-33 78 -33 137q0 90 63 145t166 55q100 0 160 -56t66 -157l-91 -17q-1 76 -39 115t-98 39q-61 0 -95 -33.5t-34 -92.5q0 -40 33 -135
h139v-72h-119q6 -27 6 -54q0 -86 -87 -160q44 24 88 24q36 0 85.5 -20t75.5 -20q52 0 106 48z" />
    <glyph glyph-name="currency" unicode="&#xa4;" horiz-adv-x="596" 
d="M534 155l-44 -44l-59 59q-54 -43 -132 -43q-82 0 -134 41l-58 -57l-44 44l60 60q-31 53 -31 126q0 72 35 128l-59 59l44 45l58 -58q54 41 129 41q74 0 128 -41l58 58l44 -45l-59 -59q36 -55 36 -128q0 -71 -34 -124zM299 191q125 0 125 150q0 151 -125 151t-125 -151
q0 -150 125 -150z" />
    <glyph glyph-name="yen" unicode="&#xa5;" horiz-adv-x="612" 
d="M583 700l-200 -347h122v-64h-153v-56h152v-64h-152v-169h-91v169h-153v64h153v56h-152v64h121l-200 347h105l106 -200q43 -81 65 -129q32 69 65 130l106 199h106z" />
    <glyph glyph-name="brokenbar" unicode="&#xa6;" horiz-adv-x="432" 
d="M172 380v320h87v-320h-87zM172 -160v320h87v-320h-87z" />
    <glyph glyph-name="section" unicode="&#xa7;" horiz-adv-x="601" 
d="M558 221q0 -48 -29 -86t-80 -57q61 -53 61 -122q0 -72 -54.5 -114t-144.5 -42q-97 0 -154 47t-63 131l96 10q1 -52 34.5 -84t86.5 -32q105 0 105 80q0 12 -2.5 22.5t-9 20.5t-12 17.5t-18.5 17t-20.5 15t-27 15.5t-28.5 14.5l-33 16.5l-34 17q-94 46 -139.5 89.5
t-45.5 116.5q0 50 33 85.5t82 48.5q-51 45 -51 108q0 71 58.5 113.5t139.5 42.5q88 0 142 -46t60 -126l-92 -17q-1 49 -30 83t-81 34q-50 0 -77.5 -21t-27.5 -58q0 -21 11 -39.5t35 -36t47 -30t62 -32.5l24 -12q88 -45 132.5 -86.5t44.5 -103.5zM393 118q36 13 56 37t20 54
q0 20 -8.5 36.5t-29.5 32t-32.5 23t-41.5 23.5q-105 58 -144 83q-36 -10 -58 -34.5t-22 -54.5q0 -21 10.5 -40t31 -35t37 -26t41.5 -23q117 -62 140 -76z" />
    <glyph glyph-name="dieresis" unicode="&#xa8;" horiz-adv-x="493" 
d="M111 585v97h83v-97h-83zM300 585v97h83v-97h-83z" />
    <glyph glyph-name="copyright" unicode="&#xa9;" horiz-adv-x="705" 
d="M351 13q-138 0 -231 95.5t-93 241.5q0 147 93 243t231 96q139 0 233 -96t94 -243q0 -146 -94 -241.5t-233 -95.5zM352 59q118 0 196 82t78 209q0 128 -78 211t-196 83t-196 -83t-78 -211q0 -127 78 -209t196 -82zM357 149q-87 0 -137 54t-50 148q0 91 50.5 147t136.5 56
q69 0 111.5 -37.5t54.5 -96.5l-69 -14q-9 43 -29.5 66.5t-67.5 23.5q-65 0 -88.5 -36.5t-23.5 -108.5t24 -108t88 -36q44 0 66.5 18.5t31.5 62.5l69 -10q-10 -59 -55.5 -94t-111.5 -35z" />
    <glyph glyph-name="ordfeminine" unicode="&#xaa;" horiz-adv-x="520" 
d="M436 386l2 -51q-16 -4 -40 -4q-58 0 -66 48q-32 -54 -115 -54q-48 0 -83 26.5t-35 75.5q0 50 32.5 72.5t86.5 33.5l111 22q0 42 -11 57q-15 22 -58 22t-62.5 -17t-19.5 -53l-67 10q1 63 44 91q37 25 108 25q133 0 133 -114v-168q0 -14 3.5 -20t15.5 -6q10 0 21 4z
M329 466v39l-99 -23q-32 -7 -46.5 -18t-14.5 -37q0 -23 17 -35.5t43 -12.5q50 0 75 24t25 63z" />
    <glyph glyph-name="guillemotleft" unicode="&#xab;" horiz-adv-x="529" 
d="M69 229v92l169 138v-97l-107 -85l107 -86v-98zM440 459v-97l-107 -85l107 -86v-98l-169 136v92z" />
    <glyph glyph-name="logicalnot" unicode="&#xac;" horiz-adv-x="571" 
d="M412 170v167h-332v67h403v-234h-71z" />
    <glyph glyph-name="uni00AD" unicode="&#xad;" horiz-adv-x="508" 
d="M109 243v80h290v-80h-290z" />
    <glyph glyph-name="registered" unicode="&#xae;" horiz-adv-x="627" 
d="M312 712q117 0 196 -79.5t79 -199.5q0 -118 -79 -197.5t-196 -79.5q-115 0 -193.5 79.5t-78.5 197.5q0 120 78.5 199.5t193.5 79.5zM312 196q99 0 164.5 67.5t65.5 169.5q0 103 -65.5 171.5t-164.5 68.5q-98 0 -163 -68.5t-65 -171.5q0 -102 65 -169.5t163 -67.5z
M433 361q0 -56 20 -75v-8h-56q-9 13 -11.5 29t-4.5 57q-1 23 -15.5 31.5t-55.5 8.5h-53v-126h-53v317h130q43 0 74.5 -23t31.5 -72t-41 -74q34 -18 34 -65zM257 451h65q32 0 48.5 10t16.5 39q0 47 -65 47h-65v-96z" />
    <glyph glyph-name="macron" unicode="&#xaf;" horiz-adv-x="472" 
d="M124 639v61h224v-61h-224z" />
    <glyph glyph-name="degree" unicode="&#xb0;" horiz-adv-x="496" 
d="M247 401q-63 0 -106.5 42t-43.5 102t43.5 102.5t106.5 42.5t107 -42.5t44 -102.5t-43.5 -102t-107.5 -42zM247 454q39 0 62 25.5t23 65.5q0 39 -23 65t-62 26q-37 0 -61 -26t-24 -65t24 -65t61 -26z" />
    <glyph glyph-name="plusminus" unicode="&#xb1;" horiz-adv-x="584" 
d="M259 140v170h-191v67h191v171h67v-171h190v-67h-190v-170h-67zM68 0v67h448v-67h-448z" />
    <glyph glyph-name="uni00B2" unicode="&#xb2;" horiz-adv-x="504" 
d="M174 398h237v-68h-323q2 57 24.5 101t47 66t64.5 48l27.5 16.5t32.5 21t25.5 22t22 29.5t6.5 33q0 78 -76 78q-82 0 -82 -102l-74 12q0 26 7 51t23.5 49.5t49.5 39.5t79 15q66 0 105.5 -39.5t39.5 -105.5q0 -38 -20.5 -70.5t-42 -49.5t-56.5 -39t-51.5 -33t-37.5 -32.5
t-28 -42.5z" />
    <glyph glyph-name="uni00B3" unicode="&#xb3;" horiz-adv-x="503" 
d="M347 587q30 -14 48 -44.5t18 -69.5q0 -67 -45 -107.5t-118 -40.5q-74 0 -117 43t-43 115l72 10q0 -49 23 -76t65 -27q43 0 66 21.5t23 60.5q0 72 -85 72h-42v68h33q35 0 55.5 17t20.5 46q0 34 -19.5 53t-53.5 19q-77 0 -77 -94l-76 11q0 61 43.5 103.5t109.5 42.5
q67 0 106.5 -36.5t39.5 -98.5q0 -56 -47 -88z" />
    <glyph glyph-name="acute" unicode="&#xb4;" horiz-adv-x="443" 
d="M139 573l65 127h101l-92 -127h-74z" />
    <glyph glyph-name="uni00B5" unicode="&#xb5;" horiz-adv-x="600" 
d="M425 500h89v-500h-89v75q-41 -87 -155 -87q-59 0 -96 31q2 -32 2 -48v-171h-90v700h90v-294q0 -31 1 -45t7.5 -34.5t20.5 -34.5q30 -29 90 -29q130 0 130 156v281z" />
    <glyph glyph-name="paragraph" unicode="&#xb6;" horiz-adv-x="587" 
d="M274 700h210v-860h-69v792h-89v-792h-70v484q-91 0 -148.5 47.5t-57.5 132.5q0 95 59 145.5t165 50.5z" />
    <glyph glyph-name="periodcentered" unicode="&#xb7;" horiz-adv-x="419" 
d="M155 267v117h111v-117h-111z" />
    <glyph glyph-name="cedilla" unicode="&#xb8;" horiz-adv-x="469" 
d="M225 -207q-52 0 -99 27l20 41q39 -16 73 -16q54 0 54 32q0 30 -51 30q-17 0 -43 -9l-20 25l73 83l54 -6l-52 -50q5 1 18 1q35 0 63.5 -18t28.5 -51q0 -46 -35.5 -67.5t-83.5 -21.5z" />
    <glyph glyph-name="uni00B9" unicode="&#xb9;" horiz-adv-x="442" 
d="M232 330v352q-17 -14 -49.5 -23t-65.5 -8v68q55 0 88.5 22.5t38.5 60.5h62v-472h-74z" />
    <glyph glyph-name="ordmasculine" unicode="&#xba;" horiz-adv-x="521" 
d="M261 325q-81 0 -127 49t-46 133q0 81 47 132t126 51t126.5 -51.5t47.5 -131.5q0 -81 -48 -131.5t-126 -50.5zM261 380q100 0 100 127q0 129 -100 129t-100 -129q0 -127 100 -127z" />
    <glyph glyph-name="guillemotright" unicode="&#xbb;" horiz-adv-x="529" 
d="M89 362v97l169 -138v-92l-169 -136v98l107 86zM291 459l169 -138v-92l-169 -136v98l107 86l-107 85v97z" />
    <glyph glyph-name="onequarter" unicode="&#xbc;" horiz-adv-x="1016" 
d="M231 275v317q-37 -31 -104 -28v61q49 0 79.5 20t35.5 55h56v-425h-67zM199 0l511 700h83l-511 -700h-83zM802 0v96h-178v60l189 269h53v-271h54v-58h-54v-96h-64zM692 153q16 1 50 1h61v101q0 27 2 63q-19 -35 -41 -65l-34 -48q-21 -30 -38 -52z" />
    <glyph glyph-name="onehalf" unicode="&#xbd;" horiz-adv-x="1041" 
d="M206 275v317q-37 -31 -104 -28v61q49 0 79.5 20t35.5 55h56v-425h-67zM710 700h83l-511 -700h-83zM751 61h214v-61h-291q3 73 35 115.5t88 78.5q4 3 24 15t29 19t23 19.5t20 26t6 29.5q0 71 -68 71q-74 0 -74 -92l-67 11q0 53 33 96t111 43q59 0 94.5 -35.5t35.5 -94.5
q0 -49 -28.5 -81t-78.5 -63q-33 -21 -47 -30t-33.5 -28.5t-25.5 -38.5z" />
    <glyph glyph-name="threequarters" unicode="&#xbe;" horiz-adv-x="1067" 
d="M391 403q0 -61 -40.5 -97t-106.5 -36q-67 0 -105.5 38.5t-38.5 103.5l65 9q0 -44 20.5 -68.5t58.5 -24.5q39 0 60 19.5t21 54.5q0 65 -77 65h-38v61h30q31 0 49.5 15.5t18.5 41.5q0 31 -17 48t-48 17q-70 0 -70 -85l-68 10q0 56 39 94t99 38t95.5 -33t35.5 -89
q0 -50 -42 -79q27 -12 43 -40t16 -63zM761 700h83l-511 -700h-83zM918 154h54v-58h-54v-96h-64v96h-178v60l189 269h53v-271zM855 255q0 27 2 63q-19 -35 -41 -65l-34 -48q-21 -30 -38 -52q16 1 50 1h61v101z" />
    <glyph glyph-name="questiondown" unicode="&#xbf;" horiz-adv-x="554" 
d="M321 554v-111h-106v111h106zM317 380v-51q0 -45 -19 -81.5t-67 -80.5q-27 -25 -38.5 -37t-24.5 -36.5t-13 -51.5q0 -125 119 -125q133 0 133 148l89 -15q0 -35 -11 -68.5t-35 -66.5t-70.5 -53t-109.5 -20q-93 0 -148.5 54.5t-55.5 146.5q0 38 13 69.5t28 48.5t46 46
q27 24 40 38.5t26 43t13 62.5v29h85z" />
    <glyph glyph-name="Agrave" unicode="&#xc0;" horiz-adv-x="634" 
d="M356 756h-74l-89 108h100zM522 0l-71 209h-268l-70 -209h-95l250 700h99l249 -700h-94zM210 289h214l-71 211q-28 86 -36 113h-1q-4 -11 -15.5 -49.5t-20.5 -63.5z" />
    <glyph glyph-name="Aacute" unicode="&#xc1;" horiz-adv-x="634" 
d="M444 864l-89 -108h-74l63 108h100zM522 0l-71 209h-268l-70 -209h-95l250 700h99l249 -700h-94zM210 289h214l-71 211q-28 86 -36 113h-1q-4 -11 -15.5 -49.5t-20.5 -63.5z" />
    <glyph glyph-name="Acircumflex" unicode="&#xc2;" horiz-adv-x="634" 
d="M316 812l-58 -56h-75l93 101h83l93 -101h-80zM522 0l-71 209h-268l-70 -209h-95l250 700h99l249 -700h-94zM210 289h214l-71 211q-28 86 -36 113h-1q-4 -11 -15.5 -49.5t-20.5 -63.5z" />
    <glyph glyph-name="Atilde" unicode="&#xc3;" horiz-adv-x="634" 
d="M260 793q-36 0 -41 -38h-55q0 41 27 70q29 31 75 31q26 0 61 -21t50 -21q10 0 16 2t10.5 9.5t6 10.5t5.5 15h59q-7 -51 -30 -73q-27 -26 -67 -26q-31 0 -65.5 20.5t-51.5 20.5zM522 0l-71 209h-268l-70 -209h-95l250 700h99l249 -700h-94zM210 289h214l-71 211
q-28 86 -36 113h-1q-4 -11 -15.5 -49.5t-20.5 -63.5z" />
    <glyph glyph-name="Adieresis" unicode="&#xc4;" horiz-adv-x="634" 
d="M271 853v-97h-83v97h83zM460 853v-97h-83v97h83zM522 0l-71 209h-268l-70 -209h-95l250 700h99l249 -700h-94zM210 289h214l-71 211q-28 86 -36 113h-1q-4 -11 -15.5 -49.5t-20.5 -63.5z" />
    <glyph glyph-name="Aring" unicode="&#xc5;" horiz-adv-x="634" 
d="M318 739q-40 0 -68 27t-28 65t28 65t68 27t68 -27t28 -65t-28 -65t-68 -27zM318 884q-22 0 -36.5 -15.5t-14.5 -37.5q0 -23 14.5 -38.5t36.5 -15.5q23 0 36.5 15t13.5 39q0 22 -13.5 37.5t-36.5 15.5zM522 0l-71 209h-268l-70 -209h-95l250 700h99l249 -700h-94zM210 289
h214l-71 211q-28 86 -36 113h-1q-4 -11 -15.5 -49.5t-20.5 -63.5z" />
    <glyph glyph-name="AE" unicode="&#xc6;" horiz-adv-x="775" 
d="M730 619h-276v-225h245v-81h-245v-232h276v-81h-364v209h-187l-76 -209h-97l267 700h457v-81zM366 289v330h-39l-119 -330h158z" />
    <glyph glyph-name="Ccedilla" unicode="&#xc7;" horiz-adv-x="662" 
d="M632 183q-79 -194 -277 -195l-33 -32q5 1 18 1q35 0 63.5 -18t28.5 -51q0 -46 -35.5 -67.5t-83.5 -21.5q-52 0 -99 27l20 41q39 -16 73 -16q54 0 54 32q0 30 -51 30q-18 0 -43 -9l-20 25l55 62q-122 16 -186 107.5t-64 251.5q0 164 78.5 263t224.5 99q102 0 174.5 -55
t98.5 -159l-99 -19q-15 69 -58 112t-115 43q-101 0 -151 -66t-50 -218q0 -148 47 -215q49 -69 152 -69q130 0 176 143z" />
    <glyph glyph-name="Egrave" unicode="&#xc8;" horiz-adv-x="601" 
d="M362 756h-74l-89 108h100zM97 0v700h446v-81h-356v-225h321v-81h-321v-232h356v-81h-446z" />
    <glyph glyph-name="Eacute" unicode="&#xc9;" horiz-adv-x="601" 
d="M284 756l63 108h100l-89 -108h-74zM97 0v700h446v-81h-356v-225h321v-81h-321v-232h356v-81h-446z" />
    <glyph glyph-name="Ecircumflex" unicode="&#xca;" horiz-adv-x="601" 
d="M190 756l93 101h83l93 -101h-80l-56 56l-58 -56h-75zM97 0v700h446v-81h-356v-225h321v-81h-321v-232h356v-81h-446z" />
    <glyph glyph-name="Edieresis" unicode="&#xcb;" horiz-adv-x="601" 
d="M195 756v97h83v-97h-83zM384 756v97h83v-97h-83zM97 0v700h446v-81h-356v-225h321v-81h-321v-232h356v-81h-446z" />
    <glyph glyph-name="Igrave" unicode="&#xcc;" horiz-adv-x="439" 
d="M258 756h-74l-89 108h100zM348 621h-83v-542h83v-79h-257v79h83v542h-83v79h257v-79z" />
    <glyph glyph-name="Iacute" unicode="&#xcd;" horiz-adv-x="439" 
d="M342 864l-89 -108h-74l63 108h100zM348 621h-83v-542h83v-79h-257v79h83v542h-83v79h257v-79z" />
    <glyph glyph-name="Icircumflex" unicode="&#xce;" horiz-adv-x="439" 
d="M218 812l-58 -56h-75l93 101h83l93 -101h-80zM348 700v-79h-83v-542h83v-79h-257v79h83v542h-83v79h257z" />
    <glyph glyph-name="Idieresis" unicode="&#xcf;" horiz-adv-x="439" 
d="M173 853v-97h-83v97h83zM279 853h83v-97h-83v97zM348 700v-79h-83v-542h83v-79h-257v79h83v542h-83v79h257z" />
    <glyph glyph-name="Eth" unicode="&#xd0;" horiz-adv-x="662" 
d="M321 700q145 0 224.5 -94t79.5 -256q0 -166 -80.5 -258t-224.5 -92h-225v312h-72v77h72v311h226zM477 149q46 70 46 201q0 132 -45 202q-46 70 -167 70h-126v-233h149v-77h-149v-234h126q119 0 166 71z" />
    <glyph glyph-name="Ntilde" unicode="&#xd1;" horiz-adv-x="660" 
d="M391 752q-31 0 -65.5 20.5t-51.5 20.5q-36 0 -41 -38h-55q0 41 27 70q29 31 75 31q26 0 61 -21t50 -21q10 0 16 2t10.5 9.5t6 10.5t5.5 15h59q-7 -51 -30 -73q-27 -26 -67 -26zM76 0v700h100l240 -416q9 -15 83 -156h1q-5 97 -5 176v396h89v-700h-102l-240 421
q-12 22 -81 157h-1q5 -112 5 -177v-401h-89z" />
    <glyph glyph-name="Ograve" unicode="&#xd2;" horiz-adv-x="683" 
d="M383 756h-74l-89 108h100zM343 -12q-145 0 -223 93.5t-78 268.5q0 165 78.5 263.5t222.5 98.5q142 0 220.5 -99t78.5 -263q0 -165 -78.5 -263.5t-220.5 -98.5zM343 66q97 0 144 63q53 70 53 221q0 142 -47 213t-146 71q-104 0 -152 -65q-50 -67 -50 -219q0 -157 49 -219
q51 -65 149 -65z" />
    <glyph glyph-name="Oacute" unicode="&#xd3;" horiz-adv-x="683" 
d="M304 756l63 108h100l-89 -108h-74zM343 -12q-145 0 -223 93.5t-78 268.5q0 165 78.5 263.5t222.5 98.5q142 0 220.5 -99t78.5 -263q0 -165 -78.5 -263.5t-220.5 -98.5zM343 66q97 0 144 63q53 70 53 221q0 142 -47 213t-146 71q-104 0 -152 -65q-50 -67 -50 -219
q0 -157 49 -219q51 -65 149 -65z" />
    <glyph glyph-name="Ocircumflex" unicode="&#xd4;" horiz-adv-x="683" 
d="M210 756l93 101h83l93 -101h-80l-56 56l-58 -56h-75zM343 -12q-145 0 -223 93.5t-78 268.5q0 165 78.5 263.5t222.5 98.5q142 0 220.5 -99t78.5 -263q0 -165 -78.5 -263.5t-220.5 -98.5zM343 66q97 0 144 63q53 70 53 221q0 142 -47 213t-146 71q-104 0 -152 -65
q-50 -67 -50 -219q0 -157 49 -219q51 -65 149 -65z" />
    <glyph glyph-name="Otilde" unicode="&#xd5;" horiz-adv-x="683" 
d="M403 752q-31 0 -65.5 20.5t-51.5 20.5q-36 0 -41 -38h-55q0 41 27 70q29 31 75 31q26 0 61 -21t50 -21q10 0 16 2t10.5 9.5t6 10.5t5.5 15h59q-7 -51 -30 -73q-27 -26 -67 -26zM343 -12q-145 0 -223 93.5t-78 268.5q0 165 78.5 263.5t222.5 98.5q142 0 220.5 -99
t78.5 -263q0 -165 -78.5 -263.5t-220.5 -98.5zM343 66q97 0 144 63q53 70 53 221q0 142 -47 213t-146 71q-104 0 -152 -65q-50 -67 -50 -219q0 -157 49 -219q51 -65 149 -65z" />
    <glyph glyph-name="Odieresis" unicode="&#xd6;" horiz-adv-x="683" 
d="M215 756v97h83v-97h-83zM404 756v97h83v-97h-83zM343 -12q-145 0 -223 93.5t-78 268.5q0 165 78.5 263.5t222.5 98.5q142 0 220.5 -99t78.5 -263q0 -165 -78.5 -263.5t-220.5 -98.5zM343 66q97 0 144 63q53 70 53 221q0 142 -47 213t-146 71q-104 0 -152 -65
q-50 -67 -50 -219q0 -157 49 -219q51 -65 149 -65z" />
    <glyph glyph-name="multiply" unicode="&#xd7;" horiz-adv-x="539" 
d="M131 134l-48 47l140 140l-140 139l47 48l140 -140l140 140l47 -48l-139 -139l139 -140l-48 -47l-139 139z" />
    <glyph glyph-name="Oslash" unicode="&#xd8;" horiz-adv-x="690" 
d="M658 677l-74 -88q62 -94 62 -239q0 -165 -78.5 -263.5t-220.5 -98.5q-128 0 -204 73l-67 -79l-41 35l72 87q-61 91 -61 246q0 165 78.5 263.5t222.5 98.5q124 0 203 -79l66 79zM149 350q0 -103 23 -169l323 386q-49 67 -144 67q-104 0 -152 -65q-50 -67 -50 -219z
M544 350q0 99 -23 164l-322 -385q51 -63 148 -63t144 63q53 70 53 221z" />
    <glyph glyph-name="Ugrave" unicode="&#xd9;" horiz-adv-x="660" 
d="M368 756h-74l-89 108h100zM330 -12q-126 0 -191.5 61.5t-65.5 181.5v469h91v-469q0 -82 46 -122.5t120 -40.5t120 41t46 122v469h91v-469q0 -120 -65.5 -181.5t-191.5 -61.5z" />
    <glyph glyph-name="Uacute" unicode="&#xda;" horiz-adv-x="660" 
d="M289 756l63 108h100l-89 -108h-74zM330 -12q-126 0 -191.5 61.5t-65.5 181.5v469h91v-469q0 -82 46 -122.5t120 -40.5t120 41t46 122v469h91v-469q0 -120 -65.5 -181.5t-191.5 -61.5z" />
    <glyph glyph-name="Ucircumflex" unicode="&#xdb;" horiz-adv-x="660" 
d="M195 756l93 101h83l93 -101h-80l-56 56l-58 -56h-75zM330 -12q-126 0 -191.5 61.5t-65.5 181.5v469h91v-469q0 -82 46 -122.5t120 -40.5t120 41t46 122v469h91v-469q0 -120 -65.5 -181.5t-191.5 -61.5z" />
    <glyph glyph-name="Udieresis" unicode="&#xdc;" horiz-adv-x="660" 
d="M200 756v97h83v-97h-83zM389 756v97h83v-97h-83zM330 -12q-126 0 -191.5 61.5t-65.5 181.5v469h91v-469q0 -82 46 -122.5t120 -40.5t120 41t46 122v469h91v-469q0 -120 -65.5 -181.5t-191.5 -61.5z" />
    <glyph glyph-name="Yacute" unicode="&#xdd;" horiz-adv-x="613" 
d="M266 756l63 108h100l-89 -108h-74zM261 0v299l-241 401h105l111 -200q3 -5 14.5 -27t28.5 -53t27 -50q29 55 70 130l111 200h106l-241 -401v-299h-91z" />
    <glyph glyph-name="Thorn" unicode="&#xde;" horiz-adv-x="623" 
d="M88 0v700h90v-110h136q42 0 75.5 -3.5t72 -16.5t64 -35t42.5 -62t17 -95q0 -53 -17 -91.5t-42.5 -60t-64.5 -33.5t-72 -15.5t-76 -3.5h-135v-174h-90zM178 251h135q31 0 52 1.5t48 8.5t43.5 20t28.5 37.5t12 59.5q0 38 -12 64.5t-28 40t-44.5 20.5t-47.5 8t-51 1h-136
v-261z" />
    <glyph glyph-name="germandbls" unicode="&#xdf;" horiz-adv-x="583" 
d="M385 389q70 -10 110.5 -59t40.5 -126q0 -101 -59 -155.5t-166 -54.5q-32 0 -62 7l2 73q26 -5 58 -5q134 0 134 135q0 145 -158 145h-27v69h28q116 0 116 114q0 49 -27.5 79t-81.5 30q-55 0 -83 -30.5t-28 -83.5v-527h-90v532q0 82 53.5 131t150.5 49q87 0 141.5 -49
t54.5 -126q0 -118 -107 -147v-1z" />
    <glyph glyph-name="agrave" unicode="&#xe0;" horiz-adv-x="580" 
d="M336 573h-74l-92 127h101zM233 -12q-69 0 -118.5 37.5t-49.5 106.5q0 39 14.5 67t41.5 45t53 25.5t61 15.5l165 32q0 67 -17 91q-23 33 -91 33q-65 0 -93.5 -25.5t-28.5 -82.5l-88 12q3 91 62 130q56 37 153 37q190 0 190 -165v-239q0 -16 1 -22t7.5 -11t20.5 -5
q12 0 29 4l2 -74q-25 -4 -56 -4q-83 0 -90 78q-42 -86 -168 -86zM247 60q78 0 115.5 35.5t37.5 93.5v61l-151 -33q-47 -11 -69.5 -28t-22.5 -56q0 -34 26 -53.5t64 -19.5z" />
    <glyph glyph-name="aacute" unicode="&#xe1;" horiz-adv-x="580" 
d="M245 573l65 127h101l-92 -127h-74zM233 -12q-69 0 -118.5 37.5t-49.5 106.5q0 39 14.5 67t41.5 45t53 25.5t61 15.5l165 32q0 67 -17 91q-23 33 -91 33q-65 0 -93.5 -25.5t-28.5 -82.5l-88 12q3 91 62 130q56 37 153 37q190 0 190 -165v-239q0 -16 1 -22t7.5 -11t20.5 -5
q12 0 29 4l2 -74q-25 -4 -56 -4q-83 0 -90 78q-42 -86 -168 -86zM247 60q78 0 115.5 35.5t37.5 93.5v61l-151 -33q-47 -11 -69.5 -28t-22.5 -56q0 -34 26 -53.5t64 -19.5z" />
    <glyph glyph-name="acircumflex" unicode="&#xe2;" horiz-adv-x="580" 
d="M154 585l93 101h83l93 -101h-80l-56 56l-58 -56h-75zM233 -12q-69 0 -118.5 37.5t-49.5 106.5q0 39 14.5 67t41.5 45t53 25.5t61 15.5l165 32q0 67 -17 91q-23 33 -91 33q-65 0 -93.5 -25.5t-28.5 -82.5l-88 12q3 91 62 130q56 37 153 37q190 0 190 -165v-239
q0 -16 1 -22t7.5 -11t20.5 -5q12 0 29 4l2 -74q-25 -4 -56 -4q-83 0 -90 78q-42 -86 -168 -86zM247 60q78 0 115.5 35.5t37.5 93.5v61l-151 -33q-47 -11 -69.5 -28t-22.5 -56q0 -34 26 -53.5t64 -19.5z" />
    <glyph glyph-name="atilde" unicode="&#xe3;" horiz-adv-x="580" 
d="M347 570q-31 0 -65.5 20.5t-51.5 20.5q-36 0 -41 -38h-55q0 41 27 70q29 31 75 31q26 0 61 -21t50 -21q10 0 16 2t10.5 9.5t6 10.5t5.5 15h59q-7 -51 -30 -73q-27 -26 -67 -26zM233 -12q-69 0 -118.5 37.5t-49.5 106.5q0 39 14.5 67t41.5 45t53 25.5t61 15.5l165 32
q0 67 -17 91q-23 33 -91 33q-65 0 -93.5 -25.5t-28.5 -82.5l-88 12q3 91 62 130q56 37 153 37q190 0 190 -165v-239q0 -16 1 -22t7.5 -11t20.5 -5q12 0 29 4l2 -74q-25 -4 -56 -4q-83 0 -90 78q-42 -86 -168 -86zM247 60q78 0 115.5 35.5t37.5 93.5v61l-151 -33
q-47 -11 -69.5 -28t-22.5 -56q0 -34 26 -53.5t64 -19.5z" />
    <glyph glyph-name="adieresis" unicode="&#xe4;" horiz-adv-x="580" 
d="M150 585v97h83v-97h-83zM339 585v97h83v-97h-83zM233 -12q-69 0 -118.5 37.5t-49.5 106.5q0 39 14.5 67t41.5 45t53 25.5t61 15.5l165 32q0 67 -17 91q-23 33 -91 33q-65 0 -93.5 -25.5t-28.5 -82.5l-88 12q3 91 62 130q56 37 153 37q190 0 190 -165v-239q0 -16 1 -22
t7.5 -11t20.5 -5q12 0 29 4l2 -74q-25 -4 -56 -4q-83 0 -90 78q-42 -86 -168 -86zM247 60q78 0 115.5 35.5t37.5 93.5v61l-151 -33q-47 -11 -69.5 -28t-22.5 -56q0 -34 26 -53.5t64 -19.5z" />
    <glyph glyph-name="aring" unicode="&#xe5;" horiz-adv-x="580" 
d="M289 553q-40 0 -68 27t-28 65t28 65t68 27t68 -27t28 -65t-28 -65t-68 -27zM289 591q23 0 36.5 15t13.5 39q0 22 -13.5 37.5t-36.5 15.5q-22 0 -36.5 -15.5t-14.5 -37.5q0 -23 14.5 -38.5t36.5 -15.5zM233 -12q-69 0 -118.5 37.5t-49.5 106.5q0 39 14.5 67t41.5 45
t53 25.5t61 15.5l165 32q0 67 -17 91q-23 33 -91 33q-65 0 -93.5 -25.5t-28.5 -82.5l-88 12q3 91 62 130q56 37 153 37q190 0 190 -165v-239q0 -16 1 -22t7.5 -11t20.5 -5q12 0 29 4l2 -74q-25 -4 -56 -4q-83 0 -90 78q-42 -86 -168 -86zM247 60q78 0 115.5 35.5t37.5 93.5
v61l-151 -33q-47 -11 -69.5 -28t-22.5 -56q0 -34 26 -53.5t64 -19.5z" />
    <glyph glyph-name="ae" unicode="&#xe6;" horiz-adv-x="745" 
d="M191 -12q-68 0 -116 35t-48 109q0 73 43.5 106t128.5 54l113 25q0 74 -14 95q-17 29 -72 29q-98 0 -95 -102l-86 12q1 88 58 129q47 32 126 32q104 0 143 -70q56 70 149 70q49 0 91 -22t66 -62q40 -69 40 -179q0 -5 -0.5 -14t-0.5 -12h-314q1 -163 113 -163q98 0 112 109
l84 -7q-30 -174 -196 -174q-109 0 -159 86q-50 -86 -166 -86zM404 296h227q-2 58 -22 94q-28 49 -90 49q-68 0 -94 -49q-21 -37 -21 -94zM194 60q59 0 88.5 34t29.5 90v65l-103 -25q-48 -13 -69.5 -32t-21.5 -59q0 -34 21 -53.5t55 -19.5z" />
    <glyph glyph-name="ccedilla" unicode="&#xe7;" horiz-adv-x="576" 
d="M528 153q-13 -72 -67.5 -115.5t-135.5 -48.5l-40 -39q5 1 18 1q35 0 63.5 -18t28.5 -51q0 -46 -35.5 -67.5t-83.5 -21.5q-52 0 -99 27l20 41q39 -16 73 -16q54 0 54 32q0 30 -51 30q-17 0 -43 -9l-20 25l59 67q-99 11 -154.5 79.5t-55.5 180.5q0 117 67.5 189.5
t180.5 72.5q91 0 147 -47.5t72 -123.5l-84 -16q-14 52 -44 83.5t-91 31.5q-85 0 -117 -49t-32 -141q0 -93 32 -141.5t117 -48.5q58 0 90 24t46 78z" />
    <glyph glyph-name="egrave" unicode="&#xe8;" horiz-adv-x="585" 
d="M342 573h-74l-92 127h101zM490 413q48 -77 42 -190h-379q3 -163 142 -163q125 0 143 112l87 -7q-16 -87 -74.5 -132t-154.5 -45q-116 0 -180 73q-61 68 -61 190q0 115 63 186q66 75 177 75q61 0 113 -25.5t82 -73.5zM296 439q-85 0 -118 -54q-24 -40 -24 -89h286
q-2 51 -27 89q-37 54 -117 54z" />
    <glyph glyph-name="eacute" unicode="&#xe9;" horiz-adv-x="585" 
d="M417 700l-92 -127h-74l65 127h101zM490 413q48 -77 42 -190h-379q3 -163 142 -163q125 0 143 112l87 -7q-16 -87 -74.5 -132t-154.5 -45q-116 0 -180 73q-61 68 -61 190q0 115 63 186q66 75 177 75q61 0 113 -25.5t82 -73.5zM296 439q-85 0 -118 -54q-24 -40 -24 -89h286
q-2 51 -27 89q-37 54 -117 54z" />
    <glyph glyph-name="ecircumflex" unicode="&#xea;" horiz-adv-x="585" 
d="M293 641l-58 -56h-75l93 101h83l93 -101h-80zM490 413q48 -77 42 -190h-379q3 -163 142 -163q125 0 143 112l87 -7q-16 -87 -74.5 -132t-154.5 -45q-116 0 -180 73q-61 68 -61 190q0 115 63 186q66 75 177 75q61 0 113 -25.5t82 -73.5zM296 439q-85 0 -118 -54
q-24 -40 -24 -89h286q-2 51 -27 89q-37 54 -117 54z" />
    <glyph glyph-name="edieresis" unicode="&#xeb;" horiz-adv-x="585" 
d="M242 682v-97h-83v97h83zM431 682v-97h-83v97h83zM490 413q48 -77 42 -190h-379q3 -163 142 -163q125 0 143 112l87 -7q-16 -87 -74.5 -132t-154.5 -45q-116 0 -180 73q-61 68 -61 190q0 115 63 186q66 75 177 75q61 0 113 -25.5t82 -73.5zM296 439q-85 0 -118 -54
q-24 -40 -24 -89h286q-2 51 -27 89q-37 54 -117 54z" />
    <glyph glyph-name="igrave" unicode="&#xec;" horiz-adv-x="421" 
d="M257 573h-74l-92 127h101zM270 76h92v-76h-281v76h99v348h-85v76h175v-424z" />
    <glyph glyph-name="iacute" unicode="&#xed;" horiz-adv-x="421" 
d="M349 700l-92 -127h-74l65 127h101zM270 76h92v-76h-281v76h99v348h-85v76h175v-424z" />
    <glyph glyph-name="icircumflex" unicode="&#xee;" horiz-adv-x="421" 
d="M221 641l-58 -56h-75l93 101h83l93 -101h-80zM270 76h92v-76h-281v76h99v348h-85v76h175v-424z" />
    <glyph glyph-name="idieresis" unicode="&#xef;" horiz-adv-x="421" 
d="M171 682v-97h-83v97h83zM360 682v-97h-83v97h83zM270 76h92v-76h-281v76h99v348h-85v76h175v-424z" />
    <glyph glyph-name="eth" unicode="&#xf0;" horiz-adv-x="597" 
d="M437 581q112 -126 112 -331q0 -118 -68.5 -190t-180.5 -72q-117 0 -183.5 70t-66.5 192q0 116 68 189t182 73q54 0 98 -18q-23 41 -55 73q-15 15 -24 22l-131 -40l-14 46l102 31q-47 37 -84 60l65 45q50 -30 106 -78l102 31l14 -46l-74 -23q24 -24 32 -34zM300 59
q81 0 116.5 49t35.5 142q0 94 -35 142.5t-117 48.5q-83 0 -118 -48.5t-35 -142.5t35 -142.5t118 -48.5z" />
    <glyph glyph-name="ntilde" unicode="&#xf1;" horiz-adv-x="590" 
d="M241 611q-36 0 -41 -38h-55q0 41 27 70q29 31 75 31q27 0 62 -21t49 -21q10 0 16 2t10.5 9.5t6 10.5t5.5 15h59q-7 -51 -30 -73q-27 -26 -67 -26q-31 0 -65.5 20.5t-51.5 20.5zM476 456q39 -42 39 -159v-297h-93v292q0 32 -1 46t-8 35t-21 35q-29 29 -89 29
q-21 0 -40 -5.5t-41 -20.5t-35.5 -50t-13.5 -85v-276h-90v500h90v-76q39 88 154 88q96 0 149 -56z" />
    <glyph glyph-name="ograve" unicode="&#xf2;" horiz-adv-x="596" 
d="M348 573h-74l-92 127h101zM299 -12q-117 0 -183.5 70t-66.5 192q0 116 68 189t182 73q113 0 181 -73.5t68 -188.5q0 -118 -68.5 -190t-180.5 -72zM299 59q81 0 116.5 49t35.5 142t-35.5 142t-116.5 49q-83 0 -118 -48.5t-35 -142.5t35 -142.5t118 -48.5z" />
    <glyph glyph-name="oacute" unicode="&#xf3;" horiz-adv-x="596" 
d="M257 573l65 127h101l-92 -127h-74zM299 -12q-117 0 -183.5 70t-66.5 192q0 116 68 189t182 73q113 0 181 -73.5t68 -188.5q0 -118 -68.5 -190t-180.5 -72zM299 59q81 0 116.5 49t35.5 142t-35.5 142t-116.5 49q-83 0 -118 -48.5t-35 -142.5t35 -142.5t118 -48.5z" />
    <glyph glyph-name="ocircumflex" unicode="&#xf4;" horiz-adv-x="596" 
d="M166 585l93 101h83l93 -101h-80l-56 56l-58 -56h-75zM299 -12q-117 0 -183.5 70t-66.5 192q0 116 68 189t182 73q113 0 181 -73.5t68 -188.5q0 -118 -68.5 -190t-180.5 -72zM299 59q81 0 116.5 49t35.5 142t-35.5 142t-116.5 49q-83 0 -118 -48.5t-35 -142.5t35 -142.5
t118 -48.5z" />
    <glyph glyph-name="otilde" unicode="&#xf5;" horiz-adv-x="596" 
d="M359 570q-31 0 -65.5 20.5t-51.5 20.5q-36 0 -41 -38h-55q0 41 27 70q29 31 75 31q26 0 61 -21t50 -21q10 0 16 2t10.5 9.5t6 10.5t5.5 15h59q-7 -51 -30 -73q-27 -26 -67 -26zM299 -12q-117 0 -183.5 70t-66.5 192q0 116 68 189t182 73q113 0 181 -73.5t68 -188.5
q0 -118 -68.5 -190t-180.5 -72zM299 59q81 0 116.5 49t35.5 142t-35.5 142t-116.5 49q-83 0 -118 -48.5t-35 -142.5t35 -142.5t118 -48.5z" />
    <glyph glyph-name="odieresis" unicode="&#xf6;" horiz-adv-x="596" 
d="M165 585v97h83v-97h-83zM354 585v97h83v-97h-83zM299 -12q-117 0 -183.5 70t-66.5 192q0 116 68 189t182 73q113 0 181 -73.5t68 -188.5q0 -118 -68.5 -190t-180.5 -72zM299 59q81 0 116.5 49t35.5 142t-35.5 142t-116.5 49q-83 0 -118 -48.5t-35 -142.5t35 -142.5
t118 -48.5z" />
    <glyph glyph-name="divide" unicode="&#xf7;" horiz-adv-x="581" 
d="M239 447v115h109v-115h-109zM63 287v67h454v-67h-454zM239 83v115h109v-115h-109z" />
    <glyph glyph-name="oslash" unicode="&#xf8;" horiz-adv-x="599" 
d="M492 428q58 -72 58 -178q0 -118 -68.5 -190t-180.5 -72q-104 0 -168 55l-53 -57l-32 29l55 59q-52 67 -52 176q0 116 68 189t182 73q93 0 160 -53l56 60l32 -30zM148 250q0 -68 17 -110l244 263q-38 38 -108 38q-83 0 -118 -48.5t-35 -142.5zM301 59q81 0 116.5 49
t35.5 142q0 72 -20 115l-245 -263q37 -43 113 -43z" />
    <glyph glyph-name="ugrave" unicode="&#xf9;" horiz-adv-x="590" 
d="M343 573h-74l-92 127h101zM419 500h90v-500h-90v75q-41 -87 -154 -87q-95 0 -148 56q-18 19 -27.5 49t-11 51.5t-1.5 56.5v299h93v-294q0 -31 1 -45t7.5 -34.5t20.5 -34.5q30 -29 91 -29q129 0 129 156v281z" />
    <glyph glyph-name="uacute" unicode="&#xfa;" horiz-adv-x="590" 
d="M418 700l-92 -127h-74l65 127h101zM419 500h90v-500h-90v75q-41 -87 -154 -87q-95 0 -148 56q-18 19 -27.5 49t-11 51.5t-1.5 56.5v299h93v-294q0 -31 1 -45t7.5 -34.5t20.5 -34.5q30 -29 91 -29q129 0 129 156v281z" />
    <glyph glyph-name="ucircumflex" unicode="&#xfb;" horiz-adv-x="590" 
d="M294 641l-58 -56h-75l93 101h83l93 -101h-80zM419 500h90v-500h-90v75q-41 -87 -154 -87q-95 0 -148 56q-18 19 -27.5 49t-11 51.5t-1.5 56.5v299h93v-294q0 -31 1 -45t7.5 -34.5t20.5 -34.5q30 -29 91 -29q129 0 129 156v281z" />
    <glyph glyph-name="udieresis" unicode="&#xfc;" horiz-adv-x="590" 
d="M243 682v-97h-83v97h83zM432 682v-97h-83v97h83zM419 500h90v-500h-90v75q-41 -87 -154 -87q-95 0 -148 56q-18 19 -27.5 49t-11 51.5t-1.5 56.5v299h93v-294q0 -31 1 -45t7.5 -34.5t20.5 -34.5q30 -29 91 -29q129 0 129 156v281z" />
    <glyph glyph-name="yacute" unicode="&#xfd;" horiz-adv-x="552" 
d="M394 700l-92 -127h-74l65 127h101zM420 500h94l-204 -546q-32 -86 -64.5 -122.5t-82.5 -36.5q-42 0 -78 10l2 84q33 -11 64 -11q26 0 42.5 26.5t45.5 100.5l-195 495h96l95 -270q15 -44 44 -133q23 70 45 133z" />
    <glyph glyph-name="thorn" unicode="&#xfe;" horiz-adv-x="601" 
d="M329 512q102 0 166 -71t64 -191q0 -118 -62.5 -190t-164.5 -72q-106 0 -161 77v-265h-90v900h90v-273q55 85 158 85zM311 60q81 0 115 47.5t34 142.5t-32 143t-115 48q-145 0 -145 -190q0 -39 5.5 -69.5t20 -60t44 -45.5t73.5 -16z" />
    <glyph glyph-name="ydieresis" unicode="&#xff;" horiz-adv-x="552" 
d="M228 682v-97h-83v97h83zM417 682v-97h-83v97h83zM420 500h94l-204 -546q-32 -86 -64.5 -122.5t-82.5 -36.5q-42 0 -78 10l2 84q33 -11 64 -11q26 0 42.5 26.5t45.5 100.5l-195 495h96l95 -270q15 -44 44 -133q23 70 45 133z" />
    <glyph glyph-name="Amacron" unicode="&#x100;" horiz-adv-x="634" 
d="M446 838v-70h-256v70h256zM522 0l-71 209h-268l-70 -209h-95l250 700h99l249 -700h-94zM210 289h214l-71 211q-28 86 -36 113h-1q-4 -11 -15.5 -49.5t-20.5 -63.5z" />
    <glyph glyph-name="amacron" unicode="&#x101;" horiz-adv-x="580" 
d="M161 597v70h256v-70h-256zM233 -12q-69 0 -118.5 37.5t-49.5 106.5q0 39 14.5 67t41.5 45t53 25.5t61 15.5l165 32q0 67 -17 91q-23 33 -91 33q-65 0 -93.5 -25.5t-28.5 -82.5l-88 12q3 91 62 130q56 37 153 37q190 0 190 -165v-239q0 -16 1 -22t7.5 -11t20.5 -5
q12 0 29 4l2 -74q-25 -4 -56 -4q-83 0 -90 78q-42 -86 -168 -86zM247 60q78 0 115.5 35.5t37.5 93.5v61l-151 -33q-47 -11 -69.5 -28t-22.5 -56q0 -34 26 -53.5t64 -19.5z" />
    <glyph glyph-name="Abreve" unicode="&#x102;" horiz-adv-x="634" 
d="M319 750q-50 0 -84.5 31.5t-36.5 83.5h62q7 -50 58 -50q55 0 62 50h60q-2 -49 -36 -82t-85 -33zM522 0l-71 209h-268l-70 -209h-95l250 700h99l249 -700h-94zM210 289h214l-71 211q-28 86 -36 113h-1q-4 -11 -15.5 -49.5t-20.5 -63.5z" />
    <glyph glyph-name="abreve" unicode="&#x103;" horiz-adv-x="580" 
d="M289 585q-50 0 -84.5 31.5t-36.5 83.5h62q7 -50 58 -50q55 0 62 50h60q-2 -49 -36 -82t-85 -33zM233 -12q-69 0 -118.5 37.5t-49.5 106.5q0 39 14.5 67t41.5 45t53 25.5t61 15.5l165 32q0 67 -17 91q-23 33 -91 33q-65 0 -93.5 -25.5t-28.5 -82.5l-88 12q3 91 62 130
q56 37 153 37q190 0 190 -165v-239q0 -16 1 -22t7.5 -11t20.5 -5q12 0 29 4l2 -74q-25 -4 -56 -4q-83 0 -90 78q-42 -86 -168 -86zM247 60q78 0 115.5 35.5t37.5 93.5v61l-151 -33q-47 -11 -69.5 -28t-22.5 -56q0 -34 26 -53.5t64 -19.5z" />
    <glyph glyph-name="Aogonek" unicode="&#x104;" horiz-adv-x="633" 
d="M635 -110l3 -63q-26 -8 -56 -8q-52 0 -78 23.5t-26 60.5q0 57 75 97h-31l-71 209h-268l-70 -209h-95l250 700h99l249 -700q-60 -49 -60 -84q0 -33 41 -33q21 0 38 7zM210 289h214l-71 211q-28 86 -36 113h-1q-4 -11 -15.5 -49.5t-20.5 -63.5z" />
    <glyph glyph-name="aogonek" unicode="&#x105;" horiz-adv-x="580" 
d="M552 -110l3 -62q-36 -9 -56 -9q-52 0 -78 23.5t-26 60.5q0 56 71 95q-59 11 -65 76q-42 -86 -168 -86q-69 0 -118.5 37.5t-49.5 106.5q0 39 14.5 67t41.5 45t53 25.5t61 15.5l165 32q0 67 -17 91q-23 33 -91 33q-65 0 -93.5 -25.5t-28.5 -82.5l-88 12q3 91 62 130
q56 37 153 37q190 0 190 -165v-239q0 -16 1 -22t7.5 -11t20.5 -5q12 0 29 4l2 -74q-29 -14 -51.5 -38.5t-22.5 -45.5q0 -33 41 -33q20 0 38 7zM400 189v61l-151 -33q-47 -11 -69.5 -28t-22.5 -56q0 -34 26 -53.5t64 -19.5q78 0 115.5 35.5t37.5 93.5z" />
    <glyph glyph-name="Cacute" unicode="&#x106;" horiz-adv-x="662" 
d="M313 756l63 108h100l-89 -108h-74zM353 -12q-146 0 -223.5 93t-77.5 269q0 164 78.5 263t224.5 99q102 0 174.5 -55t98.5 -159l-99 -19q-15 69 -58 112t-115 43q-101 0 -151 -66t-50 -218q0 -148 47 -215q49 -69 152 -69q130 0 176 143l102 -26q-79 -195 -279 -195z" />
    <glyph glyph-name="cacute" unicode="&#x107;" horiz-adv-x="576" 
d="M260 573l65 127h101l-92 -127h-74zM307 -12q-115 0 -181.5 69.5t-66.5 192.5q0 117 67.5 189.5t180.5 72.5q91 0 147 -47.5t72 -123.5l-84 -16q-14 52 -44 83.5t-91 31.5q-85 0 -117 -49t-32 -141q0 -93 32 -141.5t117 -48.5q58 0 90 24t46 78l85 -9
q-13 -76 -73.5 -120.5t-147.5 -44.5z" />
    <glyph glyph-name="Ccircumflex" unicode="&#x108;" horiz-adv-x="662" 
d="M219 756l93 101h83l93 -101h-80l-56 56l-58 -56h-75zM353 -12q-146 0 -223.5 93t-77.5 269q0 164 78.5 263t224.5 99q102 0 174.5 -55t98.5 -159l-99 -19q-15 69 -58 112t-115 43q-101 0 -151 -66t-50 -218q0 -148 47 -215q49 -69 152 -69q130 0 176 143l102 -26
q-79 -195 -279 -195z" />
    <glyph glyph-name="ccircumflex" unicode="&#x109;" horiz-adv-x="576" 
d="M168 585l93 101h83l93 -101h-80l-56 56l-58 -56h-75zM307 -12q-115 0 -181.5 69.5t-66.5 192.5q0 117 67.5 189.5t180.5 72.5q91 0 147 -47.5t72 -123.5l-84 -16q-14 52 -44 83.5t-91 31.5q-85 0 -117 -49t-32 -141q0 -93 32 -141.5t117 -48.5q58 0 90 24t46 78l85 -9
q-13 -76 -73.5 -120.5t-147.5 -44.5z" />
    <glyph glyph-name="Cdotaccent" unicode="&#x10a;" horiz-adv-x="662" 
d="M309 756v106h90v-106h-90zM353 -12q-146 0 -223.5 93t-77.5 269q0 164 78.5 263t224.5 99q102 0 174.5 -55t98.5 -159l-99 -19q-15 69 -58 112t-115 43q-101 0 -151 -66t-50 -218q0 -148 47 -215q49 -69 152 -69q130 0 176 143l102 -26q-79 -195 -279 -195z" />
    <glyph glyph-name="cdotaccent" unicode="&#x10b;" horiz-adv-x="576" 
d="M259 594v106h90v-106h-90zM307 -12q-115 0 -181.5 69.5t-66.5 192.5q0 117 67.5 189.5t180.5 72.5q91 0 147 -47.5t72 -123.5l-84 -16q-14 52 -44 83.5t-91 31.5q-85 0 -117 -49t-32 -141q0 -93 32 -141.5t117 -48.5q58 0 90 24t46 78l85 -9q-13 -76 -73.5 -120.5
t-147.5 -44.5z" />
    <glyph glyph-name="Ccaron" unicode="&#x10c;" horiz-adv-x="662" 
d="M219 857h75l58 -56l56 56h80l-93 -101h-83zM353 -12q-146 0 -223.5 93t-77.5 269q0 164 78.5 263t224.5 99q102 0 174.5 -55t98.5 -159l-99 -19q-15 69 -58 112t-115 43q-101 0 -151 -66t-50 -218q0 -148 47 -215q49 -69 152 -69q130 0 176 143l102 -26
q-79 -195 -279 -195z" />
    <glyph glyph-name="ccaron" unicode="&#x10d;" horiz-adv-x="576" 
d="M168 686h75l58 -56l56 56h80l-93 -101h-83zM307 -12q-115 0 -181.5 69.5t-66.5 192.5q0 117 67.5 189.5t180.5 72.5q91 0 147 -47.5t72 -123.5l-84 -16q-14 52 -44 83.5t-91 31.5q-85 0 -117 -49t-32 -141q0 -93 32 -141.5t117 -48.5q58 0 90 24t46 78l85 -9
q-13 -76 -73.5 -120.5t-147.5 -44.5z" />
    <glyph glyph-name="Dcaron" unicode="&#x10e;" horiz-adv-x="658" 
d="M171 857h75l58 -56l56 56h80l-93 -101h-83zM87 0v700h226q145 0 224.5 -94t79.5 -256q0 -166 -80.5 -258t-224.5 -92h-225zM177 78h126q119 0 166 71q46 70 46 201q0 132 -45 202q-46 70 -167 70h-126v-544z" />
    <glyph glyph-name="dcaron" unicode="&#x10f;" horiz-adv-x="611" 
d="M433 435v265h90v-700h-90v73q-55 -85 -158 -85q-102 0 -166 71t-64 191q0 118 62.5 190t164.5 72q106 0 161 -77zM579 700h90v-75q0 -82 -91 -87v37q46 6 46 45h-45v80zM291 59q145 0 145 190q0 39 -5.5 69.5t-20 60t-44 45.5t-73.5 16q-81 0 -115 -47.5t-34 -142.5
t32 -143t115 -48z" />
    <glyph glyph-name="Dcroat" unicode="&#x110;" horiz-adv-x="662" 
d="M321 700q145 0 224.5 -94t79.5 -256q0 -166 -80.5 -258t-224.5 -92h-225v312h-72v77h72v311h226zM477 149q46 70 46 201q0 132 -45 202q-46 70 -167 70h-126v-233h149v-77h-149v-234h126q119 0 166 71z" />
    <glyph glyph-name="dcroat" unicode="&#x111;" horiz-adv-x="601" 
d="M593 624v-64h-72v-560h-90v73q-55 -85 -158 -85q-102 0 -166 71t-64 191q0 118 62.5 190t164.5 72q106 0 161 -77v125h-150v64h150v76h90v-76h72zM289 59q145 0 145 190q0 39 -5.5 69.5t-20 60t-44 45.5t-73.5 16q-81 0 -115 -47.5t-34 -142.5t32 -143t115 -48z" />
    <glyph glyph-name="Emacron" unicode="&#x112;" horiz-adv-x="601" 
d="M197 768v70h256v-70h-256zM97 0v700h446v-81h-356v-225h321v-81h-321v-232h356v-81h-446z" />
    <glyph glyph-name="emacron" unicode="&#x113;" horiz-adv-x="585" 
d="M423 667v-70h-256v70h256zM490 413q48 -77 42 -190h-379q3 -163 142 -163q125 0 143 112l87 -7q-16 -87 -74.5 -132t-154.5 -45q-116 0 -180 73q-61 68 -61 190q0 115 63 186q66 75 177 75q61 0 113 -25.5t82 -73.5zM296 439q-85 0 -118 -54q-24 -40 -24 -89h286
q-2 51 -27 89q-37 54 -117 54z" />
    <glyph glyph-name="Ebreve" unicode="&#x114;" horiz-adv-x="601" 
d="M325 750q-50 0 -84.5 31.5t-36.5 83.5h62q7 -50 58 -50q55 0 62 50h60q-2 -49 -36 -82t-85 -33zM97 0v700h446v-81h-356v-225h321v-81h-321v-232h356v-81h-446z" />
    <glyph glyph-name="ebreve" unicode="&#x115;" horiz-adv-x="585" 
d="M295 585q-50 0 -84.5 31.5t-36.5 83.5h62q7 -50 58 -50q55 0 62 50h60q-2 -49 -36 -82t-85 -33zM490 413q48 -77 42 -190h-379q3 -163 142 -163q125 0 143 112l87 -7q-16 -87 -74.5 -132t-154.5 -45q-116 0 -180 73q-61 68 -61 190q0 115 63 186q66 75 177 75
q61 0 113 -25.5t82 -73.5zM296 439q-85 0 -118 -54q-24 -40 -24 -89h286q-2 51 -27 89q-37 54 -117 54z" />
    <glyph glyph-name="Edotaccent" unicode="&#x116;" horiz-adv-x="601" 
d="M280 756v106h90v-106h-90zM97 0v700h446v-81h-356v-225h321v-81h-321v-232h356v-81h-446z" />
    <glyph glyph-name="edotaccent" unicode="&#x117;" horiz-adv-x="585" 
d="M340 700v-106h-90v106h90zM490 413q48 -77 42 -190h-379q3 -163 142 -163q125 0 143 112l87 -7q-16 -87 -74.5 -132t-154.5 -45q-116 0 -180 73q-61 68 -61 190q0 115 63 186q66 75 177 75q61 0 113 -25.5t82 -73.5zM296 439q-85 0 -118 -54q-24 -40 -24 -89h286
q-2 51 -27 89q-37 54 -117 54z" />
    <glyph glyph-name="Eogonek" unicode="&#x118;" horiz-adv-x="601" 
d="M562 -110l3 -63q-26 -8 -56 -8q-52 0 -78 23.5t-26 60.5q0 57 75 97h-383v700h446v-81h-356v-225h321v-81h-321v-232h356v-81q-60 -49 -60 -84q0 -33 41 -33q20 0 38 7z" />
    <glyph glyph-name="eogonek" unicode="&#x119;" horiz-adv-x="585" 
d="M490 413q48 -77 42 -190h-379q3 -163 142 -163q125 0 143 112l87 -7q-20 -107 -102 -150q-92 -59 -92 -99q0 -33 41 -33q19 0 38 7l3 -63q-26 -8 -56 -8q-52 0 -78 23.5t-26 60.5q0 47 56 85h-13q-116 0 -180 73q-61 68 -61 190q0 115 63 186q66 75 177 75
q61 0 113 -25.5t82 -73.5zM296 439q-85 0 -118 -54q-24 -40 -24 -89h286q-2 51 -27 89q-37 54 -117 54z" />
    <glyph glyph-name="Ecaron" unicode="&#x11a;" horiz-adv-x="601" 
d="M190 857h75l58 -56l56 56h80l-93 -101h-83zM97 0v700h446v-81h-356v-225h321v-81h-321v-232h356v-81h-446z" />
    <glyph glyph-name="ecaron" unicode="&#x11b;" horiz-adv-x="585" 
d="M336 585h-83l-93 101h75l58 -56l56 56h80zM490 413q48 -77 42 -190h-379q3 -163 142 -163q125 0 143 112l87 -7q-16 -87 -74.5 -132t-154.5 -45q-116 0 -180 73q-61 68 -61 190q0 115 63 186q66 75 177 75q61 0 113 -25.5t82 -73.5zM296 439q-85 0 -118 -54
q-24 -40 -24 -89h286q-2 51 -27 89q-37 54 -117 54z" />
    <glyph glyph-name="Gcircumflex" unicode="&#x11c;" horiz-adv-x="677" 
d="M217 754l93 101h83l93 -101h-80l-56 56l-58 -56h-75zM355 371h268v-371h-73l-8 90q-64 -102 -197 -102q-145 0 -222.5 93t-77.5 269q0 165 78 263.5t224 98.5q103 0 173 -54t97 -158l-98 -19q-36 153 -170 153q-104 0 -154 -68q-49 -71 -49 -216q0 -151 45 -215
q50 -69 164 -69q86 0 132.5 56.5t49.5 163.5h-182v85z" />
    <glyph glyph-name="gcircumflex" unicode="&#x11d;" horiz-adv-x="600" 
d="M296 641l-58 -56h-75l93 101h83l93 -101h-80zM437 500h90v-489q0 -100 -64.5 -158t-175.5 -58q-54 0 -99 15t-78.5 54.5t-35.5 99.5l86 6q3 -59 37.5 -82t99.5 -23q63 0 101.5 37t38.5 103v85q-55 -86 -158 -86t-166 71t-63 188q0 111 62.5 180t163.5 69q107 0 161 -82
v70zM293 76q79 0 113.5 53.5t34.5 133.5q0 177 -146 177q-80 0 -113.5 -45.5t-33.5 -131.5q0 -94 31.5 -140.5t113.5 -46.5z" />
    <glyph glyph-name="Gbreve" unicode="&#x11e;" horiz-adv-x="677" 
d="M353 748q-50 0 -84.5 31.5t-36.5 83.5h62q7 -50 58 -50q55 0 62 50h60q-2 -49 -36 -82t-85 -33zM355 371h268v-371h-73l-8 90q-64 -102 -197 -102q-145 0 -222.5 93t-77.5 269q0 165 78 263.5t224 98.5q103 0 173 -54t97 -158l-98 -19q-36 153 -170 153q-104 0 -154 -68
q-49 -71 -49 -216q0 -151 45 -215q50 -69 164 -69q86 0 132.5 56.5t49.5 163.5h-182v85z" />
    <glyph glyph-name="gbreve" unicode="&#x11f;" horiz-adv-x="600" 
d="M299 585q-50 0 -84.5 31.5t-36.5 83.5h62q7 -50 58 -50q55 0 62 50h60q-2 -49 -36 -82t-85 -33zM437 500h90v-489q0 -100 -64.5 -158t-175.5 -58q-54 0 -99 15t-78.5 54.5t-35.5 99.5l86 6q3 -59 37.5 -82t99.5 -23q63 0 101.5 37t38.5 103v85q-55 -86 -158 -86t-166 71
t-63 188q0 111 62.5 180t163.5 69q107 0 161 -82v70zM293 76q79 0 113.5 53.5t34.5 133.5q0 177 -146 177q-80 0 -113.5 -45.5t-33.5 -131.5q0 -94 31.5 -140.5t113.5 -46.5z" />
    <glyph glyph-name="Gdotaccent" unicode="&#x120;" horiz-adv-x="677" 
d="M308 754v106h90v-106h-90zM355 371h268v-371h-73l-8 90q-64 -102 -197 -102q-145 0 -222.5 93t-77.5 269q0 165 78 263.5t224 98.5q103 0 173 -54t97 -158l-98 -19q-36 153 -170 153q-104 0 -154 -68q-49 -71 -49 -216q0 -151 45 -215q50 -69 164 -69q86 0 132.5 56.5
t49.5 163.5h-182v85z" />
    <glyph glyph-name="gdotaccent" unicode="&#x121;" horiz-adv-x="600" 
d="M344 700v-106h-90v106h90zM437 500h90v-489q0 -100 -64.5 -158t-175.5 -58q-54 0 -99 15t-78.5 54.5t-35.5 99.5l86 6q3 -59 37.5 -82t99.5 -23q63 0 101.5 37t38.5 103v85q-55 -86 -158 -86t-166 71t-63 188q0 111 62.5 180t163.5 69q107 0 161 -82v70zM293 76
q79 0 113.5 53.5t34.5 133.5q0 177 -146 177q-80 0 -113.5 -45.5t-33.5 -131.5q0 -94 31.5 -140.5t113.5 -46.5z" />
    <glyph glyph-name="uni0122" unicode="&#x122;" horiz-adv-x="677" 
d="M355 371h268v-371h-73l-8 90q-64 -102 -197 -102q-145 0 -222.5 93t-77.5 269q0 165 78 263.5t224 98.5q103 0 173 -54t97 -158l-98 -19q-36 153 -170 153q-104 0 -154 -68q-49 -71 -49 -216q0 -151 45 -215q50 -69 164 -69q86 0 132.5 56.5t49.5 163.5h-182v85z
M293 -237v39q48 6 48 47h-47v85h95v-79q0 -87 -96 -92z" />
    <glyph glyph-name="uni0123" unicode="&#x123;" horiz-adv-x="600" 
d="M337 658v-85h-95v79q0 87 96 92v-39q-48 -6 -48 -47h47zM437 500h90v-489q0 -100 -64.5 -158t-175.5 -58q-54 0 -99 15t-78.5 54.5t-35.5 99.5l86 6q3 -59 37.5 -82t99.5 -23q63 0 101.5 37t38.5 103v85q-55 -86 -158 -86t-166 71t-63 188q0 111 62.5 180t163.5 69
q107 0 161 -82v70zM293 76q79 0 113.5 53.5t34.5 133.5q0 177 -146 177q-80 0 -113.5 -45.5t-33.5 -131.5q0 -94 31.5 -140.5t113.5 -46.5z" />
    <glyph glyph-name="Hcircumflex" unicode="&#x124;" horiz-adv-x="660" 
d="M195 756l93 101h83l93 -101h-80l-56 56l-58 -56h-75zM76 0v700h91v-306h326v306h91v-700h-91v313h-326v-313h-91z" />
    <glyph glyph-name="hcircumflex" unicode="&#x125;" horiz-adv-x="590" 
d="M316 812l-58 -56h-75l93 101h83l93 -101h-80zM476 456q18 -19 27 -49t10.5 -51.5t1.5 -56.5v-299h-93v294q0 31 -1 45t-7.5 34.5t-21.5 34.5q-29 29 -89 29q-130 0 -130 -156v-281h-90v700h90v-275q41 87 154 87q96 0 149 -56z" />
    <glyph glyph-name="Hbar" unicode="&#x126;" horiz-adv-x="670" 
d="M653 577v-76h-64v-501h-91v313h-326v-313h-91v501h-65v76h65v123h91v-123h326v123h91v-123h64zM498 394v107h-326v-107h326z" />
    <glyph glyph-name="hbar" unicode="&#x127;" horiz-adv-x="590" 
d="M480 456q18 -19 27 -49t10.5 -51.5t1.5 -56.5v-299h-93v294q0 31 -1 45t-7.5 34.5t-21.5 34.5q-29 29 -89 29q-130 0 -130 -156v-281h-90v560h-75v64h75v76h90v-76h133v-64h-133v-135q41 87 154 87q96 0 149 -56z" />
    <glyph glyph-name="Itilde" unicode="&#x128;" horiz-adv-x="439" 
d="M161 793q-36 0 -41 -38h-55q0 41 27 70q29 31 75 31q27 0 62 -21t49 -21q10 0 16 2t10.5 9.5t6 10.5t5.5 15h59q-7 -51 -30 -73q-27 -26 -67 -26q-31 0 -65.5 20.5t-51.5 20.5zM348 700v-79h-83v-542h83v-79h-257v79h83v542h-83v79h257z" />
    <glyph glyph-name="itilde" unicode="&#x129;" horiz-adv-x="421" 
d="M165 611q-36 0 -41 -38h-55q0 41 27 70q29 31 75 31q27 0 62 -21t49 -21q10 0 16 2t10.5 9.5t6 10.5t5.5 15h59q-7 -51 -30 -73q-27 -26 -67 -26q-31 0 -65.5 20.5t-51.5 20.5zM270 500v-424h92v-76h-281v76h99v348h-85v76h175z" />
    <glyph glyph-name="Imacron" unicode="&#x12a;" horiz-adv-x="439" 
d="M92 838h256v-70h-256v70zM348 700v-79h-83v-542h83v-79h-257v79h83v542h-83v79h257z" />
    <glyph glyph-name="imacron" unicode="&#x12b;" horiz-adv-x="421" 
d="M351 667v-70h-256v70h256zM270 76h92v-76h-281v76h99v348h-85v76h175v-424z" />
    <glyph glyph-name="Ibreve" unicode="&#x12c;" horiz-adv-x="439" 
d="M220 750q-50 0 -84.5 31.5t-36.5 83.5h62q7 -50 58 -50q55 0 62 50h60q-2 -49 -36 -82t-85 -33zM348 621h-83v-542h83v-79h-257v79h83v542h-83v79h257v-79z" />
    <glyph glyph-name="ibreve" unicode="&#x12d;" horiz-adv-x="421" 
d="M224 585q-50 0 -84.5 31.5t-36.5 83.5h62q7 -50 58 -50q55 0 62 50h60q-2 -49 -36 -82t-85 -33zM270 76h92v-76h-281v76h99v348h-85v76h175v-424z" />
    <glyph glyph-name="Iogonek" unicode="&#x12e;" horiz-adv-x="439" 
d="M348 621h-83v-542h83v-79h-84q-60 -49 -60 -84q0 -33 41 -33q21 0 38 7l3 -63q-26 -8 -56 -8q-52 0 -78 23.5t-26 60.5q0 57 75 97h-110v79h83v542h-83v79h257v-79z" />
    <glyph glyph-name="iogonek" unicode="&#x12f;" horiz-adv-x="421" 
d="M269 700v-106h-90v106h90zM266 0q-54 -47 -54 -79q0 -33 41 -33q21 0 38 7l3 -63q-26 -8 -56 -8q-52 0 -78 23.5t-26 60.5q0 53 66 92h-119v76h99v348h-85v76h175v-424h92v-76h-96z" />
    <glyph glyph-name="Idotaccent" unicode="&#x130;" horiz-adv-x="439" 
d="M265 862v-106h-90v106h90zM348 621h-83v-542h83v-79h-257v79h83v542h-83v79h257v-79z" />
    <glyph glyph-name="dotlessi" unicode="&#x131;" horiz-adv-x="421" 
d="M270 76h92v-76h-281v76h99v348h-85v76h175v-424z" />
    <glyph glyph-name="IJ" unicode="&#x132;" horiz-adv-x="1000" 
d="M348 700v-79h-83v-542h83v-79h-257v79h83v542h-83v79h257zM813 700h91v-517q0 -36 -9.5 -68t-30 -62t-61 -47.5t-96.5 -17.5q-97 0 -150.5 55t-53.5 153v59h91v-45q0 -33 4 -56t15.5 -44.5t35.5 -32.5t60 -11q61 0 82.5 34.5t21.5 96.5v503z" />
    <glyph glyph-name="ij" unicode="&#x133;" horiz-adv-x="842" 
d="M271 708v-116h-99v116h99zM611 708h99v-116h-99v116zM270 500v-424h92v-76h-281v76h99v348h-85v76h175zM710 500v-557q0 -71 -41.5 -110t-114.5 -39q-30 0 -64 6l2 84q26 -7 57 -7q40 0 55.5 19t15.5 58v470h-92v76h182z" />
    <glyph glyph-name="Jcircumflex" unicode="&#x134;" horiz-adv-x="562" 
d="M286 756l93 101h83l93 -101h-80l-56 56l-58 -56h-75zM268 -12q-97 0 -150.5 55t-53.5 153v59h91v-45q0 -33 4 -56t15.5 -44.5t35.5 -32.5t60 -11q61 0 82.5 34.5t21.5 96.5v503h91v-517q0 -36 -9.5 -68t-30 -62t-61 -47.5t-96.5 -17.5z" />
    <glyph glyph-name="jcircumflex" unicode="&#x135;" horiz-adv-x="424" 
d="M286 685l93 -101h-80l-56 56l-58 -56h-75l93 101h83zM291 500v-557q0 -71 -41.5 -110t-114.5 -39q-29 0 -64 6l2 84q26 -7 57 -7q40 0 55.5 19t15.5 58v470h-92v76h182z" />
    <glyph glyph-name="uni0136" unicode="&#x136;" horiz-adv-x="624" 
d="M334 412l279 -412h-112l-231 344l-93 -98v-246h-91v700h91v-332l310 332h119zM269 -151v85h95v-79q0 -87 -96 -92v39q48 6 48 47h-47z" />
    <glyph glyph-name="uni0137" unicode="&#x137;" horiz-adv-x="559" 
d="M320 316l206 -316h-105l-165 257l-70 -66v-191h-90v700h90v-407l209 207h122zM244 -151v85h95v-79q0 -87 -96 -92v39q48 6 48 47h-47z" />
    <glyph glyph-name="Lacute" unicode="&#x139;" horiz-adv-x="583" 
d="M109 756l63 108h100l-89 -108h-74zM102 0v700h90v-621h351v-79h-441z" />
    <glyph glyph-name="lacute" unicode="&#x13a;" horiz-adv-x="421" 
d="M340 864l-89 -108h-74l63 108h100zM268 76h91v-76h-281v76h100v548h-83v76h173v-624z" />
    <glyph glyph-name="uni013B" unicode="&#x13b;" horiz-adv-x="583" 
d="M102 0v700h90v-621h351v-79h-441zM274 -237v39q48 6 48 47h-47v85h95v-79q0 -87 -96 -92z" />
    <glyph glyph-name="uni013C" unicode="&#x13c;" horiz-adv-x="421" 
d="M268 76h91v-76h-281v76h100v548h-83v76h173v-624zM171 -151v85h95v-79q0 -87 -96 -92v39q48 6 48 47h-47z" />
    <glyph glyph-name="Lcaron" unicode="&#x13d;" horiz-adv-x="583" 
d="M102 0v700h90v-621h351v-79h-441zM314 529v39q48 6 48 47h-47v85h95v-79q0 -87 -96 -92z" />
    <glyph glyph-name="lcaron" unicode="&#x13e;" horiz-adv-x="431" 
d="M268 700v-624h91v-76h-281v76h100v548h-83v76h173zM329 700h90v-75q0 -82 -91 -87v37q46 6 46 45h-45v80z" />
    <glyph glyph-name="Ldot" unicode="&#x13f;" horiz-adv-x="585" 
d="M102 0v700h90v-621h351v-79h-441zM338 267v117h111v-117h-111z" />
    <glyph glyph-name="ldot" unicode="&#x140;" horiz-adv-x="493" 
d="M263 700v-624h91v-76h-281v76h100v548h-83v76h173zM365 384h111v-117h-111v117z" />
    <glyph glyph-name="Lslash" unicode="&#x141;" horiz-adv-x="596" 
d="M214 79h351v-79h-441v220l-70 -39v77l70 39v403h90v-353l106 59v-77l-106 -59v-191z" />
    <glyph glyph-name="lslash" unicode="&#x142;" horiz-adv-x="459" 
d="M287 76h91v-76h-281v76h100v206l-92 -72v77l92 72v265h-83v76h173v-272l83 65v-77l-83 -65v-275z" />
    <glyph glyph-name="Nacute" unicode="&#x143;" horiz-adv-x="660" 
d="M291 756l63 108h100l-89 -108h-74zM76 0v700h100l240 -416q9 -15 83 -156h1q-5 97 -5 176v396h89v-700h-102l-240 421q-12 22 -81 157h-1q5 -112 5 -177v-401h-89z" />
    <glyph glyph-name="nacute" unicode="&#x144;" horiz-adv-x="590" 
d="M413 700l-92 -127h-74l65 127h101zM476 456q39 -42 39 -159v-297h-93v292q0 32 -1 46t-8 35t-21 35q-29 29 -89 29q-21 0 -40 -5.5t-41 -20.5t-35.5 -50t-13.5 -85v-276h-90v500h90v-76q39 88 154 88q96 0 149 -56z" />
    <glyph glyph-name="uni0145" unicode="&#x145;" horiz-adv-x="660" 
d="M76 0v700h100l240 -416q9 -15 83 -156h1q-5 97 -5 176v396h89v-700h-102l-240 421q-12 22 -81 157h-1q5 -112 5 -177v-401h-89zM284 -237v39q48 6 48 47h-47v85h95v-79q0 -87 -96 -92z" />
    <glyph glyph-name="uni0146" unicode="&#x146;" horiz-adv-x="590" 
d="M476 456q39 -42 39 -159v-297h-93v292q0 32 -1 46t-8 35t-21 35q-29 29 -89 29q-21 0 -40 -5.5t-41 -20.5t-35.5 -50t-13.5 -85v-276h-90v500h90v-76q39 88 154 88q96 0 149 -56zM252 -151v85h95v-79q0 -87 -96 -92v39q48 6 48 47h-47z" />
    <glyph glyph-name="Ncaron" unicode="&#x147;" horiz-adv-x="660" 
d="M198 857h75l58 -56l56 56h80l-93 -101h-83zM76 0v700h100l240 -416q9 -15 83 -156h1q-5 97 -5 176v396h89v-700h-102l-240 421q-12 22 -81 157h-1q5 -112 5 -177v-401h-89z" />
    <glyph glyph-name="ncaron" unicode="&#x148;" horiz-adv-x="590" 
d="M340 585h-83l-93 101h75l58 -56l56 56h80zM476 456q39 -42 39 -159v-297h-93v292q0 32 -1 46t-8 35t-21 35q-29 29 -89 29q-21 0 -40 -5.5t-41 -20.5t-35.5 -50t-13.5 -85v-276h-90v500h90v-76q39 88 154 88q96 0 149 -56z" />
    <glyph glyph-name="Eng" unicode="&#x14a;" horiz-adv-x="660" 
d="M398 -172q-31 0 -49 5v78q16 -2 34 -2q47 0 75 22.5t28 61.5l-246 430q-29 50 -79 157h-1q5 -112 5 -177v-403h-89v700h101l241 -419q41 -73 81 -154h1q-5 97 -5 174v399h89v-700q0 -79 -41 -121q-49 -51 -145 -51z" />
    <glyph glyph-name="eng" unicode="&#x14b;" horiz-adv-x="590" 
d="M476 456q39 -42 39 -159v-349q0 -67 -40 -99q-29 -23 -86 -23q-17 0 -49 5v70q14 -3 30 -3q52 0 52 50v344q0 32 -1 46t-8 35t-21 35q-29 29 -89 29q-21 0 -40 -5.5t-41 -20.5t-35.5 -50t-13.5 -85v-276h-90v500h90v-76q39 88 154 88q96 0 149 -56z" />
    <glyph glyph-name="Omacron" unicode="&#x14c;" horiz-adv-x="683" 
d="M217 768v70h256v-70h-256zM343 -12q-145 0 -223 93.5t-78 268.5q0 165 78.5 263.5t222.5 98.5q142 0 220.5 -99t78.5 -263q0 -165 -78.5 -263.5t-220.5 -98.5zM343 66q97 0 144 63q53 70 53 221q0 142 -47 213t-146 71q-104 0 -152 -65q-50 -67 -50 -219q0 -157 49 -219
q51 -65 149 -65z" />
    <glyph glyph-name="omacron" unicode="&#x14d;" horiz-adv-x="596" 
d="M173 597v70h256v-70h-256zM299 -12q-117 0 -183.5 70t-66.5 192q0 116 68 189t182 73q113 0 181 -73.5t68 -188.5q0 -118 -68.5 -190t-180.5 -72zM299 59q81 0 116.5 49t35.5 142t-35.5 142t-116.5 49q-83 0 -118 -48.5t-35 -142.5t35 -142.5t118 -48.5z" />
    <glyph glyph-name="Obreve" unicode="&#x14e;" horiz-adv-x="683" 
d="M345 750q-50 0 -84.5 31.5t-36.5 83.5h62q7 -50 58 -50q55 0 62 50h60q-2 -49 -36 -82t-85 -33zM343 -12q-145 0 -223 93.5t-78 268.5q0 165 78.5 263.5t222.5 98.5q142 0 220.5 -99t78.5 -263q0 -165 -78.5 -263.5t-220.5 -98.5zM343 66q97 0 144 63q53 70 53 221
q0 142 -47 213t-146 71q-104 0 -152 -65q-50 -67 -50 -219q0 -157 49 -219q51 -65 149 -65z" />
    <glyph glyph-name="obreve" unicode="&#x14f;" horiz-adv-x="596" 
d="M301 585q-50 0 -84.5 31.5t-36.5 83.5h62q7 -50 58 -50q55 0 62 50h60q-2 -49 -36 -82t-85 -33zM299 -12q-117 0 -183.5 70t-66.5 192q0 116 68 189t182 73q113 0 181 -73.5t68 -188.5q0 -118 -68.5 -190t-180.5 -72zM299 59q81 0 116.5 49t35.5 142t-35.5 142t-116.5 49
q-83 0 -118 -48.5t-35 -142.5t35 -142.5t118 -48.5z" />
    <glyph glyph-name="Ohungarumlaut" unicode="&#x150;" horiz-adv-x="683" 
d="M239 756l33 109h82l-54 -109h-61zM364 756l33 109h82l-54 -109h-61zM343 -12q-145 0 -223 93.5t-78 268.5q0 165 78.5 263.5t222.5 98.5q142 0 220.5 -99t78.5 -263q0 -165 -78.5 -263.5t-220.5 -98.5zM343 66q97 0 144 63q53 70 53 221q0 142 -47 213t-146 71
q-104 0 -152 -65q-50 -67 -50 -219q0 -157 49 -219q51 -65 149 -65z" />
    <glyph glyph-name="ohungarumlaut" unicode="&#x151;" horiz-adv-x="596" 
d="M201 578l32 128h82l-53 -128h-61zM326 578l32 128h82l-53 -128h-61zM299 -12q-117 0 -183.5 70t-66.5 192q0 116 68 189t182 73q113 0 181 -73.5t68 -188.5q0 -118 -68.5 -190t-180.5 -72zM299 59q81 0 116.5 49t35.5 142t-35.5 142t-116.5 49q-83 0 -118 -48.5
t-35 -142.5t35 -142.5t118 -48.5z" />
    <glyph glyph-name="OE" unicode="&#x152;" horiz-adv-x="822" 
d="M787 619h-276v-225h245v-81h-245v-232h276v-81h-363v63q-18 -33 -56 -54t-89 -21q-114 0 -178.5 100t-64.5 262q0 161 66.5 261.5t183.5 100.5q53 0 89 -22.5t49 -52.5v63h363v-81zM422 202v304q-7 59 -42.5 93t-86.5 34q-77 0 -117 -67q-40 -75 -40 -216q0 -144 38 -214
q43 -71 118 -71q55 0 92.5 38.5t37.5 98.5z" />
    <glyph glyph-name="oe" unicode="&#x153;" horiz-adv-x="768" 
d="M232 -12q-95 0 -149 69t-54 193q0 120 54.5 191t148.5 71q102 0 152 -86q52 86 159 86q49 0 91 -23.5t67 -65.5q39 -65 39 -175v-25h-311q3 -163 112 -163q96 0 109 108l83 -7q-30 -173 -192 -173q-108 0 -158 82q-52 -82 -151 -82zM232 59q58 0 83 48.5t25 142.5
t-25 142.5t-83 48.5q-61 0 -86.5 -48t-25.5 -143t25.5 -143t86.5 -48zM430 296h222q-2 57 -21 94q-28 49 -87 49q-67 0 -93 -49q-21 -40 -21 -94z" />
    <glyph glyph-name="Racute" unicode="&#x154;" horiz-adv-x="641" 
d="M433 864l-89 -108h-74l63 108h100zM561 175q0 -66 8 -103.5t32 -68.5l-1 -3h-99q-18 27 -24 60t-6 105q0 70 -33.5 97.5t-123.5 27.5h-144v-290h-90v700h225q44 0 76.5 -3t72 -15t64.5 -33t42.5 -60.5t17.5 -94.5q0 -63 -30.5 -109t-77.5 -62q91 -34 91 -148zM304 367
q31 0 52.5 1.5t48.5 8.5t44 19.5t28.5 36.5t11.5 57q0 32 -7 55.5t-22.5 37.5t-30 22.5t-40 12t-41 4t-43.5 0.5h-135v-255h134z" />
    <glyph glyph-name="racute" unicode="&#x155;" horiz-adv-x="487" 
d="M367 700l-92 -127h-74l65 127h101zM391 511q9 1 41 1l-2 -85q-8 1 -31 1q-88 0 -136 -42.5t-48 -156.5v-229h-90v500h90v-94q14 42 62 70.5t114 34.5z" />
    <glyph glyph-name="uni0156" unicode="&#x156;" horiz-adv-x="641" 
d="M561 175q0 -66 8 -103.5t32 -68.5l-1 -3h-99q-18 27 -24 60t-6 105q0 70 -33.5 97.5t-123.5 27.5h-144v-290h-90v700h225q44 0 76.5 -3t72 -15t64.5 -33t42.5 -60.5t17.5 -94.5q0 -63 -30.5 -109t-77.5 -62q91 -34 91 -148zM304 367q31 0 52.5 1.5t48.5 8.5t44 19.5
t28.5 36.5t11.5 57q0 32 -7 55.5t-22.5 37.5t-30 22.5t-40 12t-41 4t-43.5 0.5h-135v-255h134zM290 -151v85h95v-79q0 -87 -96 -92v39q48 6 48 47h-47z" />
    <glyph glyph-name="uni0157" unicode="&#x157;" horiz-adv-x="487" 
d="M391 511q9 1 41 1l-2 -85q-8 1 -31 1q-88 0 -136 -42.5t-48 -156.5v-229h-90v500h90v-94q14 42 62 70.5t114 34.5zM122 -151v85h95v-79q0 -87 -96 -92v39q48 6 48 47h-47z" />
    <glyph glyph-name="Rcaron" unicode="&#x158;" horiz-adv-x="641" 
d="M352 756h-83l-93 101h75l58 -56l56 56h80zM561 175q0 -66 8 -103.5t32 -68.5l-1 -3h-99q-18 27 -24 60t-6 105q0 70 -33.5 97.5t-123.5 27.5h-144v-290h-90v700h225q44 0 76.5 -3t72 -15t64.5 -33t42.5 -60.5t17.5 -94.5q0 -63 -30.5 -109t-77.5 -62q91 -34 91 -148z
M304 367q31 0 52.5 1.5t48.5 8.5t44 19.5t28.5 36.5t11.5 57q0 32 -7 55.5t-22.5 37.5t-30 22.5t-40 12t-41 4t-43.5 0.5h-135v-255h134z" />
    <glyph glyph-name="rcaron" unicode="&#x159;" horiz-adv-x="487" 
d="M285 585h-83l-93 101h75l58 -56l56 56h80zM391 511q9 1 41 1l-2 -85q-8 1 -31 1q-88 0 -136 -42.5t-48 -156.5v-229h-90v500h90v-94q14 42 62 70.5t114 34.5z" />
    <glyph glyph-name="Sacute" unicode="&#x15a;" horiz-adv-x="630" 
d="M279 756l63 108h100l-89 -108h-74zM323 -12q-120 0 -200.5 60.5t-82.5 174.5l96 10q2 -80 53 -124.5t131 -44.5q79 0 129 32t50 101q0 23 -10 41t-24 28t-38.5 18.5t-44.5 12.5t-51.5 10t-50.5 11q-47 11 -80 23.5t-68 34.5t-53.5 57t-18.5 82q0 98 73 147.5t169 49.5
q113 0 185.5 -52t83.5 -166l-94 -17q-3 76 -49 118t-125 42q-60 0 -105 -31t-45 -87q0 -29 16 -50t47.5 -34t59 -20.5t69.5 -14.5q49 -8 78.5 -15t66 -21.5t56 -33.5t33.5 -51t14 -75q0 -61 -23.5 -105t-64 -67t-85.5 -33.5t-97 -10.5z" />
    <glyph glyph-name="sacute" unicode="&#x15b;" horiz-adv-x="554" 
d="M237 573l65 127h101l-92 -127h-74zM281 -12q-91 0 -152 44t-60 132l82 8q-1 -52 34 -82.5t94 -30.5q123 0 123 81q0 16 -9 28t-29 20.5t-35.5 13t-45 11t-42.5 9.5q-38 10 -60.5 18t-49 24t-39 41.5t-12.5 60.5q0 72 55 109t130 37q87 0 144 -39t65 -125l-84 -13
q-1 52 -34 79t-92 27q-40 0 -70 -18.5t-30 -50.5q0 -16 9 -28t29.5 -20.5t36 -12.5t45.5 -11q103 -22 137 -41q66 -36 66 -114q0 -58 -31.5 -94.5t-75 -49.5t-99.5 -13z" />
    <glyph glyph-name="Scircumflex" unicode="&#x15c;" horiz-adv-x="630" 
d="M183 756l93 101h83l93 -101h-80l-56 56l-58 -56h-75zM323 -12q-120 0 -200.5 60.5t-82.5 174.5l96 10q2 -80 53 -124.5t131 -44.5q79 0 129 32t50 101q0 23 -10 41t-24 28t-38.5 18.5t-44.5 12.5t-51.5 10t-50.5 11q-47 11 -80 23.5t-68 34.5t-53.5 57t-18.5 82
q0 98 73 147.5t169 49.5q113 0 185.5 -52t83.5 -166l-94 -17q-3 76 -49 118t-125 42q-60 0 -105 -31t-45 -87q0 -29 16 -50t47.5 -34t59 -20.5t69.5 -14.5q49 -8 78.5 -15t66 -21.5t56 -33.5t33.5 -51t14 -75q0 -61 -23.5 -105t-64 -67t-85.5 -33.5t-97 -10.5z" />
    <glyph glyph-name="scircumflex" unicode="&#x15d;" horiz-adv-x="554" 
d="M144 585l93 101h83l93 -101h-80l-56 56l-58 -56h-75zM281 -12q-91 0 -152 44t-60 132l82 8q-1 -52 34 -82.5t94 -30.5q123 0 123 81q0 16 -9 28t-29 20.5t-35.5 13t-45 11t-42.5 9.5q-38 10 -60.5 18t-49 24t-39 41.5t-12.5 60.5q0 72 55 109t130 37q87 0 144 -39
t65 -125l-84 -13q-1 52 -34 79t-92 27q-40 0 -70 -18.5t-30 -50.5q0 -16 9 -28t29.5 -20.5t36 -12.5t45.5 -11q103 -22 137 -41q66 -36 66 -114q0 -58 -31.5 -94.5t-75 -49.5t-99.5 -13z" />
    <glyph glyph-name="Scedilla" unicode="&#x15e;" horiz-adv-x="630" 
d="M593 204q0 -57 -20.5 -99t-56 -66t-76.5 -36t-89 -14l-40 -39q5 1 18 1q35 0 63.5 -18t28.5 -51q0 -46 -35.5 -67.5t-83.5 -21.5q-52 0 -99 27l20 41q39 -16 73 -16q54 0 54 32q0 30 -51 30q-17 0 -43 -9l-20 25l58 66q-109 7 -180.5 67t-73.5 167l96 10q2 -80 53 -124.5
t131 -44.5q79 0 129 32t50 101q0 23 -10 41t-24 28t-38.5 18.5t-44.5 12.5t-51.5 10t-50.5 11q-47 11 -80 23.5t-68 34.5t-53.5 57t-18.5 82q0 98 73 147.5t169 49.5q113 0 185.5 -52t83.5 -166l-94 -17q-3 76 -49 118t-125 42q-60 0 -105 -31t-45 -87q0 -29 16 -50
t47.5 -34t59 -20.5t69.5 -14.5q49 -8 78.5 -15t66 -21.5t56 -33.5t33.5 -51t14 -75z" />
    <glyph glyph-name="scedilla" unicode="&#x15f;" horiz-adv-x="554" 
d="M487 145q0 -76 -49.5 -113t-126.5 -43l-41 -39q5 1 18 1q35 0 63.5 -18t28.5 -51q0 -46 -35.5 -67.5t-83.5 -21.5q-52 0 -99 27l20 41q39 -16 73 -16q54 0 54 32q0 30 -51 30q-18 0 -43 -9l-20 25l58 66q-81 6 -133 50t-51 125l82 8q-1 -52 34 -82.5t94 -30.5
q123 0 123 81q0 16 -9 28t-29 20.5t-35.5 13t-45 11t-42.5 9.5q-38 10 -60.5 18t-49 24t-39 41.5t-12.5 60.5q0 72 55 109t130 37q87 0 144 -39t65 -125l-84 -13q-1 52 -34 79t-92 27q-40 0 -70 -18.5t-30 -50.5q0 -16 9 -28t29.5 -20.5t36 -12.5t45.5 -11q103 -22 137 -41
q66 -36 66 -114z" />
    <glyph glyph-name="Scaron" unicode="&#x160;" horiz-adv-x="630" 
d="M186 857h75l58 -56l56 56h80l-93 -101h-83zM323 -12q-120 0 -200.5 60.5t-82.5 174.5l96 10q2 -80 53 -124.5t131 -44.5q79 0 129 32t50 101q0 23 -10 41t-24 28t-38.5 18.5t-44.5 12.5t-51.5 10t-50.5 11q-47 11 -80 23.5t-68 34.5t-53.5 57t-18.5 82q0 98 73 147.5
t169 49.5q113 0 185.5 -52t83.5 -166l-94 -17q-3 76 -49 118t-125 42q-60 0 -105 -31t-45 -87q0 -29 16 -50t47.5 -34t59 -20.5t69.5 -14.5q49 -8 78.5 -15t66 -21.5t56 -33.5t33.5 -51t14 -75q0 -61 -23.5 -105t-64 -67t-85.5 -33.5t-97 -10.5z" />
    <glyph glyph-name="scaron" unicode="&#x161;" horiz-adv-x="554" 
d="M146 686h75l58 -56l56 56h80l-93 -101h-83zM281 -12q-91 0 -152 44t-60 132l82 8q-1 -52 34 -82.5t94 -30.5q123 0 123 81q0 16 -9 28t-29 20.5t-35.5 13t-45 11t-42.5 9.5q-38 10 -60.5 18t-49 24t-39 41.5t-12.5 60.5q0 72 55 109t130 37q87 0 144 -39t65 -125l-84 -13
q-1 52 -34 79t-92 27q-40 0 -70 -18.5t-30 -50.5q0 -16 9 -28t29.5 -20.5t36 -12.5t45.5 -11q103 -22 137 -41q66 -36 66 -114q0 -58 -31.5 -94.5t-75 -49.5t-99.5 -13z" />
    <glyph glyph-name="uni0162" unicode="&#x162;" horiz-adv-x="597" 
d="M344 0h-13l-52 -50q5 1 18 1q35 0 63.5 -18t28.5 -51q0 -46 -35.5 -67.5t-83.5 -21.5q-52 0 -99 27l20 41q39 -16 73 -16q54 0 54 32q0 30 -51 30q-17 0 -43 -9l-20 25l68 77h-19v621h-224v79h539v-79h-224v-621z" />
    <glyph glyph-name="uni0163" unicode="&#x163;" horiz-adv-x="464" 
d="M394 425h-142v-299q0 -29 16 -39.5t57 -10.5q27 0 65 9l2 -82q-32 -8 -74 -8h-8l-47 -45q5 1 18 1q35 0 63.5 -18t28.5 -51q0 -46 -35.5 -67.5t-83.5 -21.5q-52 0 -99 27l20 41q39 -16 73 -16q54 0 54 32q0 30 -51 30q-17 0 -43 -9l-20 25l68 77q-93 20 -93 123v302h-105
v75h105v139h89v-139h142v-75z" />
    <glyph glyph-name="Tcaron" unicode="&#x164;" horiz-adv-x="597" 
d="M165 857h75l58 -56l56 56h80l-93 -101h-83zM253 0v621h-224v79h539v-79h-224v-621h-91z" />
    <glyph glyph-name="tcaron" unicode="&#x165;" horiz-adv-x="464" 
d="M316 548v37q46 6 46 45h-45v80h90v-75q0 -82 -91 -87zM318 -5q-81 0 -118 30t-37 98v302h-105v75h105v139h89v-139h142v-75h-142v-299q0 -29 16 -39.5t57 -10.5q27 0 65 9l2 -82q-32 -8 -74 -8z" />
    <glyph glyph-name="Tbar" unicode="&#x166;" horiz-adv-x="605" 
d="M572 621h-224v-219h136v-74h-136v-328h-91v328h-135v74h135v219h-224v79h539v-79z" />
    <glyph glyph-name="tbar" unicode="&#x167;" horiz-adv-x="467" 
d="M396 425h-142v-89h141v-75h-141v-135q0 -29 16 -39.5t57 -10.5q27 0 65 9l2 -82q-32 -8 -74 -8q-81 0 -118 30t-37 98v138h-105v75h105v89h-105v75h105v139h89v-139h142v-75z" />
    <glyph glyph-name="Utilde" unicode="&#x168;" horiz-adv-x="660" 
d="M389 752q-31 0 -65.5 20.5t-51.5 20.5q-36 0 -41 -38h-55q0 41 27 70q29 31 75 31q26 0 61 -21t50 -21q10 0 16 2t10.5 9.5t6 10.5t5.5 15h59q-7 -51 -30 -73q-27 -26 -67 -26zM330 -12q-126 0 -191.5 61.5t-65.5 181.5v469h91v-469q0 -82 46 -122.5t120 -40.5t120 41
t46 122v469h91v-469q0 -120 -65.5 -181.5t-191.5 -61.5z" />
    <glyph glyph-name="utilde" unicode="&#x169;" horiz-adv-x="590" 
d="M237 611q-36 0 -41 -38h-55q0 41 27 70q29 31 75 31q27 0 62 -21t49 -21q10 0 16 2t10.5 9.5t6 10.5t5.5 15h59q-7 -51 -30 -73q-27 -26 -67 -26q-31 0 -65.5 20.5t-51.5 20.5zM419 500h90v-500h-90v75q-41 -87 -154 -87q-95 0 -148 56q-18 19 -27.5 49t-11 51.5
t-1.5 56.5v299h93v-294q0 -31 1 -45t7.5 -34.5t20.5 -34.5q30 -29 91 -29q129 0 129 156v281z" />
    <glyph glyph-name="Umacron" unicode="&#x16a;" horiz-adv-x="660" 
d="M202 768v70h256v-70h-256zM330 -12q-126 0 -191.5 61.5t-65.5 181.5v469h91v-469q0 -82 46 -122.5t120 -40.5t120 41t46 122v469h91v-469q0 -120 -65.5 -181.5t-191.5 -61.5z" />
    <glyph glyph-name="umacron" unicode="&#x16b;" horiz-adv-x="590" 
d="M424 667v-70h-256v70h256zM419 500h90v-500h-90v75q-41 -87 -154 -87q-95 0 -148 56q-18 19 -27.5 49t-11 51.5t-1.5 56.5v299h93v-294q0 -31 1 -45t7.5 -34.5t20.5 -34.5q30 -29 91 -29q129 0 129 156v281z" />
    <glyph glyph-name="Ubreve" unicode="&#x16c;" horiz-adv-x="660" 
d="M331 750q-50 0 -84.5 31.5t-36.5 83.5h62q7 -50 58 -50q55 0 62 50h60q-2 -49 -36 -82t-85 -33zM330 -12q-126 0 -191.5 61.5t-65.5 181.5v469h91v-469q0 -82 46 -122.5t120 -40.5t120 41t46 122v469h91v-469q0 -120 -65.5 -181.5t-191.5 -61.5z" />
    <glyph glyph-name="ubreve" unicode="&#x16d;" horiz-adv-x="590" 
d="M296 585q-50 0 -84.5 31.5t-36.5 83.5h62q7 -50 58 -50q55 0 62 50h60q-2 -49 -36 -82t-85 -33zM419 500h90v-500h-90v75q-41 -87 -154 -87q-95 0 -148 56q-18 19 -27.5 49t-11 51.5t-1.5 56.5v299h93v-294q0 -31 1 -45t7.5 -34.5t20.5 -34.5q30 -29 91 -29
q129 0 129 156v281z" />
    <glyph glyph-name="Uring" unicode="&#x16e;" horiz-adv-x="660" 
d="M330 739q-40 0 -68 27t-28 65t28 65t68 27t68 -27t28 -65t-28 -65t-68 -27zM330 777q23 0 36.5 15t13.5 39q0 22 -13.5 37.5t-36.5 15.5q-22 0 -36.5 -15.5t-14.5 -37.5q0 -23 14.5 -38.5t36.5 -15.5zM330 -12q-126 0 -191.5 61.5t-65.5 181.5v469h91v-469
q0 -82 46 -122.5t120 -40.5t120 41t46 122v469h91v-469q0 -120 -65.5 -181.5t-191.5 -61.5z" />
    <glyph glyph-name="uring" unicode="&#x16f;" horiz-adv-x="590" 
d="M296 553q-40 0 -68 27t-28 65t28 65t68 27t68 -27t28 -65t-28 -65t-68 -27zM296 698q-22 0 -36.5 -15.5t-14.5 -37.5q0 -23 14.5 -38.5t36.5 -15.5q23 0 36.5 15t13.5 39q0 22 -13.5 37.5t-36.5 15.5zM419 500h90v-500h-90v75q-41 -87 -154 -87q-95 0 -148 56
q-18 19 -27.5 49t-11 51.5t-1.5 56.5v299h93v-294q0 -31 1 -45t7.5 -34.5t20.5 -34.5q30 -29 91 -29q129 0 129 156v281z" />
    <glyph glyph-name="Uhungarumlaut" unicode="&#x170;" horiz-adv-x="660" 
d="M224 756l33 109h82l-54 -109h-61zM349 756l33 109h82l-54 -109h-61zM330 -12q-126 0 -191.5 61.5t-65.5 181.5v469h91v-469q0 -82 46 -122.5t120 -40.5t120 41t46 122v469h91v-469q0 -120 -65.5 -181.5t-191.5 -61.5z" />
    <glyph glyph-name="uhungarumlaut" unicode="&#x171;" horiz-adv-x="590" 
d="M310 706l-53 -128h-61l32 128h82zM435 706l-53 -128h-61l32 128h82zM419 500h90v-500h-90v75q-41 -87 -154 -87q-95 0 -148 56q-18 19 -27.5 49t-11 51.5t-1.5 56.5v299h93v-294q0 -31 1 -45t7.5 -34.5t20.5 -34.5q30 -29 91 -29q129 0 129 156v281z" />
    <glyph glyph-name="Uogonek" unicode="&#x172;" horiz-adv-x="660" 
d="M496 700h91v-469q0 -193 -165 -233q-48 -12 -77.5 -35t-29.5 -47q0 -33 41 -33q21 0 38 7l3 -62q-29 -9 -56 -9q-52 0 -78 23.5t-26 60.5q0 47 63 86q-227 14 -227 242v469h91v-469q0 -82 46 -122.5t120 -40.5t120 41t46 122v469z" />
    <glyph glyph-name="uogonek" unicode="&#x173;" horiz-adv-x="590" 
d="M528 -110l3 -63q-26 -8 -56 -8q-52 0 -78 23.5t-26 60.5q0 57 75 97h-27v75q-41 -87 -154 -87q-95 0 -148 56q-18 19 -27.5 49t-11 51.5t-1.5 56.5v299h93v-294q0 -31 1 -45t7.5 -34.5t20.5 -34.5q30 -29 91 -29q129 0 129 156v281h90v-500q-60 -49 -60 -84q0 -33 41 -33
q20 0 38 7z" />
    <glyph glyph-name="Wcircumflex" unicode="&#x174;" horiz-adv-x="761" 
d="M248 756l93 101h83l93 -101h-80l-56 56l-58 -56h-75zM154 0l-131 700h95l64 -421q15 -86 26 -169h2q9 48 37 169l85 351h99l85 -351q25 -106 38 -169h2q3 28 24 169l63 421h95l-131 -700h-104l-86 354q-24 102 -36 167h-2q-13 -72 -35 -168l-84 -353h-106z" />
    <glyph glyph-name="wcircumflex" unicode="&#x175;" horiz-adv-x="675" 
d="M203 585l93 101h83l93 -101h-80l-56 56l-58 -56h-75zM152 0l-132 500h96l57 -267l29 -146h2q16 76 33 146l58 232h85l58 -232q19 -79 31 -146h2q21 109 29 146l60 267h95l-132 -500h-99l-58 223q-13 51 -28 132h-2q-9 -55 -28 -132l-56 -223h-100z" />
    <glyph glyph-name="Ycircumflex" unicode="&#x176;" horiz-adv-x="613" 
d="M172 756l93 101h83l93 -101h-80l-56 56l-58 -56h-75zM261 0v299l-241 401h105l111 -200q3 -5 14.5 -27t28.5 -53t27 -50q29 55 70 130l111 200h106l-241 -401v-299h-91z" />
    <glyph glyph-name="ycircumflex" unicode="&#x177;" horiz-adv-x="552" 
d="M279 641l-58 -56h-75l93 101h83l93 -101h-80zM420 500h94l-204 -546q-32 -86 -64.5 -122.5t-82.5 -36.5q-42 0 -78 10l2 84q33 -11 64 -11q26 0 42.5 26.5t45.5 100.5l-195 495h96l95 -270q15 -44 44 -133q23 70 45 133z" />
    <glyph glyph-name="Ydieresis" unicode="&#x178;" horiz-adv-x="613" 
d="M177 756v97h83v-97h-83zM366 756v97h83v-97h-83zM261 0v299l-241 401h105l111 -200q3 -5 14.5 -27t28.5 -53t27 -50q29 55 70 130l111 200h106l-241 -401v-299h-91z" />
    <glyph glyph-name="Zacute" unicode="&#x179;" horiz-adv-x="605" 
d="M272 756l63 108h100l-89 -108h-74zM42 0v69l315 432q32 45 92 118v1q-15 0 -41.5 -1t-49 -1.5t-43.5 -0.5h-245v83h485v-69l-320 -442q-58 -79 -82 -108v-1q74 3 141 3h265v-83h-517z" />
    <glyph glyph-name="zacute" unicode="&#x17a;" horiz-adv-x="542" 
d="M226 573l65 127h101l-92 -127h-74zM65 0v70l238 290q19 23 56 64v1q-58 -2 -84 -2h-194v77h381v-62l-232 -286q-17 -22 -63 -74v-1h311v-77h-413z" />
    <glyph glyph-name="Zdotaccent" unicode="&#x17b;" horiz-adv-x="605" 
d="M269 756v106h90v-106h-90zM42 0v69l315 432q32 45 92 118v1q-15 0 -41.5 -1t-49 -1.5t-43.5 -0.5h-245v83h485v-69l-320 -442q-58 -79 -82 -108v-1q74 3 141 3h265v-83h-517z" />
    <glyph glyph-name="zdotaccent" unicode="&#x17c;" horiz-adv-x="542" 
d="M224 594v106h90v-106h-90zM65 0v70l238 290q19 23 56 64v1q-58 -2 -84 -2h-194v77h381v-62l-232 -286q-17 -22 -63 -74v-1h311v-77h-413z" />
    <glyph glyph-name="Zcaron" unicode="&#x17d;" horiz-adv-x="605" 
d="M179 857h75l58 -56l56 56h80l-93 -101h-83zM42 0v69l315 432q32 45 92 118v1q-15 0 -41.5 -1t-49 -1.5t-43.5 -0.5h-245v83h485v-69l-320 -442q-58 -79 -82 -108v-1q74 3 141 3h265v-83h-517z" />
    <glyph glyph-name="zcaron" unicode="&#x17e;" horiz-adv-x="542" 
d="M134 686h75l58 -56l56 56h80l-93 -101h-83zM65 0v70l238 290q19 23 56 64v1q-58 -2 -84 -2h-194v77h381v-62l-232 -286q-17 -22 -63 -74v-1h311v-77h-413z" />
    <glyph glyph-name="florin" unicode="&#x192;" horiz-adv-x="539" 
d="M421 706q24 0 51 -3l-2 -78q-26 2 -36 2q-43 0 -62.5 -15t-24.5 -52l-21 -149h103v-75h-114l-57 -406q-9 -65 -40 -96t-101 -31q-25 0 -52 3l2 75q8 -1 22 -1q32 0 50 12.5t23 44.5l58 399h-100v75h111l23 161q9 60 38 92q39 42 129 42z" />
    <glyph glyph-name="uni01E2" unicode="&#x1e2;" horiz-adv-x="775" 
d="M622 838v-70h-256v70h256zM730 619h-276v-225h245v-81h-245v-232h276v-81h-364v209h-187l-76 -209h-97l267 700h457v-81zM366 289v330h-39l-119 -330h158z" />
    <glyph glyph-name="uni01E3" unicode="&#x1e3;" horiz-adv-x="745" 
d="M242 597v70h256v-70h-256zM191 -12q-68 0 -116 35t-48 109q0 73 43.5 106t128.5 54l113 25q0 74 -14 95q-17 29 -72 29q-98 0 -95 -102l-86 12q1 88 58 129q47 32 126 32q104 0 143 -70q56 70 149 70q49 0 91 -22t66 -62q40 -69 40 -179q0 -5 -0.5 -14t-0.5 -12h-314
q1 -163 113 -163q98 0 112 109l84 -7q-30 -174 -196 -174q-109 0 -159 86q-50 -86 -166 -86zM404 296h227q-2 58 -22 94q-28 49 -90 49q-68 0 -94 -49q-21 -37 -21 -94zM194 60q59 0 88.5 34t29.5 90v65l-103 -25q-48 -13 -69.5 -32t-21.5 -59q0 -34 21 -53.5t55 -19.5z" />
    <glyph glyph-name="Aringacute" unicode="&#x1fa;" horiz-adv-x="634" 
d="M437 1043l-81 -98h-74l57 98h98zM318 739q-40 0 -68 27t-28 65t28 65t68 27t68 -27t28 -65t-28 -65t-68 -27zM318 884q-22 0 -36.5 -15.5t-14.5 -37.5q0 -23 14.5 -38.5t36.5 -15.5q23 0 36.5 15t13.5 39q0 22 -13.5 37.5t-36.5 15.5zM522 0l-71 209h-268l-70 -209h-95
l250 700h99l249 -700h-94zM210 289h214l-71 211q-28 86 -36 113h-1q-4 -11 -15.5 -49.5t-20.5 -63.5z" />
    <glyph glyph-name="aringacute" unicode="&#x1fb;" horiz-adv-x="580" 
d="M253 759l65 127h101l-92 -127h-74zM288 553q-40 0 -68 27t-28 65t28 65t68 27t68 -27t28 -65t-28 -65t-68 -27zM288 591q23 0 36.5 15t13.5 39q0 22 -13.5 37.5t-36.5 15.5q-22 0 -36.5 -15.5t-14.5 -37.5q0 -23 14.5 -38.5t36.5 -15.5zM233 -12q-69 0 -118.5 37.5
t-49.5 106.5q0 39 14.5 67t41.5 45t53 25.5t61 15.5l165 32q0 67 -17 91q-23 33 -91 33q-65 0 -93.5 -25.5t-28.5 -82.5l-88 12q3 91 62 130q56 37 153 37q190 0 190 -165v-239q0 -16 1 -22t7.5 -11t20.5 -5q12 0 29 4l2 -74q-25 -4 -56 -4q-83 0 -90 78q-42 -86 -168 -86z
M247 60q78 0 115.5 35.5t37.5 93.5v61l-151 -33q-47 -11 -69.5 -28t-22.5 -56q0 -34 26 -53.5t64 -19.5z" />
    <glyph glyph-name="AEacute" unicode="&#x1fc;" horiz-adv-x="775" 
d="M616 864l-89 -108h-74l63 108h100zM730 619h-276v-225h245v-81h-245v-232h276v-81h-364v209h-187l-76 -209h-97l267 700h457v-81zM366 289v330h-39l-119 -330h158z" />
    <glyph glyph-name="aeacute" unicode="&#x1fd;" horiz-adv-x="745" 
d="M333 573l65 127h101l-92 -127h-74zM191 -12q-68 0 -116 35t-48 109q0 73 43.5 106t128.5 54l113 25q0 74 -14 95q-17 29 -72 29q-98 0 -95 -102l-86 12q1 88 58 129q47 32 126 32q104 0 143 -70q56 70 149 70q49 0 91 -22t66 -62q40 -69 40 -179q0 -5 -0.5 -14t-0.5 -12
h-314q1 -163 113 -163q98 0 112 109l84 -7q-30 -174 -196 -174q-109 0 -159 86q-50 -86 -166 -86zM404 296h227q-2 58 -22 94q-28 49 -90 49q-68 0 -94 -49q-21 -37 -21 -94zM194 60q59 0 88.5 34t29.5 90v65l-103 -25q-48 -13 -69.5 -32t-21.5 -59q0 -34 21 -53.5t55 -19.5
z" />
    <glyph glyph-name="Oslashacute" unicode="&#x1fe;" horiz-adv-x="690" 
d="M474 864l-89 -108h-74l63 108h100zM658 677l-74 -88q62 -94 62 -239q0 -165 -78.5 -263.5t-220.5 -98.5q-128 0 -204 73l-67 -79l-41 35l72 87q-61 91 -61 246q0 165 78.5 263.5t222.5 98.5q124 0 203 -79l66 79zM149 350q0 -103 23 -169l323 386q-49 67 -144 67
q-104 0 -152 -65q-50 -67 -50 -219zM544 350q0 99 -23 164l-322 -385q51 -63 148 -63t144 63q53 70 53 221z" />
    <glyph glyph-name="oslashacute" unicode="&#x1ff;" horiz-adv-x="599" 
d="M425 700l-92 -127h-74l65 127h101zM492 428q58 -72 58 -178q0 -118 -68.5 -190t-180.5 -72q-104 0 -168 55l-53 -57l-32 29l55 59q-52 67 -52 176q0 116 68 189t182 73q93 0 160 -53l56 60l32 -30zM148 250q0 -68 17 -110l244 263q-38 38 -108 38q-83 0 -118 -48.5
t-35 -142.5zM301 59q81 0 116.5 49t35.5 142q0 72 -20 115l-245 -263q37 -43 113 -43z" />
    <glyph glyph-name="uni0218" unicode="&#x218;" horiz-adv-x="630" 
d="M323 -12q-120 0 -200.5 60.5t-82.5 174.5l96 10q2 -80 53 -124.5t131 -44.5q79 0 129 32t50 101q0 23 -10 41t-24 28t-38.5 18.5t-44.5 12.5t-51.5 10t-50.5 11q-47 11 -80 23.5t-68 34.5t-53.5 57t-18.5 82q0 98 73 147.5t169 49.5q113 0 185.5 -52t83.5 -166l-94 -17
q-3 76 -49 118t-125 42q-60 0 -105 -31t-45 -87q0 -29 16 -50t47.5 -34t59 -20.5t69.5 -14.5q49 -8 78.5 -15t66 -21.5t56 -33.5t33.5 -51t14 -75q0 -61 -23.5 -105t-64 -67t-85.5 -33.5t-97 -10.5zM274 -237v39q48 6 48 47h-47v85h95v-79q0 -87 -96 -92z" />
    <glyph glyph-name="uni0219" unicode="&#x219;" horiz-adv-x="554" 
d="M281 -12q-91 0 -152 44t-60 132l82 8q-1 -52 34 -82.5t94 -30.5q123 0 123 81q0 16 -9 28t-29 20.5t-35.5 13t-45 11t-42.5 9.5q-38 10 -60.5 18t-49 24t-39 41.5t-12.5 60.5q0 72 55 109t130 37q87 0 144 -39t65 -125l-84 -13q-1 52 -34 79t-92 27q-40 0 -70 -18.5
t-30 -50.5q0 -16 9 -28t29.5 -20.5t36 -12.5t45.5 -11q103 -22 137 -41q66 -36 66 -114q0 -58 -31.5 -94.5t-75 -49.5t-99.5 -13zM233 -237v39q48 6 48 47h-47v85h95v-79q0 -87 -96 -92z" />
    <glyph glyph-name="uni021A" unicode="&#x21a;" horiz-adv-x="597" 
d="M253 0v621h-224v79h539v-79h-224v-621h-91zM251 -237v39q48 6 48 47h-47v85h95v-79q0 -87 -96 -92z" />
    <glyph glyph-name="uni021B" unicode="&#x21b;" horiz-adv-x="464" 
d="M318 -5q-81 0 -118 30t-37 98v302h-105v75h105v139h89v-139h142v-75h-142v-299q0 -29 16 -39.5t57 -10.5q27 0 65 9l2 -82q-32 -8 -74 -8zM225 -237v39q48 6 48 47h-47v85h95v-79q0 -87 -96 -92z" />
    <glyph glyph-name="uni0226" unicode="&#x226;" horiz-adv-x="634" 
d="M364 862v-106h-90v106h90zM522 0l-71 209h-268l-70 -209h-95l250 700h99l249 -700h-94zM210 289h214l-71 211q-28 86 -36 113h-1q-4 -11 -15.5 -49.5t-20.5 -63.5z" />
    <glyph glyph-name="uni0227" unicode="&#x227;" horiz-adv-x="580" 
d="M240 594v106h90v-106h-90zM233 -12q-69 0 -118.5 37.5t-49.5 106.5q0 39 14.5 67t41.5 45t53 25.5t61 15.5l165 32q0 67 -17 91q-23 33 -91 33q-65 0 -93.5 -25.5t-28.5 -82.5l-88 12q3 91 62 130q56 37 153 37q190 0 190 -165v-239q0 -16 1 -22t7.5 -11t20.5 -5
q12 0 29 4l2 -74q-25 -4 -56 -4q-83 0 -90 78q-42 -86 -168 -86zM247 60q78 0 115.5 35.5t37.5 93.5v61l-151 -33q-47 -11 -69.5 -28t-22.5 -56q0 -34 26 -53.5t64 -19.5z" />
    <glyph glyph-name="uni0232" unicode="&#x232;" horiz-adv-x="613" 
d="M179 768v70h256v-70h-256zM261 0v299l-241 401h105l111 -200q3 -5 14.5 -27t28.5 -53t27 -50q29 55 70 130l111 200h106l-241 -401v-299h-91z" />
    <glyph glyph-name="uni0233" unicode="&#x233;" horiz-adv-x="552" 
d="M409 667v-70h-256v70h256zM420 500h94l-204 -546q-32 -86 -64.5 -122.5t-82.5 -36.5q-42 0 -78 10l2 84q33 -11 64 -11q26 0 42.5 26.5t45.5 100.5l-195 495h96l95 -270q15 -44 44 -133q23 70 45 133z" />
    <glyph glyph-name="uni0237" unicode="&#x237;" horiz-adv-x="424" 
d="M291 500v-557q0 -71 -41.5 -110t-114.5 -39q-29 0 -64 6l2 84q26 -7 57 -7q40 0 55.5 19t15.5 58v470h-92v76h182z" />
    <glyph glyph-name="uni02B9" unicode="&#x2b9;" horiz-adv-x="427" 
d="M129 438l78 262h106l-108 -262h-76z" />
    <glyph glyph-name="uni02BA" unicode="&#x2ba;" horiz-adv-x="522" 
d="M86 438l78 262h106l-108 -262h-76zM277 438l78 262h106l-108 -262h-76z" />
    <glyph glyph-name="circumflex" unicode="&#x2c6;" horiz-adv-x="495" 
d="M114 585l93 101h83l93 -101h-80l-56 56l-58 -56h-75z" />
    <glyph glyph-name="caron" unicode="&#x2c7;" horiz-adv-x="498" 
d="M113 686h75l58 -56l56 56h80l-93 -101h-83z" />
    <glyph glyph-name="breve" unicode="&#x2d8;" horiz-adv-x="481" 
d="M241 585q-50 0 -84.5 31.5t-36.5 83.5h62q7 -50 58 -50q55 0 62 50h60q-2 -49 -36 -82t-85 -33z" />
    <glyph glyph-name="dotaccent" unicode="&#x2d9;" horiz-adv-x="405" 
d="M158 594v106h90v-106h-90z" />
    <glyph glyph-name="ring" unicode="&#x2da;" horiz-adv-x="456" 
d="M228 553q-40 0 -68 27t-28 65t28 65t68 27t68 -27t28 -65t-28 -65t-68 -27zM228 591q23 0 36.5 15t13.5 39q0 22 -13.5 37.5t-36.5 15.5q-22 0 -36.5 -15.5t-14.5 -37.5q0 -23 14.5 -38.5t36.5 -15.5z" />
    <glyph glyph-name="ogonek" unicode="&#x2db;" horiz-adv-x="440" 
d="M244 -181q-52 0 -78 23.5t-26 60.5q0 57 75 97h63q-60 -49 -60 -84q0 -33 41 -33q21 0 38 7l3 -63q-26 -8 -56 -8z" />
    <glyph glyph-name="tilde" unicode="&#x2dc;" horiz-adv-x="515" 
d="M316 570q-31 0 -65.5 20.5t-51.5 20.5q-36 0 -41 -38h-55q0 41 27 70q29 31 75 31q27 0 62 -21t49 -21q10 0 16 2t10.5 9.5t6 10.5t5.5 15h59q-7 -51 -30 -73q-27 -26 -67 -26z" />
    <glyph glyph-name="hungarumlaut" unicode="&#x2dd;" horiz-adv-x="480" 
d="M121 578l32 128h82l-53 -128h-61zM246 578l32 128h82l-53 -128h-61z" />
    <glyph glyph-name="gravecomb" unicode="&#x300;" horiz-adv-x="0" 
d="M-134 573h-74l-92 127h101z" />
    <glyph glyph-name="acutecomb" unicode="&#x301;" horiz-adv-x="0" 
d="M-304 573l65 127h101l-92 -127h-74z" />
    <glyph glyph-name="uni0302" unicode="&#x302;" horiz-adv-x="0" 
d="M-382 585l93 101h83l93 -101h-80l-56 56l-58 -56h-75z" />
    <glyph glyph-name="tildecomb" unicode="&#x303;" horiz-adv-x="0" 
d="M-199 570q-31 0 -65.5 20.5t-51.5 20.5q-36 0 -41 -38h-55q0 41 27 70q29 31 75 31q26 0 61 -21t50 -21q10 0 16 2t10.5 9.5t6 10.5t5.5 15h59q-7 -51 -30 -73q-27 -26 -67 -26z" />
    <glyph glyph-name="uni0304" unicode="&#x304;" horiz-adv-x="0" 
d="M-372 597v70h256v-70h-256z" />
    <glyph glyph-name="uni0306" unicode="&#x306;" horiz-adv-x="0" 
d="M-240 585q-50 0 -84.5 31.5t-36.5 83.5h62q7 -50 58 -50q55 0 62 50h60q-2 -49 -36 -82t-85 -33z" />
    <glyph glyph-name="uni0307" unicode="&#x307;" horiz-adv-x="0" 
d="M-322 594v106h90v-106h-90z" />
    <glyph glyph-name="uni0308" unicode="&#x308;" horiz-adv-x="0" 
d="M-440 585v97h83v-97h-83zM-251 585v97h83v-97h-83z" />
    <glyph glyph-name="uni030A" unicode="&#x30a;" horiz-adv-x="0" 
d="M-228 553q-40 0 -68 27t-28 65t28 65t68 27t68 -27t28 -65t-28 -65t-68 -27zM-228 591q23 0 36.5 15t13.5 39q0 22 -13.5 37.5t-36.5 15.5q-22 0 -36.5 -15.5t-14.5 -37.5q0 -23 14.5 -38.5t36.5 -15.5z" />
    <glyph glyph-name="uni030B" unicode="&#x30b;" horiz-adv-x="0" 
d="M-359 578l32 128h82l-53 -128h-61zM-234 578l32 128h82l-53 -128h-61z" />
    <glyph glyph-name="uni030C" unicode="&#x30c;" horiz-adv-x="0" 
d="M-384 686h75l58 -56l56 56h80l-93 -101h-83z" />
    <glyph glyph-name="uni0312" unicode="&#x312;" horiz-adv-x="0" 
d="M-156 744v-39q-48 -6 -48 -47h47v-85h-95v79q0 87 96 92z" />
    <glyph glyph-name="dotbelowcomb" unicode="&#x323;" horiz-adv-x="0" 
d="M-322 -197v106h90v-106h-90z" />
    <glyph glyph-name="uni0326" unicode="&#x326;" horiz-adv-x="0" 
d="M-252 -237v39q48 6 48 47h-47v85h95v-79q0 -87 -96 -92z" />
    <glyph glyph-name="uni0327" unicode="&#x327;" horiz-adv-x="0" 
d="M-244 -207q-52 0 -99 27l20 41q39 -16 73 -16q54 0 54 32q0 30 -51 30q-17 0 -43 -9l-20 25l73 83l54 -6l-52 -50q5 1 18 1q35 0 63.5 -18t28.5 -51q0 -46 -35.5 -67.5t-83.5 -21.5z" />
    <glyph glyph-name="uni0328" unicode="&#x328;" horiz-adv-x="0" 
d="M-196 -181q-52 0 -78 23.5t-26 60.5q0 57 75 97h63q-60 -49 -60 -84q0 -33 41 -33q21 0 38 7l3 -63q-26 -8 -56 -8z" />
    <glyph glyph-name="uni0335" unicode="&#x335;" horiz-adv-x="0" 
d="M-399 210v64h292v-64h-292z" />
    <glyph glyph-name="uni0336" unicode="&#x336;" horiz-adv-x="0" 
d="M-669 405v76h637v-76h-637z" />
    <glyph glyph-name="uni0337" unicode="&#x337;" horiz-adv-x="0" 
d="M-372 156v77l265 206v-77z" />
    <glyph glyph-name="uni0338" unicode="&#x338;" horiz-adv-x="0" 
d="M-509 -13l-32 29l469 504l32 -30z" />
    <glyph glyph-name="uni0394" unicode="&#x394;" horiz-adv-x="630" 
d="M352 700l261 -700h-596l262 700h73zM315 563l-176 -482h353z" />
    <glyph glyph-name="uni0394" unicode="&#x3b4;" horiz-adv-x="630" 
d="M352 700l261 -700h-596l262 700h73zM315 563l-176 -482h353z" />
    <glyph glyph-name="uni03A9" unicode="&#x3a9;" horiz-adv-x="694" 
d="M652 358q0 -179 -137 -279h123v-79h-254v79q87 29 126.5 96.5t39.5 181.5q0 137 -47 203q-50 73 -156 73q-104 0 -156 -73q-46 -64 -46 -203q0 -114 39 -181.5t126 -96.5v-79h-253v79h120q-134 92 -134 279q0 163 78.5 258.5t225.5 95.5q148 0 226.5 -95t78.5 -259z" />
    <glyph glyph-name="uni03A9" unicode="&#x3c9;" horiz-adv-x="694" 
d="M652 358q0 -179 -137 -279h123v-79h-254v79q87 29 126.5 96.5t39.5 181.5q0 137 -47 203q-50 73 -156 73q-104 0 -156 -73q-46 -64 -46 -203q0 -114 39 -181.5t126 -96.5v-79h-253v79h120q-134 92 -134 279q0 163 78.5 258.5t225.5 95.5q148 0 226.5 -95t78.5 -259z" />
    <glyph glyph-name="uni03BC" unicode="&#x3bc;" horiz-adv-x="590" 
d="M420 500h89v-500h-89v75q-41 -87 -155 -87q-59 0 -96 31q2 -32 2 -48v-171h-90v700h90v-294q0 -31 1 -45t7.5 -34.5t20.5 -34.5q30 -29 90 -29q130 0 130 156v281z" />
    <glyph glyph-name="pi" unicode="&#x3c0;" horiz-adv-x="607" 
d="M497 -4q-48 0 -78.5 28t-30.5 82v323h-192v-429h-85v429h-86v71h544v-71h-95v-311q0 -26 10.5 -37t34.5 -11q15 0 43 8l2 -74q-30 -8 -67 -8z" />
    <glyph glyph-name="Wgrave" unicode="&#x1e80;" horiz-adv-x="761" 
d="M420 756h-74l-89 108h100zM154 0l-131 700h95l64 -421q15 -86 26 -169h2q9 48 37 169l85 351h99l85 -351q25 -106 38 -169h2q3 28 24 169l63 421h95l-131 -700h-104l-86 354q-24 102 -36 167h-2q-13 -72 -35 -168l-84 -353h-106z" />
    <glyph glyph-name="wgrave" unicode="&#x1e81;" horiz-adv-x="675" 
d="M370 573h-74l-92 127h101zM152 0l-132 500h96l57 -267l29 -146h2q16 76 33 146l58 232h85l58 -232q19 -79 31 -146h2q21 109 29 146l60 267h95l-132 -500h-99l-58 223q-13 51 -28 132h-2q-9 -55 -28 -132l-56 -223h-100z" />
    <glyph glyph-name="Wacute" unicode="&#x1e82;" horiz-adv-x="761" 
d="M342 756l63 108h100l-89 -108h-74zM154 0l-131 700h95l64 -421q15 -86 26 -169h2q9 48 37 169l85 351h99l85 -351q25 -106 38 -169h2q3 28 24 169l63 421h95l-131 -700h-104l-86 354q-24 102 -36 167h-2q-13 -72 -35 -168l-84 -353h-106z" />
    <glyph glyph-name="wacute" unicode="&#x1e83;" horiz-adv-x="675" 
d="M303 573l65 127h101l-92 -127h-74zM152 0l-132 500h96l57 -267l29 -146h2q16 76 33 146l58 232h85l58 -232q19 -79 31 -146h2q21 109 29 146l60 267h95l-132 -500h-99l-58 223q-13 51 -28 132h-2q-9 -55 -28 -132l-56 -223h-100z" />
    <glyph glyph-name="Wdieresis" unicode="&#x1e84;" horiz-adv-x="761" 
d="M253 756v97h83v-97h-83zM442 756v97h83v-97h-83zM154 0l-131 700h95l64 -421q15 -86 26 -169h2q9 48 37 169l85 351h99l85 -351q25 -106 38 -169h2q3 28 24 169l63 421h95l-131 -700h-104l-86 354q-24 102 -36 167h-2q-13 -72 -35 -168l-84 -353h-106z" />
    <glyph glyph-name="wdieresis" unicode="&#x1e85;" horiz-adv-x="675" 
d="M202 585v97h83v-97h-83zM391 585v97h83v-97h-83zM152 0l-132 500h96l57 -267l29 -146h2q16 76 33 146l58 232h85l58 -232q19 -79 31 -146h2q21 109 29 146l60 267h95l-132 -500h-99l-58 223q-13 51 -28 132h-2q-9 -55 -28 -132l-56 -223h-100z" />
    <glyph glyph-name="uni1E9E" unicode="&#x1e9e;" horiz-adv-x="638" 
d="M487 364q113 -47 113 -172q0 -100 -64 -149t-179 -49q-43 0 -109 11l2 82q73 -11 106 -11q151 0 151 119q0 66 -42 99t-112 33h-94v81h95q62 0 92.5 25.5t30.5 83.5q0 102 -117 102h-186v-619h-91v700h280q97 0 150.5 -47.5t53.5 -130.5q0 -112 -80 -156v-2z" />
    <glyph glyph-name="uni1EA0" unicode="&#x1ea0;" horiz-adv-x="634" 
d="M616 0h-94l-71 209h-268l-70 -209h-95l250 700h99zM210 289h214l-71 211q-28 86 -36 113h-1q-4 -11 -15.5 -49.5t-20.5 -63.5zM274 -197v106h90v-106h-90z" />
    <glyph glyph-name="uni1EA1" unicode="&#x1ea1;" horiz-adv-x="580" 
d="M233 -12q-69 0 -118.5 37.5t-49.5 106.5q0 39 14.5 67t41.5 45t53 25.5t61 15.5l165 32q0 67 -17 91q-23 33 -91 33q-65 0 -93.5 -25.5t-28.5 -82.5l-88 12q3 91 62 130q56 37 153 37q190 0 190 -165v-239q0 -16 1 -22t7.5 -11t20.5 -5q12 0 29 4l2 -74q-25 -4 -56 -4
q-83 0 -90 78q-42 -86 -168 -86zM247 60q78 0 115.5 35.5t37.5 93.5v61l-151 -33q-47 -11 -69.5 -28t-22.5 -56q0 -34 26 -53.5t64 -19.5zM250 -195v98h82v-98h-82z" />
    <glyph glyph-name="uni1EB8" unicode="&#x1eb8;" horiz-adv-x="601" 
d="M97 0v700h446v-81h-356v-225h321v-81h-321v-232h356v-81h-446zM276 -197v106h90v-106h-90z" />
    <glyph glyph-name="uni1EB9" unicode="&#x1eb9;" horiz-adv-x="585" 
d="M490 413q48 -77 42 -190h-379q3 -163 142 -163q125 0 143 112l87 -7q-16 -87 -74.5 -132t-154.5 -45q-116 0 -180 73q-61 68 -61 190q0 115 63 186q66 75 177 75q61 0 113 -25.5t82 -73.5zM296 439q-85 0 -118 -54q-24 -40 -24 -89h286q-2 51 -27 89q-37 54 -117 54z
M250 -197v106h90v-106h-90z" />
    <glyph glyph-name="uni1ECA" unicode="&#x1eca;" horiz-adv-x="439" 
d="M348 621h-83v-542h83v-79h-257v79h83v542h-83v79h257v-79zM175 -197v106h90v-106h-90z" />
    <glyph glyph-name="uni1ECB" unicode="&#x1ecb;" horiz-adv-x="421" 
d="M271 708v-116h-99v116h99zM270 76h92v-76h-281v76h99v348h-85v76h175v-424zM180 -197v106h90v-106h-90z" />
    <glyph glyph-name="uni1ECC" unicode="&#x1ecc;" horiz-adv-x="683" 
d="M343 -12q-145 0 -223 93.5t-78 268.5q0 165 78.5 263.5t222.5 98.5q142 0 220.5 -99t78.5 -263q0 -165 -78.5 -263.5t-220.5 -98.5zM343 66q97 0 144 63q53 70 53 221q0 142 -47 213t-146 71q-104 0 -152 -65q-50 -67 -50 -219q0 -157 49 -219q51 -65 149 -65zM299 -197
v106h90v-106h-90z" />
    <glyph glyph-name="uni1ECD" unicode="&#x1ecd;" horiz-adv-x="596" 
d="M299 -12q-117 0 -183.5 70t-66.5 192q0 116 68 189t182 73q113 0 181 -73.5t68 -188.5q0 -118 -68.5 -190t-180.5 -72zM299 59q81 0 116.5 49t35.5 142t-35.5 142t-116.5 49q-83 0 -118 -48.5t-35 -142.5t35 -142.5t118 -48.5zM253 -197v106h90v-106h-90z" />
    <glyph glyph-name="uni1EE4" unicode="&#x1ee4;" horiz-adv-x="660" 
d="M330 -12q-126 0 -191.5 61.5t-65.5 181.5v469h91v-469q0 -82 46 -122.5t120 -40.5t120 41t46 122v469h91v-469q0 -120 -65.5 -181.5t-191.5 -61.5zM285 -197v106h90v-106h-90z" />
    <glyph glyph-name="uni1EE5" unicode="&#x1ee5;" horiz-adv-x="590" 
d="M419 500h90v-500h-90v75q-41 -87 -154 -87q-95 0 -148 56q-18 19 -27.5 49t-11 51.5t-1.5 56.5v299h93v-294q0 -31 1 -45t7.5 -34.5t20.5 -34.5q30 -29 91 -29q129 0 129 156v281zM245 -197v106h90v-106h-90z" />
    <glyph glyph-name="Ygrave" unicode="&#x1ef2;" horiz-adv-x="613" 
d="M344 756h-74l-89 108h100zM261 0v299l-241 401h105l111 -200q3 -5 14.5 -27t28.5 -53t27 -50q29 55 70 130l111 200h106l-241 -401v-299h-91z" />
    <glyph glyph-name="ygrave" unicode="&#x1ef3;" horiz-adv-x="552" 
d="M328 573h-74l-92 127h101zM420 500h94l-204 -546q-32 -86 -64.5 -122.5t-82.5 -36.5q-42 0 -78 10l2 84q33 -11 64 -11q26 0 42.5 26.5t45.5 100.5l-195 495h96l95 -270q15 -44 44 -133q23 70 45 133z" />
    <glyph glyph-name="uni2002" unicode="&#x2002;" horiz-adv-x="870" 
 />
    <glyph glyph-name="uni2003" unicode="&#x2003;" horiz-adv-x="1120" 
 />
    <glyph glyph-name="uni2009" unicode="&#x2009;" horiz-adv-x="373" 
 />
    <glyph glyph-name="uni200A" unicode="&#x200a;" horiz-adv-x="331" 
 />
    <glyph glyph-name="endash" unicode="&#x2013;" horiz-adv-x="609" 
d="M61 243v80h487v-80h-487z" />
    <glyph glyph-name="emdash" unicode="&#x2014;" horiz-adv-x="737" 
d="M52 243v80h634v-80h-634z" />
    <glyph glyph-name="quoteleft" unicode="&#x2018;" horiz-adv-x="409" 
d="M253 702v-50q-45 -16 -46 -82h47v-109h-102v111q0 54 26.5 88t74.5 42z" />
    <glyph glyph-name="quoteright" unicode="&#x2019;" horiz-adv-x="405" 
d="M156 458v50q45 16 46 82h-47v109h102v-111q0 -54 -26.5 -88t-74.5 -42z" />
    <glyph glyph-name="quotesinglbase" unicode="&#x201a;" horiz-adv-x="416" 
d="M159 -132v50q45 16 46 82h-47v109h102v-111q0 -54 -26.5 -88t-74.5 -42z" />
    <glyph glyph-name="quotedblleft" unicode="&#x201c;" horiz-adv-x="485" 
d="M206 702v-50q-45 -16 -46 -82h47v-109h-102v111q0 54 26.5 88t74.5 42zM379 702v-50q-45 -16 -46 -82h47v-109h-102v111q0 54 26.5 88t74.5 42z" />
    <glyph glyph-name="quotedblright" unicode="&#x201d;" horiz-adv-x="480" 
d="M105 458v50q45 16 46 82h-47v109h102v-111q0 -54 -26.5 -88t-74.5 -42zM278 458v50q45 16 46 82h-47v109h102v-111q0 -54 -26.5 -88t-74.5 -42z" />
    <glyph glyph-name="quotedblbase" unicode="&#x201e;" horiz-adv-x="491" 
d="M108 -132v50q45 16 46 82h-47v109h102v-111q0 -54 -26.5 -88t-74.5 -42zM281 -132v50q45 16 46 82h-47v109h102v-111q0 -54 -26.5 -88t-74.5 -42z" />
    <glyph glyph-name="dagger" unicode="&#x2020;" horiz-adv-x="555" 
d="M232 -110v549h-173v73h173v188h86v-188h179v-73h-179v-549h-86z" />
    <glyph glyph-name="daggerdbl" unicode="&#x2021;" horiz-adv-x="579" 
d="M244 -110v188h-173v73h173v288h-173v73h173v188h86v-188h179v-73h-179v-288h179v-73h-179v-188h-86z" />
    <glyph glyph-name="bullet" unicode="&#x2022;" horiz-adv-x="485" 
d="M243 216q-48 0 -77.5 30t-29.5 77t29.5 76.5t77.5 29.5q46 0 75.5 -30t29.5 -76q0 -47 -29.5 -77t-75.5 -30z" />
    <glyph glyph-name="ellipsis" unicode="&#x2026;" horiz-adv-x="661" 
d="M52 0v112h106v-112h-106zM282 0v112h106v-112h-106zM511 0v112h106v-112h-106z" />
    <glyph glyph-name="perthousand" unicode="&#x2030;" 
d="M125 368q-53 0 -82 42.5t-29 119.5q0 75 29.5 120t81.5 45q51 0 80.5 -45t29.5 -120q0 -73 -29.5 -117.5t-80.5 -44.5zM385 685h77l-373 -685h-77zM125 634q-22 0 -31 -24t-9 -80q0 -55 9 -79t31 -24q21 0 29.5 24t8.5 79q0 56 -8.5 80t-29.5 24zM498 317q51 0 80.5 -45
t29.5 -120q0 -73 -29.5 -117.5t-80.5 -44.5q-50 0 -75 40q-26 -40 -73 -40q-53 0 -82 42.5t-29 119.5q0 75 29.5 120t81.5 45q47 0 73 -42q28 42 75 42zM350 48q21 0 29.5 24.5t8.5 79.5q0 56 -8.5 80.5t-29.5 24.5q-22 0 -31.5 -24.5t-9.5 -80.5q0 -55 9.5 -79.5
t31.5 -24.5zM498 48q21 0 30 24.5t9 79.5q0 56 -9 80.5t-30 24.5q-22 0 -31 -24.5t-9 -80.5q0 -55 9 -79.5t31 -24.5z" />
    <glyph glyph-name="guilsinglleft" unicode="&#x2039;" horiz-adv-x="440" 
d="M292 459v-97l-107 -85l107 -86v-98l-169 136v92z" />
    <glyph glyph-name="guilsinglright" unicode="&#x203a;" horiz-adv-x="440" 
d="M148 459l169 -138v-92l-169 -136v98l107 86l-107 85v97z" />
    <glyph glyph-name="fraction" unicode="&#x2044;" horiz-adv-x="120" 
d="M-238 0l511 700h83l-511 -700h-83z" />
    <glyph glyph-name="uni2070" unicode="&#x2070;" horiz-adv-x="518" 
d="M259 324q-83 0 -127 62t-44 179q0 114 45 178t126 64q82 0 127.5 -64t45.5 -178t-45.5 -177.5t-127.5 -63.5zM259 391q49 0 72 40.5t23 133.5q0 95 -22.5 135t-72.5 40q-49 0 -70.5 -40t-21.5 -135q0 -96 21.5 -135t70.5 -39z" />
    <glyph glyph-name="uni2074" unicode="&#x2074;" horiz-adv-x="495" 
d="M280 330v107h-198v66l210 299h59v-301h60v-64h-60v-107h-71zM158 500q17 1 55 1h68v112q0 30 2 70q-19 -35 -45 -72l-38 -53q-10 -14 -42 -58z" />
    <glyph glyph-name="uni2075" unicode="&#x2075;" horiz-adv-x="500" 
d="M254 647q71 0 114 -43.5t43 -115.5q0 -75 -45.5 -119.5t-121.5 -44.5q-64 0 -109 42.5t-45 105.5l71 10q0 -42 24 -67.5t60 -25.5q45 0 70.5 25.5t25.5 73.5q0 42 -26 68t-70 26q-56 0 -86 -43l-63 4l37 259h249v-67h-193l-16 -109q30 21 81 21z" />
    <glyph glyph-name="uni2076" unicode="&#x2076;" horiz-adv-x="506" 
d="M270 643q66 0 106.5 -43t40.5 -113q0 -62 -39 -112.5t-121 -50.5q-165 0 -165 229q0 129 43.5 191.5t132.5 62.5q56 0 91.5 -32.5t43.5 -91.5l-66 -11q-8 71 -72 71q-97 0 -103 -152q43 52 108 52zM255 389q47 0 69.5 24t22.5 75q0 92 -88 92q-42 0 -65.5 -25.5
t-23.5 -70.5t22.5 -70t62.5 -25z" />
    <glyph glyph-name="uni2077" unicode="&#x2077;" horiz-adv-x="476" 
d="M90 802h300v-65q-75 -71 -122.5 -182.5t-50.5 -224.5h-78q5 109 48.5 214.5t117.5 189.5h-215v68z" />
    <glyph glyph-name="uni2078" unicode="&#x2078;" horiz-adv-x="508" 
d="M253 324q-76 0 -120 40.5t-44 109.5q0 82 70 114q-50 32 -50 92q0 59 38.5 93t106.5 34q67 -2 105.5 -35t38.5 -92t-50 -93q70 -30 70 -114q0 -68 -44.5 -108.5t-120.5 -40.5zM253 609q35 0 55.5 17.5t20.5 48.5q0 33 -20 51t-56 18t-55.5 -18t-19.5 -51q0 -31 20 -48.5
t55 -17.5zM253 388q43 0 68.5 23t25.5 61q0 36 -25.5 58t-68.5 22t-68 -22t-25 -58q0 -38 25 -61t68 -23z" />
    <glyph glyph-name="uni2079" unicode="&#x2079;" horiz-adv-x="506" 
d="M250 807q163 0 163 -228q0 -130 -42.5 -192.5t-131.5 -62.5q-57 0 -94.5 33.5t-45.5 92.5l67 11q4 -34 24 -53t51 -19q98 0 103 150q-41 -50 -107 -50q-65 0 -106 42.5t-41 112.5q0 62 39 112.5t121 50.5zM248 552q41 0 65 25.5t24 69.5q0 45 -23 70.5t-63 25.5
q-47 0 -69 -24t-22 -76q0 -91 88 -91z" />
    <glyph glyph-name="uni2080" unicode="&#x2080;" horiz-adv-x="518" 
d="M259 -108q-83 0 -127 62t-44 179q0 114 45 178t126 64q82 0 127.5 -64t45.5 -178t-45.5 -177.5t-127.5 -63.5zM259 -41q49 0 72 40.5t23 133.5q0 95 -22.5 135t-72.5 40q-49 0 -70.5 -40t-21.5 -135q0 -96 21.5 -135t70.5 -39z" />
    <glyph glyph-name="uni2081" unicode="&#x2081;" horiz-adv-x="442" 
d="M229 -102v352q-17 -14 -49.5 -23t-65.5 -8v68q55 0 88.5 22.5t38.5 60.5h62v-472h-74z" />
    <glyph glyph-name="uni2082" unicode="&#x2082;" horiz-adv-x="504" 
d="M174 -34h237v-68h-323q2 57 24.5 101t47 66t64.5 48l27.5 16.5t32.5 21t25.5 22t22 29.5t6.5 33q0 78 -76 78q-82 0 -82 -102l-74 12q0 26 7 51t23.5 49.5t49.5 39.5t79 15q66 0 105.5 -39.5t39.5 -105.5q0 -38 -20.5 -70.5t-42 -49.5t-56.5 -39t-51.5 -33t-37.5 -32.5
t-28 -42.5z" />
    <glyph glyph-name="uni2083" unicode="&#x2083;" horiz-adv-x="503" 
d="M348 155q30 -14 47.5 -45t17.5 -70q0 -67 -44.5 -107.5t-118.5 -40.5t-117 43t-43 115l72 10q0 -49 23 -76t65 -27q43 0 66.5 21.5t23.5 60.5q0 72 -86 72h-42v68h33q35 0 55.5 17.5t20.5 45.5q0 34 -19 53.5t-53 19.5q-78 0 -78 -95l-75 11q0 62 43 104.5t110 42.5
t106 -36.5t39 -99.5q0 -54 -46 -87z" />
    <glyph glyph-name="uni2084" unicode="&#x2084;" horiz-adv-x="495" 
d="M277 -102v107h-198v66l210 299h59v-301h60v-64h-60v-107h-71zM155 68q17 1 55 1h68v112q0 30 2 70q-19 -35 -45 -72l-38 -53q-10 -14 -42 -58z" />
    <glyph glyph-name="uni2085" unicode="&#x2085;" horiz-adv-x="500" 
d="M254 215q71 0 114 -43.5t43 -115.5q0 -75 -45.5 -119.5t-121.5 -44.5q-64 0 -109 42.5t-45 105.5l71 10q0 -42 24 -67.5t60 -25.5q45 0 70.5 25.5t25.5 73.5q0 42 -26 68t-70 26q-56 0 -86 -43l-63 4l37 259h249v-67h-193l-16 -109q30 21 81 21z" />
    <glyph glyph-name="uni2086" unicode="&#x2086;" horiz-adv-x="506" 
d="M270 211q66 0 106.5 -43t40.5 -113q0 -62 -39 -112.5t-121 -50.5q-165 0 -165 229q0 129 43.5 191.5t132.5 62.5q56 0 91.5 -32.5t43.5 -91.5l-66 -11q-8 71 -72 71q-97 0 -103 -152q43 52 108 52zM255 -43q47 0 69.5 24t22.5 75q0 92 -88 92q-42 0 -65.5 -25.5
t-23.5 -70.5t22.5 -70t62.5 -25z" />
    <glyph glyph-name="uni2087" unicode="&#x2087;" horiz-adv-x="476" 
d="M92 370h300v-65q-75 -71 -122.5 -182.5t-50.5 -224.5h-78q5 109 48.5 214.5t117.5 189.5h-215v68z" />
    <glyph glyph-name="uni2088" unicode="&#x2088;" horiz-adv-x="508" 
d="M253 -108q-76 0 -120 40.5t-44 109.5q0 82 70 114q-50 32 -50 92q0 59 38.5 93t106.5 34q67 -2 105.5 -35t38.5 -92t-50 -93q70 -30 70 -114q0 -68 -44.5 -108.5t-120.5 -40.5zM253 177q35 0 55.5 17.5t20.5 48.5q0 33 -20 51t-56 18t-55.5 -18t-19.5 -51q0 -31 20 -48.5
t55 -17.5zM253 -44q43 0 68.5 23t25.5 61q0 36 -25.5 58t-68.5 22t-68 -22t-25 -58q0 -38 25 -61t68 -23z" />
    <glyph glyph-name="uni2089" unicode="&#x2089;" horiz-adv-x="506" 
d="M251 375q163 0 163 -228q0 -130 -42.5 -192.5t-131.5 -62.5q-57 0 -94.5 33.5t-45.5 92.5l67 11q4 -34 24 -53t51 -19q98 0 103 150q-41 -50 -107 -50q-65 0 -106 42.5t-41 112.5q0 62 39 112.5t121 50.5zM249 120q41 0 65 25.5t24 69.5q0 45 -23 70.5t-63 25.5
q-47 0 -69 -24t-22 -76q0 -91 88 -91z" />
    <glyph glyph-name="uni20A9" unicode="&#x20a9;" horiz-adv-x="802" 
d="M772 379h-81l-16 -83h97v-59h-108l-44 -237h-103l-83 403q-6 27 -17 90t-16 87h-2q-3 -18 -13.5 -80t-17.5 -98l-82 -402h-104l-44 237h-108v59h97l-16 83h-81v59h70l-49 262h92l40 -262h118l52 262h97l54 -262h115l40 262h92l-49 -262h70v-59zM193 379l12 -83h67l17 83
h-96zM598 296l12 83h-94l17 -83h65zM234 107h2q1 5 25 130h-46q6 -38 11.5 -78t7.5 -52zM571 107q1 4 18 130h-45q6 -30 14 -73.5t11 -56.5h2z" />
    <glyph glyph-name="Euro" unicode="&#x20ac;" horiz-adv-x="616" 
d="M488 203l90 -23q-55 -192 -235 -192q-215 0 -246 270h-53v59h49q-1 11 -1 34t1 35h-49v59h54q17 123 78 195t167 72q85 0 144 -46.5t81 -127.5l-87 -17q-15 57 -48 85t-90 28q-72 0 -106 -48t-42 -141h203v-59h-207v-35v-34h207v-59h-203q8 -96 42 -144t106 -48
q62 0 96 34.5t49 102.5z" />
    <glyph glyph-name="uni20B9" unicode="&#x20b9;" horiz-adv-x="586" 
d="M538 629h-138q36 -39 44 -98h94v-70h-93q-4 -45 -22.5 -77.5t-43 -50.5t-60.5 -28.5t-67 -13t-71 -2.5l277 -287l-1 -3h-116l-267 279v85h96q37 0 61.5 2.5t54 11.5t47.5 30t23 54h-282v70h280q-7 34 -24.5 54.5t-48 28.5t-51.5 10t-59 2h-97v73h464v-70z" />
    <glyph glyph-name="uni20BA" unicode="&#x20ba;" horiz-adv-x="602" 
d="M478 265l89 -23q-28 -114 -117.5 -178t-230.5 -64h-80v248l-79 -44v72l79 44v79l-79 -44v72l79 44v229h90v-179l201 111v-72l-201 -111v-79l201 111v-72l-201 -111v-220q208 5 249 187z" />
    <glyph glyph-name="uni20BD" unicode="&#x20bd;" horiz-adv-x="624" 
d="M322 285h-105v-88h214v-66h-214v-131h-90v131h-79v66h79v89h-79v73h79v341h196q42 0 74.5 -3.5t70.5 -16.5t62.5 -35t41.5 -62t17 -95q0 -53 -17 -91.5t-41.5 -59.5t-62.5 -33t-71 -15.5t-75 -3.5zM217 623v-263h105q30 0 50.5 1.5t47 8.5t42.5 20t27.5 38t11.5 60
q0 28 -6 49.5t-15 35.5t-24.5 24t-28.5 15t-34 7.5t-34.5 3t-35.5 0.5h-106z" />
    <glyph glyph-name="uni20BF" unicode="&#x20bf;" horiz-adv-x="627" 
d="M584 193q0 -90 -44 -132t-120 -54v-75h-72v69q-14 -1 -43 -1h-35v-68h-72v68h-111v700h111v68h72v-68h28q33 0 50 -1v69h72v-78q140 -32 140 -181q0 -103 -88 -151q112 -44 112 -165zM177 622v-226h114q29 0 45 0.5t41 3.5t38.5 10.5t28.5 19t21.5 31.5t6.5 47
q0 33 -11.5 55.5t-26 33.5t-43 17t-47.5 7t-53 1h-114zM305 77q39 0 59 1t50 6.5t44.5 17.5t26 34.5t11.5 56.5q0 36 -13 61t-29 37t-46 18.5t-48 7.5t-50 1h-133v-241h128z" />
    <glyph glyph-name="uni2116" unicode="&#x2116;" horiz-adv-x="1173" 
d="M921 343q-81 0 -127 49t-46 133q0 81 47 132t126 51t126.5 -51.5t47.5 -131.5q0 -81 -48 -131.5t-126 -50.5zM131 0v700h100l240 -416q9 -15 83 -156h1q-5 97 -5 176v396h89v-700h-102l-240 421q-12 22 -81 157h-1q5 -112 5 -177v-401h-89zM921 398q100 0 100 127
q0 129 -100 129t-100 -129q0 -127 100 -127zM744 222v62h354v-62h-354z" />
    <glyph glyph-name="uni2117" unicode="&#x2117;" horiz-adv-x="705" 
d="M351 13q-138 0 -231 95.5t-93 241.5q0 147 93 243t231 96q139 0 233 -96t94 -243q0 -146 -94 -241.5t-233 -95.5zM352 59q118 0 196 82t78 209q0 128 -78 211t-196 83t-196 -83t-78 -211q0 -127 78 -209t196 -82zM227 159v389h156q55 0 94.5 -29t39.5 -92
q0 -60 -38.5 -87t-93.5 -27h-91v-154h-67zM294 371h76q41 0 60.5 12t19.5 47q0 60 -80 60h-76v-119z" />
    <glyph glyph-name="trademark" unicode="&#x2122;" horiz-adv-x="704" 
d="M122 351v295h-95v54h251v-54h-95v-295h-61zM324 351v349h85l53 -161l24 -78q1 4 9.5 33.5t13.5 44.5l52 161h85v-349h-59v205q0 26 2 66h-1q-8 -28 -19 -61l-54 -168h-60l-56 172q-1 4 -7.5 24.5t-10.5 32.5h-1q2 -40 2 -62v-209h-58z" />
    <glyph glyph-name="uni2126" unicode="&#x2126;" horiz-adv-x="694" 
d="M652 358q0 -179 -137 -279h123v-79h-254v79q87 29 126.5 96.5t39.5 181.5q0 137 -47 203q-50 73 -156 73q-104 0 -156 -73q-46 -64 -46 -203q0 -114 39 -181.5t126 -96.5v-79h-253v79h120q-134 92 -134 279q0 163 78.5 258.5t225.5 95.5q148 0 226.5 -95t78.5 -259z" />
    <glyph glyph-name="uni2153" unicode="&#x2153;" horiz-adv-x="1042" 
d="M231 275v317q-37 -31 -104 -28v61q49 0 79.5 20t35.5 55h56v-425h-67zM710 700h83l-511 -700h-83zM884 231q27 -12 43 -40t16 -63q0 -61 -40.5 -97t-106.5 -36q-67 0 -105.5 38.5t-38.5 103.5l65 9q0 -44 20.5 -68.5t58.5 -24.5q39 0 60 19.5t21 54.5q0 65 -77 65h-38v61
h30q31 0 49.5 15.5t18.5 41.5q0 31 -17 48t-48 17q-70 0 -70 -85l-68 10q0 56 39 94t99 38t95.5 -33t35.5 -89q0 -50 -42 -79z" />
    <glyph glyph-name="uni2154" unicode="&#x2154;" horiz-adv-x="1093" 
d="M222 469q4 3 24 15t29 19t23 19.5t20 26t6 29.5q0 71 -68 71q-74 0 -74 -92l-67 11q0 53 33 96t111 43q59 0 94.5 -35.5t35.5 -94.5q0 -49 -28.5 -81t-78.5 -63q-33 -21 -47 -30t-33.5 -28.5t-25.5 -38.5h214v-61h-291q3 73 35 115.5t88 78.5zM762 700h83l-511 -700h-83z
M936 231q27 -12 43 -40t16 -63q0 -61 -40.5 -97t-106.5 -36q-67 0 -105.5 38.5t-38.5 103.5l65 9q0 -44 20.5 -68.5t58.5 -24.5q39 0 60 19.5t21 54.5q0 65 -77 65h-38v61h30q31 0 49.5 15.5t18.5 41.5q0 31 -17 48t-48 17q-70 0 -70 -85l-68 10q0 56 39 94t99 38t95.5 -33
t35.5 -89q0 -50 -42 -79z" />
    <glyph glyph-name="uni2155" unicode="&#x2155;" horiz-adv-x="1042" 
d="M231 275v317q-37 -31 -104 -28v61q49 0 79.5 20t35.5 55h56v-425h-67zM710 700h83l-511 -700h-83zM800 285q64 0 102.5 -38.5t38.5 -104.5q0 -67 -41 -107t-109 -40q-58 0 -98.5 38t-40.5 95l64 9q0 -38 22 -61t54 -23q40 0 63 23t23 66q0 38 -23 61.5t-63 23.5
q-51 0 -78 -39l-57 4l34 233h224v-60h-174l-14 -99q26 19 73 19z" />
    <glyph glyph-name="uni2156" unicode="&#x2156;" horiz-adv-x="1092" 
d="M222 469q4 3 24 15t29 19t23 19.5t20 26t6 29.5q0 71 -68 71q-74 0 -74 -92l-67 11q0 53 33 96t111 43q59 0 94.5 -35.5t35.5 -94.5q0 -49 -28.5 -81t-78.5 -63q-33 -21 -47 -30t-33.5 -28.5t-25.5 -38.5h214v-61h-291q3 73 35 115.5t88 78.5zM762 700h83l-511 -700h-83z
M853 285q63 0 102 -38.5t39 -104.5q0 -67 -41 -107t-109 -40q-58 0 -98.5 38t-40.5 95l64 9q0 -38 22 -61t54 -23q40 0 63 23t23 66q0 38 -23.5 61.5t-62.5 23.5q-51 0 -78 -39l-57 4l34 233h224v-60h-174l-14 -99q26 19 73 19z" />
    <glyph glyph-name="uni2157" unicode="&#x2157;" horiz-adv-x="1090" 
d="M389 403q0 -61 -40.5 -97t-106.5 -36q-67 0 -105.5 38.5t-38.5 103.5l65 9q0 -44 20.5 -68.5t58.5 -24.5q39 0 60 19.5t21 54.5q0 65 -77 65h-38v61h30q31 0 49.5 15.5t18.5 41.5q0 31 -17 48t-48 17q-70 0 -70 -85l-68 10q0 56 39 94t99 38t95.5 -33t35.5 -89
q0 -50 -42 -79q27 -12 43 -40t16 -63zM760 700h83l-511 -700h-83zM850 285q64 0 102.5 -38.5t38.5 -104.5q0 -67 -41 -107t-109 -40q-58 0 -98.5 38t-40.5 95l64 9q0 -38 22 -61t54 -23q40 0 63 23t23 66q0 38 -23 61.5t-63 23.5q-51 0 -78 -39l-57 4l34 233h224v-60h-174
l-14 -99q26 19 73 19z" />
    <glyph glyph-name="uni2158" unicode="&#x2158;" horiz-adv-x="1089" 
d="M273 275v96h-178v60l189 269h53v-271h54v-58h-54v-96h-64zM756 700h83l-511 -700h-83zM213 429h61v101q0 27 2 63q-19 -35 -41 -65l-34 -48q-21 -30 -38 -52q16 1 50 1zM846 285q64 0 102.5 -38.5t38.5 -104.5q0 -67 -41 -107t-109 -40q-58 0 -98.5 38t-40.5 95l64 9
q0 -38 22 -61t54 -23q40 0 63 23t23 66q0 38 -23 61.5t-63 23.5q-51 0 -78 -39l-57 4l34 233h224v-60h-174l-14 -99q26 19 73 19z" />
    <glyph glyph-name="uni2159" unicode="&#x2159;" horiz-adv-x="1035" 
d="M231 275v317q-37 -31 -104 -28v61q49 0 79.5 20t35.5 55h56v-425h-67zM710 700h83l-511 -700h-83zM804 282q59 0 95.5 -39t36.5 -102q0 -56 -35 -101t-109 -45q-148 0 -148 206q0 116 39 172t119 56q51 0 83 -29t39 -82l-60 -10q-3 31 -20 47.5t-44 16.5q-88 0 -93 -137
q38 47 97 47zM791 53q82 0 82 89q0 83 -79 83q-37 0 -58.5 -23t-21.5 -63t20.5 -63t56.5 -23z" />
    <glyph glyph-name="uni215A" unicode="&#x215a;" horiz-adv-x="1076" 
d="M387 417q0 -67 -41 -107t-109 -40q-58 0 -98.5 38t-40.5 95l64 9q0 -38 22 -61t54 -23q40 0 63 23t23 66q0 39 -23 62t-63 23q-51 0 -78 -39l-57 4l34 233h224v-60h-174l-14 -99q26 19 73 19q64 0 102.5 -39t38.5 -104zM752 700h83l-511 -700h-83zM846 282q59 0 95.5 -39
t36.5 -102q0 -56 -35 -101t-109 -45q-148 0 -148 206q0 116 39 172t119 56q51 0 83 -29t39 -82l-60 -10q-3 31 -20 47.5t-44 16.5q-88 0 -93 -137q38 47 97 47zM833 53q82 0 82 89q0 83 -79 83q-37 0 -58.5 -23t-21.5 -63t20.5 -63t56.5 -23z" />
    <glyph glyph-name="oneeighth" unicode="&#x215b;" horiz-adv-x="1046" 
d="M231 275v317q-37 -31 -104 -28v61q49 0 79.5 20t35.5 55h56v-425h-67zM199 0l511 700h83l-511 -700h-83zM800 -5q-69 0 -108.5 36.5t-39.5 98.5q0 74 63 102q-45 29 -45 83q0 53 35 83.5t96 30.5q60 -1 94.5 -31t34.5 -83t-45 -84q63 -27 63 -102q0 -62 -40 -98t-108 -36
zM800 251q31 0 49.5 16t18.5 44q0 29 -18 45.5t-50 16.5t-50 -16.5t-18 -45.5q0 -28 18.5 -44t49.5 -16zM800 52q38 0 61 21t23 55q0 33 -22.5 52.5t-61.5 19.5t-61.5 -19.5t-22.5 -52.5q0 -34 22.5 -55t61.5 -21z" />
    <glyph glyph-name="threeeighths" unicode="&#x215c;" horiz-adv-x="1095" 
d="M390 403q0 -61 -40.5 -97t-106.5 -36q-67 0 -105.5 38.5t-38.5 103.5l65 9q0 -44 20.5 -68.5t58.5 -24.5q39 0 60 19.5t21 54.5q0 65 -77 65h-38v61h30q31 0 49.5 15.5t18.5 41.5q0 31 -17 48t-48 17q-70 0 -70 -85l-68 10q0 56 39 94t99 38t95.5 -33t35.5 -89
q0 -50 -42 -79q27 -12 43 -40t16 -63zM761 700h83l-511 -700h-83zM936 231q63 -27 63 -102q0 -62 -40 -98t-108 -36q-69 0 -108.5 36.5t-39.5 98.5q0 74 63 102q-45 29 -45 83q0 53 35 83.5t96 30.5q60 -1 94.5 -31t34.5 -83t-45 -84zM851 373q-32 0 -50 -16.5t-18 -45.5
q0 -28 18.5 -44t49.5 -16t49.5 16t18.5 44q0 29 -18 45.5t-50 16.5zM851 52q38 0 61 21t23 55q0 33 -22.5 52.5t-61.5 19.5t-61.5 -19.5t-22.5 -52.5q0 -34 22.5 -55t61.5 -21z" />
    <glyph glyph-name="fiveeighths" unicode="&#x215d;" horiz-adv-x="1087" 
d="M388 417q0 -67 -41 -107t-109 -40q-58 0 -98.5 38t-40.5 95l64 9q0 -38 22 -61t54 -23q40 0 63 23t23 66q0 39 -23.5 62t-62.5 23q-51 0 -78 -39l-57 4l34 233h224v-60h-174l-14 -99q26 19 73 19q63 0 102 -39t39 -104zM752 700h83l-511 -700h-83zM927 231
q63 -27 63 -102q0 -62 -40 -98t-108 -36q-69 0 -108.5 36.5t-39.5 98.5q0 74 63 102q-45 29 -45 83q0 53 35 83.5t96 30.5q60 -1 94.5 -31t34.5 -83t-45 -84zM842 373q-32 0 -50 -16.5t-18 -45.5q0 -28 18.5 -44t49.5 -16t49.5 16t18.5 44q0 29 -18 45.5t-50 16.5zM842 52
q38 0 61 21t23 55q0 33 -22.5 52.5t-61.5 19.5t-61.5 -19.5t-22.5 -52.5q0 -34 22.5 -55t61.5 -21z" />
    <glyph glyph-name="seveneighths" unicode="&#x215e;" horiz-adv-x="1034" 
d="M218 275h-70q5 99 44.5 194t105.5 170h-194v61h270v-59q-68 -64 -110.5 -164t-45.5 -202zM699 700h83l-511 -700h-83zM874 231q63 -27 63 -102q0 -62 -40 -98t-108 -36q-69 0 -108.5 36.5t-39.5 98.5q0 74 63 102q-45 29 -45 83q0 53 35 83.5t96 30.5q60 -1 94.5 -31
t34.5 -83t-45 -84zM789 373q-32 0 -50 -16.5t-18 -45.5q0 -28 18.5 -44t49.5 -16t49.5 16t18.5 44q0 29 -18 45.5t-50 16.5zM789 52q38 0 61 21t23 55q0 33 -22.5 52.5t-61.5 19.5t-61.5 -19.5t-22.5 -52.5q0 -34 22.5 -55t61.5 -21z" />
    <glyph glyph-name="uni215F" unicode="&#x215f;" horiz-adv-x="541" 
d="M214 275v317q-37 -31 -104 -28v61q49 0 79.5 20t35.5 55h56v-425h-67zM207 0l511 700h83l-511 -700h-83z" />
    <glyph glyph-name="arrowleft" unicode="&#x2190;" horiz-adv-x="693" 
d="M379 500l-150 -155q-1 -1 -59 -56q42 1 82 1h399v-80h-399q-39 0 -82 1q19 -18 60 -59l149 -152h-114l-234 250l234 250h114z" />
    <glyph glyph-name="arrowup" unicode="&#x2191;" horiz-adv-x="576" 
d="M248 0v489q0 58 1 90q-32 -37 -54 -59l-145 -151v115l238 238l238 -238v-115l-143 149q-44 46 -56 61q1 -32 1 -90v-489h-80z" />
    <glyph glyph-name="arrowright" unicode="&#x2192;" horiz-adv-x="693" 
d="M314 0l150 155q1 1 59 56q-42 -1 -82 -1h-399v80h399q39 0 82 -1q-19 18 -60 59l-149 152h114l234 -250l-234 -250h-114z" />
    <glyph glyph-name="arrowdown" unicode="&#x2193;" horiz-adv-x="576" 
d="M328 702v-489q0 -58 -1 -90q32 37 54 59l145 151v-115l-238 -238l-238 238v115l143 -149q44 -46 56 -61q-1 32 -1 90v489h80z" />
    <glyph glyph-name="uni2196" unicode="&#x2196;" horiz-adv-x="619" 
d="M537 -39l-345 346q-41 41 -63 64q3 -44 3 -79l4 -210l-81 82v336h337l81 -81l-206 4q-68 3 -83 4q23 -22 64 -63l346 -346z" />
    <glyph glyph-name="uni2197" unicode="&#x2197;" horiz-adv-x="619" 
d="M25 18l346 345q41 41 64 63q-43 -3 -79 -3l-210 -4l82 81h336v-337l-81 -81l4 206q3 68 4 83q-22 -23 -63 -64l-346 -346z" />
    <glyph glyph-name="uni2198" unicode="&#x2198;" horiz-adv-x="619" 
d="M82 539l345 -346q41 -41 63 -64q-3 43 -3 79l-4 210l81 -82v-336h-337l-81 81l206 -4q68 -3 83 -4q-23 22 -64 63l-346 346z" />
    <glyph glyph-name="uni2199" unicode="&#x2199;" horiz-adv-x="619" 
d="M594 482l-346 -345q-41 -41 -64 -63q44 3 79 3l210 4l-82 -81h-336v337l81 81l-4 -206q-3 -68 -4 -83q22 23 63 64l346 346z" />
    <glyph glyph-name="partialdiff" unicode="&#x2202;" horiz-adv-x="578" 
d="M170 711q349 -44 349 -425q0 -77 -25.5 -142.5t-85 -110.5t-143.5 -45q-99 0 -158.5 59.5t-59.5 149.5q0 110 69 183t175 73q42 0 80 -15.5t60 -44.5q-16 107 -81 162.5t-186 76.5zM267 61q73 0 116.5 56.5t43.5 132.5q0 131 -131 131q-72 0 -116 -50.5t-44 -133.5
q0 -63 33.5 -99.5t97.5 -36.5z" />
    <glyph glyph-name="emptyset" unicode="&#x2205;" horiz-adv-x="619" 
d="M577 502l-72 -77q66 -74 66 -175q0 -109 -76 -185.5t-186 -76.5q-92 0 -161 55l-69 -74l-38 35l69 74q-63 74 -63 172q0 109 76 185.5t186 76.5q89 0 157 -52l73 78zM117 250q0 -68 40 -122l264 284q-49 36 -112 36q-81 0 -136.5 -57.5t-55.5 -140.5zM501 250
q0 70 -42 125l-266 -284q52 -39 116 -39q81 0 136.5 58t55.5 140z" />
    <glyph glyph-name="uni2206" unicode="&#x2206;" horiz-adv-x="652" 
d="M363 700l261 -700h-596l262 700h73zM326 563l-176 -482h353z" />
    <glyph glyph-name="product" unicode="&#x220f;" horiz-adv-x="645" 
d="M77 -96v796h492v-796h-91v715h-310v-715h-91z" />
    <glyph glyph-name="summation" unicode="&#x2211;" horiz-adv-x="600" 
d="M157 -12h402v-84h-508v93l262 313v1l-262 301v88h499v-81h-386v-2l248 -284v-39l-255 -305v-1z" />
    <glyph glyph-name="minus" unicode="&#x2212;" horiz-adv-x="594" 
d="M70 287v67h454v-67h-454z" />
    <glyph glyph-name="uni2215" unicode="&#x2215;" horiz-adv-x="420" 
d="M-238 0l511 700h83l-511 -700h-83z" />
    <glyph glyph-name="radical" unicode="&#x221a;" horiz-adv-x="601" 
d="M597 700v-82h-78l-202 -714h-110l-122 319h-74v82h134l64 -173q17 -45 50 -156l41 156l151 568h146z" />
    <glyph glyph-name="infinity" unicode="&#x221e;" horiz-adv-x="677" 
d="M176 140q-70 0 -112 48t-42 117q0 68 43 116.5t111 48.5q91 0 165 -108q72 108 158 108q67 0 111.5 -46t44.5 -119q0 -74 -44 -119.5t-112 -45.5q-88 0 -158 108q-71 -108 -165 -108zM181 214q60 0 116 90q-54 92 -116 92q-37 0 -59 -26t-22 -65t22 -65t59 -26zM495 214
q37 0 59.5 26t22.5 65t-22.5 65t-59.5 26q-51 0 -107 -92q57 -90 107 -90z" />
    <glyph glyph-name="integral" unicode="&#x222b;" horiz-adv-x="480" 
d="M140 -199q-42 0 -75 10l2 76q25 -11 59 -11q69 0 69 71v617q0 144 145 144q44 0 75 -9l-2 -76q-27 10 -60 10q-68 0 -68 -72v-614q0 -75 -39.5 -110.5t-105.5 -35.5z" />
    <glyph glyph-name="approxequal" unicode="&#x2248;" horiz-adv-x="598" 
d="M74 349q1 52 30 81t76 29q42 0 126.5 -18.5t106.5 -18.5q43 0 45 43h67q-2 -50 -29 -79.5t-77 -29.5q-41 0 -127 18.5t-111 18.5q-40 0 -42 -44h-65zM74 179q1 52 30 81t76 29q42 0 126.5 -18.5t106.5 -18.5q43 0 45 43h67q-2 -51 -29 -80t-77 -29q-41 0 -127 18.5
t-111 18.5q-40 0 -42 -44h-65z" />
    <glyph glyph-name="notequal" unicode="&#x2260;" horiz-adv-x="595" 
d="M525 378h-177l-56 -111h233v-67h-267l-49 -96h-59l49 96h-128v67h162l56 111h-218v67h252l50 99h60l-50 -99h142v-67z" />
    <glyph glyph-name="lessequal" unicode="&#x2264;" horiz-adv-x="562" 
d="M478 113l-399 158v74l399 158v-74l-213 -82q-36 -13 -121 -39q75 -22 120 -39l214 -82v-74zM478 0h-399v67h399v-67z" />
    <glyph glyph-name="greaterequal" unicode="&#x2265;" horiz-adv-x="562" 
d="M84 113v74l214 82q45 17 120 39q-85 26 -121 39l-213 82v74l399 -158v-74zM84 0v67h399v-67h-399z" />
    <glyph glyph-name="angleleft" unicode="&#x2329;" horiz-adv-x="468" 
d="M180 295l213 -455h-91l-215 452l210 448h91z" />
    <glyph glyph-name="angleright" unicode="&#x232a;" horiz-adv-x="468" 
d="M172 740l210 -448l-215 -452h-91l213 455l-208 445h91z" />
    <glyph glyph-name="uni2460" unicode="&#x2460;" horiz-adv-x="705" 
d="M351 13q-138 0 -231 95.5t-93 241.5q0 147 93 243t231 96q139 0 233 -96t94 -243q0 -146 -94 -241.5t-233 -95.5zM352 59q118 0 196 82t78 209q0 128 -78 211t-196 83t-196 -83t-78 -211q0 -127 78 -209t196 -82zM341 156v293q-35 -29 -96 -26v57q45 0 73.5 18.5
t32.5 50.5h52v-393h-62z" />
    <glyph glyph-name="uni2461" unicode="&#x2461;" horiz-adv-x="705" 
d="M351 689q139 0 233 -96t94 -243q0 -146 -94 -241.5t-233 -95.5q-138 0 -231 95.5t-93 241.5q0 147 93 243t231 96zM352 59q118 0 196 82t78 209q0 128 -78 211t-196 83t-196 -83t-78 -211q0 -127 78 -209t196 -82zM387 302q-28 -17 -43 -27t-32.5 -27.5t-22.5 -35.5h198
v-56h-269q3 68 32.5 107t81.5 72q2 1 27.5 17.5t34.5 24t20.5 24.5t11.5 35q0 66 -63 66q-68 0 -68 -85l-62 10q0 50 30.5 89.5t102.5 39.5q55 0 87.5 -33t32.5 -88q0 -31 -17 -58.5t-34.5 -41.5t-47.5 -33z" />
    <glyph glyph-name="uni2462" unicode="&#x2462;" horiz-adv-x="705" 
d="M351 689q139 0 233 -96t94 -243q0 -146 -94 -241.5t-233 -95.5q-138 0 -231 95.5t-93 241.5q0 147 93 243t231 96zM352 59q118 0 196 82t78 209q0 128 -78 211t-196 83t-196 -83t-78 -211q0 -127 78 -209t196 -82zM436 370q25 -11 40 -37t15 -59q0 -56 -37.5 -89.5
t-98.5 -33.5q-62 0 -97.5 36t-35.5 96l60 8q0 -41 19 -63.5t54 -22.5q36 0 55.5 18t19.5 50q0 61 -72 61h-35v56h28q29 0 46 14.5t17 38.5q0 29 -16 44.5t-44 15.5q-65 0 -65 -79l-63 10q0 51 36.5 86.5t91.5 35.5t88 -30.5t33 -82.5q0 -45 -39 -73z" />
    <glyph glyph-name="uni2463" unicode="&#x2463;" horiz-adv-x="705" 
d="M351 13q-138 0 -231 95.5t-93 241.5q0 147 93 243t231 96q139 0 233 -96t94 -243q0 -146 -94 -241.5t-233 -95.5zM352 59q118 0 196 82t78 209q0 128 -78 211t-196 83t-196 -83t-78 -211q0 -127 78 -209t196 -82zM367 156v89h-165v55l175 249h49v-251h50v-53h-50v-89h-59
zM265 298h46h57v94q0 26 2 58q-28 -46 -38 -60l-32 -44q-21 -30 -35 -48z" />
    <glyph glyph-name="uni2464" unicode="&#x2464;" horiz-adv-x="705" 
d="M351 689q139 0 233 -96t94 -243q0 -146 -94 -241.5t-233 -95.5q-138 0 -231 95.5t-93 241.5q0 147 93 243t231 96zM352 59q118 0 196 82t78 209q0 128 -78 211t-196 83t-196 -83t-78 -211q0 -127 78 -209t196 -82zM354 420q59 0 95 -36t36 -97q0 -62 -38 -99t-101 -37
q-54 0 -91 35t-37 88l59 9q0 -35 20 -56.5t50 -21.5q37 0 58.5 21t21.5 61q0 36 -21.5 57.5t-58.5 21.5q-47 0 -72 -36l-53 4l32 215h207v-55h-161l-13 -92q24 18 67 18z" />
    <glyph glyph-name="uni2465" unicode="&#x2465;" horiz-adv-x="705" 
d="M351 689q139 0 233 -96t94 -243q0 -146 -94 -241.5t-233 -95.5q-138 0 -231 95.5t-93 241.5q0 147 93 243t231 96zM352 59q118 0 196 82t78 209q0 128 -78 211t-196 83t-196 -83t-78 -211q0 -127 78 -209t196 -82zM361 417q55 0 89 -36t34 -95q0 -51 -33 -93t-101 -42
q-137 0 -137 191q0 211 147 211q47 0 76 -27t36 -76l-55 -9q-3 28 -18.5 43.5t-40.5 15.5q-83 0 -86 -126q35 43 89 43zM349 205q76 0 76 82q0 77 -73 77q-34 0 -54 -21t-20 -58t19 -58.5t52 -21.5z" />
    <glyph glyph-name="uni2466" unicode="&#x2466;" horiz-adv-x="705" 
d="M351 689q139 0 233 -96t94 -243q0 -146 -94 -241.5t-233 -95.5q-138 0 -231 95.5t-93 241.5q0 147 93 243t231 96zM352 59q118 0 196 82t78 209q0 128 -78 211t-196 83t-196 -83t-78 -211q0 -127 78 -209t196 -82zM242 488v56h249v-54q-62 -59 -101.5 -152t-42.5 -187
h-65q5 92 41.5 180.5t98.5 156.5h-180z" />
    <glyph glyph-name="uni2467" unicode="&#x2467;" horiz-adv-x="705" 
d="M351 13q-138 0 -231 95.5t-93 241.5q0 147 93 243t231 96q139 0 233 -96t94 -243q0 -146 -94 -241.5t-233 -95.5zM352 59q118 0 196 82t78 209q0 128 -78 211t-196 83t-196 -83t-78 -211q0 -127 78 -209t196 -82zM357 151q-64 0 -100.5 33.5t-36.5 91.5q0 68 58 95
q-42 26 -42 76q0 49 32.5 77.5t88.5 28.5q56 -1 88 -29t32 -77q0 -50 -42 -77q58 -25 58 -95q0 -57 -36.5 -90.5t-99.5 -33.5zM357 388q29 0 45.5 15t16.5 41q0 27 -16.5 42t-45.5 15q-30 0 -46.5 -15t-16.5 -42q0 -26 17 -41t46 -15zM357 204q35 0 56 19.5t21 50.5
q0 30 -20.5 48.5t-56.5 18.5t-57 -18.5t-21 -48.5q0 -31 21 -50.5t57 -19.5z" />
    <glyph glyph-name="uni2468" unicode="&#x2468;" horiz-adv-x="705" 
d="M351 689q139 0 233 -96t94 -243q0 -146 -94 -241.5t-233 -95.5q-138 0 -231 95.5t-93 241.5q0 147 93 243t231 96zM352 59q118 0 196 82t78 209q0 128 -78 211t-196 83t-196 -83t-78 -211q0 -127 78 -209t196 -82zM356 553q136 0 136 -190q0 -108 -36 -160t-110 -52
q-47 0 -78 28t-38 77l55 9q4 -29 21 -44.5t42 -15.5q81 0 86 125q-34 -42 -89 -42t-88.5 36t-33.5 94q0 52 32.5 93.5t100.5 41.5zM354 341q34 0 54 21t20 58t-19 58.5t-52 21.5q-76 0 -76 -83q0 -76 73 -76z" />
    <glyph glyph-name="uni24EA" unicode="&#x24ea;" horiz-adv-x="705" 
d="M351 13q-138 0 -231 95.5t-93 241.5q0 147 93 243t231 96q139 0 233 -96t94 -243q0 -146 -94 -241.5t-233 -95.5zM352 59q118 0 196 82t78 209q0 128 -78 211t-196 83t-196 -83t-78 -211q0 -127 78 -209t196 -82zM355 151q-69 0 -105.5 51.5t-36.5 149.5q0 94 37.5 147.5
t104.5 53.5q68 0 106.5 -53t38.5 -148t-38.5 -148t-106.5 -53zM355 207q42 0 61 33.5t19 111.5q0 79 -19 112t-61 33q-40 0 -58.5 -33.5t-18.5 -111.5q0 -79 18 -112t59 -33z" />
    <glyph glyph-name="lozenge" unicode="&#x25ca;" horiz-adv-x="586" 
d="M243 0l-196 351l195 349h100l196 -351l-195 -349h-100zM294 71q27 53 55 107l90 168l-92 175q-10 19 -55 112q-5 -9 -25 -49.5t-32 -62.5l-90 -168l92 -175z" />
    <glyph glyph-name="uni25CF" unicode="&#x25cf;" horiz-adv-x="710" 
d="M355 14q-139 0 -237.5 98.5t-98.5 237.5t98.5 237.5t237.5 98.5q140 0 238 -98t98 -238q0 -139 -98 -237.5t-238 -98.5z" />
    <glyph glyph-name="uni300A" unicode="&#x300a;" horiz-adv-x="573" 
d="M227 295l213 -455h-89l-215 452l210 448h89z" />
    <glyph glyph-name="uni300B" unicode="&#x300b;" horiz-adv-x="573" 
d="M227 740l210 -448l-215 -452h-89l213 455l-208 445h89z" />
    <glyph glyph-name="uni300C" unicode="&#x300c;" horiz-adv-x="478" 
d="M154 298v442h255v-70h-168v-372h-87z" />
    <glyph glyph-name="uni300D" unicode="&#x300d;" horiz-adv-x="466" 
d="M320 282v-442h-255v70h168v372h87z" />
    <glyph glyph-name="uni300E" unicode="&#x300e;" horiz-adv-x="543" 
d="M125 209v531h363v-202h-159v-329h-204zM197 269h60v329h159v82h-219v-411z" />
    <glyph glyph-name="uni300F" unicode="&#x300f;" horiz-adv-x="537" 
d="M418 371v-531h-363v202h159v329h204zM346 311h-60v-329h-159v-82h219v411z" />
    <glyph glyph-name="uni3010" unicode="&#x3010;" horiz-adv-x="474" 
d="M153 -160v900h252v-3q-93 -107 -135 -209.5t-42 -236.5t41.5 -237t135.5 -211v-3h-252z" />
    <glyph glyph-name="uni3011" unicode="&#x3011;" horiz-adv-x="474" 
d="M321 -160h-252v3q94 108 135.5 211t41.5 237t-42 236.5t-135 209.5v3h252v-900z" />
    <glyph glyph-name="uni3014" unicode="&#x3014;" horiz-adv-x="445" 
d="M218 552v-521l118 -156l-64 -46l-141 185v553l143 187l63 -46z" />
    <glyph glyph-name="uni3015" unicode="&#x3015;" horiz-adv-x="445" 
d="M171 754l143 -187v-553l-141 -185l-64 46l118 156v521l-119 156z" />
    <glyph glyph-name="uniF8FF" unicode="&#xf8ff;" horiz-adv-x="647" 
d="M587 435q14 -103 14 -116v-64q0 -26 -3 -47q-4 -26 -4 -50v-43q0 -59 -11 -103q-6 -24 -19 -24q-8 0 -13.5 9.5t-14.5 34.5q-2 7 -4 12t-4 11q-12 31 -14 41t-3 16t-4 27t-9 57q-6 30 -8 30q-7 0 -7 -50t-11 -115q-4 -21 -14 -38q-12 -20 -25 -20q-16 0 -22 35
q-3 19 -4 42q-3 68 -12 117q-5 29 -4 60q1 15 18 75q7 26 9 63q1 11 2 18t1 9q0 14 -12 19q-7 -62 -10 -73q-9 -28 -29 -28q-16 2 -20 16q-5 20 -6 38q-1 22 7 38q-15 -2 -18 -35v-18q0 -25 -9 -37q-8 -14 -18 -14q-8 0 -16 8t-8 20l-3 6q-3 5 -6.5 11t-4.5 9q-9 18 -9 57
q0 17 -15 17q-8 0 -13 -26q-2 -13 -9 -30q-6 -14 -15 -48q-6 -22 -38 -38t-58 -16q-33 0 -63 35q-23 26 -23 66q0 21 5 35q2 6 10 22q9 18 12 27q3 10 11 10q13 0 13 -11q0 -7 -15 -37q-9 -17 -10 -23q-2 -8 -2 -22q0 -31 16 -50q23 -28 48 -28q16 0 40 10t30 27l18 53
q4 12 7 24q7 43 36 43q16 0 27 -10.5t12 -30.5q0 -39 4 -44l6 -8q9 -15 13 -33q4 8 4 26v20q8 55 45 55q21 0 21 -18q0 -9 -5 -19q-3 -11 -3 -25q0 -18 3 -27q2 1 6 11q3 7 4.5 18.5t2 23t0.5 12.5q3 25 13 32q6 4 13 4q13 0 24 -12.5t11 -28.5q0 -4 -1.5 -13.5t-1.5 -18.5
q0 -20 -10 -65q-15 -48 -17 -77q-1 -21 4 -49q7 -34 12 -121q2 -30 6 -47q7 13 12 35q7 31 10 107v9.5t0.5 11t1 10.5t1.5 11.5t2 10t3.5 9t5.5 7t7 5t9 1.5q27 0 33 -53q8 -67 15 -96q1 -5 13 -37q2 -6 4.5 -13t4.5 -13.5t3 -9.5q8 56 8 87q0 15 -0.5 25.5t-0.5 11.5
q0 7 5 57q3 27 3 88v21q0 13 -3 37t-7.5 48t-4.5 28q-7 52 -22 99q-17 56 -43 84q-3 3 -7 8q-40 43 -57 50l-11 4q-44 11 -80 11q-10 0 -25 -2q-32 -5 -54 -29q-35 -38 -47 -75q-1 -2 -3.5 -11.5t-4 -14t-5.5 -13t-8 -14t-11 -11t-15 -9.5l-20 -9l-50 -21q-1 0 -3 -1
q-9 0 -11 10q-1 2 -1 5q0 6 8 9q18 6 46 20q26 13 36 24.5t19 40.5l3 10q12 39 55 82q33 33 97 33q37 0 76 -12q10 -1 19.5 -5t15.5 -7.5t15 -11.5t12.5 -12t14 -15.5t13.5 -15.5q32 -34 55 -117q14 -49 18 -81zM148 440q0 -10 -8 -10q-5 0 -8 6t1 11q2 2 5 2q10 0 10 -9z
M112 431q4 -3 4 -7q0 -5 -7 -6h-3q-6 0 -9 5t-1 8q5 5 8 5t8 -5zM121 382q4 0 8 4q8 8 12 23q2 11 10 11q10 0 10 -10q-6 -28 -24 -40q-9 -6 -14 -6q-7 0 -18 6q-7 4 -7 8q0 9 8 9q3 0 7.5 -2.5t7.5 -2.5z" />
    <glyph glyph-name="i.loclTRK" horiz-adv-x="421" 
d="M269 700v-106h-90v106h90zM270 76h92v-76h-281v76h99v348h-85v76h175v-424z" />
    <glyph glyph-name="a.ss01" horiz-adv-x="601" 
d="M437 500h90v-500h-90v65q-55 -77 -161 -77q-102 0 -164.5 72t-62.5 190q0 120 64.5 191.5t165.5 71.5q102 0 158 -86v73zM297 60q44 0 73.5 16t44 45.5t20 60t5.5 69.5q0 191 -145 191q-83 0 -115 -48.5t-32 -143.5t34 -142.5t115 -47.5z" />
    <glyph glyph-name="aacute.ss01" horiz-adv-x="601" 
d="M420 700l-92 -127h-74l65 127h101zM437 500h90v-500h-90v65q-55 -77 -161 -77q-102 0 -164.5 72t-62.5 190q0 120 64.5 191.5t165.5 71.5q102 0 158 -86v73zM297 60q44 0 73.5 16t44 45.5t20 60t5.5 69.5q0 191 -145 191q-83 0 -115 -48.5t-32 -143.5t34 -142.5
t115 -47.5z" />
    <glyph glyph-name="abreve.ss01" horiz-adv-x="601" 
d="M298 585q-50 0 -84.5 31.5t-36.5 83.5h62q7 -50 58 -50q55 0 62 50h60q-2 -49 -36 -82t-85 -33zM437 500h90v-500h-90v65q-55 -77 -161 -77q-102 0 -164.5 72t-62.5 190q0 120 64.5 191.5t165.5 71.5q102 0 158 -86v73zM297 60q44 0 73.5 16t44 45.5t20 60t5.5 69.5
q0 191 -145 191q-83 0 -115 -48.5t-32 -143.5t34 -142.5t115 -47.5z" />
    <glyph glyph-name="acircumflex.ss01" horiz-adv-x="601" 
d="M295 641l-58 -56h-75l93 101h83l93 -101h-80zM437 500h90v-500h-90v65q-55 -77 -161 -77q-102 0 -164.5 72t-62.5 190q0 120 64.5 191.5t165.5 71.5q102 0 158 -86v73zM297 60q44 0 73.5 16t44 45.5t20 60t5.5 69.5q0 191 -145 191q-83 0 -115 -48.5t-32 -143.5
t34 -142.5t115 -47.5z" />
    <glyph glyph-name="adieresis.ss01" horiz-adv-x="601" 
d="M244 682v-97h-83v97h83zM433 682v-97h-83v97h83zM437 500h90v-500h-90v65q-55 -77 -161 -77q-102 0 -164.5 72t-62.5 190q0 120 64.5 191.5t165.5 71.5q102 0 158 -86v73zM297 60q44 0 73.5 16t44 45.5t20 60t5.5 69.5q0 191 -145 191q-83 0 -115 -48.5t-32 -143.5
t34 -142.5t115 -47.5z" />
    <glyph glyph-name="uni0227.ss01" horiz-adv-x="601" 
d="M343 700v-106h-90v106h90zM437 500h90v-500h-90v65q-55 -77 -161 -77q-102 0 -164.5 72t-62.5 190q0 120 64.5 191.5t165.5 71.5q102 0 158 -86v73zM297 60q44 0 73.5 16t44 45.5t20 60t5.5 69.5q0 191 -145 191q-83 0 -115 -48.5t-32 -143.5t34 -142.5t115 -47.5z" />
    <glyph glyph-name="uni1EA1.ss01" horiz-adv-x="601" 
d="M437 500h90v-500h-90v65q-55 -77 -161 -77q-102 0 -164.5 72t-62.5 190q0 120 64.5 191.5t165.5 71.5q102 0 158 -86v73zM297 60q44 0 73.5 16t44 45.5t20 60t5.5 69.5q0 191 -145 191q-83 0 -115 -48.5t-32 -143.5t34 -142.5t115 -47.5zM253 -197v106h90v-106h-90z" />
    <glyph glyph-name="agrave.ss01" horiz-adv-x="601" 
d="M345 573h-74l-92 127h101zM437 500h90v-500h-90v65q-55 -77 -161 -77q-102 0 -164.5 72t-62.5 190q0 120 64.5 191.5t165.5 71.5q102 0 158 -86v73zM297 60q44 0 73.5 16t44 45.5t20 60t5.5 69.5q0 191 -145 191q-83 0 -115 -48.5t-32 -143.5t34 -142.5t115 -47.5z" />
    <glyph glyph-name="amacron.ss01" horiz-adv-x="601" 
d="M425 667v-70h-256v70h256zM437 500h90v-500h-90v65q-55 -77 -161 -77q-102 0 -164.5 72t-62.5 190q0 120 64.5 191.5t165.5 71.5q102 0 158 -86v73zM297 60q44 0 73.5 16t44 45.5t20 60t5.5 69.5q0 191 -145 191q-83 0 -115 -48.5t-32 -143.5t34 -142.5t115 -47.5z" />
    <glyph glyph-name="aogonek.ss01" horiz-adv-x="601" 
d="M546 -110l3 -63q-26 -8 -56 -8q-52 0 -78 23.5t-26 60.5q0 57 75 97h-27v65q-55 -77 -161 -77q-102 0 -164.5 72t-62.5 190q0 120 64.5 191.5t165.5 71.5q102 0 158 -86v73h90v-500q-60 -49 -60 -84q0 -33 41 -33q20 0 38 7zM297 60q44 0 73.5 16t44 45.5t20 60t5.5 69.5
q0 191 -145 191q-83 0 -115 -48.5t-32 -143.5t34 -142.5t115 -47.5z" />
    <glyph glyph-name="aring.ss01" horiz-adv-x="601" 
d="M297 553q-40 0 -68 27t-28 65t28 65t68 27t68 -27t28 -65t-28 -65t-68 -27zM297 698q-22 0 -36.5 -15.5t-14.5 -37.5q0 -23 14.5 -38.5t36.5 -15.5q23 0 36.5 15t13.5 39q0 22 -13.5 37.5t-36.5 15.5zM437 500h90v-500h-90v65q-55 -77 -161 -77q-102 0 -164.5 72
t-62.5 190q0 120 64.5 191.5t165.5 71.5q102 0 158 -86v73zM297 60q44 0 73.5 16t44 45.5t20 60t5.5 69.5q0 191 -145 191q-83 0 -115 -48.5t-32 -143.5t34 -142.5t115 -47.5z" />
    <glyph glyph-name="aringacute.ss01" horiz-adv-x="601" 
d="M428 886l-92 -127h-74l65 127h101zM297 553q-40 0 -68 27t-28 65t28 65t68 27t68 -27t28 -65t-28 -65t-68 -27zM297 698q-22 0 -36.5 -15.5t-14.5 -37.5q0 -23 14.5 -38.5t36.5 -15.5q23 0 36.5 15t13.5 39q0 22 -13.5 37.5t-36.5 15.5zM437 500h90v-500h-90v65
q-55 -77 -161 -77q-102 0 -164.5 72t-62.5 190q0 120 64.5 191.5t165.5 71.5q102 0 158 -86v73zM297 60q44 0 73.5 16t44 45.5t20 60t5.5 69.5q0 191 -145 191q-83 0 -115 -48.5t-32 -143.5t34 -142.5t115 -47.5z" />
    <glyph glyph-name="atilde.ss01" horiz-adv-x="601" 
d="M239 611q-36 0 -41 -38h-55q0 41 27 70q29 31 75 31q27 0 62 -21t49 -21q10 0 16 2t10.5 9.5t6 10.5t5.5 15h59q-7 -51 -30 -73q-27 -26 -67 -26q-31 0 -65.5 20.5t-51.5 20.5zM437 500h90v-500h-90v65q-55 -77 -161 -77q-102 0 -164.5 72t-62.5 190q0 120 64.5 191.5
t165.5 71.5q102 0 158 -86v73zM297 60q44 0 73.5 16t44 45.5t20 60t5.5 69.5q0 191 -145 191q-83 0 -115 -48.5t-32 -143.5t34 -142.5t115 -47.5z" />
    <glyph glyph-name="r.ss02" horiz-adv-x="514" 
d="M110 0v500h90v-169q20 78 77.5 129.5t126.5 51.5q36 0 69 -14l-19 -87q-26 9 -53 9q-92 0 -146.5 -83t-54.5 -215v-122h-90z" />
    <glyph glyph-name="racute.ss02" horiz-adv-x="514" 
d="M207 573l65 127h101l-92 -127h-74zM110 0v500h90v-169q20 78 77.5 129.5t126.5 51.5q36 0 69 -14l-19 -87q-26 9 -53 9q-92 0 -146.5 -83t-54.5 -215v-122h-90z" />
    <glyph glyph-name="rcaron.ss02" horiz-adv-x="514" 
d="M116 686h75l58 -56l56 56h80l-93 -101h-83zM110 0v500h90v-169q20 78 77.5 129.5t126.5 51.5q36 0 69 -14l-19 -87q-26 9 -53 9q-92 0 -146.5 -83t-54.5 -215v-122h-90z" />
    <glyph glyph-name="uni0157.ss02" horiz-adv-x="514" 
d="M110 0v500h90v-169q20 78 77.5 129.5t126.5 51.5q36 0 69 -14l-19 -87q-26 9 -53 9q-92 0 -146.5 -83t-54.5 -215v-122h-90zM107 -237v39q48 6 48 47h-47v85h95v-79q0 -87 -96 -92z" />
    <glyph glyph-name="r.ss03" horiz-adv-x="529" 
d="M384 513q62 0 112 -24l-17 -91q-42 29 -110 29q-91 0 -133 -68.5t-42 -177.5v-181h-90v500h90v-118q22 59 72 95t118 36z" />
    <glyph glyph-name="racute.ss03" horiz-adv-x="529" 
d="M364 700l-92 -127h-74l65 127h101zM384 513q62 0 112 -24l-17 -91q-42 29 -110 29q-91 0 -133 -68.5t-42 -177.5v-181h-90v500h90v-118q22 59 72 95t118 36z" />
    <glyph glyph-name="rcaron.ss03" horiz-adv-x="529" 
d="M282 585h-83l-93 101h75l58 -56l56 56h80zM384 513q62 0 112 -24l-17 -91q-42 29 -110 29q-91 0 -133 -68.5t-42 -177.5v-181h-90v500h90v-118q22 59 72 95t118 36z" />
    <glyph glyph-name="uni0157.ss03" horiz-adv-x="529" 
d="M384 513q62 0 112 -24l-17 -91q-42 29 -110 29q-91 0 -133 -68.5t-42 -177.5v-181h-90v500h90v-118q22 59 72 95t118 36zM102 -151v85h95v-79q0 -87 -96 -92v39q48 6 48 47h-47z" />
    <glyph glyph-name="ordfeminine.lf" horiz-adv-x="520" 
d="M435 404l2 -51q-16 -4 -40 -4q-58 0 -66 48q-31 -54 -115 -54q-48 0 -83 26.5t-35 75.5q0 50 32.5 72.5t86.5 33.5l111 22q0 42 -11 57q-15 22 -58 22t-62.5 -17t-19.5 -53l-67 10q1 63 44 91q37 25 108 25q133 0 133 -114v-168q0 -14 3.5 -20t15.5 -6q10 0 21 4z
M328 484v39l-99 -23q-32 -7 -46.5 -18t-14.5 -37q0 -23 17 -35.5t43 -12.5q50 0 75 24t25 63z" />
    <glyph glyph-name="ordmasculine.lf" horiz-adv-x="520" 
d="M260 343q-81 0 -127 49t-46 133q0 81 47 132t126 51t126.5 -51.5t47.5 -131.5q0 -81 -48 -131.5t-126 -50.5zM260 398q100 0 100 127q0 129 -100 129t-100 -129q0 -127 100 -127z" />
    <glyph glyph-name="zero.lf" horiz-adv-x="609" 
d="M305 712q124 0 188.5 -98.5t64.5 -262.5q0 -167 -64.5 -265t-188.5 -98t-188.5 92t-64.5 271q0 165 64.5 263t188.5 98zM305 634q-89 0 -122 -68.5t-33 -214.5q0 -124 21 -190l217 450q-32 23 -83 23zM305 64q88 0 121.5 70t33.5 217q0 128 -23 193l-219 -454
q34 -26 87 -26z" />
    <glyph glyph-name="one.lf" horiz-adv-x="493" 
d="M335 81h87v-81h-273v81h95v456q-39 -46 -148 -46q-4 0 -13 0.5t-13 0.5l-1 2v75l1 2q170 0 194 129h71v-619z" />
    <glyph glyph-name="two.lf" horiz-adv-x="580" 
d="M154 81h364v-81h-467q4 61 22 110.5t48 86.5t59.5 61t71.5 51q8 5 35 21.5t40.5 25.5t35.5 27.5t33.5 34.5t20.5 39t9 47q0 64 -31 98t-90 34q-135 0 -135 -155l-91 15q0 36 10.5 71.5t35 69t72 54.5t112.5 21q95 0 151.5 -56.5t56.5 -152.5q0 -43 -14.5 -79.5
t-43.5 -65.5t-53.5 -47.5t-63.5 -42.5q-42 -26 -63 -40t-52.5 -39.5t-49 -51.5t-23.5 -56z" />
    <glyph glyph-name="three.lf" horiz-adv-x="586" 
d="M417 377q57 -16 85.5 -65.5t28.5 -109.5q0 -103 -68 -158.5t-171 -55.5q-110 0 -172 63t-60 164l89 13q-1 -72 35.5 -118t107.5 -46t109.5 35.5t38.5 101.5q0 64 -38.5 94t-102.5 30h-58v82h45q53 0 89.5 29.5t36.5 80.5q0 56 -32 88t-89 32q-41 0 -69 -17.5t-40 -44
t-16.5 -49t-3.5 -41.5l-92 15q2 93 63.5 152.5t157.5 59.5q91 0 151 -49.5t60 -146.5q0 -42 -23 -80t-62 -59z" />
    <glyph glyph-name="four.lf" horiz-adv-x="577" 
d="M524 238v-79h-90v-159h-91v159h-301v90l317 451h75v-462h90zM225 238h118v180q0 93 2 144q-23 -41 -80 -126l-64 -92q-31 -46 -76 -108q70 2 100 2z" />
    <glyph glyph-name="five.lf" horiz-adv-x="581" 
d="M304 461q99 0 164 -59t65 -176q0 -103 -65 -170.5t-183 -67.5q-100 0 -161 62t-61 163l89 13q0 -77 39 -119.5t98 -42.5q157 0 157 169q0 71 -40.5 109t-115.5 38q-87 0 -135 -64l-77 6l54 378h364v-81h-289l-31 -207q45 49 128 49z" />
    <glyph glyph-name="six.lf" horiz-adv-x="593" 
d="M325 457q99 0 157.5 -65t58.5 -166q0 -42 -12.5 -82t-38.5 -76t-74 -58t-110 -22q-242 0 -242 341q0 184 59 283.5t199 99.5q92 0 141 -51t60 -131l-84 -14q-13 120 -120 120q-170 0 -170 -278q56 99 176 99zM305 64q76 0 112.5 39.5t36.5 123.5q0 151 -144 151
q-69 0 -108.5 -42t-39.5 -114q0 -70 36 -114t107 -44z" />
    <glyph glyph-name="seven.lf" horiz-adv-x="545" 
d="M57 700h439v-85q-112 -108 -185.5 -275.5t-81.5 -339.5h-95q11 169 80 331t186 288h-343v81z" />
    <glyph glyph-name="eight.lf" horiz-adv-x="594" 
d="M420 381q117 -37 117 -173q0 -105 -66.5 -162.5t-174.5 -57.5q-112 0 -176.5 59.5t-64.5 160.5q0 137 116 173q-86 44 -86 146q0 80 52.5 132.5t160.5 52.5q106 0 157.5 -52.5t51.5 -132.5q0 -103 -87 -146zM296 636q-59 0 -91 -30t-32 -85q0 -53 32.5 -82.5t90.5 -29.5
t90.5 29.5t32.5 82.5q0 55 -32 85t-91 30zM296 64q68 0 109.5 39t41.5 102q0 60 -41 95.5t-110 35.5q-67 0 -109 -34.5t-42 -96.5q0 -63 42 -102t109 -39z" />
    <glyph glyph-name="nine.lf" horiz-adv-x="593" 
d="M291 712q242 0 242 -343q0 -182 -59 -281.5t-199 -99.5q-92 0 -141.5 54t-57.5 138l82 14q4 -56 33.5 -93t86.5 -37q163 0 169 272q-67 -99 -175 -99q-99 0 -157.5 66t-58.5 169q0 33 7.5 65.5t25 64.5t44 56t67.5 39t91 15zM287 317q69 0 108.5 43t39.5 117
q0 70 -36 114.5t-107 44.5q-149 0 -149 -166q0 -153 144 -153z" />
    <glyph glyph-name="zero.lf.ss04" horiz-adv-x="609" 
d="M305 -12q-124 0 -188.5 92t-64.5 271q0 165 64.5 263t188.5 98t188.5 -98.5t64.5 -262.5q0 -167 -64.5 -265t-188.5 -98zM305 64q88 0 121.5 70t33.5 217q0 146 -33 214.5t-122 68.5t-122 -68.5t-33 -214.5q0 -150 33.5 -218.5t121.5 -68.5zM255 305v114h109v-114h-109z
" />
    <glyph glyph-name="zero.ss04" horiz-adv-x="604" 
d="M302 -12q-121 0 -184 90t-63 265q0 162 63 258t184 96t184.5 -96.5t63.5 -257.5q0 -163 -63 -259t-185 -96zM302 63q86 0 119 68.5t33 211.5t-32 210t-120 67q-87 0 -119 -67t-32 -210q0 -146 32.5 -213t118.5 -67zM254 298v112h106v-112h-106z" />
    <glyph glyph-name="zero.ss05" horiz-adv-x="604" 
d="M302 -12q-121 0 -184 90t-63 265q0 162 63 258t184 96t184.5 -96.5t63.5 -257.5q0 -163 -63 -259t-185 -96zM302 63q86 0 119 68.5t33 211.5t-32 210t-120 67q-87 0 -119 -67t-32 -210q0 -146 32.5 -213t118.5 -67z" />
    <glyph glyph-name="zero.tf" 
d="M311 712q124 0 188.5 -98.5t64.5 -262.5q0 -167 -64.5 -265t-188.5 -98t-188.5 92t-64.5 271q0 165 64.5 263t188.5 98zM311 634q-89 0 -122 -68.5t-33 -214.5q0 -124 21 -190l217 450q-32 23 -83 23zM311 64q88 0 121.5 70t33.5 217q0 128 -23 193l-219 -454
q34 -26 87 -26z" />
    <glyph glyph-name="one.tf" 
d="M560 81v-81h-454v81h190v456q-39 -46 -148 -46q-4 0 -13 0.5t-13 0.5l-1 2v75l1 2q170 0 194 129h71v-619h173z" />
    <glyph glyph-name="two.tf" 
d="M174 81h364v-81h-467q4 61 22 110.5t48 86.5t59.5 61t71.5 51q8 5 35 21.5t40.5 25.5t35.5 27.5t33.5 34.5t20.5 39t9 47q0 64 -31 98t-90 34q-135 0 -135 -155l-91 15q0 36 10.5 71.5t35 69t72 54.5t112.5 21q95 0 151.5 -56.5t56.5 -152.5q0 -43 -14.5 -79.5
t-43.5 -65.5t-53.5 -47.5t-63.5 -42.5q-42 -26 -63 -40t-52.5 -39.5t-49 -51.5t-23.5 -56z" />
    <glyph glyph-name="three.tf" 
d="M434 377q57 -16 85.5 -65.5t28.5 -109.5q0 -103 -68 -158.5t-171 -55.5q-110 0 -172 63t-60 164l89 13q-1 -72 35.5 -118t107.5 -46t109.5 35.5t38.5 101.5q0 64 -38.5 94t-102.5 30h-58v82h45q53 0 89.5 29.5t36.5 80.5q0 56 -32 88t-89 32q-41 0 -69 -17.5t-40 -44
t-16.5 -49t-3.5 -41.5l-92 15q2 93 63.5 152.5t157.5 59.5q91 0 151 -49.5t60 -146.5q0 -42 -23 -80t-62 -59z" />
    <glyph glyph-name="four.tf" 
d="M545 238v-79h-90v-159h-91v159h-301v90l317 451h75v-462h90zM246 238h118v180q0 93 2 144q-23 -41 -80 -126l-64 -92q-31 -46 -76 -108q70 2 100 2z" />
    <glyph glyph-name="five.tf" 
d="M324 461q99 0 164 -59t65 -176q0 -103 -65 -170.5t-183 -67.5q-100 0 -161 62t-61 163l89 13q0 -77 39 -119.5t98 -42.5q157 0 157 169q0 71 -40.5 109t-115.5 38q-87 0 -135 -64l-77 6l54 378h364v-81h-289l-31 -207q45 49 128 49z" />
    <glyph glyph-name="six.tf" 
d="M339 457q99 0 157.5 -65t58.5 -166q0 -42 -12.5 -82t-38.5 -76t-74 -58t-110 -22q-242 0 -242 341q0 184 59 283.5t199 99.5q92 0 141 -51t60 -131l-84 -14q-13 120 -120 120q-170 0 -170 -278q56 99 176 99zM319 64q76 0 112.5 39.5t36.5 123.5q0 151 -144 151
q-69 0 -108.5 -42t-39.5 -114q0 -70 36 -114t107 -44z" />
    <glyph glyph-name="seven.tf" 
d="M97 700h439v-85q-112 -108 -185.5 -275.5t-81.5 -339.5h-95q11 169 80 331t186 288h-343v81z" />
    <glyph glyph-name="eight.tf" 
d="M433 381q117 -37 117 -173q0 -105 -66.5 -162.5t-174.5 -57.5q-112 0 -176.5 59.5t-64.5 160.5q0 137 116 173q-86 44 -86 146q0 80 52.5 132.5t160.5 52.5q106 0 157.5 -52.5t51.5 -132.5q0 -103 -87 -146zM309 636q-59 0 -91 -30t-32 -85q0 -53 32.5 -82.5t90.5 -29.5
t90.5 29.5t32.5 82.5q0 55 -32 85t-91 30zM309 64q68 0 109.5 39t41.5 102q0 60 -41 95.5t-110 35.5q-67 0 -109 -34.5t-42 -96.5q0 -63 42 -102t109 -39z" />
    <glyph glyph-name="nine.tf" 
d="M305 712q242 0 242 -343q0 -182 -59 -281.5t-199 -99.5q-92 0 -141.5 54t-57.5 138l82 14q4 -56 33.5 -93t86.5 -37q163 0 169 272q-67 -99 -175 -99q-99 0 -157.5 66t-58.5 169q0 33 7.5 65.5t25 64.5t44 56t67.5 39t91 15zM301 317q69 0 108.5 43t39.5 117
q0 70 -36 114.5t-107 44.5q-149 0 -149 -166q0 -153 144 -153z" />
    <glyph glyph-name="zero.tf.ss04" 
d="M311 -12q-124 0 -188.5 92t-64.5 271q0 165 64.5 263t188.5 98t188.5 -98.5t64.5 -262.5q0 -167 -64.5 -265t-188.5 -98zM311 64q88 0 121.5 70t33.5 217q0 146 -33 214.5t-122 68.5t-122 -68.5t-33 -214.5q0 -150 33.5 -218.5t121.5 -68.5zM261 305v114h109v-114h-109z
" />
    <glyph glyph-name="zero.tosf" 
d="M310 697q121 0 184.5 -96.5t63.5 -257.5q0 -163 -63 -259t-185 -96q-121 0 -184 90t-63 265q0 162 63 258t184 96zM310 620q-87 0 -119 -67t-32 -210q0 -121 21 -185l212 440q-31 22 -82 22zM310 63q86 0 119 68.5t33 211.5q0 127 -23 189l-213 -444q31 -25 84 -25z" />
    <glyph glyph-name="one.tosf" 
d="M548 79v-79h-444v79h185v447q-38 -46 -145 -46q-4 0 -13 0.5t-13 0.5l-1 2v74l1 2q168 0 190 126h70v-606h170z" />
    <glyph glyph-name="two.tosf" 
d="M179 79h356v-79h-457q4 60 21.5 108.5t47 84t58.5 59.5t69 50q7 5 34 21.5t40 25t35 27t33 33.5t20 37.5t9 46.5q0 63 -30.5 96t-88.5 33q-42 0 -70.5 -15.5t-40.5 -41.5t-16.5 -47.5t-4.5 -46.5l-89 14q0 36 10.5 70t34.5 67.5t70.5 54t109.5 20.5q93 0 148.5 -55.5
t55.5 -149.5q0 -42 -14 -77.5t-42.5 -64t-52.5 -47t-62 -41.5q-41 -25 -62 -39t-51.5 -39t-47.5 -50.5t-23 -54.5z" />
    <glyph glyph-name="three.tosf" 
d="M432 369q54 -16 82.5 -64t28.5 -107q0 -101 -66 -155.5t-167 -54.5q-108 0 -168.5 62t-58.5 160l87 13q-1 -70 35 -115t105 -45t106.5 35t37.5 99q0 63 -37.5 92t-100.5 29h-56v80h44q52 0 87.5 29t35.5 79q0 54 -31 85.5t-87 31.5q-40 0 -68 -17t-39.5 -43t-16 -47.5
t-3.5 -40.5l-90 14q2 92 62.5 150t154.5 58q89 0 147.5 -48.5t58.5 -143.5q0 -42 -22 -78.5t-61 -57.5z" />
    <glyph glyph-name="four.tosf" 
d="M541 233v-77h-88v-156h-89v156h-295v88l310 441h74v-452h88zM248 233h116v176q0 90 2 140q-26 -45 -79 -122l-62 -90q-33 -48 -74 -106q68 2 97 2z" />
    <glyph glyph-name="five.tosf" 
d="M324 451q97 0 160.5 -57.5t63.5 -172.5q0 -101 -63.5 -167t-178.5 -66q-97 0 -157 61t-60 159l87 13q0 -75 38 -116.5t96 -41.5q153 0 153 165q0 70 -39.5 107t-112.5 37q-85 0 -132 -63l-76 6l53 370h356v-79h-283l-30 -202q44 47 125 47z" />
    <glyph glyph-name="six.tosf" 
d="M338 447q96 0 153.5 -63.5t57.5 -162.5q0 -41 -12.5 -80t-37.5 -74.5t-72 -57t-108 -21.5q-236 0 -236 334q0 87 12.5 153t40.5 117.5t78 78t121 26.5q90 0 138 -50t59 -128l-83 -14q-11 117 -117 117q-166 0 -166 -271q54 96 172 96zM318 63q74 0 110 38.5t36 120.5
q0 148 -141 148q-67 0 -106 -41t-39 -112q0 -68 35.5 -111t104.5 -43z" />
    <glyph glyph-name="seven.tosf" 
d="M100 685h429v-83q-110 -105 -181.5 -269t-79.5 -333h-93q11 166 79 325t182 281h-336v79z" />
    <glyph glyph-name="eight.tosf" 
d="M432 373q114 -36 114 -169q0 -103 -65 -159.5t-170 -56.5q-109 0 -172.5 58t-63.5 158q0 133 113 169q-84 44 -84 143q0 78 51 129.5t157 51.5q104 0 154.5 -51.5t50.5 -129.5q0 -100 -85 -143zM311 622q-58 0 -89.5 -29.5t-31.5 -82.5q0 -52 32 -81t89 -29q56 0 88 29
t32 81q0 54 -31.5 83t-88.5 29zM311 63q67 0 107 38t40 100q0 59 -40 93.5t-107 34.5q-66 0 -107 -34t-41 -94q0 -62 40.5 -100t107.5 -38z" />
    <glyph glyph-name="nine.tosf" 
d="M305 697q236 0 236 -336q0 -178 -57.5 -275.5t-194.5 -97.5q-90 0 -138.5 52.5t-56.5 135.5l81 14q3 -55 32 -91t85 -36q159 0 165 265q-65 -96 -171 -96q-97 0 -154 64.5t-57 165.5q0 42 12.5 81t37.5 75t72 57.5t108 21.5zM301 310q67 0 106 42.5t39 114.5
q0 68 -35.5 111.5t-104.5 43.5q-146 0 -146 -162q0 -150 141 -150z" />
    <glyph glyph-name="zero.tosf.ss04" 
d="M310 -12q-121 0 -184 90t-63 265q0 162 63 258t184 96t184.5 -96.5t63.5 -257.5q0 -163 -63 -259t-185 -96zM310 63q86 0 119 68.5t33 211.5t-32 210t-120 67q-87 0 -119 -67t-32 -210q0 -146 32.5 -213t118.5 -67zM262 298v112h106v-112h-106z" />
    <glyph glyph-name="zero.dnom" horiz-adv-x="501" 
d="M250 -5q-75 0 -114.5 55.5t-39.5 161.5q0 102 40.5 159.5t113.5 57.5t114.5 -57.5t41.5 -159.5q0 -103 -41 -160t-115 -57zM250 55q45 0 65.5 36.5t20.5 120.5q0 85 -20 121t-66 36q-44 0 -63.5 -36t-19.5 -121q0 -86 19.5 -121.5t63.5 -35.5z" />
    <glyph glyph-name="one.dnom" horiz-adv-x="433" 
d="M226 0v317q-37 -31 -104 -28v61q49 0 79.5 20t35.5 55h56v-425h-67z" />
    <glyph glyph-name="two.dnom" horiz-adv-x="490" 
d="M174 61h214v-61h-291q3 73 35 115.5t88 78.5q4 3 24 15t29 19t23 19.5t20 26t6 29.5q0 71 -68 71q-74 0 -74 -92l-67 11q0 53 33 96t111 43q59 0 94.5 -35.5t35.5 -94.5q0 -49 -28.5 -81t-78.5 -63q-33 -21 -47 -30t-33.5 -28.5t-25.5 -38.5z" />
    <glyph glyph-name="three.dnom" horiz-adv-x="489" 
d="M331 231q27 -12 43 -40t16 -63q0 -61 -40.5 -97t-106.5 -36q-67 0 -105.5 38.5t-38.5 103.5l65 9q0 -44 20.5 -68.5t58.5 -24.5q39 0 60 19.5t21 54.5q0 65 -77 65h-38v61h30q31 0 49.5 15.5t18.5 41.5q0 31 -17 48t-48 17q-70 0 -70 -85l-68 10q0 56 39 94t99 38
t95.5 -33t35.5 -89q0 -50 -42 -79z" />
    <glyph glyph-name="four.dnom" horiz-adv-x="481" 
d="M270 0v96h-178v60l189 269h53v-271h54v-58h-54v-96h-64zM160 153q16 1 50 1h61v101q0 27 2 63q-19 -35 -41 -65l-34 -48q-21 -30 -38 -52z" />
    <glyph glyph-name="five.dnom" horiz-adv-x="486" 
d="M247 285q63 0 102 -38.5t39 -104.5q0 -67 -41 -107t-109 -40q-58 0 -98.5 38t-40.5 95l64 9q0 -38 22 -61t54 -23q40 0 63 23t23 66q0 38 -23.5 61.5t-62.5 23.5q-51 0 -78 -39l-57 4l34 233h224v-60h-174l-14 -99q26 19 73 19z" />
    <glyph glyph-name="six.dnom" horiz-adv-x="492" 
d="M261 282q59 0 95.5 -39t36.5 -102q0 -56 -35 -101t-109 -45q-148 0 -148 206q0 116 39 172t119 56q51 0 83 -29t39 -82l-60 -10q-3 31 -20 47.5t-44 16.5q-88 0 -93 -137q38 47 97 47zM248 53q82 0 82 89q0 83 -79 83q-37 0 -58.5 -23t-21.5 -63t20.5 -63t56.5 -23z" />
    <glyph glyph-name="seven.dnom" horiz-adv-x="463" 
d="M99 425h270v-59q-68 -64 -110.5 -164t-45.5 -202h-70q5 99 44.5 194t105.5 170h-194v61z" />
    <glyph glyph-name="eight.dnom" horiz-adv-x="492" 
d="M246 -5q-69 0 -108.5 36.5t-39.5 98.5q0 74 63 102q-45 29 -45 83q0 53 35 83.5t96 30.5q60 -1 94.5 -31t34.5 -83t-45 -84q63 -27 63 -102q0 -62 -40 -98t-108 -36zM246 251q31 0 49.5 16t18.5 44q0 29 -18 45.5t-50 16.5t-50 -16.5t-18 -45.5q0 -28 18.5 -44t49.5 -16z
M246 52q38 0 61 21t23 55q0 33 -22.5 52.5t-61.5 19.5t-61.5 -19.5t-22.5 -52.5q0 -34 22.5 -55t61.5 -21z" />
    <glyph glyph-name="nine.dnom" horiz-adv-x="492" 
d="M244 429q147 0 147 -205q0 -117 -38.5 -173t-118.5 -56q-51 0 -85 30t-41 83l60 10q4 -31 22 -48t46 -17q88 0 93 136q-37 -46 -97 -46q-59 0 -95.5 38.5t-36.5 101.5q0 56 35 101t109 45zM242 200q37 0 58.5 22.5t21.5 62.5q0 41 -20.5 64t-56.5 23q-82 0 -82 -90
q0 -82 79 -82z" />
    <glyph glyph-name="zero.numr" horiz-adv-x="501" 
d="M250 270q-75 0 -114.5 55.5t-39.5 161.5q0 102 40.5 159.5t113.5 57.5t114.5 -57.5t41.5 -159.5q0 -103 -41 -160t-115 -57zM250 330q45 0 65.5 36.5t20.5 120.5q0 85 -20 121t-66 36q-44 0 -63.5 -36t-19.5 -121q0 -86 19.5 -121.5t63.5 -35.5z" />
    <glyph glyph-name="one.numr" horiz-adv-x="433" 
d="M226 275v317q-37 -31 -104 -28v61q49 0 79.5 20t35.5 55h56v-425h-67z" />
    <glyph glyph-name="two.numr" horiz-adv-x="490" 
d="M174 336h214v-61h-291q3 73 35 115.5t88 78.5q4 3 24 15t29 19t23 19.5t20 26t6 29.5q0 71 -68 71q-74 0 -74 -92l-67 11q0 53 33 96t111 43q59 0 94.5 -35.5t35.5 -94.5q0 -49 -28.5 -81t-78.5 -63q-33 -21 -47 -30t-33.5 -28.5t-25.5 -38.5z" />
    <glyph glyph-name="three.numr" horiz-adv-x="489" 
d="M331 506q27 -12 43 -40t16 -63q0 -61 -40.5 -97t-106.5 -36q-67 0 -105.5 38.5t-38.5 103.5l65 9q0 -44 20.5 -68.5t58.5 -24.5q39 0 60 19.5t21 54.5q0 65 -77 65h-38v61h30q31 0 49.5 15.5t18.5 41.5q0 31 -17 48t-48 17q-70 0 -70 -85l-68 10q0 56 39 94t99 38
t95.5 -33t35.5 -89q0 -50 -42 -79z" />
    <glyph glyph-name="four.numr" horiz-adv-x="481" 
d="M269 275v96h-178v60l189 269h53v-271h54v-58h-54v-96h-64zM159 428q16 1 50 1h61v101q0 27 2 63q-19 -35 -41 -65l-34 -48q-21 -30 -38 -52z" />
    <glyph glyph-name="five.numr" horiz-adv-x="486" 
d="M247 560q63 0 102 -39t39 -104q0 -67 -41 -107t-109 -40q-58 0 -98.5 38t-40.5 95l64 9q0 -38 22 -61t54 -23q40 0 63 23t23 66q0 39 -23.5 62t-62.5 23q-51 0 -78 -39l-57 4l34 233h224v-60h-174l-14 -99q26 19 73 19z" />
    <glyph glyph-name="six.numr" horiz-adv-x="492" 
d="M261 557q59 0 95.5 -39t36.5 -102q0 -56 -35 -101t-109 -45q-148 0 -148 206q0 116 39 172t119 56q51 0 83 -29t39 -82l-60 -10q-3 31 -20 47.5t-44 16.5q-88 0 -93 -137q38 47 97 47zM248 328q82 0 82 89q0 83 -79 83q-37 0 -58.5 -23t-21.5 -63t20.5 -63t56.5 -23z" />
    <glyph glyph-name="seven.numr" horiz-adv-x="463" 
d="M98 700h270v-59q-68 -64 -110.5 -164t-45.5 -202h-70q5 99 44.5 194t105.5 170h-194v61z" />
    <glyph glyph-name="eight.numr" horiz-adv-x="492" 
d="M246 270q-69 0 -108.5 36.5t-39.5 98.5q0 74 63 102q-45 29 -45 83q0 53 35 83.5t96 30.5q60 -1 94.5 -31t34.5 -83t-45 -84q63 -27 63 -102q0 -62 -40 -98t-108 -36zM246 526q31 0 49.5 16t18.5 44q0 29 -18 45.5t-50 16.5t-50 -16.5t-18 -45.5q0 -28 18.5 -44t49.5 -16
zM246 327q38 0 61 21t23 55q0 33 -22.5 52.5t-61.5 19.5t-61.5 -19.5t-22.5 -52.5q0 -34 22.5 -55t61.5 -21z" />
    <glyph glyph-name="nine.numr" horiz-adv-x="492" 
d="M244 704q147 0 147 -205q0 -117 -38.5 -173t-118.5 -56q-51 0 -85 30t-41 83l60 10q4 -31 22 -48t46 -17q88 0 93 136q-37 -46 -97 -46q-59 0 -95.5 38.5t-36.5 101.5q0 56 35 101t109 45zM242 475q37 0 58.5 22.5t21.5 62.5q0 41 -20.5 64t-56.5 23q-82 0 -82 -90
q0 -82 79 -82z" />
    <glyph glyph-name="exclamdown.case" horiz-adv-x="436" 
d="M265 700v-111h-106v111h106zM251 526l12 -283v-243h-89v243l12 283h65z" />
    <glyph glyph-name="questiondown.case" horiz-adv-x="558" 
d="M323 700v-111h-106v111h106zM319 526v-51q0 -45 -19 -81.5t-67 -80.5q-27 -25 -38.5 -37t-24.5 -36.5t-13 -51.5q0 -125 119 -125q133 0 133 148l89 -15q0 -35 -11 -68.5t-35 -66.5t-70.5 -53t-109.5 -20q-93 0 -148.5 54.5t-55.5 146.5q0 38 13 69.5t28 48.5t46 46
q27 24 40 38.5t26 43t13 62.5v29h85z" />
    <glyph glyph-name="bullet.case" horiz-adv-x="485" 
d="M244 231q-48 0 -77.5 30t-29.5 77t29.5 76.5t77.5 29.5q46 0 75.5 -30t29.5 -76q0 -47 -29.5 -77t-75.5 -30z" />
    <glyph glyph-name="numbersign.lf" horiz-adv-x="605" 
d="M556 433h-92l-22 -150h93l-11 -75h-93l-30 -208h-81l31 208h-136l-31 -208h-81l31 208h-97l11 75h97l22 150h-97l11 75h97l28 192h80l-27 -192h136l27 192h81l-28 -192h91zM224 283h136l22 150h-136z" />
    <glyph glyph-name="period.tf" 
d="M260 0v129h122v-129h-122z" />
    <glyph glyph-name="comma.tf" 
d="M262 -158v60q54 21 55 98h-56v131h122v-133q0 -64 -32 -104.5t-89 -51.5z" />
    <glyph glyph-name="colon.tf" 
d="M260 338v129h122v-129h-122zM260 0v129h122v-129h-122z" />
    <glyph glyph-name="semicolon.tf" 
d="M260 338v129h122v-129h-122zM262 -158v60q54 21 55 98h-56v131h122v-133q0 -64 -32 -104.5t-89 -51.5z" />
    <glyph glyph-name="periodcentered.tf" 
d="M259 261v129h122v-129h-122z" />
    <glyph glyph-name="asterisk.tf" 
d="M466 562l-110 -34l71 -101l-46 -32l-71 106l-71 -105l-46 32l70 100l-109 34l17 54l111 -39v123h55v-123l112 39z" />
    <glyph glyph-name="numbersign.tf" 
d="M565 433h-92l-22 -150h93l-11 -75h-93l-30 -208h-81l31 208h-136l-31 -208h-81l31 208h-97l11 75h97l22 150h-97l11 75h97l28 192h80l-27 -192h136l27 192h81l-28 -192h91zM233 283h136l22 150h-136z" />
    <glyph glyph-name="parenleft.case" horiz-adv-x="447" 
d="M270 -100q-146 232 -146 456q0 117 38 234t109 212h74l1 -3q-127 -203 -127 -443q0 -247 126 -453l-1 -3h-74z" />
    <glyph glyph-name="parenright.case" horiz-adv-x="447" 
d="M177 -100h-74l-1 3q126 206 126 453q0 240 -127 443l1 3h74q71 -95 109 -212t38 -234q0 -224 -146 -456z" />
    <glyph glyph-name="braceleft.case" horiz-adv-x="471" 
d="M348 -100q-85 0 -126 38t-41 128v178q0 36 -19 54t-62 19v73q43 2 62 19.5t19 52.5v175q0 91 40.5 127t126.5 36h35v-74h-34q-43 0 -61.5 -20t-18.5 -73v-180q0 -82 -64 -100q34 -11 48.5 -33.5t14.5 -65.5v-184q0 -54 18.5 -74t62.5 -20h34v-76h-35z" />
    <glyph glyph-name="braceright.case" horiz-adv-x="471" 
d="M123 -100h-35v76h34q44 0 62.5 20t18.5 74v184q0 43 14.5 65.5t48.5 33.5q-64 18 -64 100v180q0 53 -18.5 73t-61.5 20h-34v74h35q86 0 126.5 -36t40.5 -127v-175q0 -35 19 -52.5t62 -19.5v-73q-43 -1 -62 -19t-19 -54v-178q0 -90 -41 -128t-126 -38z" />
    <glyph glyph-name="bracketleft.case" horiz-adv-x="464" 
d="M153 -100v900h225v-69h-138v-760h138v-71h-225z" />
    <glyph glyph-name="bracketright.case" horiz-adv-x="464" 
d="M312 -100h-225v71h138v760h-138v69h225v-900z" />
    <glyph glyph-name="angleleft.case" horiz-adv-x="474" 
d="M185 355l213 -455h-91l-215 452l210 448h91z" />
    <glyph glyph-name="angleright.case" horiz-adv-x="474" 
d="M173 800l210 -448l-215 -452h-91l213 455l-208 445h91z" />
    <glyph glyph-name="uni3010.case" horiz-adv-x="474" 
d="M153 -100v900h252v-3q-93 -107 -135 -209.5t-42 -236.5t41.5 -237t135.5 -211v-3h-252z" />
    <glyph glyph-name="uni3011.case" horiz-adv-x="474" 
d="M321 -100h-252v3q94 108 135.5 211t41.5 237t-42 236.5t-135 209.5v3h252v-900z" />
    <glyph glyph-name="uni300C.case" horiz-adv-x="473" 
d="M149 358v442h255v-70h-168v-372h-87z" />
    <glyph glyph-name="uni300D.case" horiz-adv-x="474" 
d="M325 342v-442h-255v70h168v372h87z" />
    <glyph glyph-name="uni300A.case" horiz-adv-x="579" 
d="M232 355l213 -455h-89l-215 452l210 448h89z" />
    <glyph glyph-name="uni300B.case" horiz-adv-x="579" 
d="M228 800l210 -448l-215 -452h-89l213 455l-208 445h89z" />
    <glyph glyph-name="uni3014.case" horiz-adv-x="445" 
d="M218 612v-521l118 -156l-64 -46l-141 185v553l143 187l63 -46z" />
    <glyph glyph-name="uni3015.case" horiz-adv-x="445" 
d="M171 814l143 -187v-553l-141 -185l-64 46l118 156v521l-119 156z" />
    <glyph glyph-name="uni300E.case" horiz-adv-x="539" 
d="M120 269v531h363v-202h-159v-329h-204zM192 329h60v329h159v82h-219v-411z" />
    <glyph glyph-name="uni300F.case" horiz-adv-x="543" 
d="M419 431v-531h-363v202h159v329h204zM347 371h-60v-329h-159v-82h219v411z" />
    <glyph glyph-name="hyphen.case" horiz-adv-x="508" 
d="M109 305v80h290v-80h-290z" />
    <glyph glyph-name="uni00AD.case" horiz-adv-x="508" 
d="M109 305v80h290v-80h-290z" />
    <glyph glyph-name="endash.case" horiz-adv-x="609" 
d="M62 305v80h487v-80h-487z" />
    <glyph glyph-name="emdash.case" horiz-adv-x="737" 
d="M52 305v80h634v-80h-634z" />
    <glyph glyph-name="hyphen.tf" 
d="M160 243v80h300v-80h-300z" />
    <glyph glyph-name="endash.tf" 
d="M64 243v80h492v-80h-492z" />
    <glyph glyph-name="hyphen.case.tf" 
d="M160 305v80h300v-80h-300z" />
    <glyph glyph-name="endash.case.tf" 
d="M64 305v80h492v-80h-492z" />
    <glyph glyph-name="guillemotleft.case" horiz-adv-x="534" 
d="M72 289v92l169 138v-97l-107 -85l107 -86v-98zM443 519v-97l-107 -85l107 -86v-98l-169 136v92z" />
    <glyph glyph-name="guillemotright.case" horiz-adv-x="534" 
d="M91 422v97l169 -138v-92l-169 -136v98l107 86zM293 519l169 -138v-92l-169 -136v98l107 86l-107 85v97z" />
    <glyph glyph-name="guilsinglleft.case" horiz-adv-x="445" 
d="M295 519v-97l-107 -85l107 -86v-98l-169 136v92z" />
    <glyph glyph-name="guilsinglright.case" horiz-adv-x="445" 
d="M150 519l169 -138v-92l-169 -136v98l107 86l-107 85v97z" />
    <glyph glyph-name="bullet_white_numbers" horiz-adv-x="705" 
d="M351 13q-138 0 -231 95.5t-93 241.5q0 147 93 243t231 96q139 0 233 -96t94 -243q0 -146 -94 -241.5t-233 -95.5zM352 59q118 0 196 82t78 209q0 128 -78 211t-196 83t-196 -83t-78 -211q0 -127 78 -209t196 -82z" />
    <glyph glyph-name="space.tf" 
 />
    <glyph glyph-name="uni20BF.tf" 
d="M580 193q0 -90 -44 -132t-120 -54v-75h-72v69q-14 -1 -43 -1h-35v-68h-72v68h-111v700h111v68h72v-68h28q33 0 50 -1v69h72v-78q140 -32 140 -181q0 -103 -88 -151q112 -44 112 -165zM173 622v-226h114q29 0 45 0.5t41 3.5t38.5 10.5t28.5 19t21.5 31.5t6.5 47
q0 33 -11.5 55.5t-26 33.5t-43 17t-47.5 7t-53 1h-114zM301 77q39 0 59 1t50 6.5t44.5 17.5t26 34.5t11.5 56.5q0 36 -13 61t-29 37t-46 18.5t-48 7.5t-50 1h-133v-241h128z" />
    <glyph glyph-name="cent.tf" 
d="M546 153q-12 -69 -64 -112.5t-128 -51.5v-83h-65v84q-100 11 -156 79t-56 181q0 107 57 177.5t155 82.5v85h65v-84q79 -8 127.5 -54.5t62.5 -115.5l-84 -16q-25 100 -106 113v-376q84 10 107 100zM176 250q0 -83 24.5 -130t88.5 -57v374q-64 -10 -88.5 -57.5
t-24.5 -129.5z" />
    <glyph glyph-name="currency.tf" 
d="M547 155l-44 -44l-59 59q-54 -43 -132 -43q-82 0 -134 41l-58 -57l-44 44l60 60q-31 53 -31 126q0 72 35 128l-59 59l44 45l58 -58q54 41 129 41q74 0 128 -41l58 58l44 -45l-59 -59q36 -55 36 -128q0 -71 -34 -124zM312 191q125 0 125 150q0 151 -125 151t-125 -151
q0 -150 125 -150z" />
    <glyph glyph-name="dollar.tf" 
d="M586 204q0 -56 -20 -97.5t-54.5 -65.5t-74.5 -36.5t-87 -15.5v-57h-75v58q-104 10 -172 70t-70 163l95 9q2 -68 42 -111.5t105 -53.5v250h-2q-37 9 -63.5 17.5t-58.5 25t-51.5 36t-33 50.5t-13.5 69q0 48 19.5 86t52 60.5t70.5 35t80 14.5v57h75v-59q90 -11 146.5 -63
t67.5 -151l-95 -17q-1 61 -32.5 100.5t-86.5 52.5v-233q46 -8 75 -15t63 -21.5t53 -34t32 -50.5t13 -73zM146 518q0 -42 34.5 -66t94.5 -39v223q-54 -6 -91.5 -36.5t-37.5 -81.5zM350 66q64 7 103 38.5t39 92.5q0 49 -36 70t-106 35v-236z" />
    <glyph glyph-name="Euro.tf" 
d="M490 203l90 -23q-55 -192 -235 -192q-215 0 -246 270h-53v59h49q-1 11 -1 34t1 35h-49v59h54q17 123 78 195t167 72q85 0 144 -46.5t81 -127.5l-87 -17q-15 57 -48 85t-90 28q-72 0 -106 -48t-42 -141h203v-59h-207v-35v-34h207v-59h-203q8 -96 42 -144t106 -48
q62 0 96 34.5t49 102.5z" />
    <glyph glyph-name="florin.tf" 
d="M462 706q24 0 51 -3l-2 -78q-26 2 -36 2q-43 0 -62.5 -15t-24.5 -52l-21 -149h103v-75h-114l-57 -406q-9 -65 -40 -96t-101 -31q-25 0 -52 3l2 75q8 -1 22 -1q32 0 50 12.5t23 44.5l58 399h-100v75h111l23 161q9 60 38 92q39 42 129 42z" />
    <glyph glyph-name="uni20BA.tf" 
d="M487 265l89 -23q-28 -114 -117.5 -178t-230.5 -64h-80v248l-79 -44v72l79 44v79l-79 -44v72l79 44v229h90v-179l201 111v-72l-201 -111v-79l201 111v-72l-201 -111v-220q208 5 249 187z" />
    <glyph glyph-name="uni20BD.tf" 
d="M320 285h-105v-88h214v-66h-214v-131h-90v131h-79v66h79v89h-79v73h79v341h196q42 0 74.5 -3.5t70.5 -16.5t62.5 -35t41.5 -62t17 -95q0 -53 -17 -91.5t-41.5 -59.5t-62.5 -33t-71 -15.5t-75 -3.5zM215 623v-263h105q30 0 50.5 1.5t47 8.5t42.5 20t27.5 38t11.5 60
q0 28 -6 49.5t-15 35.5t-24.5 24t-28.5 15t-34 7.5t-34.5 3t-35.5 0.5h-106z" />
    <glyph glyph-name="uni20B9.tf" 
d="M555 629h-138q36 -39 44 -98h94v-70h-93q-4 -45 -22.5 -77.5t-43 -50.5t-60.5 -28.5t-67 -13t-71 -2.5l277 -287l-1 -3h-116l-267 279v85h96q37 0 61.5 2.5t54 11.5t47.5 30t23 54h-282v70h280q-7 34 -24.5 54.5t-48 28.5t-51.5 10t-59 2h-97v73h464v-70z" />
    <glyph glyph-name="sterling.tf" 
d="M522 121l52 -70q-70 -63 -157 -63q-48 0 -107.5 26t-95.5 26q-38 0 -100 -44l-54 75q59 45 82.5 81t23.5 82q0 25 -11 69h-85v72h60q-33 78 -33 137q0 90 63 145t166 55q100 0 160 -56t66 -157l-91 -17q-1 76 -39 115t-98 39q-61 0 -95 -33.5t-34 -92.5q0 -40 33 -135
h139v-72h-119q6 -27 6 -54q0 -86 -87 -160q44 24 88 24q36 0 85.5 -20t75.5 -20q52 0 106 48z" />
    <glyph glyph-name="uni20A9.tf" 
d="M600 379h-64l-9 -83h73v-59h-80l-27 -237h-111l-48 393q-23 191 -23 193h-3q-4 -25 -10 -94.5t-10 -99.5l-49 -392h-112l-27 237h-80v59h73l-9 83h-64v59h57l-30 262h89l33 -421q8 -100 14 -172h3q3 25 11 89.5t10 82.5l53 421h102l54 -421q5 -40 11.5 -96t9.5 -76h3
q3 25 7 88.5t5 83.5l32 421h89l-30 -262h57v-59z" />
    <glyph glyph-name="yen.tf" 
d="M588 700l-200 -347h122v-64h-153v-56h152v-64h-152v-169h-91v169h-153v64h153v56h-152v64h121l-200 347h105l106 -200q43 -81 65 -129q33 69 65 130l106 199h106z" />
    <glyph glyph-name="plus.alt" horiz-adv-x="679" 
d="M299 31v286h-270v73h270v279h83v-279h268v-73h-268v-286h-83z" />
    <glyph glyph-name="minus.alt" horiz-adv-x="712" 
d="M46 317v74h620v-74h-620z" />
    <glyph glyph-name="multiply.alt" horiz-adv-x="688" 
d="M85 28l-56 55l260 259l-261 261l54 56l262 -262l263 263l54 -57l-261 -261l260 -260l-56 -55l-260 260z" />
    <glyph glyph-name="plus.case" horiz-adv-x="565" 
d="M248 121v195h-194v67h194v196h71v-196h193v-67h-193v-195h-71z" />
    <glyph glyph-name="minus.case" horiz-adv-x="595" 
d="M71 316v67h454v-67h-454z" />
    <glyph glyph-name="multiply.case" horiz-adv-x="538" 
d="M130 163l-48 47l140 140l-140 139l47 48l140 -140l140 140l47 -48l-139 -139l139 -140l-48 -47l-139 139z" />
    <glyph glyph-name="divide.case" horiz-adv-x="579" 
d="M237 476v115h109v-115h-109zM61 316v67h454v-67h-454zM237 112v115h109v-115h-109z" />
    <glyph glyph-name="equal.case" horiz-adv-x="595" 
d="M77 407v67h454v-67h-454zM77 229v67h454v-67h-454z" />
    <glyph glyph-name="notequal.case" horiz-adv-x="595" 
d="M524 407h-177l-56 -111h233v-67h-267l-49 -96h-59l49 96h-128v67h162l56 111h-218v67h252l50 99h60l-50 -99h142v-67z" />
    <glyph glyph-name="greater.case" horiz-adv-x="554" 
d="M86 142v79l214 87q39 16 120 42q-89 29 -121 42l-213 87v79l399 -169v-78z" />
    <glyph glyph-name="less.case" horiz-adv-x="554" 
d="M468 142l-399 169v78l399 169v-79l-213 -87q-32 -13 -121 -42q81 -26 120 -42l214 -87v-79z" />
    <glyph glyph-name="greaterequal.case" horiz-adv-x="573" 
d="M91 191v74l214 82q45 17 120 39q-85 26 -121 39l-213 82v74l399 -158v-74zM91 78v67h399v-67h-399z" />
    <glyph glyph-name="lessequal.case" horiz-adv-x="573" 
d="M482 191l-399 158v74l399 158v-74l-213 -82q-36 -13 -121 -39q75 -22 120 -39l214 -82v-74zM482 78h-399v67h399v-67z" />
    <glyph glyph-name="plusminus.case" horiz-adv-x="593" 
d="M264 218v170h-191v67h191v171h67v-171h190v-67h-190v-170h-67zM73 78v67h448v-67h-448z" />
    <glyph glyph-name="approxequal.case" horiz-adv-x="592" 
d="M72 378q1 52 30 81t76 29q42 0 126.5 -18.5t106.5 -18.5q43 0 45 43h67q-2 -50 -29 -79.5t-77 -29.5q-41 0 -127 18.5t-111 18.5q-40 0 -42 -44h-65zM72 208q1 52 30 81t76 29q42 0 126.5 -18.5t106.5 -18.5q43 0 45 43h67q-2 -51 -29 -80t-77 -29q-41 0 -127 18.5
t-111 18.5q-40 0 -42 -44h-65z" />
    <glyph glyph-name="logicalnot.case" horiz-adv-x="568" 
d="M410 199v167h-332v67h403v-234h-71z" />
    <glyph glyph-name="percent.lf" horiz-adv-x="729" 
d="M170 342q-68 0 -104 49t-36 136q0 85 37 135t103 50q65 0 102 -50.5t37 -134.5q0 -83 -37 -134t-102 -51zM125 0l392 700h84l-391 -700h-85zM170 408q34 0 48.5 27.5t14.5 91.5t-14 92t-49 28t-50.5 -28.5t-15.5 -91.5t15.5 -91t50.5 -28zM560 -9q-68 0 -104 48.5
t-36 136.5q0 84 37 134.5t103 50.5q64 0 101.5 -50.5t37.5 -134.5t-37 -134.5t-102 -50.5zM560 56q34 0 49 28t15 92t-14.5 91.5t-49.5 27.5t-50 -28t-15 -91q0 -64 15 -92t50 -28z" />
    <glyph glyph-name="perthousand.lf" 
d="M125 384q-53 0 -82 42.5t-29 119.5q0 75 29.5 120t81.5 45q51 0 80.5 -45t29.5 -120q0 -73 -29.5 -117.5t-80.5 -44.5zM385 700h77l-373 -700h-77zM125 650q-22 0 -31 -24t-9 -80q0 -55 9 -79t31 -24q21 0 29.5 24t8.5 79q0 56 -8.5 80t-29.5 24zM498 317q51 0 80.5 -45
t29.5 -120q0 -73 -29.5 -117.5t-80.5 -44.5q-50 0 -75 40q-26 -40 -73 -40q-53 0 -82 42.5t-29 119.5q0 75 29.5 120t81.5 45q47 0 73 -42q28 42 75 42zM350 48q21 0 29.5 24.5t8.5 79.5q0 56 -8.5 80.5t-29.5 24.5q-22 0 -31.5 -24.5t-9.5 -80.5q0 -55 9.5 -79.5
t31.5 -24.5zM498 48q21 0 30 24.5t9 79.5q0 56 -9 80.5t-30 24.5q-22 0 -31 -24.5t-9 -80.5q0 -55 9 -79.5t31 -24.5z" />
    <glyph glyph-name="plus.case.tf" 
d="M275 116v200h-198v67h198v201h71v-201h198v-67h-198v-200h-71z" />
    <glyph glyph-name="minus.case.tf" 
d="M80 316v67h462v-67h-462z" />
    <glyph glyph-name="multiply.case.tf" 
d="M166 158l-48 47l145 145l-145 144l47 48l145 -145l145 145l47 -48l-144 -144l144 -145l-48 -47l-144 144z" />
    <glyph glyph-name="divide.case.tf" 
d="M263 479v122h116v-122h-116zM80 316v67h462v-67h-462zM263 102v122h116v-122h-116z" />
    <glyph glyph-name="equal.case.tf" 
d="M84 415v67h462v-67h-462zM84 221v67h462v-67h-462z" />
    <glyph glyph-name="notequal.case.tf" 
d="M541 415h-174l-65 -127h239v-67h-273l-49 -96h-59l49 96h-130v67h164l64 127h-228v67h262l50 98h60l-50 -98h140v-67z" />
    <glyph glyph-name="greater.case.tf" 
d="M119 142v79l214 87q39 16 120 42q-89 29 -121 42l-213 87v79l399 -169v-78z" />
    <glyph glyph-name="less.case.tf" 
d="M516 142l-399 169v78l399 169v-79l-213 -87q-32 -13 -121 -42q81 -26 120 -42l214 -87v-79z" />
    <glyph glyph-name="greaterequal.case.tf" 
d="M114 189v74l214 82q45 17 120 39q-85 26 -121 39l-213 82v74l399 -158v-74zM114 76v67h399v-67h-399z" />
    <glyph glyph-name="lessequal.case.tf" 
d="M509 189l-399 158v74l399 158v-74l-213 -82q-36 -13 -121 -39q75 -22 120 -39l214 -82v-74zM509 76h-399v67h399v-67z" />
    <glyph glyph-name="plusminus.case.tf" 
d="M277 216v170h-191v67h191v171h67v-171h190v-67h-190v-170h-67zM86 76v67h448v-67h-448z" />
    <glyph glyph-name="approxequal.case.tf" 
d="M87 383q1 52 30 81t76 29q42 0 126.5 -18.5t106.5 -18.5q43 0 45 43h67q-2 -50 -29 -79.5t-77 -29.5q-41 0 -127 18.5t-111 18.5q-40 0 -42 -44h-65zM87 203q1 52 30 81t76 29q42 0 126.5 -18.5t106.5 -18.5q43 0 45 43h67q-2 -51 -29 -80t-77 -29q-41 0 -127 18.5
t-111 18.5q-40 0 -42 -44h-65z" />
    <glyph glyph-name="logicalnot.case.tf" 
d="M438 199v167h-332v67h403v-234h-71z" />
    <glyph glyph-name="plus.tf" 
d="M275 87v200h-198v67h198v201h71v-201h198v-67h-198v-200h-71z" />
    <glyph glyph-name="minus.tf" 
d="M79 287v67h462v-67h-462z" />
    <glyph glyph-name="multiply.tf" 
d="M166 129l-48 47l145 145l-145 144l47 48l145 -145l145 145l47 -48l-144 -144l144 -145l-48 -47l-144 144z" />
    <glyph glyph-name="divide.tf" 
d="M262 450v122h116v-122h-116zM79 287v67h462v-67h-462zM262 73v122h116v-122h-116z" />
    <glyph glyph-name="equal.tf" 
d="M78 386v67h462v-67h-462zM78 192v67h462v-67h-462z" />
    <glyph glyph-name="notequal.tf" 
d="M540 386h-174l-65 -127h239v-67h-273l-49 -96h-59l49 96h-130v67h164l64 127h-228v67h262l50 98h60l-50 -98h140v-67z" />
    <glyph glyph-name="greater.tf" 
d="M118 88v79l214 87q39 16 120 42q-89 29 -121 42l-213 87v79l399 -169v-78z" />
    <glyph glyph-name="less.tf" 
d="M515 88l-399 169v78l399 169v-79l-213 -87q-32 -13 -121 -42q81 -26 120 -42l214 -87v-79z" />
    <glyph glyph-name="greaterequal.tf" 
d="M113 113v74l214 82q45 17 120 39q-85 26 -121 39l-213 82v74l399 -158v-74zM113 0v67h399v-67h-399z" />
    <glyph glyph-name="lessequal.tf" 
d="M508 113l-399 158v74l399 158v-74l-213 -82q-36 -13 -121 -39q75 -22 120 -39l214 -82v-74zM508 0h-399v67h399v-67z" />
    <glyph glyph-name="plusminus.tf" 
d="M277 140v170h-191v67h191v171h67v-171h190v-67h-190v-170h-67zM86 0v67h448v-67h-448z" />
    <glyph glyph-name="approxequal.tf" 
d="M86 354q1 52 30 81t76 29q42 0 126.5 -18.5t106.5 -18.5q43 0 45 43h67q-2 -50 -29 -79.5t-77 -29.5q-41 0 -127 18.5t-111 18.5q-40 0 -42 -44h-65zM86 174q1 52 30 81t76 29q42 0 126.5 -18.5t106.5 -18.5q43 0 45 43h67q-2 -51 -29 -80t-77 -29q-41 0 -127 18.5
t-111 18.5q-40 0 -42 -44h-65z" />
    <glyph glyph-name="logicalnot.tf" 
d="M437 170v167h-332v67h403v-234h-71z" />
    <glyph glyph-name="percent.tf" 
d="M152 375q-61 0 -94 44.5t-33 123.5q0 77 33.5 123t93.5 46q57 0 91 -46.5t34 -122.5q0 -75 -33.5 -121.5t-91.5 -46.5zM77 0l383 700h83l-383 -700h-83zM152 438q28 0 40.5 24.5t12.5 80.5q0 57 -12 81t-41 24q-31 0 -43.5 -24t-12.5 -81t12.5 -81t43.5 -24zM469 -8
q-61 0 -94 44.5t-33 123.5q0 77 33.5 123t93.5 46q57 0 91 -46.5t34 -122.5q0 -75 -33.5 -121.5t-91.5 -46.5zM469 55q28 0 40.5 24.5t12.5 80.5q0 57 -12 81t-41 24q-31 0 -43.5 -24t-12.5 -81t12.5 -81t43.5 -24z" />
    <glyph glyph-name="perthousand.tf" 
d="M125 384q-53 0 -82 42.5t-29 119.5q0 75 29.5 120t81.5 45q51 0 80.5 -45t29.5 -120q0 -73 -29.5 -117.5t-80.5 -44.5zM385 700h77l-373 -700h-77zM125 650q-22 0 -31 -24t-9 -80q0 -55 9 -79t31 -24q21 0 29.5 24t8.5 79q0 56 -8.5 80t-29.5 24zM498 317q51 0 80.5 -45
t29.5 -120q0 -73 -29.5 -117.5t-80.5 -44.5q-50 0 -75 40q-26 -40 -73 -40q-53 0 -82 42.5t-29 119.5q0 75 29.5 120t81.5 45q47 0 73 -42q28 42 75 42zM350 48q21 0 29.5 24.5t8.5 79.5q0 56 -8.5 80.5t-29.5 24.5q-22 0 -31.5 -24.5t-9.5 -80.5q0 -55 9.5 -79.5
t31.5 -24.5zM498 48q21 0 30 24.5t9 79.5q0 56 -9 80.5t-30 24.5q-22 0 -31 -24.5t-9 -80.5q0 -55 9 -79.5t31 -24.5z" />
    <glyph glyph-name="uni2197.case" horiz-adv-x="624" 
d="M24 137l346 345q41 41 64 63q-44 -3 -79 -3l-210 -4l82 81h336v-337l-81 -81l4 206q3 68 4 83q-22 -23 -63 -64l-346 -346z" />
    <glyph glyph-name="arrowright.case" horiz-adv-x="695" 
d="M313 100l150 155q1 1 59 56q-42 -1 -82 -1h-399v80h399q39 0 82 -1q-19 18 -60 59l-149 152h114l234 -250l-234 -250h-114z" />
    <glyph glyph-name="uni2198.case" horiz-adv-x="624" 
d="M82 620l345 -346q41 -41 63 -64q-3 43 -3 79l-4 210l81 -82v-336h-337l-81 81l206 -4q68 -3 83 -4q-23 22 -64 63l-346 346z" />
    <glyph glyph-name="uni2199.case" horiz-adv-x="624" 
d="M599 563l-346 -345q-41 -41 -64 -63q44 3 79 3l210 4l-82 -81h-336v337l81 81l-4 -206q-3 -68 -4 -83q22 23 63 64l346 346z" />
    <glyph glyph-name="arrowleft.case" horiz-adv-x="695" 
d="M381 600l-150 -155q-1 -1 -59 -56q42 1 82 1h399v-80h-399q-39 0 -82 1q19 -18 60 -59l149 -152h-114l-234 250l234 250h114z" />
    <glyph glyph-name="uni2196.case" horiz-adv-x="624" 
d="M542 80l-345 346q-41 41 -63 64q3 -43 3 -79l4 -210l-81 82v336h337l81 -81l-206 4q-68 3 -83 4q23 -22 64 -63l346 -346z" />
    <glyph glyph-name="at.case" 
d="M370 -82q-153 0 -240.5 102.5t-87.5 296.5q0 176 78.5 285.5t225.5 109.5q103 0 162.5 -58.5t59.5 -155.5v-374h-77v54q-42 -63 -116 -63q-76 0 -123.5 53.5t-47.5 145.5q0 90 46.5 145t122.5 55t117 -55v33q0 150 -143 150q-224 0 -224 -329q0 -323 251 -323
q84 0 144 58l54 -60q-77 -70 -202 -70zM386 179q103 0 103 134q0 136 -101 136q-54 0 -77 -34t-23 -101t21.5 -101t76.5 -34z" />
    <glyph glyph-name="registered.case" horiz-adv-x="705" 
d="M351 689q139 0 233 -96t94 -243q0 -146 -94 -241.5t-233 -95.5q-138 0 -231 95.5t-93 241.5q0 147 93 243t231 96zM352 59q118 0 196 82t78 209q0 128 -78 211t-196 83t-196 -83t-78 -211q0 -127 78 -209t196 -82zM450 341q44 -24 44 -80q0 -68 24 -93v-9h-71
q-7 11 -10.5 26.5t-4.5 27t-3 51.5q-2 27 -20 38t-68 11h-64v-154h-67v389h161q53 0 93 -28t40 -88q0 -63 -54 -91zM356 371q40 0 60 12t20 49q0 58 -80 58h-79v-119h79z" />
    <glyph glyph-name="bar.case" horiz-adv-x="432" 
d="M172 -80v860h87v-860h-87z" />
    <glyph glyph-name="brokenbar.case" horiz-adv-x="432" 
d="M172 460v320h87v-320h-87zM172 -80v320h87v-320h-87z" />
    <glyph glyph-name="section.tf" 
d="M569 221q0 -48 -29 -86t-80 -57q61 -53 61 -122q0 -72 -54.5 -114t-144.5 -42q-97 0 -154 47t-63 131l96 10q1 -52 34.5 -84t86.5 -32q105 0 105 80q0 12 -2.5 22.5t-9 20.5t-12 17.5t-18.5 17t-20.5 15t-27 15.5t-28.5 14.5l-33 16.5l-34 17q-94 46 -139.5 89.5
t-45.5 116.5q0 50 33 85.5t82 48.5q-51 45 -51 108q0 71 58.5 113.5t139.5 42.5q88 0 142 -46t60 -126l-92 -17q-1 49 -30 83t-81 34q-50 0 -77.5 -21t-27.5 -58q0 -21 11 -39.5t35 -36t47 -30t62 -32.5l24 -12q88 -45 132.5 -86.5t44.5 -103.5zM404 118q36 13 56 37t20 54
q0 20 -8.5 36.5t-29.5 32t-32.5 23t-41.5 23.5q-105 58 -144 83q-36 -10 -58 -34.5t-22 -54.5q0 -21 10.5 -40t31 -35t37 -26t41.5 -23q117 -62 140 -76z" />
    <glyph glyph-name="degree.tf" 
d="M310 401q-63 0 -106.5 42t-43.5 102t43.5 102.5t106.5 42.5t107 -42.5t44 -102.5t-43.5 -102t-107.5 -42zM310 454q39 0 62 25.5t23 65.5q0 39 -23 65t-62 26q-37 0 -61 -26t-24 -65t24 -65t61 -26z" />
    <glyph glyph-name="uni02BA.tf" 
d="M130 438l78 262h106l-108 -262h-76zM321 438l78 262h106l-108 -262h-76z" />
    <glyph glyph-name="uni02B9.tf" 
d="M221 438l78 262h106l-108 -262h-76z" />
    <glyph glyph-name="caroncomb.alt" horiz-adv-x="0" 
d="M-249 538v37q46 6 46 45h-45v80h90v-75q0 -82 -91 -87z" />
    <glyph glyph-name="uni0308.caps" horiz-adv-x="0" 
d="M-439 756v97h83v-97h-83zM-250 756v97h83v-97h-83z" />
    <glyph glyph-name="uni0307.caps" horiz-adv-x="0" 
d="M-322 756v106h90v-106h-90z" />
    <glyph glyph-name="gravecomb.caps" horiz-adv-x="0" 
d="M-230 756h-74l-89 108h100z" />
    <glyph glyph-name="acutecomb.caps" horiz-adv-x="0" 
d="M-370 756l63 108h100l-89 -108h-74z" />
    <glyph glyph-name="uni030B.caps" horiz-adv-x="0" 
d="M-415 756l33 109h82l-54 -109h-61zM-290 756l33 109h82l-54 -109h-61z" />
    <glyph glyph-name="uni0302.caps" horiz-adv-x="0" 
d="M-439 756l93 101h83l93 -101h-80l-56 56l-58 -56h-75z" />
    <glyph glyph-name="uni030C.caps" horiz-adv-x="0" 
d="M-383 857h75l58 -56l56 56h80l-93 -101h-83z" />
    <glyph glyph-name="uni0306.caps" horiz-adv-x="0" 
d="M-247 750q-50 0 -84.5 31.5t-36.5 83.5h62q7 -50 58 -50q55 0 62 50h60q-2 -49 -36 -82t-85 -33z" />
    <glyph glyph-name="uni030A.caps" horiz-adv-x="0" 
d="M-278 739q-40 0 -68 27t-28 65t28 65t68 27t68 -27t28 -65t-28 -65t-68 -27zM-278 777q23 0 36.5 15t13.5 39q0 22 -13.5 37.5t-36.5 15.5q-22 0 -36.5 -15.5t-14.5 -37.5q0 -23 14.5 -38.5t36.5 -15.5z" />
    <glyph glyph-name="tildecomb.caps" horiz-adv-x="0" 
d="M-256 752q-31 0 -65.5 20.5t-51.5 20.5q-36 0 -41 -38h-55q0 41 27 70q29 31 75 31q27 0 62 -21t49 -21q10 0 16 2t10.5 9.5t6 10.5t5.5 15h59q-7 -51 -30 -73q-27 -26 -67 -26z" />
    <glyph glyph-name="uni0304.caps" horiz-adv-x="0" 
d="M-372 768v70h256v-70h-256z" />
    <glyph glyph-name="uni0326.caps" horiz-adv-x="0" 
d="M-252 -237v39q48 6 48 47h-47v85h95v-79q0 -87 -96 -92z" />
    <glyph glyph-name="uni0328.caps" horiz-adv-x="0" 
d="M-196 -181q-52 0 -78 23.5t-26 60.5q0 57 75 97h63q-60 -49 -60 -84q0 -33 41 -33q21 0 38 7l3 -63q-26 -8 -56 -8z" />
    <glyph glyph-name="uni0337.caps" horiz-adv-x="0" 
d="M-487 152v77l410 225v-77z" />
    <glyph glyph-name="uni0338.caps" horiz-adv-x="0" 
d="M-609 -19l-41 35l581 695l42 -35z" />
    <glyph glyph-name="uni0307.i" horiz-adv-x="0" 
d="M-322 592v116h99v-116h-99z" />
    <glyph glyph-name="ringacutecomb" horiz-adv-x="473" 
d="M184 759l65 127h101l-92 -127h-74zM219 553q-40 0 -68 27t-28 65t28 65t68 27t68 -27t28 -65t-28 -65t-68 -27zM219 591q23 0 36.5 15t13.5 39q0 22 -13.5 37.5t-36.5 15.5q-22 0 -36.5 -15.5t-14.5 -37.5q0 -23 14.5 -38.5t36.5 -15.5z" />
    <glyph glyph-name="ringacutecomb.case" horiz-adv-x="468" 
d="M192 945l57 98h98l-81 -98h-74zM228 739q-40 0 -68 27t-28 65t28 65t68 27t68 -27t28 -65t-28 -65t-68 -27zM228 777q23 0 36.5 15t13.5 39q0 22 -13.5 37.5t-36.5 15.5q-22 0 -36.5 -15.5t-14.5 -37.5q0 -23 14.5 -38.5t36.5 -15.5z" />
    </font>
</defs>
</svg>
