<?xml version="1.0" standalone="no"?>
<!DOCTYPE svg PUBLIC "-//W3C//DTD SVG 1.1//EN" "http://www.w3.org/Graphics/SVG/1.1/DTD/svg11.dtd" >
<svg xmlns="http://www.w3.org/2000/svg" xmlns:xlink="http://www.w3.org/1999/xlink" version="1.1">
<metadata>
Created by FontForge 20170731 at Tue Aug 21 19:47:55 2018
 By Aleksey,,,
Copyright (c) 2018 Dinamo (Johannes Breyer, Fabian Harb) &#38; Kasper-Florio, St.Gallen, Switzerland. All rights reserved.
</metadata>
<defs>
<font id="MonumentGrotesk-Regular" horiz-adv-x="620" >
  <font-face 
    font-family="Monument Grotesk"
    font-weight="400"
    font-stretch="normal"
    units-per-em="1000"
    panose-1="2 1 5 4 3 0 0 2 0 4"
    ascent="795"
    descent="-205"
    x-height="500"
    cap-height="700"
    bbox="-732 -237 1149 1043"
    underline-thickness="50"
    underline-position="-200"
    unicode-range="U+000D-FB02"
  />
<missing-glyph horiz-adv-x="660" 
d="M80 0v700h500v-700h-500zM155 75h350v550h-350v-550z" />
    <glyph glyph-name="fi" unicode="fi" horiz-adv-x="522" 
d="M98 0v425h-72v75h72v88q0 61 32 89t102 28q28 0 55 -5l-2 -80q-27 5 -48 5q-27 0 -38.5 -7.5t-11.5 -31.5v-86h102v-75h-102v-425h-89zM366 594v106h90v-106h-90zM366 0v500h90v-500h-90z" />
    <glyph glyph-name="fl" unicode="fl" horiz-adv-x="522" 
d="M98 0v425h-72v75h72v88q0 61 32 89t102 28q28 0 55 -5l-2 -80q-27 5 -48 5q-27 0 -38.5 -7.5t-11.5 -31.5v-86h102v-75h-102v-425h-89zM366 0v700h90v-700h-90z" />
    <glyph glyph-name="f_f" unicode="ff" horiz-adv-x="566" 
d="M453 500h102v-75h-102v-425h-89v425h-177v-425h-89v425h-72v75h72v88q0 61 32 89t102 28q28 0 55 -5l-2 -80q-27 5 -48 5q-27 0 -38.5 -7.5t-11.5 -31.5v-86h177v88q0 61 32 89t102 28q28 0 55 -5l-2 -80q-27 5 -48 5q-27 0 -38.5 -7.5t-11.5 -31.5v-86z" />
    <glyph glyph-name="f_f_i" unicode="ffi" horiz-adv-x="786" 
d="M453 586v-86h102v-75h-102v-425h-89v425h-177v-425h-89v425h-72v75h72v88q0 61 32 89t102 28q28 0 55 -5l-2 -80q-27 5 -48 5q-27 0 -38.5 -7.5t-11.5 -31.5v-86h177v88q0 61 32 89t102 28q28 0 55 -5l-2 -80q-27 5 -48 5q-27 0 -38.5 -7.5t-11.5 -31.5zM630 700h90v-106
h-90v106zM630 0v500h90v-500h-90z" />
    <glyph glyph-name="f_f_l" unicode="ffl" horiz-adv-x="786" 
d="M453 586v-86h102v-75h-102v-425h-89v425h-177v-425h-89v425h-72v75h72v88q0 61 32 89t102 28q28 0 55 -5l-2 -80q-27 5 -48 5q-27 0 -38.5 -7.5t-11.5 -31.5v-86h177v88q0 61 32 89t102 28q28 0 55 -5l-2 -80q-27 5 -48 5q-27 0 -38.5 -7.5t-11.5 -31.5zM630 700h90v-700
h-90v700z" />
    <glyph glyph-name=".notdef" horiz-adv-x="660" 
d="M80 0v700h500v-700h-500zM155 75h350v550h-350v-550z" />
    <glyph glyph-name=".null" horiz-adv-x="0" 
 />
    <glyph glyph-name="nonmarkingreturn" horiz-adv-x="333" 
 />
    <glyph glyph-name="CR" unicode="&#xd;" horiz-adv-x="225" 
 />
    <glyph glyph-name="space" unicode=" " horiz-adv-x="224" 
 />
    <glyph glyph-name="exclam" unicode="!" horiz-adv-x="240" 
d="M87 167l-12 287v246h89v-246l-12 -287h-65zM70 0v106h101v-106h-101z" />
    <glyph glyph-name="quotedbl" unicode="&#x22;" horiz-adv-x="328" 
d="M63 462q0 3 -5 100t-6 138h87q-1 -74 -12 -238h-64zM201 462q0 3 -5 100t-6 138h87q-1 -74 -12 -238h-64z" />
    <glyph glyph-name="numbersign" unicode="#" horiz-adv-x="579" 
d="M538 424h-90l-22 -147h91l-10 -73h-91l-30 -204h-79l30 204h-133l-30 -204h-79l30 204h-94l10 73h94l22 147h-95l11 73h95l27 188h79l-27 -188h133l27 188h79l-27 -188h89zM213 277h134l21 147h-133z" />
    <glyph glyph-name="dollar" unicode="$" horiz-adv-x="636" 
d="M603 204q0 -56 -20.5 -97.5t-56.5 -65.5t-77.5 -36.5t-91.5 -15.5v-57h-75v58q-109 10 -179.5 71t-70.5 167l96 10q0 -72 42 -117t112 -55v251h-2q-50 12 -83.5 24t-70.5 34t-56 57t-19 83q0 94 68.5 143t162.5 54v56h75v-59q203 -26 221 -220l-94 -17q-1 63 -34 104
t-93 55v-233q60 -10 96.5 -20t75 -30.5t56.5 -56t18 -87.5zM144 519q0 -75 138 -107v224q-55 -3 -96.5 -33.5t-41.5 -83.5zM357 66q152 13 152 131q0 21 -9 37.5t-21 27t-34.5 18.5t-40 12t-47.5 10v-236z" />
    <glyph glyph-name="percent" unicode="%" horiz-adv-x="822" 
d="M186 303q-73 0 -111.5 51.5t-38.5 144.5q0 90 40 144t110 54q69 0 109.5 -54.5t40.5 -143.5q0 -88 -40 -142t-110 -54zM175 0l384 685h83l-383 -685h-84zM186 367q39 0 55.5 30.5t16.5 101.5q0 72 -16 102.5t-56 30.5t-57 -31t-17 -102q0 -70 17 -101t57 -31zM636 -12
q-73 0 -111.5 51.5t-38.5 144.5q0 90 40 144t110 54q69 0 109.5 -54.5t40.5 -143.5q0 -88 -40 -142t-110 -54zM636 52q39 0 55.5 30.5t16.5 101.5q0 72 -16 102.5t-56 30.5t-57 -31t-17 -102q0 -70 17 -101t57 -31z" />
    <glyph glyph-name="ampersand" unicode="&#x26;" horiz-adv-x="630" 
d="M647 0h-114l-73 88q-79 -100 -202 -100q-60 0 -106 20.5t-70.5 52.5t-36.5 64t-12 62q0 74 43 123.5t120 89.5q-41 52 -58.5 87t-17.5 77q0 60 46.5 104t122.5 44q73 0 119.5 -40t46.5 -109q0 -107 -132 -184l122 -145q19 53 22 109l87 -12q-7 -88 -47 -169zM289 640
q-39 0 -60 -21.5t-21 -58.5q0 -44 65 -121q96 63 96 121q0 32 -19.5 56t-60.5 24zM261 66q88 0 147 83l-161 193q-40 -22 -61 -37.5t-39.5 -44.5t-18.5 -66q0 -58 39.5 -93t93.5 -35z" />
    <glyph glyph-name="quotesingle" unicode="'" horiz-adv-x="190" 
d="M63 462q0 3 -5 100t-6 138h87q-1 -74 -12 -238h-64z" />
    <glyph glyph-name="parenleft" unicode="(" horiz-adv-x="274" 
d="M182 -160q-143 237 -143 456q0 116 37.5 233t105.5 213h73l1 -3q-122 -206 -122 -443q0 -243 121 -453l-1 -3h-72z" />
    <glyph glyph-name="parenright" unicode=")" horiz-adv-x="274" 
d="M92 -160h-72l-1 3q121 210 121 453q0 237 -122 443l1 3h73q68 -96 105.5 -213t37.5 -233q0 -219 -143 -456z" />
    <glyph glyph-name="asterisk" unicode="*" horiz-adv-x="356" 
d="M320 571l-96 -30l64 -91l-46 -32l-64 96l-64 -95l-46 32l63 90l-95 30l17 53l97 -34v110h55v-110l98 34z" />
    <glyph glyph-name="plus" unicode="+" horiz-adv-x="506" 
d="M218 97v190h-189v67h189v191h71v-191h188v-67h-188v-190h-71z" />
    <glyph glyph-name="comma" unicode="," horiz-adv-x="221" 
d="M61 -131v50q45 16 46 81h-47v108h101v-110q0 -53 -26 -86.5t-74 -42.5z" />
    <glyph glyph-name="hyphen" unicode="-" horiz-adv-x="396" 
d="M58 243v80h280v-80h-280z" />
    <glyph glyph-name="period" unicode="." horiz-adv-x="213" 
d="M56 0v106h101v-106h-101z" />
    <glyph glyph-name="slash" unicode="/" horiz-adv-x="420" 
d="M18 -35l294 770h90l-294 -770h-90z" />
    <glyph glyph-name="zero" unicode="0" horiz-adv-x="587" 
d="M293 -12q-121 0 -184 90t-63 265q0 162 63 258t184 96t184.5 -96.5t63.5 -257.5q0 -163 -63 -259t-185 -96zM293 63q86 0 119 68.5t33 211.5t-32 210t-120 67q-87 0 -119 -67t-32 -210q0 -146 32.5 -213t118.5 -67z" />
    <glyph glyph-name="one" unicode="1" horiz-adv-x="362" 
d="M209 685h70v-685h-89v526q-38 -46 -145 -46q-5 0 -13 0.5t-13 0.5l-1 2v74l1 2q168 0 190 126z" />
    <glyph glyph-name="two" unicode="2" horiz-adv-x="530" 
d="M128 79h356v-79h-457q4 60 21.5 108.5t47 84t58 60t69.5 49.5q7 5 34 21.5t40 25t35 27t33 33.5t20 37.5t9 46.5q0 63 -30.5 96t-88.5 33q-42 0 -70.5 -15.5t-40.5 -41.5t-16.5 -47.5t-4.5 -46.5l-89 14q0 36 10.5 70t34.5 67.5t70.5 54t109.5 20.5q93 0 148.5 -55.5
t55.5 -149.5q0 -42 -14 -77.5t-42.5 -64t-52.5 -46.5t-62 -42q-41 -25 -62 -39t-51.5 -39t-47.5 -50.5t-23 -54.5z" />
    <glyph glyph-name="three" unicode="3" horiz-adv-x="542" 
d="M388 369q54 -16 82.5 -64t28.5 -107q0 -101 -66 -155.5t-167 -54.5q-108 0 -168.5 62t-58.5 160l87 13q-1 -70 35 -115t105 -45t106.5 35t37.5 99q0 63 -37.5 92t-100.5 29h-56v80h44q52 0 87.5 29t35.5 79q0 54 -31 85.5t-87 31.5q-40 0 -68 -17t-39.5 -43t-16 -47.5
t-3.5 -40.5l-90 14q2 92 62.5 150t154.5 58q89 0 147.5 -48.5t58.5 -143.5q0 -42 -22 -78.5t-61 -57.5z" />
    <glyph glyph-name="four" unicode="4" horiz-adv-x="523" 
d="M491 233v-77h-88v-156h-89v156h-295v88l310 441h74v-452h88zM198 233h116v176q0 90 2 140q-36 -64 -79 -122l-62 -90q-33 -48 -74 -106q68 2 97 2z" />
    <glyph glyph-name="five" unicode="5" horiz-adv-x="534" 
d="M273 451q97 0 160.5 -57.5t63.5 -172.5q0 -101 -63.5 -167t-178.5 -66q-97 0 -157 61t-60 159l87 13q0 -75 38 -116.5t96 -41.5q153 0 153 165q0 70 -39.5 107t-112.5 37q-85 0 -132 -63l-76 6l53 370h356v-79h-283l-30 -202q44 47 125 47z" />
    <glyph glyph-name="six" unicode="6" horiz-adv-x="556" 
d="M302 447q96 0 153.5 -63.5t57.5 -162.5q0 -41 -12.5 -80t-37.5 -74.5t-72 -57t-108 -21.5q-236 0 -236 334q0 87 12.5 153t40.5 117.5t78 78t121 26.5q90 0 138 -50t59 -128l-83 -14q-11 117 -117 117q-166 0 -166 -271q54 96 172 96zM282 63q74 0 110 38.5t36 120.5
q0 148 -141 148q-67 0 -106 -41t-39 -112q0 -68 35.5 -111t104.5 -43z" />
    <glyph glyph-name="seven" unicode="7" horiz-adv-x="465" 
d="M20 685h429v-83q-110 -105 -181.5 -269t-79.5 -333h-93q11 166 79 325t182 281h-336v79z" />
    <glyph glyph-name="eight" unicode="8" horiz-adv-x="557" 
d="M400 373q114 -36 114 -169q0 -103 -65 -159.5t-170 -56.5q-109 0 -172.5 58t-63.5 158q0 133 113 169q-84 44 -84 143q0 78 51 129.5t157 51.5q104 0 154.5 -51.5t50.5 -129.5q0 -100 -85 -143zM279 622q-58 0 -89.5 -29.5t-31.5 -82.5q0 -52 32 -81t89 -29q56 0 88 29
t32 81q0 54 -31.5 83t-88.5 29zM279 63q67 0 107 38t40 100q0 59 -40 93.5t-107 34.5q-66 0 -107 -34t-41 -94q0 -62 40.5 -100t107.5 -38z" />
    <glyph glyph-name="nine" unicode="9" horiz-adv-x="556" 
d="M273 697q236 0 236 -336q0 -178 -57.5 -275.5t-194.5 -97.5q-90 0 -138.5 52.5t-56.5 135.5l81 14q3 -55 32 -91t85 -36q159 0 165 265q-65 -96 -171 -96q-97 0 -154 64.5t-57 165.5q0 42 12.5 81t37.5 75t72 57.5t108 21.5zM269 310q67 0 106 42.5t39 114.5
q0 68 -35.5 111.5t-104.5 43.5q-146 0 -146 -162q0 -150 141 -150z" />
    <glyph glyph-name="colon" unicode=":" horiz-adv-x="217" 
d="M58 359v106h101v-106h-101zM58 0v106h101v-106h-101z" />
    <glyph glyph-name="semicolon" unicode=";" horiz-adv-x="217" 
d="M58 359v106h101v-106h-101zM59 -131v50q45 16 46 81h-47v108h101v-110q0 -53 -26 -86.5t-74 -42.5z" />
    <glyph glyph-name="less" unicode="&#x3c;" horiz-adv-x="485" 
d="M429 88l-399 169v78l399 169v-79l-213 -87q-32 -13 -121 -42q81 -26 120 -42l214 -87v-79z" />
    <glyph glyph-name="equal" unicode="=" horiz-adv-x="569" 
d="M61 369v67h447v-67h-447zM61 209v67h447v-67h-447z" />
    <glyph glyph-name="greater" unicode="&#x3e;" horiz-adv-x="485" 
d="M56 88v79l214 87q39 16 120 42q-89 29 -121 42l-213 87v79l399 -169v-78z" />
    <glyph glyph-name="question" unicode="?" horiz-adv-x="496" 
d="M206 167v58q0 44 19.5 80.5t66.5 80.5q27 25 38.5 37t24.5 37t13 52q0 125 -119 125q-133 0 -133 -148l-89 15q0 35 11 68.5t35 66.5t70.5 53t109.5 20q93 0 148.5 -54.5t55.5 -146.5q0 -56 -21 -90t-66 -75q-27 -24 -40 -38.5t-26 -42.5t-13 -62v-36h-85zM200 0v106h101
v-106h-101z" />
    <glyph glyph-name="at" unicode="@" horiz-adv-x="779" 
d="M411 -43q73 0 139.5 28.5t102.5 83.5l68 -18q-47 -78 -132.5 -120.5t-182.5 -42.5q-156 0 -261.5 102t-105.5 261q0 156 104.5 259t261.5 103q142 0 237.5 -84.5t95.5 -213.5q0 -65 -24 -119t-60 -84.5t-74 -47t-70 -16.5q-27 0 -46 14t-21 45q-45 -58 -110 -58
q-61 0 -95.5 38t-34.5 106q0 107 54.5 182t153.5 75q87 0 103 -75l18 53h64l-75 -247q-11 -33 -11 -47q0 -19 21 -19q46 0 88 60.5t42 134.5q0 109 -75 173.5t-181 64.5q-126 0 -206 -86.5t-80 -214.5t84 -209t208 -81zM343 120q62 0 100.5 57.5t38.5 122.5q0 81 -76 81
q-63 0 -96 -55t-33 -124q0 -82 66 -82z" />
    <glyph glyph-name="A" unicode="A" horiz-adv-x="648" 
d="M550 0l-78 209h-297l-77 -209h-96l274 700h96l273 -700h-95zM205 289h237l-79 211q-20 52 -40 113h-1q-17 -53 -39 -113z" />
    <glyph glyph-name="B" unicode="B" horiz-adv-x="659" 
d="M501 358q60 -22 87.5 -61t27.5 -104q0 -52 -17.5 -89.5t-42.5 -57t-66.5 -30.5t-74.5 -13.5t-81 -2.5h-251v700h244q43 0 74.5 -2.5t69.5 -14t61.5 -31t40 -56.5t16.5 -88q0 -102 -88 -150zM173 622v-226h146q34 0 53 1t47.5 6.5t43.5 17t26.5 33.5t11.5 54
q0 33 -11.5 55.5t-26.5 33.5t-43.5 17t-47 7t-52.5 1h-147zM334 77q33 0 49.5 0.5t44 3.5t41.5 10.5t30 20t22.5 33t6.5 48.5q0 36 -13.5 61t-30 37t-47 18.5t-48.5 7.5t-50 1h-166v-241h161z" />
    <glyph glyph-name="C" unicode="C" horiz-adv-x="703" 
d="M374 -12q-159 0 -245.5 94t-86.5 268q0 163 87 262.5t245 99.5q111 0 193 -56.5t110 -162.5l-99 -19q-17 68 -69.5 114t-132.5 46q-125 0 -182 -79q-50 -71 -50 -205t50 -206q55 -78 180 -78q80 0 131.5 41t74.5 107l103 -27q-42 -97 -121 -148t-188 -51z" />
    <glyph glyph-name="D" unicode="D" horiz-adv-x="695" 
d="M83 0v700h238q157 0 244.5 -95t87.5 -255q0 -164 -88 -257t-244 -93h-238zM173 78h138q140 0 190 74q50 71 50 198q0 126 -50 197q-52 75 -190 75h-138v-544z" />
    <glyph glyph-name="E" unicode="E" horiz-adv-x="582" 
d="M83 0v700h452v-81h-362v-225h325v-81h-325v-232h362v-81h-452z" />
    <glyph glyph-name="F" unicode="F" horiz-adv-x="561" 
d="M83 0v700h452v-81h-362v-225h325v-81h-325v-313h-90z" />
    <glyph glyph-name="G" unicode="G" horiz-adv-x="733" 
d="M382 371h298v-371h-74l-8 96q-73 -108 -224 -108q-159 0 -245.5 94t-86.5 268q0 163 87 262.5t245 99.5q110 0 190 -56t109 -163l-98 -19q-19 69 -69.5 114.5t-129.5 45.5q-125 0 -182 -79q-51 -72 -51 -205q0 -134 51 -208q53 -76 190 -76q100 0 152.5 55.5t53.5 164.5
h-208v85z" />
    <glyph glyph-name="H" unicode="H" horiz-adv-x="699" 
d="M83 0v700h91v-306h351v306h91v-700h-91v313h-351v-313h-91z" />
    <glyph glyph-name="I" unicode="I" horiz-adv-x="257" 
d="M83 0v700h91v-700h-91z" />
    <glyph glyph-name="J" unicode="J" horiz-adv-x="503" 
d="M229 -12q-97 0 -150.5 55t-53.5 153v59h91v-45q0 -33 4 -56t15.5 -44.5t35.5 -32.5t60 -11q61 0 82.5 34.5t21.5 96.5v503h91v-517q0 -36 -9.5 -68t-30 -62t-61 -47.5t-96.5 -17.5z" />
    <glyph glyph-name="K" unicode="K" horiz-adv-x="627" 
d="M522 0l-248 344l-100 -101v-243h-91v700h91v-337l333 337h121l-289 -290l296 -410h-113z" />
    <glyph glyph-name="L" unicode="L" horiz-adv-x="545" 
d="M173 79h362v-79h-452v700h90v-621z" />
    <glyph glyph-name="M" unicode="M" horiz-adv-x="868" 
d="M83 0v700h131l148 -396q44 -119 72 -203h1q30 93 71 203l148 396h131v-700h-89v423q0 65 5 160h-1q-41 -117 -57 -160l-163 -423h-92l-163 423q-13 34 -57 160h-1q5 -95 5 -160v-423h-89z" />
    <glyph glyph-name="N" unicode="N" horiz-adv-x="699" 
d="M83 0v700h97l263 -423q31 -49 88 -158h1q-5 97 -5 178v403h89v-700h-102l-260 423q-32 52 -86 158h-1q5 -112 5 -178v-403h-89z" />
    <glyph glyph-name="O" unicode="O" horiz-adv-x="746" 
d="M374 -12q-159 0 -245.5 94t-86.5 268q0 163 87 262.5t245 99.5q156 0 243.5 -100t87.5 -262q0 -164 -87.5 -263t-243.5 -99zM374 66q121 0 175 78q54 77 54 206q0 128 -54 205q-55 79 -171 79q-123 0 -181 -75q-53 -70 -53 -209q0 -141 50 -206q61 -78 180 -78z" />
    <glyph glyph-name="P" unicode="P" horiz-adv-x="621" 
d="M83 0v700h236q43 0 77 -3.5t73.5 -16.5t65 -35t43 -62t17.5 -95q0 -53 -17.5 -91.5t-43 -60t-65 -33.5t-73.5 -15.5t-78 -3.5h-145v-284h-90zM173 361h145q32 0 53.5 1.5t49.5 8.5t45 20t29 37.5t12 59.5q0 38 -12.5 64.5t-28.5 40t-45 20.5t-48.5 8t-53.5 1h-146v-261z
" />
    <glyph glyph-name="Q" unicode="Q" horiz-adv-x="748" 
d="M705 350q0 -182 -103 -279l88 -70l-51 -62l-104 84q-66 -35 -161 -35q-159 0 -245.5 94t-86.5 268q0 163 87 262.5t245 99.5q156 0 243.5 -100t87.5 -262zM194 143q61 -78 180 -78q59 0 93 13l-86 69l52 63l103 -83q33 32 50 94t17 129q0 127 -54 204q-55 79 -171 79
q-123 0 -181 -75q-53 -70 -53 -208q0 -142 50 -207z" />
    <glyph glyph-name="R" unicode="R" horiz-adv-x="662" 
d="M579 175q0 -66 8 -103.5t32 -68.5l-1 -3h-99q-18 27 -24 60t-6 105q0 70 -34.5 97.5t-125.5 27.5h-156v-290h-90v700h237q44 0 77 -3t73 -15t65.5 -33t43 -60.5t17.5 -94.5q0 -63 -30.5 -109t-77.5 -62q91 -34 91 -148zM319 367q40 0 67 3.5t58 14.5t47 37.5t16 67.5
q0 38 -12.5 64.5t-28 39.5t-45 19.5t-48 7.5t-53.5 1h-147v-255h146z" />
    <glyph glyph-name="S" unicode="S" horiz-adv-x="639" 
d="M323 -12q-124 0 -206.5 62t-82.5 178l96 10q0 -82 53 -128t137 -46q191 0 191 133q0 28 -12.5 47t-39.5 30.5t-50 17t-64.5 13t-62.5 12.5q-50 12 -83.5 24t-70.5 34t-56 57t-19 83q0 51 22.5 90.5t59.5 62t79 33.5t87 11q118 0 193 -53t86 -170l-94 -17
q-1 78 -50.5 121.5t-136.5 43.5q-58 0 -105.5 -30.5t-47.5 -87.5q0 -28 17 -49.5t49 -34.5t62.5 -20.5t72.5 -14.5q51 -8 81.5 -14.5t68.5 -21t58.5 -33.5t35 -51.5t14.5 -75.5q0 -61 -24.5 -105t-66.5 -67t-89 -33.5t-102 -10.5z" />
    <glyph glyph-name="T" unicode="T" horiz-adv-x="573" 
d="M241 0v621h-233v79h557v-79h-233v-621h-91z" />
    <glyph glyph-name="U" unicode="U" horiz-adv-x="699" 
d="M349 -12q-133 0 -203 62.5t-70 180.5v469h91v-469q0 -79 52 -121t130 -42t130.5 42t52.5 121v469h91v-469q0 -118 -70.5 -180.5t-203.5 -62.5z" />
    <glyph glyph-name="V" unicode="V" horiz-adv-x="614" 
d="M260 0l-254 700h98l136 -401q37 -108 67 -198h1l7.5 22.5t13.5 41.5t19.5 59.5t25.5 74.5l136 401h98l-254 -700h-94z" />
    <glyph glyph-name="W" unicode="W" horiz-adv-x="901" 
d="M195 0l-182 700h96l97 -421q12 -52 19 -83.5t11.5 -53t7.5 -35.5h1q23 89 45 172l115 421h92l117 -421q21 -76 45 -172h1q17 83 37 172l95 421h96l-182 -700h-95l-118 412q-19 66 -43 162h-1q-22 -91 -42 -163l-116 -411h-96z" />
    <glyph glyph-name="X" unicode="X" horiz-adv-x="597" 
d="M351 360l248 -360h-110l-114 173q-32 48 -77 122q-39 -64 -77 -122l-114 -173h-109l248 360l-232 340h105l108 -160q36 -53 71 -116q35 63 71 116l108 160h106z" />
    <glyph glyph-name="Y" unicode="Y" horiz-adv-x="605" 
d="M257 0v299l-251 401h105l118 -200q32 -54 73 -129q44 79 73 129l118 200h106l-251 -401v-299h-91z" />
    <glyph glyph-name="Z" unicode="Z" horiz-adv-x="589" 
d="M20 0v67l330 434q33 44 96 118v1q-15 0 -41.5 -1t-49 -1.5t-43.5 -0.5h-262v83h505v-67l-335 -444q-39 -52 -86 -108v-1q74 3 151 3h277v-83h-542z" />
    <glyph glyph-name="bracketleft" unicode="[" horiz-adv-x="309" 
d="M78 -160v900h213v-70h-126v-760h126v-70h-213z" />
    <glyph glyph-name="backslash" unicode="\" horiz-adv-x="420" 
d="M402 -35h-90l-294 770h90z" />
    <glyph glyph-name="bracketright" unicode="]" horiz-adv-x="309" 
d="M231 -160h-213v70h126v760h-126v70h213v-900z" />
    <glyph glyph-name="asciicircum" unicode="^" horiz-adv-x="485" 
d="M32 418l164 282h93l164 -282h-93l-75 132q-13 23 -42 79q-23 -45 -43 -80l-75 -131h-93z" />
    <glyph glyph-name="underscore" unicode="_" horiz-adv-x="451" 
d="M0 -136v70h451v-70h-451z" />
    <glyph glyph-name="grave" unicode="`" horiz-adv-x="266" 
d="M216 573h-74l-92 127h101z" />
    <glyph glyph-name="a" unicode="a" horiz-adv-x="540" 
d="M520 74l2 -74q-25 -4 -56 -4q-82 0 -90 78q-42 -86 -168 -86q-69 0 -118.5 37.5t-49.5 106.5q0 39 14.5 67t41.5 45t53 25.5t61 15.5l165 32q0 67 -17 91q-23 33 -91 33q-65 0 -93.5 -25.5t-28.5 -82.5l-88 12q3 91 62 130q55 37 153 37q190 0 190 -165v-239q0 -16 1 -22
t7.5 -11t20.5 -5q12 0 29 4zM375 189v61l-151 -33q-47 -11 -69.5 -28t-22.5 -56q0 -34 26 -53.5t64 -19.5q78 0 115.5 35.5t37.5 93.5z" />
    <glyph glyph-name="b" unicode="b" horiz-adv-x="581" 
d="M317 513q101 0 164 -72.5t63 -190.5q0 -120 -64 -191t-166 -71q-103 0 -158 85v-73h-90v700h90v-265q56 78 161 78zM298 57q83 0 115 49t32 144t-34 143.5t-115 48.5q-143 0 -143 -193q0 -192 145 -192z" />
    <glyph glyph-name="c" unicode="c" horiz-adv-x="531" 
d="M284 -12q-115 0 -181.5 69.5t-66.5 192.5q0 117 67.5 189.5t180.5 72.5q91 0 147 -47.5t72 -123.5l-84 -16q-14 52 -44 83.5t-91 31.5q-85 0 -117 -49t-32 -141q0 -93 32 -141.5t117 -48.5q58 0 90 24t46 78l85 -9q-13 -76 -73.5 -120.5t-147.5 -44.5z" />
    <glyph glyph-name="d" unicode="d" horiz-adv-x="581" 
d="M425 700h90v-700h-90v73q-55 -85 -158 -85q-102 0 -166 71t-64 191q0 118 62.5 190t164.5 72q106 0 161 -77v265zM283 59q145 0 145 190q0 39 -5.5 69.5t-20 60t-44 45.5t-73.5 16q-81 0 -115 -47.5t-34 -142.5t32 -143t115 -48z" />
    <glyph glyph-name="e" unicode="e" horiz-adv-x="550" 
d="M472 413q48 -77 42 -190h-379q3 -163 142 -163q125 0 143 112l87 -7q-16 -87 -74.5 -132t-154.5 -45q-117 0 -180 73q-61 68 -61 190q0 115 63 186q66 75 177 75q61 0 113 -25.5t82 -73.5zM278 439q-85 0 -118 -54q-24 -40 -24 -89h286q-2 51 -27 89q-37 54 -117 54z" />
    <glyph glyph-name="f" unicode="f" horiz-adv-x="300" 
d="M98 0v425h-72v75h72v88q0 61 32 89t102 28q28 0 55 -5l-2 -80q-27 5 -48 5q-27 0 -38.5 -7.5t-11.5 -31.5v-86h102v-75h-102v-425h-89z" />
    <glyph glyph-name="g" unicode="g" horiz-adv-x="580" 
d="M424 500h90v-489q0 -100 -64.5 -158t-175.5 -58q-54 0 -99 15t-78.5 54.5t-35.5 99.5l86 6q3 -59 37.5 -82t99.5 -23q63 0 101.5 37t38.5 103v85q-55 -86 -158 -86t-166 71t-63 188q0 111 62.5 180t163.5 69q107 0 161 -82v70zM280 76q79 0 113.5 53.5t34.5 133.5
q0 177 -146 177q-80 0 -113.5 -45.5t-33.5 -131.5q0 -94 31.5 -140.5t113.5 -46.5z" />
    <glyph glyph-name="h" unicode="h" horiz-adv-x="559" 
d="M459 456q18 -19 27 -49t10.5 -51.5t1.5 -56.5v-299h-93v294q0 31 -1 45t-7.5 34.5t-21.5 34.5q-29 29 -89 29q-130 0 -130 -156v-281h-90v700h90v-275q41 87 154 87q96 0 149 -56z" />
    <glyph glyph-name="i" unicode="i" horiz-adv-x="222" 
d="M66 594v106h90v-106h-90zM66 0v500h90v-500h-90z" />
    <glyph glyph-name="j" unicode="j" horiz-adv-x="228" 
d="M72 594v106h90v-106h-90zM39 -205q-25 0 -49 5l2 84q21 -6 42 -6q23 0 30.5 16.5t7.5 55.5v550h90v-561q0 -70 -32 -107t-91 -37z" />
    <glyph glyph-name="k" unicode="k" horiz-adv-x="497" 
d="M391 0l-165 257l-70 -66v-191h-90v700h90v-407l209 207h122l-197 -184l206 -316h-105z" />
    <glyph glyph-name="l" unicode="l" horiz-adv-x="222" 
d="M66 0v700h90v-700h-90z" />
    <glyph glyph-name="m" unicode="m" horiz-adv-x="868" 
d="M634 512q84 0 128.5 -47.5t44.5 -140.5v-324h-92v294q0 31 -1 46.5t-8 36t-21 33.5q-29 28 -84 28q-44 0 -74 -27q-46 -42 -46 -135v-276h-92v294q0 31 -1 46.5t-8 36t-21 33.5q-29 28 -84 28q-44 0 -74 -27q-46 -42 -46 -135v-276h-89v500h89v-75q11 28 37 49
q46 38 117 38q59 0 100.5 -27.5t59.5 -78.5q14 39 48 68q46 38 117 38z" />
    <glyph glyph-name="n" unicode="n" horiz-adv-x="559" 
d="M459 456q39 -42 39 -159v-297h-93v292q0 32 -1 46t-8 35t-21 35q-29 29 -89 29q-21 0 -40 -5.5t-41 -20.5t-35.5 -50t-13.5 -85v-276h-90v500h90v-76q39 88 154 88q96 0 149 -56z" />
    <glyph glyph-name="o" unicode="o" horiz-adv-x="571" 
d="M286 -12q-117 0 -183.5 70t-66.5 192q0 116 68 189t182 73q113 0 181 -73.5t68 -188.5q0 -118 -68.5 -190t-180.5 -72zM286 59q81 0 116.5 49t35.5 142t-35.5 142t-116.5 49q-83 0 -118 -48.5t-35 -142.5t35 -142.5t118 -48.5z" />
    <glyph glyph-name="p" unicode="p" horiz-adv-x="581" 
d="M314 512q102 0 166 -71t64 -191q0 -118 -62.5 -190t-164.5 -72q-106 0 -161 77v-265h-90v700h90v-73q55 85 158 85zM296 60q81 0 115 47.5t34 142.5t-32 143t-115 48q-145 0 -145 -190q0 -39 5.5 -69.5t20 -60t44 -45.5t73.5 -16z" />
    <glyph glyph-name="q" unicode="q" horiz-adv-x="581" 
d="M425 500h90v-700h-90v265q-55 -77 -161 -77q-102 0 -164.5 72t-62.5 190q0 120 64.5 191.5t165.5 71.5q102 0 158 -86v73zM285 60q44 0 73.5 16t44 45.5t20 60t5.5 69.5q0 191 -145 191q-83 0 -115 -48.5t-32 -143.5t34 -142.5t115 -47.5z" />
    <glyph glyph-name="r" unicode="r" horiz-adv-x="353" 
d="M312 511q7 1 33 1l-2 -85q-6 1 -23 1q-81 0 -122.5 -39.5t-41.5 -151.5v-237h-90v500h90v-88q11 38 54 66.5t102 32.5z" />
    <glyph glyph-name="s" unicode="s" horiz-adv-x="487" 
d="M246 -12q-91 0 -152 44t-60 132l82 8q-1 -52 34 -82.5t94 -30.5q123 0 123 81q0 16 -9 28t-29 20.5t-35.5 13t-45 11t-42.5 9.5q-38 10 -60.5 18t-49 24t-39 41.5t-12.5 60.5q0 72 55 109t130 37q87 0 144 -39t65 -125l-84 -13q-1 52 -34 79t-92 27q-40 0 -70 -18.5
t-30 -50.5q0 -16 9 -28t29.5 -20.5t36 -12.5t45.5 -11q103 -22 137 -41q66 -36 66 -114q0 -58 -31.5 -94.5t-75 -49.5t-99.5 -13z" />
    <glyph glyph-name="t" unicode="t" horiz-adv-x="307" 
d="M228 -5q-70 0 -102 28t-32 89v313h-72v75h72v139h89v-139h102v-75h-102v-310q0 -24 11.5 -31.5t40.5 -7.5q18 0 46 5l2 -81q-33 -5 -55 -5z" />
    <glyph glyph-name="u" unicode="u" horiz-adv-x="559" 
d="M403 500h90v-500h-90v75q-41 -87 -154 -87q-95 0 -148 56q-18 19 -27.5 49t-11 51.5t-1.5 56.5v299h93v-294q0 -31 1 -45t7.5 -34.5t20.5 -34.5q30 -29 91 -29q129 0 129 156v281z" />
    <glyph glyph-name="v" unicode="v" horiz-adv-x="484" 
d="M194 0l-187 500h96l89 -259q20 -56 50 -158q32 102 51 158l90 259h94l-187 -500h-96z" />
    <glyph glyph-name="w" unicode="w" horiz-adv-x="730" 
d="M174 0l-167 500h97l78 -267q11 -38 40 -147q24 108 34 147l67 267h84l66 -267q12 -48 33 -147q26 99 40 147l80 267h97l-167 -500h-97l-67 258q-8 28 -28 131q-18 -93 -27 -131l-65 -258h-98z" />
    <glyph glyph-name="x" unicode="x" horiz-adv-x="477" 
d="M285 261l188 -261h-97l-83 118q-13 19 -54 85q-40 -63 -55 -85l-83 -118h-97l188 261l-173 239h97l81 -113q12 -17 42 -65q32 50 43 65l79 113h98z" />
    <glyph glyph-name="y" unicode="y" horiz-adv-x="483" 
d="M383 500h94l-204 -546q-32 -86 -64 -122.5t-82 -36.5q-40 0 -76 10l2 84q33 -11 62 -11q26 0 42.5 26.5t44.5 99.5l-195 496h96l95 -270q15 -44 44 -133q23 70 45 133z" />
    <glyph glyph-name="z" unicode="z" horiz-adv-x="463" 
d="M27 0v70l238 290q19 23 56 64v1q-58 -2 -84 -2h-194v77h381v-62l-232 -286q-17 -22 -63 -74v-1h311v-77h-413z" />
    <glyph glyph-name="braceleft" unicode="{" horiz-adv-x="320" 
d="M272 -160q-85 0 -126 38t-41 128v178q0 36 -19 54t-62 19v73q43 2 62 19.5t19 52.5v175q0 91 40.5 127t126.5 36h28v-75h-27q-43 0 -61.5 -19.5t-18.5 -72.5v-180q0 -82 -64 -100q34 -11 48.5 -33.5t14.5 -65.5v-184q0 -54 18.5 -74.5t62.5 -20.5h27v-75h-28z" />
    <glyph glyph-name="bar" unicode="|" horiz-adv-x="243" 
d="M78 -160v860h87v-860h-87z" />
    <glyph glyph-name="braceright" unicode="}" horiz-adv-x="320" 
d="M48 -160h-28v75h27q44 0 62.5 20.5t18.5 74.5v184q0 43 14.5 65.5t48.5 33.5q-64 18 -64 100v180q0 53 -18.5 72.5t-61.5 19.5h-27v75h28q86 0 126.5 -36t40.5 -127v-175q0 -35 19 -52.5t62 -19.5v-73q-43 -1 -62 -19t-19 -54v-178q0 -90 -41 -128t-126 -38z" />
    <glyph glyph-name="asciitilde" unicode="~" horiz-adv-x="470" 
d="M302 276q-34 0 -73 23t-58 23q-38 0 -46 -42h-61q0 46 30 78q33 35 84 35q30 0 69 -23.5t55 -23.5q14 0 23 7t11.5 12.5t8.5 21.5h65q-7 -58 -33 -82q-30 -29 -75 -29z" />
    <glyph glyph-name="uni00A0" unicode="&#xa0;" horiz-adv-x="225" 
 />
    <glyph glyph-name="exclamdown" unicode="&#xa1;" horiz-adv-x="228" 
d="M164 554v-106h-101v106h101zM147 387l12 -287v-246h-89v246l12 287h65z" />
    <glyph glyph-name="cent" unicode="&#xa2;" horiz-adv-x="541" 
d="M509 153q-12 -69 -64 -112.5t-128 -51.5v-83h-65v84q-100 11 -156 79t-56 181q0 107 57 177.5t155 82.5v85h65v-84q79 -8 127.5 -54.5t62.5 -115.5l-84 -16q-25 100 -106 113v-376q84 10 107 100zM139 250q0 -83 24.5 -130t88.5 -57v374q-64 -10 -88.5 -57.5
t-24.5 -129.5z" />
    <glyph glyph-name="sterling" unicode="&#xa3;" horiz-adv-x="589" 
d="M507 121l52 -70q-70 -63 -159 -63q-47 0 -108 26t-98 26q-38 0 -100 -44l-54 75q59 45 82.5 81t23.5 82q0 25 -11 69h-85v72h60q-33 78 -33 137q0 90 64 145t169 55q102 0 163.5 -56.5t66.5 -159.5l-91 -17q-1 77 -40 117t-101 40t-97.5 -34t-35.5 -92q0 -40 33 -135h143
v-72h-123q6 -27 6 -54q0 -87 -87 -160q44 24 88 24q38 0 89 -20t78 -20q51 0 105 48z" />
    <glyph glyph-name="currency" unicode="&#xa4;" horiz-adv-x="571" 
d="M521 155l-44 -44l-59 59q-54 -43 -132 -43q-82 0 -134 41l-58 -57l-44 44l60 60q-31 53 -31 126q0 72 35 128l-59 59l44 45l58 -58q54 41 129 41q74 0 128 -41l58 58l44 -45l-59 -59q36 -55 36 -128q0 -71 -34 -124zM286 191q125 0 125 150q0 151 -125 151t-125 -151
q0 -150 125 -150z" />
    <glyph glyph-name="yen" unicode="&#xa5;" horiz-adv-x="603" 
d="M578 700l-200 -347h122v-64h-153v-56h152v-64h-152v-169h-91v169h-153v64h153v56h-152v64h121l-200 347h105l106 -200q43 -81 65 -129q33 69 65 130l106 199h106z" />
    <glyph glyph-name="brokenbar" unicode="&#xa6;" horiz-adv-x="243" 
d="M78 380v320h87v-320h-87zM78 -160v320h87v-320h-87z" />
    <glyph glyph-name="section" unicode="&#xa7;" horiz-adv-x="581" 
d="M545 221q0 -48 -29 -86t-80 -57q61 -53 61 -122q0 -72 -54.5 -114t-144.5 -42q-97 0 -154 47t-63 131l96 10q1 -52 34.5 -84t86.5 -32q105 0 105 80q0 12 -2.5 22.5t-9 20t-12.5 17.5t-18 17t-21 15t-26.5 15.5t-28.5 15l-33 16.5l-34 17q-94 46 -139.5 89.5t-45.5 116.5
q0 50 32.5 85.5t81.5 48.5q-50 46 -50 108q0 71 58.5 113.5t139.5 42.5q88 0 142 -46t60 -126l-92 -17q-1 49 -30 83t-81 34q-50 0 -77.5 -21t-27.5 -58q0 -21 11 -39.5t35 -36t47 -30t62 -32.5l24 -12q88 -45 132.5 -86.5t44.5 -103.5zM380 118q36 13 56 37t20 54
q0 20 -8.5 36.5t-29.5 32t-32.5 23t-41.5 23.5q-90 48 -144 83q-36 -10 -58 -34.5t-22 -54.5q0 -21 10.5 -40t31 -35t37 -26t41.5 -23q117 -62 140 -76z" />
    <glyph glyph-name="dieresis" unicode="&#xa8;" horiz-adv-x="365" 
d="M50 585v97h82v-97h-82zM233 585v97h82v-97h-82z" />
    <glyph glyph-name="copyright" unicode="&#xa9;" horiz-adv-x="789" 
d="M393 -11q-151 0 -252.5 103t-101.5 258q0 156 101.5 259t252.5 103t254 -103t103 -259q0 -154 -103 -257.5t-254 -103.5zM393 35q131 0 217.5 89.5t86.5 225.5q0 137 -86.5 227.5t-217.5 90.5q-130 0 -216.5 -91t-86.5 -227t86.5 -225.5t216.5 -89.5zM399 135
q-95 0 -150 57.5t-55 158.5q0 97 55.5 157t149.5 60q75 0 121 -39.5t60 -102.5l-74 -15q-10 44 -33 68t-74 24q-71 0 -97 -38.5t-26 -113.5q0 -76 26 -113.5t97 -37.5q48 0 73 18.5t35 62.5l75 -10q-11 -62 -61 -99t-122 -37z" />
    <glyph glyph-name="ordfeminine" unicode="&#xaa;" horiz-adv-x="420" 
d="M379 386l2 -51q-16 -4 -40 -4q-58 0 -66 48q-31 -54 -115 -54q-48 0 -83 26.5t-35 75.5q0 50 32.5 72.5t86.5 33.5l111 22q0 42 -11 57q-15 22 -58 22t-62.5 -17t-19.5 -53l-67 10q1 63 44 91q37 25 108 25q133 0 133 -114v-168q0 -14 3.5 -20t15.5 -6q10 0 21 4z
M272 466v39l-99 -23q-32 -7 -46.5 -18t-14.5 -37q0 -23 17 -35.5t43 -12.5q50 0 75 24t25 63z" />
    <glyph glyph-name="guillemotleft" unicode="&#xab;" horiz-adv-x="438" 
d="M43 231v88l154 123v-94l-91 -72l91 -72v-95zM375 442v-94l-91 -72l91 -72v-95l-154 122v88z" />
    <glyph glyph-name="logicalnot" unicode="&#xac;" horiz-adv-x="521" 
d="M384 170v167h-332v67h403v-234h-71z" />
    <glyph glyph-name="uni00AD" unicode="&#xad;" horiz-adv-x="396" 
d="M58 243v80h280v-80h-280z" />
    <glyph glyph-name="registered" unicode="&#xae;" horiz-adv-x="633" 
d="M315 712q117 0 196 -79.5t79 -199.5q0 -118 -79 -197.5t-196 -79.5q-115 0 -193.5 79.5t-78.5 197.5q0 120 78.5 199.5t193.5 79.5zM315 196q99 0 164.5 67.5t65.5 169.5q0 103 -65.5 171.5t-164.5 68.5q-98 0 -163 -68.5t-65 -171.5q0 -102 65 -169.5t163 -67.5z
M436 361q0 -56 20 -75v-8h-56q-9 13 -11.5 29t-4.5 57q-1 23 -15.5 31.5t-55.5 8.5h-53v-126h-53v317h130q43 0 74.5 -23t31.5 -72t-41 -74q34 -18 34 -65zM260 451h65q32 0 48.5 10t16.5 39q0 47 -65 47h-65v-96z" />
    <glyph glyph-name="macron" unicode="&#xaf;" horiz-adv-x="324" 
d="M50 639v61h224v-61h-224z" />
    <glyph glyph-name="degree" unicode="&#xb0;" horiz-adv-x="371" 
d="M185 401q-63 0 -106.5 42t-43.5 102t43.5 102.5t106.5 42.5t107 -42.5t44 -102.5t-43.5 -102t-107.5 -42zM185 454q39 0 62 25.5t23 65.5q0 39 -23 65t-62 26q-37 0 -61 -26t-24 -65t24 -65t61 -26z" />
    <glyph glyph-name="plusminus" unicode="&#xb1;" horiz-adv-x="548" 
d="M241 137v170h-191v67h191v171h67v-171h190v-67h-190v-170h-67zM50 0v67h448v-67h-448z" />
    <glyph glyph-name="uni00B2" unicode="&#xb2;" horiz-adv-x="388" 
d="M112 398h238v-68h-324q2 43 14 77.5t33.5 60.5t41 42t48.5 36q2 2 26.5 16.5t33 21t24.5 21t22.5 30t6.5 32.5q0 79 -75 79q-82 0 -82 -103l-75 13q0 26 7 50.5t23.5 49t50 39.5t79.5 15q66 0 105.5 -39.5t39.5 -104.5q0 -38 -20.5 -71t-42 -50t-56.5 -39
q-36 -22 -52 -33t-37.5 -32.5t-28.5 -42.5z" />
    <glyph glyph-name="uni00B3" unicode="&#xb3;" horiz-adv-x="386" 
d="M288 587q30 -13 47.5 -44t17.5 -70q0 -67 -44.5 -107.5t-118.5 -40.5t-116.5 43t-42.5 115l72 10q0 -48 22.5 -75.5t64.5 -27.5q43 0 66.5 21.5t23.5 60.5q0 72 -85 72h-42v67h33q35 0 55 17.5t20 45.5q0 35 -19 54t-53 19q-77 0 -77 -95l-76 11q0 62 43.5 104.5
t109.5 42.5q67 0 106.5 -36.5t39.5 -99.5q0 -55 -47 -87z" />
    <glyph glyph-name="acute" unicode="&#xb4;" horiz-adv-x="266" 
d="M50 573l65 127h101l-92 -127h-74z" />
    <glyph glyph-name="uni00B5" unicode="&#xb5;" horiz-adv-x="580" 
d="M415 500h89v-500h-89v75q-41 -87 -155 -87q-59 0 -96 31q2 -32 2 -48v-171h-90v700h90v-294q0 -31 1 -45t7.5 -34.5t20.5 -34.5q30 -29 90 -29q130 0 130 156v281z" />
    <glyph glyph-name="paragraph" unicode="&#xb6;" horiz-adv-x="554" 
d="M251 700h210v-860h-69v792h-89v-792h-70v484q-91 0 -148.5 47.5t-57.5 132.5q0 95 59 145.5t165 50.5z" />
    <glyph glyph-name="periodcentered" unicode="&#xb7;" horiz-adv-x="217" 
d="M58 272v106h101v-106h-101z" />
    <glyph glyph-name="cedilla" unicode="&#xb8;" horiz-adv-x="318" 
d="M149 -207q-52 0 -99 27l20 41q39 -16 73 -16q54 0 54 32q0 30 -51 30q-18 0 -43 -9l-20 25l73 83l54 -6l-52 -50q5 1 18 1q35 0 63.5 -18t28.5 -51q0 -46 -35.5 -67.5t-83.5 -21.5z" />
    <glyph glyph-name="uni00B9" unicode="&#xb9;" horiz-adv-x="264" 
d="M133 330v352q-17 -14 -49.5 -23t-65.5 -8v68q55 0 89 22.5t39 60.5h62v-472h-75z" />
    <glyph glyph-name="ordmasculine" unicode="&#xba;" horiz-adv-x="422" 
d="M211 325q-81 0 -127 49t-46 133q0 81 47 132t126 51t126.5 -51.5t47.5 -131.5q0 -81 -48 -131.5t-126 -50.5zM211 380q100 0 100 127q0 129 -100 129t-100 -129q0 -127 100 -127z" />
    <glyph glyph-name="guillemotright" unicode="&#xbb;" horiz-adv-x="438" 
d="M63 348v94l154 -123v-88l-154 -122v95l91 72zM241 442l154 -123v-88l-154 -122v95l91 72l-91 72v94z" />
    <glyph glyph-name="onequarter" unicode="&#xbc;" horiz-adv-x="792" 
d="M133 275v317q-37 -31 -104 -28v61q49 0 79.5 20t35.5 55h56v-425h-67zM75 0l510 700h83l-510 -700h-83zM643 0v96h-178v60l189 269h53v-271h54v-58h-54v-96h-64zM533 153q16 1 50 1h61v101q0 27 2 63q-19 -35 -41 -65l-34 -48q-21 -30 -38 -52z" />
    <glyph glyph-name="onehalf" unicode="&#xbd;" horiz-adv-x="842" 
d="M133 275v317q-37 -31 -104 -28v61q49 0 79.5 20t35.5 55h56v-425h-67zM585 700h83l-510 -700h-83zM590 61h214v-61h-291q3 73 35 115.5t88 78.5q4 3 24 15t29 19t23 19.5t20 26t6 29.5q0 71 -68 71q-74 0 -74 -92l-67 11q0 53 33 96t111 43q59 0 94.5 -35.5t35.5 -94.5
q0 -49 -28.5 -81t-78.5 -63q-33 -21 -47 -30t-33.5 -28.5t-25.5 -38.5z" />
    <glyph glyph-name="threequarters" unicode="&#xbe;" horiz-adv-x="894" 
d="M325 403q0 -61 -40.5 -97t-106.5 -36q-67 0 -105.5 38.5t-38.5 103.5l65 9q0 -44 20.5 -68.5t58.5 -24.5q39 0 60 19.5t21 54.5q0 65 -77 65h-38v61h30q31 0 49.5 15.5t18.5 41.5q0 31 -17 48t-48 17q-70 0 -70 -85l-68 10q0 56 39 94t99 38t95.5 -33t35.5 -89
q0 -50 -42 -79q27 -12 43 -40t16 -63zM688 700h83l-510 -700h-83zM810 154h54v-58h-54v-96h-64v96h-178v60l189 269h53v-271zM747 255q0 27 2 63q-19 -35 -41 -65l-34 -48q-21 -30 -38 -52q16 1 50 1h61v101z" />
    <glyph glyph-name="questiondown" unicode="&#xbf;" horiz-adv-x="488" 
d="M291 554v-106h-101v106h101zM285 387v-58q0 -44 -19.5 -80.5t-66.5 -80.5q-27 -25 -38.5 -37t-24.5 -37t-13 -52q0 -125 119 -125q133 0 133 148l89 -15q0 -35 -11 -68.5t-35 -66.5t-70.5 -53t-109.5 -20q-93 0 -148.5 54.5t-55.5 146.5q0 56 21 90t66 75q27 24 40 38.5
t26 42.5t13 62v36h85z" />
    <glyph glyph-name="Agrave" unicode="&#xc0;" horiz-adv-x="648" 
d="M361 756h-74l-89 108h100zM550 0l-78 209h-297l-77 -209h-96l274 700h96l273 -700h-95zM205 289h237l-79 211q-20 52 -40 113h-1q-17 -53 -39 -113z" />
    <glyph glyph-name="Aacute" unicode="&#xc1;" horiz-adv-x="648" 
d="M450 864l-89 -108h-74l63 108h100zM550 0l-78 209h-297l-77 -209h-96l274 700h96l273 -700h-95zM205 289h237l-79 211q-20 52 -40 113h-1q-17 -53 -39 -113z" />
    <glyph glyph-name="Acircumflex" unicode="&#xc2;" horiz-adv-x="648" 
d="M321 812l-58 -56h-75l93 101h83l93 -101h-80zM550 0l-78 209h-297l-77 -209h-96l274 700h96l273 -700h-95zM205 289h237l-79 211q-20 52 -40 113h-1q-17 -53 -39 -113z" />
    <glyph glyph-name="Atilde" unicode="&#xc3;" horiz-adv-x="648" 
d="M264 794q-36 0 -41 -38h-55q0 42 27 70q29 31 75 31q26 0 61 -21t50 -21q10 0 16 2t10.5 9.5t6 10.5t5.5 15h59q-7 -51 -30 -73q-27 -26 -67 -26q-31 0 -65.5 20.5t-51.5 20.5zM550 0l-78 209h-297l-77 -209h-96l274 700h96l273 -700h-95zM205 289h237l-79 211
q-20 52 -40 113h-1q-17 -53 -39 -113z" />
    <glyph glyph-name="Adieresis" unicode="&#xc4;" horiz-adv-x="648" 
d="M273 853v-97h-82v97h82zM456 853v-97h-82v97h82zM550 0l-78 209h-297l-77 -209h-96l274 700h96l273 -700h-95zM205 289h237l-79 211q-20 52 -40 113h-1q-17 -53 -39 -113z" />
    <glyph glyph-name="Aring" unicode="&#xc5;" horiz-adv-x="648" 
d="M323 739q-40 0 -68 27t-28 65t28 65t68 27t68 -27t28 -65t-28 -65t-68 -27zM323 884q-22 0 -36.5 -15.5t-14.5 -37.5q0 -23 14.5 -38.5t36.5 -15.5q23 0 36.5 15t13.5 39q0 22 -13.5 37.5t-36.5 15.5zM550 0l-78 209h-297l-77 -209h-96l274 700h96l273 -700h-95zM205 289
h237l-79 211q-20 52 -40 113h-1q-17 -53 -39 -113z" />
    <glyph glyph-name="AE" unicode="&#xc6;" horiz-adv-x="929" 
d="M882 619h-362v-225h325v-81h-325v-232h362v-81h-452v209h-240l-101 -209h-102l352 700h543v-81zM430 289v330h-40l-161 -330h201z" />
    <glyph glyph-name="Ccedilla" unicode="&#xc7;" horiz-adv-x="703" 
d="M683 187q-85 -193 -297 -199l-40 -38q5 1 18 1q35 0 63.5 -18t28.5 -51q0 -46 -35.5 -67.5t-83.5 -21.5q-52 0 -99 27l20 41q39 -16 73 -16q54 0 54 32q0 30 -51 30q-18 0 -43 -9l-20 25l59 67q-139 13 -213.5 105.5t-74.5 254.5q0 163 87 262.5t245 99.5
q111 0 193 -56.5t110 -162.5l-99 -19q-17 68 -69.5 114t-132.5 46q-125 0 -182 -79q-50 -71 -50 -205t50 -206q55 -78 180 -78q80 0 131.5 41t74.5 107z" />
    <glyph glyph-name="Egrave" unicode="&#xc8;" horiz-adv-x="582" 
d="M351 756h-74l-89 108h100zM83 0v700h452v-81h-362v-225h325v-81h-325v-232h362v-81h-452z" />
    <glyph glyph-name="Eacute" unicode="&#xc9;" horiz-adv-x="582" 
d="M272 756l63 108h100l-89 -108h-74zM83 0v700h452v-81h-362v-225h325v-81h-325v-232h362v-81h-452z" />
    <glyph glyph-name="Ecircumflex" unicode="&#xca;" horiz-adv-x="582" 
d="M178 756l93 101h83l93 -101h-80l-56 56l-58 -56h-75zM83 0v700h452v-81h-362v-225h325v-81h-325v-232h362v-81h-452z" />
    <glyph glyph-name="Edieresis" unicode="&#xcb;" horiz-adv-x="582" 
d="M181 756v97h82v-97h-82zM364 756v97h82v-97h-82zM83 0v700h452v-81h-362v-225h325v-81h-325v-232h362v-81h-452z" />
    <glyph glyph-name="Igrave" unicode="&#xcc;" horiz-adv-x="257" 
d="M167 756h-74l-89 108h100zM83 0v700h91v-700h-91z" />
    <glyph glyph-name="Iacute" unicode="&#xcd;" horiz-adv-x="257" 
d="M88 756l63 108h100l-89 -108h-74zM83 0v700h91v-700h-91z" />
    <glyph glyph-name="Icircumflex" unicode="&#xce;" horiz-adv-x="257" 
d="M-6 756l93 101h83l93 -101h-80l-56 56l-58 -56h-75zM83 0v700h91v-700h-91z" />
    <glyph glyph-name="Idieresis" unicode="&#xcf;" horiz-adv-x="257" 
d="M-3 756v97h82v-97h-82zM180 756v97h82v-97h-82zM83 0v700h91v-700h-91z" />
    <glyph glyph-name="Eth" unicode="&#xd0;" horiz-adv-x="703" 
d="M329 700q157 0 244.5 -95t87.5 -255q0 -164 -88 -257t-244 -93h-238v312h-73v77h73v311h238zM509 152q50 71 50 198q0 126 -50 197q-52 75 -190 75h-138v-233h173v-77h-173v-234h138q140 0 190 74z" />
    <glyph glyph-name="Ntilde" unicode="&#xd1;" horiz-adv-x="699" 
d="M410 753q-31 0 -65.5 20.5t-51.5 20.5q-36 0 -41 -38h-55q0 42 27 70q29 31 75 31q27 0 62 -21t49 -21q10 0 16 2t10.5 9.5t6 10.5t5.5 15h59q-7 -51 -30 -73q-27 -26 -67 -26zM83 0v700h97l263 -423q31 -49 88 -158h1q-5 97 -5 178v403h89v-700h-102l-260 423
q-32 52 -86 158h-1q5 -112 5 -178v-403h-89z" />
    <glyph glyph-name="Ograve" unicode="&#xd2;" horiz-adv-x="746" 
d="M414 756h-74l-89 108h100zM374 -12q-159 0 -245.5 94t-86.5 268q0 163 87 262.5t245 99.5q156 0 243.5 -100t87.5 -262q0 -164 -87.5 -263t-243.5 -99zM374 66q121 0 175 78q54 77 54 206q0 128 -54 205q-55 79 -171 79q-123 0 -181 -75q-53 -70 -53 -209q0 -141 50 -206
q61 -78 180 -78z" />
    <glyph glyph-name="Oacute" unicode="&#xd3;" horiz-adv-x="746" 
d="M335 756l63 108h100l-89 -108h-74zM374 -12q-159 0 -245.5 94t-86.5 268q0 163 87 262.5t245 99.5q156 0 243.5 -100t87.5 -262q0 -164 -87.5 -263t-243.5 -99zM374 66q121 0 175 78q54 77 54 206q0 128 -54 205q-55 79 -171 79q-123 0 -181 -75q-53 -70 -53 -209
q0 -141 50 -206q61 -78 180 -78z" />
    <glyph glyph-name="Ocircumflex" unicode="&#xd4;" horiz-adv-x="746" 
d="M241 756l93 101h83l93 -101h-80l-56 56l-58 -56h-75zM374 -12q-159 0 -245.5 94t-86.5 268q0 163 87 262.5t245 99.5q156 0 243.5 -100t87.5 -262q0 -164 -87.5 -263t-243.5 -99zM374 66q121 0 175 78q54 77 54 206q0 128 -54 205q-55 79 -171 79q-123 0 -181 -75
q-53 -70 -53 -209q0 -141 50 -206q61 -78 180 -78z" />
    <glyph glyph-name="Otilde" unicode="&#xd5;" horiz-adv-x="746" 
d="M434 753q-31 0 -65.5 20.5t-51.5 20.5q-36 0 -41 -38h-55q0 42 27 70q29 31 75 31q27 0 62 -21t49 -21q10 0 16 2t10.5 9.5t6 10.5t5.5 15h59q-7 -51 -30 -73q-27 -26 -67 -26zM374 -12q-159 0 -245.5 94t-86.5 268q0 163 87 262.5t245 99.5q156 0 243.5 -100t87.5 -262
q0 -164 -87.5 -263t-243.5 -99zM374 66q121 0 175 78q54 77 54 206q0 128 -54 205q-55 79 -171 79q-123 0 -181 -75q-53 -70 -53 -209q0 -141 50 -206q61 -78 180 -78z" />
    <glyph glyph-name="Odieresis" unicode="&#xd6;" horiz-adv-x="746" 
d="M244 756v97h82v-97h-82zM427 756v97h82v-97h-82zM374 -12q-159 0 -245.5 94t-86.5 268q0 163 87 262.5t245 99.5q156 0 243.5 -100t87.5 -262q0 -164 -87.5 -263t-243.5 -99zM374 66q121 0 175 78q54 77 54 206q0 128 -54 205q-55 79 -171 79q-123 0 -181 -75
q-53 -70 -53 -209q0 -141 50 -206q61 -78 180 -78z" />
    <glyph glyph-name="multiply" unicode="&#xd7;" horiz-adv-x="458" 
d="M411 455l-134 -134l134 -135l-48 -47l-134 134l-134 -134l-48 47l135 135l-135 134l47 48l135 -135l135 135z" />
    <glyph glyph-name="Oslash" unicode="&#xd8;" horiz-adv-x="760" 
d="M723 674l-80 -86q69 -95 69 -238q0 -164 -87.5 -263t-243.5 -99q-143 0 -227 75l-76 -81l-41 36l80 86q-68 91 -68 246q0 163 87 262.5t245 99.5q138 0 225 -81l76 81zM151 350q0 -108 32 -175l364 392q-55 67 -162 67q-123 0 -181 -75q-53 -70 -53 -209zM610 350
q0 101 -32 168l-363 -390q60 -62 166 -62q121 0 175 78q54 77 54 206z" />
    <glyph glyph-name="Ugrave" unicode="&#xd9;" horiz-adv-x="699" 
d="M388 756h-74l-89 108h100zM349 -12q-133 0 -203 62.5t-70 180.5v469h91v-469q0 -79 52 -121t130 -42t130.5 42t52.5 121v469h91v-469q0 -118 -70.5 -180.5t-203.5 -62.5z" />
    <glyph glyph-name="Uacute" unicode="&#xda;" horiz-adv-x="699" 
d="M309 756l63 108h100l-89 -108h-74zM349 -12q-133 0 -203 62.5t-70 180.5v469h91v-469q0 -79 52 -121t130 -42t130.5 42t52.5 121v469h91v-469q0 -118 -70.5 -180.5t-203.5 -62.5z" />
    <glyph glyph-name="Ucircumflex" unicode="&#xdb;" horiz-adv-x="699" 
d="M215 756l93 101h83l93 -101h-80l-56 56l-58 -56h-75zM349 -12q-133 0 -203 62.5t-70 180.5v469h91v-469q0 -79 52 -121t130 -42t130.5 42t52.5 121v469h91v-469q0 -118 -70.5 -180.5t-203.5 -62.5z" />
    <glyph glyph-name="Udieresis" unicode="&#xdc;" horiz-adv-x="699" 
d="M218 756v97h82v-97h-82zM401 756v97h82v-97h-82zM349 -12q-133 0 -203 62.5t-70 180.5v469h91v-469q0 -79 52 -121t130 -42t130.5 42t52.5 121v469h91v-469q0 -118 -70.5 -180.5t-203.5 -62.5z" />
    <glyph glyph-name="Yacute" unicode="&#xdd;" horiz-adv-x="605" 
d="M263 756l63 108h100l-89 -108h-74zM257 0v299l-251 401h105l118 -200q32 -54 73 -129q44 79 73 129l118 200h106l-251 -401v-299h-91z" />
    <glyph glyph-name="Thorn" unicode="&#xde;" horiz-adv-x="625" 
d="M83 0v700h90v-110h146q43 0 77 -3.5t73.5 -16.5t65 -35t43 -62t17.5 -95q0 -53 -17.5 -91.5t-43.5 -60t-65.5 -33.5t-73 -15.5t-77.5 -3.5h-145v-174h-90zM173 251h145q32 0 53.5 1.5t49.5 8.5t45 20t29 37.5t12 59.5q0 38 -12.5 64.5t-28.5 40t-45 20.5t-48.5 8t-53.5 1
h-146v-261z" />
    <glyph glyph-name="germandbls" unicode="&#xdf;" horiz-adv-x="545" 
d="M359 389q70 -10 110.5 -59t40.5 -126q0 -101 -59 -155.5t-166 -54.5q-32 0 -62 7l2 73q26 -5 58 -5q134 0 134 135q0 145 -158 145h-27v69h28q116 0 116 114q0 49 -27.5 79t-81.5 30q-55 0 -83 -30.5t-28 -83.5v-527h-90v532q0 82 53.5 131t150.5 49q87 0 141.5 -49
t54.5 -126q0 -118 -107 -147v-1z" />
    <glyph glyph-name="agrave" unicode="&#xe0;" horiz-adv-x="540" 
d="M312 573h-74l-92 127h101zM520 74l2 -74q-25 -4 -56 -4q-82 0 -90 78q-42 -86 -168 -86q-69 0 -118.5 37.5t-49.5 106.5q0 39 14.5 67t41.5 45t53 25.5t61 15.5l165 32q0 67 -17 91q-23 33 -91 33q-65 0 -93.5 -25.5t-28.5 -82.5l-88 12q3 91 62 130q55 37 153 37
q190 0 190 -165v-239q0 -16 1 -22t7.5 -11t20.5 -5q12 0 29 4zM375 189v61l-151 -33q-47 -11 -69.5 -28t-22.5 -56q0 -34 26 -53.5t64 -19.5q78 0 115.5 35.5t37.5 93.5z" />
    <glyph glyph-name="aacute" unicode="&#xe1;" horiz-adv-x="540" 
d="M386 700l-92 -127h-74l65 127h101zM520 74l2 -74q-25 -4 -56 -4q-82 0 -90 78q-42 -86 -168 -86q-69 0 -118.5 37.5t-49.5 106.5q0 39 14.5 67t41.5 45t53 25.5t61 15.5l165 32q0 67 -17 91q-23 33 -91 33q-65 0 -93.5 -25.5t-28.5 -82.5l-88 12q3 91 62 130
q55 37 153 37q190 0 190 -165v-239q0 -16 1 -22t7.5 -11t20.5 -5q12 0 29 4zM375 189v61l-151 -33q-47 -11 -69.5 -28t-22.5 -56q0 -34 26 -53.5t64 -19.5q78 0 115.5 35.5t37.5 93.5z" />
    <glyph glyph-name="acircumflex" unicode="&#xe2;" horiz-adv-x="540" 
d="M262 641l-58 -56h-75l93 101h83l93 -101h-80zM520 74l2 -74q-25 -4 -56 -4q-82 0 -90 78q-42 -86 -168 -86q-69 0 -118.5 37.5t-49.5 106.5q0 39 14.5 67t41.5 45t53 25.5t61 15.5l165 32q0 67 -17 91q-23 33 -91 33q-65 0 -93.5 -25.5t-28.5 -82.5l-88 12q3 91 62 130
q55 37 153 37q190 0 190 -165v-239q0 -16 1 -22t7.5 -11t20.5 -5q12 0 29 4zM375 189v61l-151 -33q-47 -11 -69.5 -28t-22.5 -56q0 -34 26 -53.5t64 -19.5q78 0 115.5 35.5t37.5 93.5z" />
    <glyph glyph-name="atilde" unicode="&#xe3;" horiz-adv-x="540" 
d="M205 611q-36 0 -41 -38h-55q0 41 27 70q29 31 75 31q27 0 62 -21t49 -21q10 0 16 2t10.5 9.5t6 10.5t5.5 15h59q-7 -51 -30 -73q-27 -26 -67 -26q-31 0 -65.5 20.5t-51.5 20.5zM520 74l2 -74q-25 -4 -56 -4q-82 0 -90 78q-42 -86 -168 -86q-69 0 -118.5 37.5t-49.5 106.5
q0 39 14.5 67t41.5 45t53 25.5t61 15.5l165 32q0 67 -17 91q-23 33 -91 33q-65 0 -93.5 -25.5t-28.5 -82.5l-88 12q3 91 62 130q55 37 153 37q190 0 190 -165v-239q0 -16 1 -22t7.5 -11t20.5 -5q12 0 29 4zM375 189v61l-151 -33q-47 -11 -69.5 -28t-22.5 -56q0 -34 26 -53.5
t64 -19.5q78 0 115.5 35.5t37.5 93.5z" />
    <glyph glyph-name="adieresis" unicode="&#xe4;" horiz-adv-x="540" 
d="M208 682v-97h-82v97h82zM391 682v-97h-82v97h82zM520 74l2 -74q-25 -4 -56 -4q-82 0 -90 78q-42 -86 -168 -86q-69 0 -118.5 37.5t-49.5 106.5q0 39 14.5 67t41.5 45t53 25.5t61 15.5l165 32q0 67 -17 91q-23 33 -91 33q-65 0 -93.5 -25.5t-28.5 -82.5l-88 12
q3 91 62 130q55 37 153 37q190 0 190 -165v-239q0 -16 1 -22t7.5 -11t20.5 -5q12 0 29 4zM375 189v61l-151 -33q-47 -11 -69.5 -28t-22.5 -56q0 -34 26 -53.5t64 -19.5q78 0 115.5 35.5t37.5 93.5z" />
    <glyph glyph-name="aring" unicode="&#xe5;" horiz-adv-x="540" 
d="M264 553q-40 0 -68 27t-28 65t28 65t68 27t68 -27t28 -65t-28 -65t-68 -27zM264 698q-22 0 -36.5 -15.5t-14.5 -37.5q0 -23 14.5 -38.5t36.5 -15.5q23 0 36.5 15t13.5 39q0 22 -13.5 37.5t-36.5 15.5zM520 74l2 -74q-25 -4 -56 -4q-82 0 -90 78q-42 -86 -168 -86
q-69 0 -118.5 37.5t-49.5 106.5q0 39 14.5 67t41.5 45t53 25.5t61 15.5l165 32q0 67 -17 91q-23 33 -91 33q-65 0 -93.5 -25.5t-28.5 -82.5l-88 12q3 91 62 130q55 37 153 37q190 0 190 -165v-239q0 -16 1 -22t7.5 -11t20.5 -5q12 0 29 4zM375 189v61l-151 -33
q-47 -11 -69.5 -28t-22.5 -56q0 -34 26 -53.5t64 -19.5q78 0 115.5 35.5t37.5 93.5z" />
    <glyph glyph-name="ae" unicode="&#xe6;" horiz-adv-x="869" 
d="M833 247q0 -16 -1 -24h-366q3 -163 137 -163q123 0 138 112l84 -7q-32 -177 -221 -177q-123 0 -187 95q-57 -95 -200 -95q-47 0 -85.5 12t-67.5 45.5t-29 86.5q0 38 15 67t42 45.5t53 25.5t60 15l165 32q0 67 -17 91q-23 33 -91 33q-65 0 -94.5 -26t-27.5 -82l-88 12
q3 90 62 130q56 37 153 37q119 0 166 -77q66 77 170 77q57 0 107 -25t80 -70q43 -68 43 -170zM467 296h276q-2 53 -26 89q-36 54 -113 54q-83 0 -114 -54q-23 -40 -23 -89zM370 189v61l-151 -33q-47 -11 -69.5 -28t-22.5 -56q0 -34 26 -53.5t64 -19.5q78 0 115.5 35.5
t37.5 93.5z" />
    <glyph glyph-name="ccedilla" unicode="&#xe7;" horiz-adv-x="531" 
d="M505 153q-13 -72 -68 -116t-136 -49l-40 -38q5 1 18 1q35 0 63.5 -18t28.5 -51q0 -46 -35.5 -67.5t-83.5 -21.5q-52 0 -99 27l20 41q39 -16 73 -16q54 0 54 32q0 30 -51 30q-17 0 -43 -9l-20 25l59 67q-98 12 -153.5 80t-55.5 180q0 117 67.5 189.5t180.5 72.5
q91 0 147 -47.5t72 -123.5l-84 -16q-14 52 -44 83.5t-91 31.5q-85 0 -117 -49t-32 -141q0 -93 32 -141.5t117 -48.5q58 0 90 24t46 78z" />
    <glyph glyph-name="egrave" unicode="&#xe8;" horiz-adv-x="550" 
d="M325 573h-74l-92 127h101zM472 413q48 -77 42 -190h-379q3 -163 142 -163q125 0 143 112l87 -7q-16 -87 -74.5 -132t-154.5 -45q-117 0 -180 73q-61 68 -61 190q0 115 63 186q66 75 177 75q61 0 113 -25.5t82 -73.5zM278 439q-85 0 -118 -54q-24 -40 -24 -89h286
q-2 51 -27 89q-37 54 -117 54z" />
    <glyph glyph-name="eacute" unicode="&#xe9;" horiz-adv-x="550" 
d="M399 700l-92 -127h-74l65 127h101zM472 413q48 -77 42 -190h-379q3 -163 142 -163q125 0 143 112l87 -7q-16 -87 -74.5 -132t-154.5 -45q-117 0 -180 73q-61 68 -61 190q0 115 63 186q66 75 177 75q61 0 113 -25.5t82 -73.5zM278 439q-85 0 -118 -54q-24 -40 -24 -89h286
q-2 51 -27 89q-37 54 -117 54z" />
    <glyph glyph-name="ecircumflex" unicode="&#xea;" horiz-adv-x="550" 
d="M275 641l-58 -56h-75l93 101h83l93 -101h-80zM472 413q48 -77 42 -190h-379q3 -163 142 -163q125 0 143 112l87 -7q-16 -87 -74.5 -132t-154.5 -45q-117 0 -180 73q-61 68 -61 190q0 115 63 186q66 75 177 75q61 0 113 -25.5t82 -73.5zM278 439q-85 0 -118 -54
q-24 -40 -24 -89h286q-2 51 -27 89q-37 54 -117 54z" />
    <glyph glyph-name="edieresis" unicode="&#xeb;" horiz-adv-x="550" 
d="M226 682v-97h-82v97h82zM409 682v-97h-82v97h82zM472 413q48 -77 42 -190h-379q3 -163 142 -163q125 0 143 112l87 -7q-16 -87 -74.5 -132t-154.5 -45q-117 0 -180 73q-61 68 -61 190q0 115 63 186q66 75 177 75q61 0 113 -25.5t82 -73.5zM278 439q-85 0 -118 -54
q-24 -40 -24 -89h286q-2 51 -27 89q-37 54 -117 54z" />
    <glyph glyph-name="igrave" unicode="&#xec;" horiz-adv-x="222" 
d="M148 573h-74l-92 127h101zM66 0v500h90v-500h-90z" />
    <glyph glyph-name="iacute" unicode="&#xed;" horiz-adv-x="222" 
d="M72 573l65 127h101l-92 -127h-74zM66 0v500h90v-500h-90z" />
    <glyph glyph-name="icircumflex" unicode="&#xee;" horiz-adv-x="222" 
d="M-24 585l93 101h83l93 -101h-80l-56 56l-58 -56h-75zM66 0v500h90v-500h-90z" />
    <glyph glyph-name="idieresis" unicode="&#xef;" horiz-adv-x="222" 
d="M-22 585v97h82v-97h-82zM161 585v97h82v-97h-82zM66 0v500h90v-500h-90z" />
    <glyph glyph-name="eth" unicode="&#xf0;" horiz-adv-x="574" 
d="M423 581q112 -126 112 -331q0 -118 -68.5 -190t-180.5 -72q-117 0 -183.5 70t-66.5 192q0 116 68 189t182 73q54 0 98 -18q-23 41 -55 73q-15 15 -24 22l-131 -40l-14 46l102 31q-47 37 -84 60l65 45q50 -30 106 -78l102 31l14 -46l-74 -23q24 -24 32 -34zM286 59
q81 0 116.5 49t35.5 142q0 94 -35 142.5t-117 48.5q-83 0 -118 -48.5t-35 -142.5t35 -142.5t118 -48.5z" />
    <glyph glyph-name="ntilde" unicode="&#xf1;" horiz-adv-x="559" 
d="M223 611q-36 0 -41 -38h-55q0 41 27 70q29 31 75 31q26 0 61.5 -21t49.5 -21q10 0 16 2t10.5 9.5t6 10.5t5.5 15h59q-7 -51 -30 -73q-27 -26 -67 -26q-31 0 -65.5 20.5t-51.5 20.5zM459 456q39 -42 39 -159v-297h-93v292q0 32 -1 46t-8 35t-21 35q-29 29 -89 29
q-21 0 -40 -5.5t-41 -20.5t-35.5 -50t-13.5 -85v-276h-90v500h90v-76q39 88 154 88q96 0 149 -56z" />
    <glyph glyph-name="ograve" unicode="&#xf2;" horiz-adv-x="571" 
d="M336 573h-74l-92 127h101zM286 -12q-117 0 -183.5 70t-66.5 192q0 116 68 189t182 73q113 0 181 -73.5t68 -188.5q0 -118 -68.5 -190t-180.5 -72zM286 59q81 0 116.5 49t35.5 142t-35.5 142t-116.5 49q-83 0 -118 -48.5t-35 -142.5t35 -142.5t118 -48.5z" />
    <glyph glyph-name="oacute" unicode="&#xf3;" horiz-adv-x="571" 
d="M244 573l65 127h101l-92 -127h-74zM286 -12q-117 0 -183.5 70t-66.5 192q0 116 68 189t182 73q113 0 181 -73.5t68 -188.5q0 -118 -68.5 -190t-180.5 -72zM286 59q81 0 116.5 49t35.5 142t-35.5 142t-116.5 49q-83 0 -118 -48.5t-35 -142.5t35 -142.5t118 -48.5z" />
    <glyph glyph-name="ocircumflex" unicode="&#xf4;" horiz-adv-x="571" 
d="M153 585l93 101h83l93 -101h-80l-56 56l-58 -56h-75zM286 -12q-117 0 -183.5 70t-66.5 192q0 116 68 189t182 73q113 0 181 -73.5t68 -188.5q0 -118 -68.5 -190t-180.5 -72zM286 59q81 0 116.5 49t35.5 142t-35.5 142t-116.5 49q-83 0 -118 -48.5t-35 -142.5t35 -142.5
t118 -48.5z" />
    <glyph glyph-name="otilde" unicode="&#xf5;" horiz-adv-x="571" 
d="M346 570q-31 0 -65.5 20.5t-51.5 20.5q-36 0 -41 -38h-55q0 41 27 70q29 31 75 31q27 0 62 -21t49 -21q10 0 16 2t10.5 9.5t6 10.5t5.5 15h59q-7 -51 -30 -73q-27 -26 -67 -26zM286 -12q-117 0 -183.5 70t-66.5 192q0 116 68 189t182 73q113 0 181 -73.5t68 -188.5
q0 -118 -68.5 -190t-180.5 -72zM286 59q81 0 116.5 49t35.5 142t-35.5 142t-116.5 49q-83 0 -118 -48.5t-35 -142.5t35 -142.5t118 -48.5z" />
    <glyph glyph-name="odieresis" unicode="&#xf6;" horiz-adv-x="571" 
d="M155 585v97h82v-97h-82zM338 585v97h82v-97h-82zM286 -12q-117 0 -183.5 70t-66.5 192q0 116 68 189t182 73q113 0 181 -73.5t68 -188.5q0 -118 -68.5 -190t-180.5 -72zM286 59q81 0 116.5 49t35.5 142t-35.5 142t-116.5 49q-83 0 -118 -48.5t-35 -142.5t35 -142.5
t118 -48.5z" />
    <glyph glyph-name="divide" unicode="&#xf7;" horiz-adv-x="541" 
d="M220 445v106h101v-106h-101zM47 287v67h447v-67h-447zM220 93v106h101v-106h-101z" />
    <glyph glyph-name="oslash" unicode="&#xf8;" horiz-adv-x="577" 
d="M481 428q58 -72 58 -178q0 -118 -68.5 -190t-180.5 -72q-104 0 -168 55l-53 -57l-32 29l55 59q-52 67 -52 176q0 116 68 189t182 73q93 0 160 -53l56 60l32 -30zM137 250q0 -68 17 -110l244 263q-38 38 -108 38q-83 0 -118 -48.5t-35 -142.5zM290 59q81 0 116.5 49
t35.5 142q0 72 -20 115l-245 -263q37 -43 113 -43z" />
    <glyph glyph-name="ugrave" unicode="&#xf9;" horiz-adv-x="559" 
d="M328 573h-74l-92 127h101zM403 500h90v-500h-90v75q-41 -87 -154 -87q-95 0 -148 56q-18 19 -27.5 49t-11 51.5t-1.5 56.5v299h93v-294q0 -31 1 -45t7.5 -34.5t20.5 -34.5q30 -29 91 -29q129 0 129 156v281z" />
    <glyph glyph-name="uacute" unicode="&#xfa;" horiz-adv-x="559" 
d="M402 700l-92 -127h-74l65 127h101zM403 500h90v-500h-90v75q-41 -87 -154 -87q-95 0 -148 56q-18 19 -27.5 49t-11 51.5t-1.5 56.5v299h93v-294q0 -31 1 -45t7.5 -34.5t20.5 -34.5q30 -29 91 -29q129 0 129 156v281z" />
    <glyph glyph-name="ucircumflex" unicode="&#xfb;" horiz-adv-x="559" 
d="M278 641l-58 -56h-75l93 101h83l93 -101h-80zM403 500h90v-500h-90v75q-41 -87 -154 -87q-95 0 -148 56q-18 19 -27.5 49t-11 51.5t-1.5 56.5v299h93v-294q0 -31 1 -45t7.5 -34.5t20.5 -34.5q30 -29 91 -29q129 0 129 156v281z" />
    <glyph glyph-name="udieresis" unicode="&#xfc;" horiz-adv-x="559" 
d="M229 682v-97h-82v97h82zM412 682v-97h-82v97h82zM403 500h90v-500h-90v75q-41 -87 -154 -87q-95 0 -148 56q-18 19 -27.5 49t-11 51.5t-1.5 56.5v299h93v-294q0 -31 1 -45t7.5 -34.5t20.5 -34.5q30 -29 91 -29q129 0 129 156v281z" />
    <glyph glyph-name="yacute" unicode="&#xfd;" horiz-adv-x="483" 
d="M357 700l-92 -127h-74l65 127h101zM383 500h94l-204 -546q-32 -86 -64 -122.5t-82 -36.5q-40 0 -76 10l2 84q33 -11 62 -11q26 0 42.5 26.5t44.5 99.5l-195 496h96l95 -270q15 -44 44 -133q23 70 45 133z" />
    <glyph glyph-name="thorn" unicode="&#xfe;" horiz-adv-x="581" 
d="M314 512q102 0 166 -71t64 -191q0 -118 -62.5 -190t-164.5 -72q-106 0 -161 77v-265h-90v900h90v-273q55 85 158 85zM296 60q81 0 115 47.5t34 142.5t-32 143t-115 48q-145 0 -145 -190q0 -39 5.5 -69.5t20 -60t44 -45.5t73.5 -16z" />
    <glyph glyph-name="ydieresis" unicode="&#xff;" horiz-adv-x="483" 
d="M193 682v-97h-82v97h82zM376 682v-97h-82v97h82zM383 500h94l-204 -546q-32 -86 -64 -122.5t-82 -36.5q-40 0 -76 10l2 84q33 -11 62 -11q26 0 42.5 26.5t44.5 99.5l-195 496h96l95 -270q15 -44 44 -133q23 70 45 133z" />
    <glyph glyph-name="Amacron" unicode="&#x100;" horiz-adv-x="648" 
d="M451 838v-70h-256v70h256zM550 0l-78 209h-297l-77 -209h-96l274 700h96l273 -700h-95zM205 289h237l-79 211q-20 52 -40 113h-1q-17 -53 -39 -113z" />
    <glyph glyph-name="amacron" unicode="&#x101;" horiz-adv-x="540" 
d="M392 667v-70h-256v70h256zM520 74l2 -74q-25 -4 -56 -4q-82 0 -90 78q-42 -86 -168 -86q-69 0 -118.5 37.5t-49.5 106.5q0 39 14.5 67t41.5 45t53 25.5t61 15.5l165 32q0 67 -17 91q-23 33 -91 33q-65 0 -93.5 -25.5t-28.5 -82.5l-88 12q3 91 62 130q55 37 153 37
q190 0 190 -165v-239q0 -16 1 -22t7.5 -11t20.5 -5q12 0 29 4zM375 189v61l-151 -33q-47 -11 -69.5 -28t-22.5 -56q0 -34 26 -53.5t64 -19.5q78 0 115.5 35.5t37.5 93.5z" />
    <glyph glyph-name="Abreve" unicode="&#x102;" horiz-adv-x="648" 
d="M323 750q-50 0 -84.5 31.5t-36.5 83.5h62q7 -50 58 -50q55 0 62 50h60q-2 -49 -36 -82t-85 -33zM550 0l-78 209h-297l-77 -209h-96l274 700h96l273 -700h-95zM205 289h237l-79 211q-20 52 -40 113h-1q-17 -53 -39 -113z" />
    <glyph glyph-name="abreve" unicode="&#x103;" horiz-adv-x="540" 
d="M264 585q-50 0 -84.5 31.5t-36.5 83.5h62q7 -50 58 -50q55 0 62 50h60q-2 -49 -36 -82t-85 -33zM520 74l2 -74q-25 -4 -56 -4q-82 0 -90 78q-42 -86 -168 -86q-69 0 -118.5 37.5t-49.5 106.5q0 39 14.5 67t41.5 45t53 25.5t61 15.5l165 32q0 67 -17 91q-23 33 -91 33
q-65 0 -93.5 -25.5t-28.5 -82.5l-88 12q3 91 62 130q55 37 153 37q190 0 190 -165v-239q0 -16 1 -22t7.5 -11t20.5 -5q12 0 29 4zM375 189v61l-151 -33q-47 -11 -69.5 -28t-22.5 -56q0 -34 26 -53.5t64 -19.5q78 0 115.5 35.5t37.5 93.5z" />
    <glyph glyph-name="Aogonek" unicode="&#x104;" horiz-adv-x="646" 
d="M663 -110l3 -63q-26 -8 -56 -8q-52 0 -78 23.5t-26 60.5q0 57 75 97h-31l-78 209h-297l-77 -209h-96l274 700h96l273 -700h-1q-60 -49 -60 -84q0 -33 41 -33q20 0 38 7zM205 289h237l-79 211q-20 52 -40 113h-1q-17 -53 -39 -113z" />
    <glyph glyph-name="aogonek" unicode="&#x105;" horiz-adv-x="540" 
d="M527 -110l3 -62q-36 -9 -56 -9q-52 0 -78 23.5t-26 60.5q0 56 71 95q-59 11 -65 76q-42 -86 -168 -86q-69 0 -118.5 37.5t-49.5 106.5q0 39 14.5 67t41.5 45t53 25.5t61 15.5l165 32q0 67 -17 91q-23 33 -91 33q-65 0 -93.5 -25.5t-28.5 -82.5l-88 12q3 91 62 130
q55 37 153 37q190 0 190 -165v-239q0 -16 1 -22t7.5 -11t20.5 -5q12 0 29 4l2 -74q-29 -14 -51.5 -38.5t-22.5 -45.5q0 -33 41 -33q21 0 38 7zM375 189v61l-151 -33q-47 -11 -69.5 -28t-22.5 -56q0 -34 26 -53.5t64 -19.5q78 0 115.5 35.5t37.5 93.5z" />
    <glyph glyph-name="Cacute" unicode="&#x106;" horiz-adv-x="703" 
d="M332 756l63 108h100l-89 -108h-74zM374 -12q-159 0 -245.5 94t-86.5 268q0 163 87 262.5t245 99.5q111 0 193 -56.5t110 -162.5l-99 -19q-17 68 -69.5 114t-132.5 46q-125 0 -182 -79q-50 -71 -50 -205t50 -206q55 -78 180 -78q80 0 131.5 41t74.5 107l103 -27
q-42 -97 -121 -148t-188 -51z" />
    <glyph glyph-name="cacute" unicode="&#x107;" horiz-adv-x="531" 
d="M236 573l65 127h101l-92 -127h-74zM284 -12q-115 0 -181.5 69.5t-66.5 192.5q0 117 67.5 189.5t180.5 72.5q91 0 147 -47.5t72 -123.5l-84 -16q-14 52 -44 83.5t-91 31.5q-85 0 -117 -49t-32 -141q0 -93 32 -141.5t117 -48.5q58 0 90 24t46 78l85 -9
q-13 -76 -73.5 -120.5t-147.5 -44.5z" />
    <glyph glyph-name="Ccircumflex" unicode="&#x108;" horiz-adv-x="703" 
d="M238 756l93 101h83l93 -101h-80l-56 56l-58 -56h-75zM374 -12q-159 0 -245.5 94t-86.5 268q0 163 87 262.5t245 99.5q111 0 193 -56.5t110 -162.5l-99 -19q-17 68 -69.5 114t-132.5 46q-125 0 -182 -79q-50 -71 -50 -205t50 -206q55 -78 180 -78q80 0 131.5 41t74.5 107
l103 -27q-42 -97 -121 -148t-188 -51z" />
    <glyph glyph-name="ccircumflex" unicode="&#x109;" horiz-adv-x="531" 
d="M145 585l93 101h83l93 -101h-80l-56 56l-58 -56h-75zM284 -12q-115 0 -181.5 69.5t-66.5 192.5q0 117 67.5 189.5t180.5 72.5q91 0 147 -47.5t72 -123.5l-84 -16q-14 52 -44 83.5t-91 31.5q-85 0 -117 -49t-32 -141q0 -93 32 -141.5t117 -48.5q58 0 90 24t46 78l85 -9
q-13 -76 -73.5 -120.5t-147.5 -44.5z" />
    <glyph glyph-name="Cdotaccent" unicode="&#x10a;" horiz-adv-x="703" 
d="M328 756v106h90v-106h-90zM374 -12q-159 0 -245.5 94t-86.5 268q0 163 87 262.5t245 99.5q111 0 193 -56.5t110 -162.5l-99 -19q-17 68 -69.5 114t-132.5 46q-125 0 -182 -79q-50 -71 -50 -205t50 -206q55 -78 180 -78q80 0 131.5 41t74.5 107l103 -27q-42 -97 -121 -148
t-188 -51z" />
    <glyph glyph-name="cdotaccent" unicode="&#x10b;" horiz-adv-x="531" 
d="M235 594v106h90v-106h-90zM284 -12q-115 0 -181.5 69.5t-66.5 192.5q0 117 67.5 189.5t180.5 72.5q91 0 147 -47.5t72 -123.5l-84 -16q-14 52 -44 83.5t-91 31.5q-85 0 -117 -49t-32 -141q0 -93 32 -141.5t117 -48.5q58 0 90 24t46 78l85 -9q-13 -76 -73.5 -120.5
t-147.5 -44.5z" />
    <glyph glyph-name="Ccaron" unicode="&#x10c;" horiz-adv-x="703" 
d="M238 857h75l58 -56l56 56h80l-93 -101h-83zM374 -12q-159 0 -245.5 94t-86.5 268q0 163 87 262.5t245 99.5q111 0 193 -56.5t110 -162.5l-99 -19q-17 68 -69.5 114t-132.5 46q-125 0 -182 -79q-50 -71 -50 -205t50 -206q55 -78 180 -78q80 0 131.5 41t74.5 107l103 -27
q-42 -97 -121 -148t-188 -51z" />
    <glyph glyph-name="ccaron" unicode="&#x10d;" horiz-adv-x="531" 
d="M145 686h75l58 -56l56 56h80l-93 -101h-83zM284 -12q-115 0 -181.5 69.5t-66.5 192.5q0 117 67.5 189.5t180.5 72.5q91 0 147 -47.5t72 -123.5l-84 -16q-14 52 -44 83.5t-91 31.5q-85 0 -117 -49t-32 -141q0 -93 32 -141.5t117 -48.5q58 0 90 24t46 78l85 -9
q-13 -76 -73.5 -120.5t-147.5 -44.5z" />
    <glyph glyph-name="Dcaron" unicode="&#x10e;" horiz-adv-x="695" 
d="M183 857h75l58 -56l56 56h80l-93 -101h-83zM83 0v700h238q157 0 244.5 -95t87.5 -255q0 -164 -88 -257t-244 -93h-238zM173 78h138q140 0 190 74q50 71 50 198q0 126 -50 197q-52 75 -190 75h-138v-544z" />
    <glyph glyph-name="dcaron" unicode="&#x10f;" horiz-adv-x="601" 
d="M425 435v265h90v-700h-90v73q-55 -85 -158 -85q-102 0 -166 71t-64 191q0 118 62.5 190t164.5 72q106 0 161 -77zM571 700h91v-75q0 -82 -92 -87v37q46 6 46 45h-45v80zM283 59q145 0 145 190q0 39 -5.5 69.5t-20 60t-44 45.5t-73.5 16q-81 0 -115 -47.5t-34 -142.5
t32 -143t115 -48z" />
    <glyph glyph-name="Dcroat" unicode="&#x110;" horiz-adv-x="703" 
d="M329 700q157 0 244.5 -95t87.5 -255q0 -164 -88 -257t-244 -93h-238v312h-73v77h73v311h238zM509 152q50 71 50 198q0 126 -50 197q-52 75 -190 75h-138v-233h173v-77h-173v-234h138q140 0 190 74z" />
    <glyph glyph-name="dcroat" unicode="&#x111;" horiz-adv-x="581" 
d="M585 624v-64h-70v-560h-90v73q-55 -85 -158 -85q-102 0 -166 71t-64 191q0 118 62.5 190t164.5 72q106 0 161 -77v125h-152v64h152v76h90v-76h70zM283 59q145 0 145 190q0 39 -5.5 69.5t-20 60t-44 45.5t-73.5 16q-81 0 -115 -47.5t-34 -142.5t32 -143t115 -48z" />
    <glyph glyph-name="Emacron" unicode="&#x112;" horiz-adv-x="582" 
d="M185 768v70h256v-70h-256zM83 0v700h452v-81h-362v-225h325v-81h-325v-232h362v-81h-452z" />
    <glyph glyph-name="emacron" unicode="&#x113;" horiz-adv-x="550" 
d="M405 667v-70h-256v70h256zM472 413q48 -77 42 -190h-379q3 -163 142 -163q125 0 143 112l87 -7q-16 -87 -74.5 -132t-154.5 -45q-117 0 -180 73q-61 68 -61 190q0 115 63 186q66 75 177 75q61 0 113 -25.5t82 -73.5zM278 439q-85 0 -118 -54q-24 -40 -24 -89h286
q-2 51 -27 89q-37 54 -117 54z" />
    <glyph glyph-name="Ebreve" unicode="&#x114;" horiz-adv-x="582" 
d="M313 750q-50 0 -84.5 31.5t-36.5 83.5h62q7 -50 58 -50q55 0 62 50h60q-2 -49 -36 -82t-85 -33zM83 0v700h452v-81h-362v-225h325v-81h-325v-232h362v-81h-452z" />
    <glyph glyph-name="ebreve" unicode="&#x115;" horiz-adv-x="550" 
d="M277 585q-50 0 -84.5 31.5t-36.5 83.5h62q7 -50 58 -50q55 0 62 50h60q-2 -49 -36 -82t-85 -33zM472 413q48 -77 42 -190h-379q3 -163 142 -163q125 0 143 112l87 -7q-16 -87 -74.5 -132t-154.5 -45q-117 0 -180 73q-61 68 -61 190q0 115 63 186q66 75 177 75
q61 0 113 -25.5t82 -73.5zM278 439q-85 0 -118 -54q-24 -40 -24 -89h286q-2 51 -27 89q-37 54 -117 54z" />
    <glyph glyph-name="Edotaccent" unicode="&#x116;" horiz-adv-x="582" 
d="M268 756v106h90v-106h-90zM83 0v700h452v-81h-362v-225h325v-81h-325v-232h362v-81h-452z" />
    <glyph glyph-name="edotaccent" unicode="&#x117;" horiz-adv-x="550" 
d="M322 700v-106h-90v106h90zM472 413q48 -77 42 -190h-379q3 -163 142 -163q125 0 143 112l87 -7q-16 -87 -74.5 -132t-154.5 -45q-117 0 -180 73q-61 68 -61 190q0 115 63 186q66 75 177 75q61 0 113 -25.5t82 -73.5zM278 439q-85 0 -118 -54q-24 -40 -24 -89h286
q-2 51 -27 89q-37 54 -117 54z" />
    <glyph glyph-name="Eogonek" unicode="&#x118;" horiz-adv-x="582" 
d="M554 -110l3 -63q-26 -8 -56 -8q-52 0 -78 23.5t-26 60.5q0 57 75 97h-389v700h452v-81h-362v-225h325v-81h-325v-232h362v-81q-60 -49 -60 -84q0 -33 41 -33q20 0 38 7z" />
    <glyph glyph-name="eogonek" unicode="&#x119;" horiz-adv-x="550" 
d="M472 413q48 -77 42 -190h-379q3 -163 142 -163q125 0 143 112l87 -7q-20 -103 -96 -146q-97 -62 -97 -103q0 -33 41 -33q19 0 38 7l3 -63q-26 -8 -56 -8q-52 0 -78 23.5t-26 60.5q0 47 56 85h-14q-117 0 -180 73q-61 68 -61 190q0 115 63 186q66 75 177 75
q61 0 113 -25.5t82 -73.5zM278 439q-85 0 -118 -54q-24 -40 -24 -89h286q-2 51 -27 89q-37 54 -117 54z" />
    <glyph glyph-name="Ecaron" unicode="&#x11a;" horiz-adv-x="582" 
d="M178 857h75l58 -56l56 56h80l-93 -101h-83zM83 0v700h452v-81h-362v-225h325v-81h-325v-232h362v-81h-452z" />
    <glyph glyph-name="ecaron" unicode="&#x11b;" horiz-adv-x="550" 
d="M318 585h-83l-93 101h75l58 -56l56 56h80zM472 413q48 -77 42 -190h-379q3 -163 142 -163q125 0 143 112l87 -7q-16 -87 -74.5 -132t-154.5 -45q-117 0 -180 73q-61 68 -61 190q0 115 63 186q66 75 177 75q61 0 113 -25.5t82 -73.5zM278 439q-85 0 -118 -54
q-24 -40 -24 -89h286q-2 51 -27 89q-37 54 -117 54z" />
    <glyph glyph-name="Gcircumflex" unicode="&#x11c;" horiz-adv-x="733" 
d="M375 812l-58 -56h-75l93 101h83l93 -101h-80zM382 371h298v-371h-74l-8 96q-73 -108 -224 -108q-159 0 -245.5 94t-86.5 268q0 163 87 262.5t245 99.5q110 0 190 -56t109 -163l-98 -19q-19 69 -69.5 114.5t-129.5 45.5q-125 0 -182 -79q-51 -72 -51 -205q0 -134 51 -208
q53 -76 190 -76q100 0 152.5 55.5t53.5 164.5h-208v85z" />
    <glyph glyph-name="gcircumflex" unicode="&#x11d;" horiz-adv-x="580" 
d="M283 641l-58 -56h-75l93 101h83l93 -101h-80zM424 500h90v-489q0 -100 -64.5 -158t-175.5 -58q-54 0 -99 15t-78.5 54.5t-35.5 99.5l86 6q3 -59 37.5 -82t99.5 -23q63 0 101.5 37t38.5 103v85q-55 -86 -158 -86t-166 71t-63 188q0 111 62.5 180t163.5 69q107 0 161 -82
v70zM280 76q79 0 113.5 53.5t34.5 133.5q0 177 -146 177q-80 0 -113.5 -45.5t-33.5 -131.5q0 -94 31.5 -140.5t113.5 -46.5z" />
    <glyph glyph-name="Gbreve" unicode="&#x11e;" horiz-adv-x="733" 
d="M377 750q-50 0 -84.5 31.5t-36.5 83.5h62q7 -50 58 -50q55 0 62 50h60q-2 -49 -36 -82t-85 -33zM382 371h298v-371h-74l-8 96q-73 -108 -224 -108q-159 0 -245.5 94t-86.5 268q0 163 87 262.5t245 99.5q110 0 190 -56t109 -163l-98 -19q-19 69 -69.5 114.5t-129.5 45.5
q-125 0 -182 -79q-51 -72 -51 -205q0 -134 51 -208q53 -76 190 -76q100 0 152.5 55.5t53.5 164.5h-208v85z" />
    <glyph glyph-name="gbreve" unicode="&#x11f;" horiz-adv-x="580" 
d="M285 585q-50 0 -84.5 31.5t-36.5 83.5h62q7 -50 58 -50q55 0 62 50h60q-2 -49 -36 -82t-85 -33zM424 500h90v-489q0 -100 -64.5 -158t-175.5 -58q-54 0 -99 15t-78.5 54.5t-35.5 99.5l86 6q3 -59 37.5 -82t99.5 -23q63 0 101.5 37t38.5 103v85q-55 -86 -158 -86t-166 71
t-63 188q0 111 62.5 180t163.5 69q107 0 161 -82v70zM280 76q79 0 113.5 53.5t34.5 133.5q0 177 -146 177q-80 0 -113.5 -45.5t-33.5 -131.5q0 -94 31.5 -140.5t113.5 -46.5z" />
    <glyph glyph-name="Gdotaccent" unicode="&#x120;" horiz-adv-x="733" 
d="M422 862v-106h-90v106h90zM382 371h298v-371h-74l-8 96q-73 -108 -224 -108q-159 0 -245.5 94t-86.5 268q0 163 87 262.5t245 99.5q110 0 190 -56t109 -163l-98 -19q-19 69 -69.5 114.5t-129.5 45.5q-125 0 -182 -79q-51 -72 -51 -205q0 -134 51 -208q53 -76 190 -76
q100 0 152.5 55.5t53.5 164.5h-208v85z" />
    <glyph glyph-name="gdotaccent" unicode="&#x121;" horiz-adv-x="580" 
d="M330 700v-106h-90v106h90zM424 500h90v-489q0 -100 -64.5 -158t-175.5 -58q-54 0 -99 15t-78.5 54.5t-35.5 99.5l86 6q3 -59 37.5 -82t99.5 -23q63 0 101.5 37t38.5 103v85q-55 -86 -158 -86t-166 71t-63 188q0 111 62.5 180t163.5 69q107 0 161 -82v70zM280 76
q79 0 113.5 53.5t34.5 133.5q0 177 -146 177q-80 0 -113.5 -45.5t-33.5 -131.5q0 -94 31.5 -140.5t113.5 -46.5z" />
    <glyph glyph-name="uni0122" unicode="&#x122;" horiz-adv-x="733" 
d="M382 371h298v-371h-74l-8 96q-73 -108 -224 -108q-159 0 -245.5 94t-86.5 268q0 163 87 262.5t245 99.5q110 0 190 -56t109 -163l-98 -19q-19 69 -69.5 114.5t-129.5 45.5q-125 0 -182 -79q-51 -72 -51 -205q0 -134 51 -208q53 -76 190 -76q100 0 152.5 55.5t53.5 164.5
h-208v85zM325 -151v85h95v-79q0 -87 -96 -92v39q48 6 48 47h-47z" />
    <glyph glyph-name="uni0123" unicode="&#x123;" horiz-adv-x="580" 
d="M324 658v-85h-95v79q0 87 96 92v-39q-48 -6 -48 -47h47zM424 500h90v-489q0 -100 -64.5 -158t-175.5 -58q-54 0 -99 15t-78.5 54.5t-35.5 99.5l86 6q3 -59 37.5 -82t99.5 -23q63 0 101.5 37t38.5 103v85q-55 -86 -158 -86t-166 71t-63 188q0 111 62.5 180t163.5 69
q107 0 161 -82v70zM280 76q79 0 113.5 53.5t34.5 133.5q0 177 -146 177q-80 0 -113.5 -45.5t-33.5 -131.5q0 -94 31.5 -140.5t113.5 -46.5z" />
    <glyph glyph-name="Hcircumflex" unicode="&#x124;" horiz-adv-x="699" 
d="M215 756l93 101h83l93 -101h-80l-56 56l-58 -56h-75zM83 0v700h91v-306h351v306h91v-700h-91v313h-351v-313h-91z" />
    <glyph glyph-name="hcircumflex" unicode="&#x125;" horiz-adv-x="559" 
d="M299 812l-58 -56h-75l93 101h83l93 -101h-80zM459 456q18 -19 27 -49t10.5 -51.5t1.5 -56.5v-299h-93v294q0 31 -1 45t-7.5 34.5t-21.5 34.5q-29 29 -89 29q-130 0 -130 -156v-281h-90v700h90v-275q41 87 154 87q96 0 149 -56z" />
    <glyph glyph-name="Hbar" unicode="&#x126;" horiz-adv-x="720" 
d="M701 577v-75h-75v-502h-91v313h-351v-313h-91v502h-74v75h74v123h91v-123h351v123h91v-123h75zM535 394v108h-351v-108h351z" />
    <glyph glyph-name="hbar" unicode="&#x127;" horiz-adv-x="559" 
d="M459 456q18 -19 27 -49t10.5 -51.5t1.5 -56.5v-299h-93v294q0 31 -1 45t-7.5 34.5t-21.5 34.5q-29 29 -89 29q-130 0 -130 -156v-281h-90v560h-72v64h72v76h90v-76h136v-64h-136v-135q41 87 154 87q96 0 149 -56z" />
    <glyph glyph-name="Itilde" unicode="&#x128;" horiz-adv-x="257" 
d="M187 753q-31 0 -65.5 20.5t-51.5 20.5q-36 0 -41 -38h-55q0 42 27 70q29 31 75 31q26 0 61 -21t50 -21q10 0 16 2t10.5 9.5t6 10.5t5.5 15h59q-7 -51 -30 -73q-27 -26 -67 -26zM83 0v700h91v-700h-91z" />
    <glyph glyph-name="itilde" unicode="&#x129;" horiz-adv-x="222" 
d="M169 570q-31 0 -65.5 20.5t-51.5 20.5q-36 0 -41 -38h-55q0 41 27 70q29 31 75 31q27 0 61.5 -21t49.5 -21q10 0 16 2t10.5 9.5t6 10.5t5.5 15h59q-7 -51 -30 -73q-27 -26 -67 -26zM66 0v500h90v-500h-90z" />
    <glyph glyph-name="Imacron" unicode="&#x12a;" horiz-adv-x="257" 
d="M1 768v70h256v-70h-256zM83 0v700h91v-700h-91z" />
    <glyph glyph-name="imacron" unicode="&#x12b;" horiz-adv-x="222" 
d="M-17 597v70h256v-70h-256zM66 0v500h90v-500h-90z" />
    <glyph glyph-name="Ibreve" unicode="&#x12c;" horiz-adv-x="257" 
d="M129 750q-50 0 -84.5 31.5t-36.5 83.5h62q7 -50 58 -50q55 0 62 50h60q-2 -49 -36 -82t-85 -33zM83 0v700h91v-700h-91z" />
    <glyph glyph-name="ibreve" unicode="&#x12d;" horiz-adv-x="222" 
d="M111 585q-50 0 -84.5 31.5t-36.5 83.5h62q7 -50 58 -50q55 0 62 50h60q-2 -49 -36 -82t-85 -33zM66 0v500h90v-500h-90z" />
    <glyph glyph-name="Iogonek" unicode="&#x12e;" horiz-adv-x="257" 
d="M193 -110l3 -63q-26 -8 -56 -8q-52 0 -78 23.5t-26 60.5q0 57 75 97h-28v700h91v-700q-60 -49 -60 -84q0 -33 41 -33q21 0 38 7z" />
    <glyph glyph-name="iogonek" unicode="&#x12f;" horiz-adv-x="222" 
d="M156 700v-106h-90v106h90zM175 -110l3 -63q-26 -8 -56 -8q-52 0 -78 23.5t-26 60.5q0 57 75 97h-27v500h90v-500q-60 -49 -60 -84q0 -33 41 -33q21 0 38 7z" />
    <glyph glyph-name="Idotaccent" unicode="&#x130;" horiz-adv-x="257" 
d="M84 756v106h90v-106h-90zM83 0v700h91v-700h-91z" />
    <glyph glyph-name="dotlessi" unicode="&#x131;" horiz-adv-x="222" 
d="M66 0v500h90v-500h-90z" />
    <glyph glyph-name="IJ" unicode="&#x132;" horiz-adv-x="760" 
d="M83 0v700h91v-700h-91zM486 -12q-97 0 -150.5 55t-53.5 153v59h91v-45q0 -33 4 -56t15.5 -44.5t35.5 -32.5t60 -11q61 0 82.5 34.5t21.5 96.5v503h91v-517q0 -36 -9.5 -68t-30 -62t-61 -47.5t-96.5 -17.5z" />
    <glyph glyph-name="ij" unicode="&#x133;" horiz-adv-x="444" 
d="M66 594v106h90v-106h-90zM288 594v106h90v-106h-90zM66 0v500h90v-500h-90zM255 -205q-25 0 -49 5l2 84q21 -6 42 -6q23 0 30.5 16.5t7.5 55.5v550h90v-561q0 -70 -32 -107t-91 -37z" />
    <glyph glyph-name="Jcircumflex" unicode="&#x134;" horiz-adv-x="503" 
d="M247 756l93 101h83l93 -101h-80l-56 56l-58 -56h-75zM229 -12q-97 0 -150.5 55t-53.5 153v59h91v-45q0 -33 4 -56t15.5 -44.5t35.5 -32.5t60 -11q61 0 82.5 34.5t21.5 96.5v503h91v-517q0 -36 -9.5 -68t-30 -62t-61 -47.5t-96.5 -17.5z" />
    <glyph glyph-name="jcircumflex" unicode="&#x135;" horiz-adv-x="228" 
d="M-16 585l93 101h83l93 -101h-80l-56 56l-58 -56h-75zM39 -205q-25 0 -49 5l2 84q21 -6 42 -6q23 0 30.5 16.5t7.5 55.5v550h90v-561q0 -70 -32 -107t-91 -37z" />
    <glyph glyph-name="uni0136" unicode="&#x136;" horiz-adv-x="627" 
d="M339 410l296 -410h-113l-248 344l-100 -101v-243h-91v700h91v-337l333 337h121zM275 -151v85h95v-79q0 -87 -96 -92v39q48 6 48 47h-47z" />
    <glyph glyph-name="uni0137" unicode="&#x137;" horiz-adv-x="497" 
d="M290 316l206 -316h-105l-165 257l-70 -66v-191h-90v700h90v-407l209 207h122zM222 -151v85h95v-79q0 -87 -96 -92v39q48 6 48 47h-47z" />
    <glyph glyph-name="Lacute" unicode="&#x139;" horiz-adv-x="545" 
d="M254 864l-89 -108h-74l63 108h100zM173 79h362v-79h-452v700h90v-621z" />
    <glyph glyph-name="lacute" unicode="&#x13a;" horiz-adv-x="222" 
d="M71 756l63 108h100l-89 -108h-74zM66 0v700h90v-700h-90z" />
    <glyph glyph-name="uni013B" unicode="&#x13b;" horiz-adv-x="545" 
d="M173 79h362v-79h-452v700h90v-621zM262 -151v85h95v-79q0 -87 -96 -92v39q48 6 48 47h-47z" />
    <glyph glyph-name="uni013C" unicode="&#x13c;" horiz-adv-x="222" 
d="M66 0v700h90v-700h-90zM63 -237v39q48 6 48 47h-47v85h95v-79q0 -87 -96 -92z" />
    <glyph glyph-name="Lcaron" unicode="&#x13d;" horiz-adv-x="546" 
d="M173 79h362v-79h-452v700h90v-621zM391 621q0 -87 -96 -92v39q48 6 48 47h-47v85h95v-79z" />
    <glyph glyph-name="lcaron" unicode="&#x13e;" horiz-adv-x="242" 
d="M66 0v700h90v-700h-90zM211 538v37q46 6 46 45h-45v80h91v-75q0 -82 -92 -87z" />
    <glyph glyph-name="Ldot" unicode="&#x13f;" horiz-adv-x="549" 
d="M173 79h362v-79h-452v700h90v-621zM435 378v-106h-101v106h101z" />
    <glyph glyph-name="ldot" unicode="&#x140;" horiz-adv-x="365" 
d="M66 0v700h90v-700h-90zM243 272v106h101v-106h-101z" />
    <glyph glyph-name="Lslash" unicode="&#x141;" horiz-adv-x="572" 
d="M200 79h362v-79h-452v220l-71 -40v77l71 40v403h90v-353l108 60v-77l-108 -60v-191z" />
    <glyph glyph-name="lslash" unicode="&#x142;" horiz-adv-x="298" 
d="M270 483v-77l-76 -59v-347h-90v277l-74 -58v77l74 58v346h90v-276z" />
    <glyph glyph-name="Nacute" unicode="&#x143;" horiz-adv-x="699" 
d="M311 756l63 108h100l-89 -108h-74zM83 0v700h97l263 -423q31 -49 88 -158h1q-5 97 -5 178v403h89v-700h-102l-260 423q-32 52 -86 158h-1q5 -112 5 -178v-403h-89z" />
    <glyph glyph-name="nacute" unicode="&#x144;" horiz-adv-x="559" 
d="M395 700l-92 -127h-74l65 127h101zM459 456q39 -42 39 -159v-297h-93v292q0 32 -1 46t-8 35t-21 35q-29 29 -89 29q-21 0 -40 -5.5t-41 -20.5t-35.5 -50t-13.5 -85v-276h-90v500h90v-76q39 88 154 88q96 0 149 -56z" />
    <glyph glyph-name="uni0145" unicode="&#x145;" horiz-adv-x="699" 
d="M83 0v700h97l263 -423q31 -49 88 -158h1q-5 97 -5 178v403h89v-700h-102l-260 423q-32 52 -86 158h-1q5 -112 5 -178v-403h-89zM304 -237v39q48 6 48 47h-47v85h95v-79q0 -87 -96 -92z" />
    <glyph glyph-name="uni0146" unicode="&#x146;" horiz-adv-x="559" 
d="M459 456q39 -42 39 -159v-297h-93v292q0 32 -1 46t-8 35t-21 35q-29 29 -89 29q-21 0 -40 -5.5t-41 -20.5t-35.5 -50t-13.5 -85v-276h-90v500h90v-76q39 88 154 88q96 0 149 -56zM235 -151v85h95v-79q0 -87 -96 -92v39q48 6 48 47h-47z" />
    <glyph glyph-name="Ncaron" unicode="&#x147;" horiz-adv-x="699" 
d="M217 857h75l58 -56l56 56h80l-93 -101h-83zM83 0v700h97l263 -423q31 -49 88 -158h1q-5 97 -5 178v403h89v-700h-102l-260 423q-32 52 -86 158h-1q5 -112 5 -178v-403h-89z" />
    <glyph glyph-name="ncaron" unicode="&#x148;" horiz-adv-x="559" 
d="M323 585h-83l-93 101h75l58 -56l56 56h80zM459 456q39 -42 39 -159v-297h-93v292q0 32 -1 46t-8 35t-21 35q-29 29 -89 29q-21 0 -40 -5.5t-41 -20.5t-35.5 -50t-13.5 -85v-276h-90v500h90v-76q39 88 154 88q96 0 149 -56z" />
    <glyph glyph-name="Eng" unicode="&#x14a;" horiz-adv-x="699" 
d="M430 -172q-31 0 -49 5v78q16 -2 34 -2q48 0 76.5 24t28.5 63l-266 427q-34 56 -86 158h-1q5 -112 5 -178v-403h-89v700h97l263 -416q31 -49 88 -158h1q-5 97 -5 178v396h89v-700q0 -79 -41 -121q-49 -51 -145 -51z" />
    <glyph glyph-name="eng" unicode="&#x14b;" horiz-adv-x="559" 
d="M459 456q39 -42 39 -159v-349q0 -67 -40 -99q-29 -23 -86 -23q-16 0 -49 5v70q13 -3 30 -3q26 1 39 12.5t13 37.5v344q0 32 -1 46t-8 35t-21 35q-29 29 -89 29q-21 0 -40 -5.5t-41 -20.5t-35.5 -50t-13.5 -85v-276h-90v500h90v-76q39 88 154 88q96 0 149 -56z" />
    <glyph glyph-name="Omacron" unicode="&#x14c;" horiz-adv-x="746" 
d="M248 768v70h256v-70h-256zM374 -12q-159 0 -245.5 94t-86.5 268q0 163 87 262.5t245 99.5q156 0 243.5 -100t87.5 -262q0 -164 -87.5 -263t-243.5 -99zM374 66q121 0 175 78q54 77 54 206q0 128 -54 205q-55 79 -171 79q-123 0 -181 -75q-53 -70 -53 -209q0 -141 50 -206
q61 -78 180 -78z" />
    <glyph glyph-name="omacron" unicode="&#x14d;" horiz-adv-x="571" 
d="M160 597v70h256v-70h-256zM286 -12q-117 0 -183.5 70t-66.5 192q0 116 68 189t182 73q113 0 181 -73.5t68 -188.5q0 -118 -68.5 -190t-180.5 -72zM286 59q81 0 116.5 49t35.5 142t-35.5 142t-116.5 49q-83 0 -118 -48.5t-35 -142.5t35 -142.5t118 -48.5z" />
    <glyph glyph-name="Obreve" unicode="&#x14e;" horiz-adv-x="746" 
d="M376 750q-50 0 -84.5 31.5t-36.5 83.5h62q7 -50 58 -50q55 0 62 50h60q-2 -49 -36 -82t-85 -33zM374 -12q-159 0 -245.5 94t-86.5 268q0 163 87 262.5t245 99.5q156 0 243.5 -100t87.5 -262q0 -164 -87.5 -263t-243.5 -99zM374 66q121 0 175 78q54 77 54 206
q0 128 -54 205q-55 79 -171 79q-123 0 -181 -75q-53 -70 -53 -209q0 -141 50 -206q61 -78 180 -78z" />
    <glyph glyph-name="obreve" unicode="&#x14f;" horiz-adv-x="571" 
d="M288 585q-50 0 -84.5 31.5t-36.5 83.5h62q7 -50 58 -50q55 0 62 50h60q-2 -49 -36 -82t-85 -33zM286 -12q-117 0 -183.5 70t-66.5 192q0 116 68 189t182 73q113 0 181 -73.5t68 -188.5q0 -118 -68.5 -190t-180.5 -72zM286 59q81 0 116.5 49t35.5 142t-35.5 142t-116.5 49
q-83 0 -118 -48.5t-35 -142.5t35 -142.5t118 -48.5z" />
    <glyph glyph-name="Ohungarumlaut" unicode="&#x150;" horiz-adv-x="746" 
d="M270 756l33 109h82l-54 -109h-61zM395 756l33 109h82l-54 -109h-61zM374 -12q-159 0 -245.5 94t-86.5 268q0 163 87 262.5t245 99.5q156 0 243.5 -100t87.5 -262q0 -164 -87.5 -263t-243.5 -99zM374 66q121 0 175 78q54 77 54 206q0 128 -54 205q-55 79 -171 79
q-123 0 -181 -75q-53 -70 -53 -209q0 -141 50 -206q61 -78 180 -78z" />
    <glyph glyph-name="ohungarumlaut" unicode="&#x151;" horiz-adv-x="571" 
d="M189 573l31 127h82l-52 -127h-61zM314 573l31 127h82l-52 -127h-61zM286 -12q-117 0 -183.5 70t-66.5 192q0 116 68 189t182 73q113 0 181 -73.5t68 -188.5q0 -118 -68.5 -190t-180.5 -72zM286 59q81 0 116.5 49t35.5 142t-35.5 142t-116.5 49q-83 0 -118 -48.5
t-35 -142.5t35 -142.5t118 -48.5z" />
    <glyph glyph-name="OE" unicode="&#x152;" horiz-adv-x="1024" 
d="M977 619h-362v-225h325v-81h-325v-232h362v-81h-452v70q-24 -32 -73 -57t-114 -25q-137 0 -216.5 99.5t-79.5 262.5q0 162 81 262t220 100q70 0 119 -29t63 -58v75h452v-81zM347 65q70 0 124 41.5t54 98.5v296q-7 57 -58.5 94.5t-116.5 37.5q-103 0 -158 -79
q-48 -71 -48 -204q0 -139 48 -207q56 -78 155 -78z" />
    <glyph glyph-name="oe" unicode="&#x153;" horiz-adv-x="916" 
d="M880 248q0 -4 -0.5 -12.5t-0.5 -12.5h-362q3 -163 136 -163q121 0 136 112l83 -7q-32 -177 -218 -177q-130 0 -190 98q-65 -98 -190 -98q-111 0 -174 70t-63 192q0 116 64 189t173 73q127 0 191 -101q64 101 188 101q57 0 106 -25t78 -70q43 -67 43 -169zM274 59
q76 0 109.5 49t33.5 142t-33.5 142t-109.5 49q-78 0 -111.5 -48.5t-33.5 -142.5t33 -142.5t112 -48.5zM518 296h273q-2 50 -26 89q-34 54 -111 54q-82 0 -113 -54q-23 -40 -23 -89z" />
    <glyph glyph-name="Racute" unicode="&#x154;" horiz-adv-x="662" 
d="M435 864l-89 -108h-74l63 108h100zM579 175q0 -66 8 -103.5t32 -68.5l-1 -3h-99q-18 27 -24 60t-6 105q0 70 -34.5 97.5t-125.5 27.5h-156v-290h-90v700h237q44 0 77 -3t73 -15t65.5 -33t43 -60.5t17.5 -94.5q0 -63 -30.5 -109t-77.5 -62q91 -34 91 -148zM319 367
q40 0 67 3.5t58 14.5t47 37.5t16 67.5q0 38 -12.5 64.5t-28 39.5t-45 19.5t-48 7.5t-53.5 1h-147v-255h146z" />
    <glyph glyph-name="racute" unicode="&#x155;" horiz-adv-x="353" 
d="M307 700l-92 -127h-74l65 127h101zM312 511q7 1 33 1l-2 -85q-6 1 -23 1q-81 0 -122.5 -39.5t-41.5 -151.5v-237h-90v500h90v-88q11 38 54 66.5t102 32.5z" />
    <glyph glyph-name="uni0156" unicode="&#x156;" horiz-adv-x="662" 
d="M579 175q0 -66 8 -103.5t32 -68.5l-1 -3h-99q-18 27 -24 60t-6 105q0 70 -34.5 97.5t-125.5 27.5h-156v-290h-90v700h237q44 0 77 -3t73 -15t65.5 -33t43 -60.5t17.5 -94.5q0 -63 -30.5 -109t-77.5 -62q91 -34 91 -148zM319 367q40 0 67 3.5t58 14.5t47 37.5t16 67.5
q0 38 -12.5 64.5t-28 39.5t-45 19.5t-48 7.5t-53.5 1h-147v-255h146zM299 -151v85h95v-79q0 -87 -96 -92v39q48 6 48 47h-47z" />
    <glyph glyph-name="uni0157" unicode="&#x157;" horiz-adv-x="353" 
d="M312 511q7 1 33 1l-2 -85q-6 1 -23 1q-81 0 -122.5 -39.5t-41.5 -151.5v-237h-90v500h90v-88q11 38 54 66.5t102 32.5zM64 -151v85h95v-79q0 -87 -96 -92v39q48 6 48 47h-47z" />
    <glyph glyph-name="Rcaron" unicode="&#x158;" horiz-adv-x="662" 
d="M354 756h-83l-93 101h75l58 -56l56 56h80zM579 175q0 -66 8 -103.5t32 -68.5l-1 -3h-99q-18 27 -24 60t-6 105q0 70 -34.5 97.5t-125.5 27.5h-156v-290h-90v700h237q44 0 77 -3t73 -15t65.5 -33t43 -60.5t17.5 -94.5q0 -63 -30.5 -109t-77.5 -62q91 -34 91 -148zM319 367
q40 0 67 3.5t58 14.5t47 37.5t16 67.5q0 38 -12.5 64.5t-28 39.5t-45 19.5t-48 7.5t-53.5 1h-147v-255h146z" />
    <glyph glyph-name="rcaron" unicode="&#x159;" horiz-adv-x="353" 
d="M226 585h-83l-93 101h75l58 -56l56 56h80zM312 511q7 1 33 1l-2 -85q-6 1 -23 1q-81 0 -122.5 -39.5t-41.5 -151.5v-237h-90v500h90v-88q11 38 54 66.5t102 32.5z" />
    <glyph glyph-name="Sacute" unicode="&#x15a;" horiz-adv-x="639" 
d="M283 756l63 108h100l-89 -108h-74zM323 -12q-124 0 -206.5 62t-82.5 178l96 10q0 -82 53 -128t137 -46q191 0 191 133q0 28 -12.5 47t-39.5 30.5t-50 17t-64.5 13t-62.5 12.5q-50 12 -83.5 24t-70.5 34t-56 57t-19 83q0 51 22.5 90.5t59.5 62t79 33.5t87 11
q118 0 193 -53t86 -170l-94 -17q-1 78 -50.5 121.5t-136.5 43.5q-58 0 -105.5 -30.5t-47.5 -87.5q0 -28 17 -49.5t49 -34.5t62.5 -20.5t72.5 -14.5q51 -8 81.5 -14.5t68.5 -21t58.5 -33.5t35 -51.5t14.5 -75.5q0 -61 -24.5 -105t-66.5 -67t-89 -33.5t-102 -10.5z" />
    <glyph glyph-name="sacute" unicode="&#x15b;" horiz-adv-x="487" 
d="M202 573l65 127h101l-92 -127h-74zM246 -12q-91 0 -152 44t-60 132l82 8q-1 -52 34 -82.5t94 -30.5q123 0 123 81q0 16 -9 28t-29 20.5t-35.5 13t-45 11t-42.5 9.5q-38 10 -60.5 18t-49 24t-39 41.5t-12.5 60.5q0 72 55 109t130 37q87 0 144 -39t65 -125l-84 -13
q-1 52 -34 79t-92 27q-40 0 -70 -18.5t-30 -50.5q0 -16 9 -28t29.5 -20.5t36 -12.5t45.5 -11q103 -22 137 -41q66 -36 66 -114q0 -58 -31.5 -94.5t-75 -49.5t-99.5 -13z" />
    <glyph glyph-name="Scircumflex" unicode="&#x15c;" horiz-adv-x="639" 
d="M185 756l93 101h83l93 -101h-80l-56 56l-58 -56h-75zM323 -12q-124 0 -206.5 62t-82.5 178l96 10q0 -82 53 -128t137 -46q191 0 191 133q0 28 -12.5 47t-39.5 30.5t-50 17t-64.5 13t-62.5 12.5q-50 12 -83.5 24t-70.5 34t-56 57t-19 83q0 51 22.5 90.5t59.5 62t79 33.5
t87 11q118 0 193 -53t86 -170l-94 -17q-1 78 -50.5 121.5t-136.5 43.5q-58 0 -105.5 -30.5t-47.5 -87.5q0 -28 17 -49.5t49 -34.5t62.5 -20.5t72.5 -14.5q51 -8 81.5 -14.5t68.5 -21t58.5 -33.5t35 -51.5t14.5 -75.5q0 -61 -24.5 -105t-66.5 -67t-89 -33.5t-102 -10.5z" />
    <glyph glyph-name="scircumflex" unicode="&#x15d;" horiz-adv-x="487" 
d="M108 585l93 101h83l93 -101h-80l-56 56l-58 -56h-75zM246 -12q-91 0 -152 44t-60 132l82 8q-1 -52 34 -82.5t94 -30.5q123 0 123 81q0 16 -9 28t-29 20.5t-35.5 13t-45 11t-42.5 9.5q-38 10 -60.5 18t-49 24t-39 41.5t-12.5 60.5q0 72 55 109t130 37q87 0 144 -39
t65 -125l-84 -13q-1 52 -34 79t-92 27q-40 0 -70 -18.5t-30 -50.5q0 -16 9 -28t29.5 -20.5t36 -12.5t45.5 -11q103 -22 137 -41q66 -36 66 -114q0 -58 -31.5 -94.5t-75 -49.5t-99.5 -13z" />
    <glyph glyph-name="Scedilla" unicode="&#x15e;" horiz-adv-x="639" 
d="M605 204q0 -56 -21 -98t-58 -66t-79.5 -36t-93.5 -15l-40 -39q5 1 18 1q35 0 63.5 -18t28.5 -51q0 -46 -35.5 -67.5t-83.5 -21.5q-52 0 -99 27l20 41q39 -16 73 -16q54 0 54 32q0 30 -51 30q-17 0 -43 -9l-20 25l58 66q-114 6 -188 68t-74 171l96 10q0 -82 53 -128
t137 -46q191 0 191 133q0 28 -12.5 47t-39.5 30.5t-50 17t-64.5 13t-62.5 12.5q-50 12 -83.5 24t-70.5 34t-56 57t-19 83q0 51 22.5 90.5t59.5 62t79 33.5t87 11q118 0 193 -53t86 -170l-94 -17q-1 78 -50.5 121.5t-136.5 43.5q-58 0 -105.5 -30.5t-47.5 -87.5
q0 -28 17 -49.5t49 -34.5t62.5 -20.5t72.5 -14.5q51 -8 81.5 -14.5t68.5 -21t58.5 -33.5t35 -51.5t14.5 -75.5z" />
    <glyph glyph-name="scedilla" unicode="&#x15f;" horiz-adv-x="487" 
d="M452 145q0 -76 -49.5 -113t-126.5 -43l-41 -39q5 1 18 1q35 0 63.5 -18t28.5 -51q0 -46 -35.5 -67.5t-83.5 -21.5q-52 0 -99 27l20 41q39 -16 73 -16q54 0 54 32q0 30 -51 30q-17 0 -43 -9l-20 25l58 66q-81 6 -133 50t-51 125l82 8q-1 -52 34 -82.5t94 -30.5
q123 0 123 81q0 16 -9 28t-29 20.5t-35.5 13t-45 11t-42.5 9.5q-38 10 -60.5 18t-49 24t-39 41.5t-12.5 60.5q0 72 55 109t130 37q87 0 144 -39t65 -125l-84 -13q-1 52 -34 79t-92 27q-40 0 -70 -18.5t-30 -50.5q0 -16 9 -28t29.5 -20.5t36 -12.5t45.5 -11q103 -22 137 -41
q66 -36 66 -114z" />
    <glyph glyph-name="Scaron" unicode="&#x160;" horiz-adv-x="639" 
d="M189 857h75l58 -56l56 56h80l-93 -101h-83zM323 -12q-124 0 -206.5 62t-82.5 178l96 10q0 -82 53 -128t137 -46q191 0 191 133q0 28 -12.5 47t-39.5 30.5t-50 17t-64.5 13t-62.5 12.5q-50 12 -83.5 24t-70.5 34t-56 57t-19 83q0 51 22.5 90.5t59.5 62t79 33.5t87 11
q118 0 193 -53t86 -170l-94 -17q-1 78 -50.5 121.5t-136.5 43.5q-58 0 -105.5 -30.5t-47.5 -87.5q0 -28 17 -49.5t49 -34.5t62.5 -20.5t72.5 -14.5q51 -8 81.5 -14.5t68.5 -21t58.5 -33.5t35 -51.5t14.5 -75.5q0 -61 -24.5 -105t-66.5 -67t-89 -33.5t-102 -10.5z" />
    <glyph glyph-name="scaron" unicode="&#x161;" horiz-adv-x="487" 
d="M111 686h75l58 -56l56 56h80l-93 -101h-83zM246 -12q-91 0 -152 44t-60 132l82 8q-1 -52 34 -82.5t94 -30.5q123 0 123 81q0 16 -9 28t-29 20.5t-35.5 13t-45 11t-42.5 9.5q-38 10 -60.5 18t-49 24t-39 41.5t-12.5 60.5q0 72 55 109t130 37q87 0 144 -39t65 -125l-84 -13
q-1 52 -34 79t-92 27q-40 0 -70 -18.5t-30 -50.5q0 -16 9 -28t29.5 -20.5t36 -12.5t45.5 -11q103 -22 137 -41q66 -36 66 -114q0 -58 -31.5 -94.5t-75 -49.5t-99.5 -13z" />
    <glyph glyph-name="uni0162" unicode="&#x162;" horiz-adv-x="573" 
d="M332 0h-13l-52 -50q5 1 18 1q35 0 63.5 -18t28.5 -51q0 -46 -35.5 -67.5t-83.5 -21.5q-52 0 -99 27l20 41q39 -16 73 -16q54 0 54 32q0 30 -51 30q-17 0 -43 -9l-20 25l68 77h-19v621h-233v79h557v-79h-233v-621z" />
    <glyph glyph-name="uni0163" unicode="&#x163;" horiz-adv-x="307" 
d="M203 -49q35 0 63.5 -18t28.5 -51q0 -46 -35.5 -67.5t-83.5 -21.5q-52 0 -99 27l20 41q39 -16 73 -16q54 0 54 32q0 30 -51 30q-17 0 -43 -9l-20 25l67 77q-83 17 -83 112v313h-72v75h72v139h89v-139h102v-75h-102v-310q0 -24 11.5 -31.5t40.5 -7.5q18 0 46 5l2 -81
q-30 -5 -51 -5l-47 -45q5 1 18 1z" />
    <glyph glyph-name="Tcaron" unicode="&#x164;" horiz-adv-x="573" 
d="M153 857h75l58 -56l56 56h80l-93 -101h-83zM241 0v621h-233v79h557v-79h-233v-621h-91z" />
    <glyph glyph-name="tcaron" unicode="&#x165;" horiz-adv-x="307" 
d="M243 548v37q46 6 46 45h-45v80h91v-75q0 -82 -92 -87zM228 -5q-70 0 -102 28t-32 89v313h-72v75h72v139h89v-139h102v-75h-102v-310q0 -24 11.5 -31.5t40.5 -7.5q18 0 46 5l2 -81q-33 -5 -55 -5z" />
    <glyph glyph-name="Tbar" unicode="&#x166;" horiz-adv-x="589" 
d="M573 621h-233v-219h141v-74h-141v-328h-91v328h-140v74h140v219h-233v79h557v-79z" />
    <glyph glyph-name="tbar" unicode="&#x167;" horiz-adv-x="314" 
d="M288 425h-102v-89h102v-75h-102v-146q0 -24 11.5 -31.5t40.5 -7.5q18 0 46 5l2 -81q-32 -5 -55 -5q-70 0 -102 28t-32 89v149h-71v75h71v89h-72v75h72v139h89v-139h102v-75z" />
    <glyph glyph-name="Utilde" unicode="&#x168;" horiz-adv-x="699" 
d="M408 753q-31 0 -65.5 20.5t-51.5 20.5q-36 0 -41 -38h-55q0 42 27 70q29 31 75 31q27 0 62 -21t49 -21q10 0 16 2t10.5 9.5t6 10.5t5.5 15h59q-7 -51 -30 -73q-27 -26 -67 -26zM349 -12q-133 0 -203 62.5t-70 180.5v469h91v-469q0 -79 52 -121t130 -42t130.5 42t52.5 121
v469h91v-469q0 -118 -70.5 -180.5t-203.5 -62.5z" />
    <glyph glyph-name="utilde" unicode="&#x169;" horiz-adv-x="559" 
d="M221 611q-36 0 -41 -38h-55q0 41 27 70q29 31 75 31q27 0 62 -21t49 -21q10 0 16 2t10.5 9.5t6 10.5t5.5 15h59q-7 -51 -30 -73q-27 -26 -67 -26q-31 0 -65.5 20.5t-51.5 20.5zM403 500h90v-500h-90v75q-41 -87 -154 -87q-95 0 -148 56q-18 19 -27.5 49t-11 51.5
t-1.5 56.5v299h93v-294q0 -31 1 -45t7.5 -34.5t20.5 -34.5q30 -29 91 -29q129 0 129 156v281z" />
    <glyph glyph-name="Umacron" unicode="&#x16a;" horiz-adv-x="699" 
d="M222 768v70h256v-70h-256zM349 -12q-133 0 -203 62.5t-70 180.5v469h91v-469q0 -79 52 -121t130 -42t130.5 42t52.5 121v469h91v-469q0 -118 -70.5 -180.5t-203.5 -62.5z" />
    <glyph glyph-name="umacron" unicode="&#x16b;" horiz-adv-x="559" 
d="M408 667v-70h-256v70h256zM403 500h90v-500h-90v75q-41 -87 -154 -87q-95 0 -148 56q-18 19 -27.5 49t-11 51.5t-1.5 56.5v299h93v-294q0 -31 1 -45t7.5 -34.5t20.5 -34.5q30 -29 91 -29q129 0 129 156v281z" />
    <glyph glyph-name="Ubreve" unicode="&#x16c;" horiz-adv-x="699" 
d="M350 750q-50 0 -84.5 31.5t-36.5 83.5h62q7 -50 58 -50q55 0 62 50h60q-2 -49 -36 -82t-85 -33zM349 -12q-133 0 -203 62.5t-70 180.5v469h91v-469q0 -79 52 -121t130 -42t130.5 42t52.5 121v469h91v-469q0 -118 -70.5 -180.5t-203.5 -62.5z" />
    <glyph glyph-name="ubreve" unicode="&#x16d;" horiz-adv-x="559" 
d="M280 585q-50 0 -84.5 31.5t-36.5 83.5h62q7 -50 58 -50q55 0 62 50h60q-2 -49 -36 -82t-85 -33zM403 500h90v-500h-90v75q-41 -87 -154 -87q-95 0 -148 56q-18 19 -27.5 49t-11 51.5t-1.5 56.5v299h93v-294q0 -31 1 -45t7.5 -34.5t20.5 -34.5q30 -29 91 -29
q129 0 129 156v281z" />
    <glyph glyph-name="Uring" unicode="&#x16e;" horiz-adv-x="699" 
d="M350 739q-40 0 -68 27t-28 65t28 65t68 27t68 -27t28 -65t-28 -65t-68 -27zM350 777q23 0 36.5 15t13.5 39q0 22 -13.5 37.5t-36.5 15.5q-22 0 -36.5 -15.5t-14.5 -37.5q0 -23 14.5 -38.5t36.5 -15.5zM349 -12q-133 0 -203 62.5t-70 180.5v469h91v-469q0 -79 52 -121
t130 -42t130.5 42t52.5 121v469h91v-469q0 -118 -70.5 -180.5t-203.5 -62.5z" />
    <glyph glyph-name="uring" unicode="&#x16f;" horiz-adv-x="559" 
d="M280 553q-40 0 -68 27t-28 65t28 65t68 27t68 -27t28 -65t-28 -65t-68 -27zM280 698q-22 0 -36.5 -15.5t-14.5 -37.5q0 -23 14.5 -38.5t36.5 -15.5q23 0 36.5 15t13.5 39q0 22 -13.5 37.5t-36.5 15.5zM403 500h90v-500h-90v75q-41 -87 -154 -87q-95 0 -148 56
q-18 19 -27.5 49t-11 51.5t-1.5 56.5v299h93v-294q0 -31 1 -45t7.5 -34.5t20.5 -34.5q30 -29 91 -29q129 0 129 156v281z" />
    <glyph glyph-name="Uhungarumlaut" unicode="&#x170;" horiz-adv-x="699" 
d="M244 756l33 109h82l-54 -109h-61zM369 756l33 109h82l-54 -109h-61zM349 -12q-133 0 -203 62.5t-70 180.5v469h91v-469q0 -79 52 -121t130 -42t130.5 42t52.5 121v469h91v-469q0 -118 -70.5 -180.5t-203.5 -62.5z" />
    <glyph glyph-name="uhungarumlaut" unicode="&#x171;" horiz-adv-x="559" 
d="M294 700l-52 -127h-61l31 127h82zM419 700l-52 -127h-61l31 127h82zM403 500h90v-500h-90v75q-41 -87 -154 -87q-95 0 -148 56q-18 19 -27.5 49t-11 51.5t-1.5 56.5v299h93v-294q0 -31 1 -45t7.5 -34.5t20.5 -34.5q30 -29 91 -29q129 0 129 156v281z" />
    <glyph glyph-name="Uogonek" unicode="&#x172;" horiz-adv-x="699" 
d="M532 700h91v-469q0 -94 -45.5 -153.5t-132.5 -79.5q-48 -12 -77.5 -35t-29.5 -47q0 -33 41 -33q21 0 38 7l3 -62q-29 -9 -56 -9q-52 0 -78 23.5t-26 60.5q0 47 62 86q-120 6 -183 68t-63 174v469h91v-469q0 -79 52 -121t130 -42t130.5 42t52.5 121v469z" />
    <glyph glyph-name="uogonek" unicode="&#x173;" horiz-adv-x="559" 
d="M512 -110l3 -63q-26 -8 -56 -8q-52 0 -78 23.5t-26 60.5q0 57 75 97h-27v75q-41 -87 -154 -87q-95 0 -148 56q-18 19 -27.5 49t-11 51.5t-1.5 56.5v299h93v-294q0 -31 1 -45t7.5 -34.5t20.5 -34.5q30 -29 91 -29q129 0 129 156v281h90v-500q-60 -49 -60 -84q0 -33 41 -33
q20 0 38 7z" />
    <glyph glyph-name="Wcircumflex" unicode="&#x174;" horiz-adv-x="901" 
d="M319 756l93 101h83l93 -101h-80l-56 56l-58 -56h-75zM195 0l-182 700h96l97 -421q12 -52 19 -83.5t11.5 -53t7.5 -35.5h1q23 89 45 172l115 421h92l117 -421q21 -76 45 -172h1q17 83 37 172l95 421h96l-182 -700h-95l-118 412q-19 66 -43 162h-1q-22 -91 -42 -163
l-116 -411h-96z" />
    <glyph glyph-name="wcircumflex" unicode="&#x175;" horiz-adv-x="730" 
d="M230 585l93 101h83l93 -101h-80l-56 56l-58 -56h-75zM174 0l-167 500h97l78 -267q11 -38 40 -147q24 108 34 147l67 267h84l66 -267q12 -48 33 -147q26 99 40 147l80 267h97l-167 -500h-97l-67 258q-8 28 -28 131q-18 -93 -27 -131l-65 -258h-98z" />
    <glyph glyph-name="Ycircumflex" unicode="&#x176;" horiz-adv-x="605" 
d="M169 756l93 101h83l93 -101h-80l-56 56l-58 -56h-75zM257 0v299l-251 401h105l118 -200q32 -54 73 -129q44 79 73 129l118 200h106l-251 -401v-299h-91z" />
    <glyph glyph-name="ycircumflex" unicode="&#x177;" horiz-adv-x="483" 
d="M242 641l-58 -56h-75l93 101h83l93 -101h-80zM383 500h94l-204 -546q-32 -86 -64 -122.5t-82 -36.5q-40 0 -76 10l2 84q33 -11 62 -11q26 0 42.5 26.5t44.5 99.5l-195 496h96l95 -270q15 -44 44 -133q23 70 45 133z" />
    <glyph glyph-name="Ydieresis" unicode="&#x178;" horiz-adv-x="605" 
d="M172 756v97h82v-97h-82zM355 756v97h82v-97h-82zM257 0v299l-251 401h105l118 -200q32 -54 73 -129q44 79 73 129l118 200h106l-251 -401v-299h-91z" />
    <glyph glyph-name="Zacute" unicode="&#x179;" horiz-adv-x="589" 
d="M263 756l63 108h100l-89 -108h-74zM20 0v67l330 434q33 44 96 118v1q-15 0 -41.5 -1t-49 -1.5t-43.5 -0.5h-262v83h505v-67l-335 -444q-39 -52 -86 -108v-1q74 3 151 3h277v-83h-542z" />
    <glyph glyph-name="zacute" unicode="&#x17a;" horiz-adv-x="463" 
d="M187 573l65 127h101l-92 -127h-74zM27 0v70l238 290q19 23 56 64v1q-58 -2 -84 -2h-194v77h381v-62l-232 -286q-17 -22 -63 -74v-1h311v-77h-413z" />
    <glyph glyph-name="Zdotaccent" unicode="&#x17b;" horiz-adv-x="589" 
d="M259 756v106h90v-106h-90zM20 0v67l330 434q33 44 96 118v1q-15 0 -41.5 -1t-49 -1.5t-43.5 -0.5h-262v83h505v-67l-335 -444q-39 -52 -86 -108v-1q74 3 151 3h277v-83h-542z" />
    <glyph glyph-name="zdotaccent" unicode="&#x17c;" horiz-adv-x="463" 
d="M186 594v106h90v-106h-90zM27 0v70l238 290q19 23 56 64v1q-58 -2 -84 -2h-194v77h381v-62l-232 -286q-17 -22 -63 -74v-1h311v-77h-413z" />
    <glyph glyph-name="Zcaron" unicode="&#x17d;" horiz-adv-x="589" 
d="M169 857h75l58 -56l56 56h80l-93 -101h-83zM20 0v67l330 434q33 44 96 118v1q-15 0 -41.5 -1t-49 -1.5t-43.5 -0.5h-262v83h505v-67l-335 -444q-39 -52 -86 -108v-1q74 3 151 3h277v-83h-542z" />
    <glyph glyph-name="zcaron" unicode="&#x17e;" horiz-adv-x="463" 
d="M96 686h75l58 -56l56 56h80l-93 -101h-83zM27 0v70l238 290q19 23 56 64v1q-58 -2 -84 -2h-194v77h381v-62l-232 -286q-17 -22 -63 -74v-1h311v-77h-413z" />
    <glyph glyph-name="florin" unicode="&#x192;" horiz-adv-x="458" 
d="M382 706q24 0 51 -3l-2 -78q-26 2 -36 2q-43 0 -62.5 -15t-24.5 -52l-21 -149h103v-75h-114l-57 -406q-9 -65 -40 -96t-101 -31q-25 0 -52 3l2 75q8 -1 22 -1q32 0 50 12.5t23 44.5l58 399h-100v75h111l23 161q9 60 38 92q39 42 129 42z" />
    <glyph glyph-name="uni01E2" unicode="&#x1e2;" horiz-adv-x="929" 
d="M731 838v-70h-256v70h256zM882 619h-362v-225h325v-81h-325v-232h362v-81h-452v209h-240l-101 -209h-102l352 700h543v-81zM430 289v330h-40l-161 -330h201z" />
    <glyph glyph-name="uni01E3" unicode="&#x1e3;" horiz-adv-x="869" 
d="M562 667v-70h-256v70h256zM833 247q0 -16 -1 -24h-366q3 -163 137 -163q123 0 138 112l84 -7q-32 -177 -221 -177q-123 0 -187 95q-57 -95 -200 -95q-47 0 -85.5 12t-67.5 45.5t-29 86.5q0 38 15 67t42 45.5t53 25.5t60 15l165 32q0 67 -17 91q-23 33 -91 33
q-65 0 -94.5 -26t-27.5 -82l-88 12q3 90 62 130q56 37 153 37q119 0 166 -77q66 77 170 77q57 0 107 -25t80 -70q43 -68 43 -170zM467 296h276q-2 53 -26 89q-36 54 -113 54q-83 0 -114 -54q-23 -40 -23 -89zM370 189v61l-151 -33q-47 -11 -69.5 -28t-22.5 -56
q0 -34 26 -53.5t64 -19.5q78 0 115.5 35.5t37.5 93.5z" />
    <glyph glyph-name="Aringacute" unicode="&#x1fa;" horiz-adv-x="648" 
d="M442 1043l-81 -98h-74l57 98h98zM323 739q-40 0 -68 27t-28 65t28 65t68 27t68 -27t28 -65t-28 -65t-68 -27zM323 884q-22 0 -36.5 -15.5t-14.5 -37.5q0 -23 14.5 -38.5t36.5 -15.5q23 0 36.5 15t13.5 39q0 22 -13.5 37.5t-36.5 15.5zM550 0l-78 209h-297l-77 -209h-96
l274 700h96l273 -700h-95zM205 289h237l-79 211q-20 52 -40 113h-1q-17 -53 -39 -113z" />
    <glyph glyph-name="aringacute" unicode="&#x1fb;" horiz-adv-x="540" 
d="M394 886l-92 -127h-74l65 127h101zM264 553q-40 0 -68 27t-28 65t28 65t68 27t68 -27t28 -65t-28 -65t-68 -27zM264 698q-22 0 -36.5 -15.5t-14.5 -37.5q0 -23 14.5 -38.5t36.5 -15.5q23 0 36.5 15t13.5 39q0 22 -13.5 37.5t-36.5 15.5zM520 74l2 -74q-25 -4 -56 -4
q-82 0 -90 78q-42 -86 -168 -86q-69 0 -118.5 37.5t-49.5 106.5q0 39 14.5 67t41.5 45t53 25.5t61 15.5l165 32q0 67 -17 91q-23 33 -91 33q-65 0 -93.5 -25.5t-28.5 -82.5l-88 12q3 91 62 130q55 37 153 37q190 0 190 -165v-239q0 -16 1 -22t7.5 -11t20.5 -5q12 0 29 4z
M375 189v61l-151 -33q-47 -11 -69.5 -28t-22.5 -56q0 -34 26 -53.5t64 -19.5q78 0 115.5 35.5t37.5 93.5z" />
    <glyph glyph-name="AEacute" unicode="&#x1fc;" horiz-adv-x="929" 
d="M725 864l-89 -108h-74l63 108h100zM882 619h-362v-225h325v-81h-325v-232h362v-81h-452v209h-240l-101 -209h-102l352 700h543v-81zM430 289v330h-40l-161 -330h201z" />
    <glyph glyph-name="aeacute" unicode="&#x1fd;" horiz-adv-x="869" 
d="M564 700l-92 -127h-74l65 127h101zM833 247q0 -16 -1 -24h-366q3 -163 137 -163q123 0 138 112l84 -7q-32 -177 -221 -177q-123 0 -187 95q-57 -95 -200 -95q-47 0 -85.5 12t-67.5 45.5t-29 86.5q0 38 15 67t42 45.5t53 25.5t60 15l165 32q0 67 -17 91q-23 33 -91 33
q-65 0 -94.5 -26t-27.5 -82l-88 12q3 90 62 130q56 37 153 37q119 0 166 -77q66 77 170 77q57 0 107 -25t80 -70q43 -68 43 -170zM467 296h276q-2 53 -26 89q-36 54 -113 54q-83 0 -114 -54q-23 -40 -23 -89zM370 189v61l-151 -33q-47 -11 -69.5 -28t-22.5 -56
q0 -34 26 -53.5t64 -19.5q78 0 115.5 35.5t37.5 93.5z" />
    <glyph glyph-name="Oslashacute" unicode="&#x1fe;" horiz-adv-x="760" 
d="M505 864l-89 -108h-74l63 108h100zM723 674l-80 -86q69 -95 69 -238q0 -164 -87.5 -263t-243.5 -99q-143 0 -227 75l-76 -81l-41 36l80 86q-68 91 -68 246q0 163 87 262.5t245 99.5q138 0 225 -81l76 81zM151 350q0 -108 32 -175l364 392q-55 67 -162 67q-123 0 -181 -75
q-53 -70 -53 -209zM610 350q0 101 -32 168l-363 -390q60 -62 166 -62q121 0 175 78q54 77 54 206z" />
    <glyph glyph-name="oslashacute" unicode="&#x1ff;" horiz-adv-x="577" 
d="M414 700l-92 -127h-74l65 127h101zM481 428q58 -72 58 -178q0 -118 -68.5 -190t-180.5 -72q-104 0 -168 55l-53 -57l-32 29l55 59q-52 67 -52 176q0 116 68 189t182 73q93 0 160 -53l56 60l32 -30zM137 250q0 -68 17 -110l244 263q-38 38 -108 38q-83 0 -118 -48.5
t-35 -142.5zM290 59q81 0 116.5 49t35.5 142q0 72 -20 115l-245 -263q37 -43 113 -43z" />
    <glyph glyph-name="uni0218" unicode="&#x218;" horiz-adv-x="639" 
d="M323 -12q-124 0 -206.5 62t-82.5 178l96 10q0 -82 53 -128t137 -46q191 0 191 133q0 28 -12.5 47t-39.5 30.5t-50 17t-64.5 13t-62.5 12.5q-50 12 -83.5 24t-70.5 34t-56 57t-19 83q0 51 22.5 90.5t59.5 62t79 33.5t87 11q118 0 193 -53t86 -170l-94 -17
q-1 78 -50.5 121.5t-136.5 43.5q-58 0 -105.5 -30.5t-47.5 -87.5q0 -28 17 -49.5t49 -34.5t62.5 -20.5t72.5 -14.5q51 -8 81.5 -14.5t68.5 -21t58.5 -33.5t35 -51.5t14.5 -75.5q0 -61 -24.5 -105t-66.5 -67t-89 -33.5t-102 -10.5zM276 -237v39q48 6 48 47h-47v85h95v-79
q0 -87 -96 -92z" />
    <glyph glyph-name="uni0219" unicode="&#x219;" horiz-adv-x="487" 
d="M246 -12q-91 0 -152 44t-60 132l82 8q-1 -52 34 -82.5t94 -30.5q123 0 123 81q0 16 -9 28t-29 20.5t-35.5 13t-45 11t-42.5 9.5q-38 10 -60.5 18t-49 24t-39 41.5t-12.5 60.5q0 72 55 109t130 37q87 0 144 -39t65 -125l-84 -13q-1 52 -34 79t-92 27q-40 0 -70 -18.5
t-30 -50.5q0 -16 9 -28t29.5 -20.5t36 -12.5t45.5 -11q103 -22 137 -41q66 -36 66 -114q0 -58 -31.5 -94.5t-75 -49.5t-99.5 -13zM198 -237v39q48 6 48 47h-47v85h95v-79q0 -87 -96 -92z" />
    <glyph glyph-name="uni021A" unicode="&#x21a;" horiz-adv-x="573" 
d="M241 0v621h-233v79h557v-79h-233v-621h-91zM239 -237v39q48 6 48 47h-47v85h95v-79q0 -87 -96 -92z" />
    <glyph glyph-name="uni021B" unicode="&#x21b;" horiz-adv-x="307" 
d="M228 -5q-70 0 -102 28t-32 89v313h-72v75h72v139h89v-139h102v-75h-102v-310q0 -24 11.5 -31.5t40.5 -7.5q18 0 46 5l2 -81q-33 -5 -55 -5zM148 -237v39q48 6 48 47h-47v85h95v-79q0 -87 -96 -92z" />
    <glyph glyph-name="uni0226" unicode="&#x226;" horiz-adv-x="648" 
d="M368 862v-106h-90v106h90zM550 0l-78 209h-297l-77 -209h-96l274 700h96l273 -700h-95zM205 289h237l-79 211q-20 52 -40 113h-1q-17 -53 -39 -113z" />
    <glyph glyph-name="uni0227" unicode="&#x227;" horiz-adv-x="540" 
d="M300 700v-106h-90v106h90zM520 74l2 -74q-25 -4 -56 -4q-82 0 -90 78q-42 -86 -168 -86q-69 0 -118.5 37.5t-49.5 106.5q0 39 14.5 67t41.5 45t53 25.5t61 15.5l165 32q0 67 -17 91q-23 33 -91 33q-65 0 -93.5 -25.5t-28.5 -82.5l-88 12q3 91 62 130q55 37 153 37
q190 0 190 -165v-239q0 -16 1 -22t7.5 -11t20.5 -5q12 0 29 4zM375 189v61l-151 -33q-47 -11 -69.5 -28t-22.5 -56q0 -34 26 -53.5t64 -19.5q78 0 115.5 35.5t37.5 93.5z" />
    <glyph glyph-name="uni0232" unicode="&#x232;" horiz-adv-x="605" 
d="M176 768v70h256v-70h-256zM257 0v299l-251 401h105l118 -200q32 -54 73 -129q44 79 73 129l118 200h106l-251 -401v-299h-91z" />
    <glyph glyph-name="uni0233" unicode="&#x233;" horiz-adv-x="483" 
d="M372 667v-70h-256v70h256zM383 500h94l-204 -546q-32 -86 -64 -122.5t-82 -36.5q-40 0 -76 10l2 84q33 -11 62 -11q26 0 42.5 26.5t44.5 99.5l-195 496h96l95 -270q15 -44 44 -133q23 70 45 133z" />
    <glyph glyph-name="uni0237" unicode="&#x237;" horiz-adv-x="228" 
d="M39 -205q-25 0 -49 5l2 84q21 -6 42 -6q23 0 30.5 16.5t7.5 55.5v550h90v-561q0 -70 -32 -107t-91 -37z" />
    <glyph glyph-name="uni02B9" unicode="&#x2b9;" horiz-adv-x="234" 
d="M35 438l78 262h106l-108 -262h-76z" />
    <glyph glyph-name="uni02BA" unicode="&#x2ba;" horiz-adv-x="424" 
d="M35 438l78 262h106l-108 -262h-76zM225 438l78 262h106l-108 -262h-76z" />
    <glyph glyph-name="circumflex" unicode="&#x2c6;" horiz-adv-x="369" 
d="M50 585l93 101h83l93 -101h-80l-56 56l-58 -56h-75z" />
    <glyph glyph-name="caron" unicode="&#x2c7;" horiz-adv-x="375" 
d="M53 686h75l58 -56l56 56h80l-93 -101h-83z" />
    <glyph glyph-name="breve" unicode="&#x2d8;" horiz-adv-x="342" 
d="M171 585q-50 0 -84.5 31.5t-36.5 83.5h62q7 -50 58 -50q55 0 62 50h60q-2 -49 -36 -82t-85 -33z" />
    <glyph glyph-name="dotaccent" unicode="&#x2d9;" horiz-adv-x="190" 
d="M50 594v106h90v-106h-90z" />
    <glyph glyph-name="ring" unicode="&#x2da;" horiz-adv-x="292" 
d="M146 553q-40 0 -68 27t-28 65t28 65t68 27t68 -27t28 -65t-28 -65t-68 -27zM146 591q23 0 36.5 15t13.5 39q0 22 -13.5 37.5t-36.5 15.5q-22 0 -36.5 -15.5t-14.5 -37.5q0 -23 14.5 -38.5t36.5 -15.5z" />
    <glyph glyph-name="ogonek" unicode="&#x2db;" horiz-adv-x="260" 
d="M154 -181q-52 0 -78 23.5t-26 60.5q0 57 75 97h63q-60 -49 -60 -84q0 -33 41 -33q21 0 38 7l3 -63q-26 -8 -56 -8z" />
    <glyph glyph-name="tilde" unicode="&#x2dc;" horiz-adv-x="410" 
d="M263 570q-31 0 -65.5 20.5t-51.5 20.5q-36 0 -41 -38h-55q0 41 27 70q29 31 75 31q26 0 61 -21t50 -21q10 0 16 2t10.5 9.5t6 10.5t5.5 15h59q-7 -51 -30 -73q-27 -26 -67 -26z" />
    <glyph glyph-name="hungarumlaut" unicode="&#x2dd;" horiz-adv-x="340" 
d="M52 573l31 127h82l-52 -127h-61zM177 573l31 127h82l-52 -127h-61z" />
    <glyph glyph-name="gravecomb" unicode="&#x300;" horiz-adv-x="0" 
d="M-50 573h-74l-92 127h101z" />
    <glyph glyph-name="acutecomb" unicode="&#x301;" horiz-adv-x="0" 
d="M-216 573l65 127h101l-92 -127h-74z" />
    <glyph glyph-name="uni0302" unicode="&#x302;" horiz-adv-x="0" 
d="M-319 585l93 101h83l93 -101h-80l-56 56l-58 -56h-75z" />
    <glyph glyph-name="tildecomb" unicode="&#x303;" horiz-adv-x="0" 
d="M-147 570q-31 0 -65.5 20.5t-51.5 20.5q-36 0 -41 -38h-55q0 41 27 70q29 31 75 31q27 0 61.5 -21t49.5 -21q10 0 16 2t10.5 9.5t6 10.5t5.5 15h59q-7 -51 -30 -73q-27 -26 -67 -26z" />
    <glyph glyph-name="uni0304" unicode="&#x304;" horiz-adv-x="0" 
d="M-306 597v70h256v-70h-256z" />
    <glyph glyph-name="uni0306" unicode="&#x306;" horiz-adv-x="0" 
d="M-171 585q-50 0 -84.5 31.5t-36.5 83.5h62q7 -50 58 -50q55 0 62 50h60q-2 -49 -36 -82t-85 -33z" />
    <glyph glyph-name="uni0307" unicode="&#x307;" horiz-adv-x="0" 
d="M-290 594v106h90v-106h-90z" />
    <glyph glyph-name="uni0308" unicode="&#x308;" horiz-adv-x="0" 
d="M-432 585v97h82v-97h-82zM-249 585v97h82v-97h-82z" />
    <glyph glyph-name="uni030A" unicode="&#x30a;" horiz-adv-x="0" 
d="M-146 553q-40 0 -68 27t-28 65t28 65t68 27t68 -27t28 -65t-28 -65t-68 -27zM-146 591q23 0 36.5 15t13.5 39q0 22 -13.5 37.5t-36.5 15.5q-22 0 -36.5 -15.5t-14.5 -37.5q0 -23 14.5 -38.5t36.5 -15.5z" />
    <glyph glyph-name="uni030B" unicode="&#x30b;" horiz-adv-x="0" 
d="M-288 573l31 127h82l-52 -127h-61zM-163 573l31 127h82l-52 -127h-61z" />
    <glyph glyph-name="uni030C" unicode="&#x30c;" horiz-adv-x="0" 
d="M-322 686h75l58 -56l56 56h80l-93 -101h-83z" />
    <glyph glyph-name="uni0312" unicode="&#x312;" horiz-adv-x="0" 
d="M-50 744v-39q-48 -6 -48 -47h47v-85h-95v79q0 87 96 92z" />
    <glyph glyph-name="dotbelowcomb" unicode="&#x323;" horiz-adv-x="0" 
d="M-290 -197v106h90v-106h-90z" />
    <glyph glyph-name="uni0326" unicode="&#x326;" horiz-adv-x="0" 
d="M-146 -237v39q48 6 48 47h-47v85h95v-79q0 -87 -96 -92z" />
    <glyph glyph-name="uni0327" unicode="&#x327;" horiz-adv-x="0" 
d="M-169 -207q-52 0 -99 27l20 41q39 -16 73 -16q54 0 54 32q0 30 -51 30q-18 0 -43 -9l-20 25l73 83l54 -6l-52 -50q5 1 18 1q35 0 63.5 -18t28.5 -51q0 -46 -35.5 -67.5t-83.5 -21.5z" />
    <glyph glyph-name="uni0328" unicode="&#x328;" horiz-adv-x="0" 
d="M-106 -181q-52 0 -78 23.5t-26 60.5q0 57 75 97h63q-60 -49 -60 -84q0 -33 41 -33q21 0 38 7l3 -63q-26 -8 -56 -8z" />
    <glyph glyph-name="uni0335" unicode="&#x335;" horiz-adv-x="0" 
d="M-342 210v64h292v-64h-292z" />
    <glyph glyph-name="uni0336" unicode="&#x336;" horiz-adv-x="0" 
d="M-732 405v75h682v-75h-682z" />
    <glyph glyph-name="uni0337" unicode="&#x337;" horiz-adv-x="0" 
d="M-290 165v77l240 187v-77z" />
    <glyph glyph-name="uni0338" unicode="&#x338;" horiz-adv-x="0" 
d="M-489 -13l-32 29l469 504l32 -30z" />
    <glyph glyph-name="uni0394" unicode="&#x394;" horiz-adv-x="639" 
d="M356 700l284 -700h-641l284 700h73zM319 567l-196 -486h393z" />
    <glyph glyph-name="uni0394" unicode="&#x3b4;" horiz-adv-x="639" 
d="M356 700l284 -700h-641l284 700h73zM319 567l-196 -486h393z" />
    <glyph glyph-name="uni03A9" unicode="&#x3a9;" horiz-adv-x="768" 
d="M716 353q0 -183 -141 -274h127v-79h-276v79q98 23 143 90.5t45 183.5q0 133 -50 201q-25 35 -71.5 57t-108.5 22q-61 0 -107.5 -22t-72.5 -57q-50 -68 -50 -201q0 -116 45 -183.5t143 -90.5v-79h-276v79h127q-141 91 -141 274q0 163 87 261t245 98t245 -98t87 -261z" />
    <glyph glyph-name="uni03A9" unicode="&#x3c9;" horiz-adv-x="768" 
d="M716 353q0 -183 -141 -274h127v-79h-276v79q98 23 143 90.5t45 183.5q0 133 -50 201q-25 35 -71.5 57t-108.5 22q-61 0 -107.5 -22t-72.5 -57q-50 -68 -50 -201q0 -116 45 -183.5t143 -90.5v-79h-276v79h127q-141 91 -141 274q0 163 87 261t245 98t245 -98t87 -261z" />
    <glyph glyph-name="uni03BC" unicode="&#x3bc;" horiz-adv-x="560" 
d="M405 500h89v-500h-89v75q-41 -87 -155 -87q-59 0 -96 31q2 -32 2 -48v-171h-90v700h90v-294q0 -31 1 -45t7.5 -34.5t20.5 -34.5q30 -29 90 -29q130 0 130 156v281z" />
    <glyph glyph-name="pi" unicode="&#x3c0;" horiz-adv-x="593" 
d="M490 -4q-48 0 -78.5 28t-30.5 82v323h-195v-429h-85v429h-86v71h547v-71h-95v-311q0 -26 10.5 -37t34.5 -11q19 0 43 8l2 -74q-30 -8 -67 -8z" />
    <glyph glyph-name="Wgrave" unicode="&#x1e80;" horiz-adv-x="901" 
d="M492 756h-74l-89 108h100zM195 0l-182 700h96l97 -421q12 -52 19 -83.5t11.5 -53t7.5 -35.5h1q23 89 45 172l115 421h92l117 -421q21 -76 45 -172h1q17 83 37 172l95 421h96l-182 -700h-95l-118 412q-19 66 -43 162h-1q-22 -91 -42 -163l-116 -411h-96z" />
    <glyph glyph-name="wgrave" unicode="&#x1e81;" horiz-adv-x="730" 
d="M401 573h-74l-92 127h101zM174 0l-167 500h97l78 -267q11 -38 40 -147q24 108 34 147l67 267h84l66 -267q12 -48 33 -147q26 99 40 147l80 267h97l-167 -500h-97l-67 258q-8 28 -28 131q-18 -93 -27 -131l-65 -258h-98z" />
    <glyph glyph-name="Wacute" unicode="&#x1e82;" horiz-adv-x="901" 
d="M413 756l63 108h100l-89 -108h-74zM195 0l-182 700h96l97 -421q12 -52 19 -83.5t11.5 -53t7.5 -35.5h1q23 89 45 172l115 421h92l117 -421q21 -76 45 -172h1q17 83 37 172l95 421h96l-182 -700h-95l-118 412q-19 66 -43 162h-1q-22 -91 -42 -163l-116 -411h-96z" />
    <glyph glyph-name="wacute" unicode="&#x1e83;" horiz-adv-x="730" 
d="M326 573l65 127h101l-92 -127h-74zM174 0l-167 500h97l78 -267q11 -38 40 -147q24 108 34 147l67 267h84l66 -267q12 -48 33 -147q26 99 40 147l80 267h97l-167 -500h-97l-67 258q-8 28 -28 131q-18 -93 -27 -131l-65 -258h-98z" />
    <glyph glyph-name="Wdieresis" unicode="&#x1e84;" horiz-adv-x="901" 
d="M322 756v97h82v-97h-82zM505 756v97h82v-97h-82zM195 0l-182 700h96l97 -421q12 -52 19 -83.5t11.5 -53t7.5 -35.5h1q23 89 45 172l115 421h92l117 -421q21 -76 45 -172h1q17 83 37 172l95 421h96l-182 -700h-95l-118 412q-19 66 -43 162h-1q-22 -91 -42 -163l-116 -411
h-96z" />
    <glyph glyph-name="wdieresis" unicode="&#x1e85;" horiz-adv-x="730" 
d="M232 585v97h82v-97h-82zM415 585v97h82v-97h-82zM174 0l-167 500h97l78 -267q11 -38 40 -147q24 108 34 147l67 267h84l66 -267q12 -48 33 -147q26 99 40 147l80 267h97l-167 -500h-97l-67 258q-8 28 -28 131q-18 -93 -27 -131l-65 -258h-98z" />
    <glyph glyph-name="uni1E9E" unicode="&#x1e9e;" horiz-adv-x="655" 
d="M498 364q116 -46 116 -172q0 -100 -65.5 -149t-182.5 -49q-48 0 -114 11l2 82q73 -11 111 -11q156 0 156 119q0 66 -43.5 99t-115.5 33h-99v81h100q64 0 96 25.5t32 83.5q0 102 -122 102h-195v-619h-91v700h289q99 0 154 -48t55 -130q0 -114 -83 -156v-2z" />
    <glyph glyph-name="uni1EA0" unicode="&#x1ea0;" horiz-adv-x="648" 
d="M645 0h-95l-78 209h-297l-77 -209h-96l274 700h96zM205 289h237l-79 211q-20 52 -40 113h-1q-17 -53 -39 -113zM278 -197v106h90v-106h-90z" />
    <glyph glyph-name="uni1EA1" unicode="&#x1ea1;" horiz-adv-x="540" 
d="M520 74l2 -74q-25 -4 -56 -4q-82 0 -90 78q-42 -86 -168 -86q-69 0 -118.5 37.5t-49.5 106.5q0 39 14.5 67t41.5 45t53 25.5t61 15.5l165 32q0 67 -17 91q-23 33 -91 33q-65 0 -93.5 -25.5t-28.5 -82.5l-88 12q3 91 62 130q55 37 153 37q190 0 190 -165v-239q0 -16 1 -22
t7.5 -11t20.5 -5q12 0 29 4zM375 189v61l-151 -33q-47 -11 -69.5 -28t-22.5 -56q0 -34 26 -53.5t64 -19.5q78 0 115.5 35.5t37.5 93.5zM219 -197v106h90v-106h-90z" />
    <glyph glyph-name="uni1EB8" unicode="&#x1eb8;" horiz-adv-x="582" 
d="M83 0v700h452v-81h-362v-225h325v-81h-325v-232h362v-81h-452zM264 -197v106h90v-106h-90z" />
    <glyph glyph-name="uni1EB9" unicode="&#x1eb9;" horiz-adv-x="550" 
d="M472 413q48 -77 42 -190h-379q3 -163 142 -163q125 0 143 112l87 -7q-16 -87 -74.5 -132t-154.5 -45q-117 0 -180 73q-61 68 -61 190q0 115 63 186q66 75 177 75q61 0 113 -25.5t82 -73.5zM278 439q-85 0 -118 -54q-24 -40 -24 -89h286q-2 51 -27 89q-37 54 -117 54z
M232 -197v106h90v-106h-90z" />
    <glyph glyph-name="uni1ECA" unicode="&#x1eca;" horiz-adv-x="257" 
d="M83 0v700h91v-700h-91zM84 -197v106h90v-106h-90z" />
    <glyph glyph-name="uni1ECB" unicode="&#x1ecb;" horiz-adv-x="222" 
d="M66 594v106h90v-106h-90zM66 0v500h90v-500h-90zM66 -197v106h90v-106h-90z" />
    <glyph glyph-name="uni1ECC" unicode="&#x1ecc;" horiz-adv-x="746" 
d="M374 -12q-159 0 -245.5 94t-86.5 268q0 163 87 262.5t245 99.5q156 0 243.5 -100t87.5 -262q0 -164 -87.5 -263t-243.5 -99zM374 66q121 0 175 78q54 77 54 206q0 128 -54 205q-55 79 -171 79q-123 0 -181 -75q-53 -70 -53 -209q0 -141 50 -206q61 -78 180 -78zM328 -197
v106h90v-106h-90z" />
    <glyph glyph-name="uni1ECD" unicode="&#x1ecd;" horiz-adv-x="571" 
d="M286 -12q-117 0 -183.5 70t-66.5 192q0 116 68 189t182 73q113 0 181 -73.5t68 -188.5q0 -118 -68.5 -190t-180.5 -72zM286 59q81 0 116.5 49t35.5 142t-35.5 142t-116.5 49q-83 0 -118 -48.5t-35 -142.5t35 -142.5t118 -48.5zM240 -197v106h90v-106h-90z" />
    <glyph glyph-name="uni1EE4" unicode="&#x1ee4;" horiz-adv-x="699" 
d="M349 -12q-133 0 -203 62.5t-70 180.5v469h91v-469q0 -79 52 -121t130 -42t130.5 42t52.5 121v469h91v-469q0 -118 -70.5 -180.5t-203.5 -62.5zM304 -197v106h90v-106h-90z" />
    <glyph glyph-name="uni1EE5" unicode="&#x1ee5;" horiz-adv-x="559" 
d="M403 500h90v-500h-90v75q-41 -87 -154 -87q-95 0 -148 56q-18 19 -27.5 49t-11 51.5t-1.5 56.5v299h93v-294q0 -31 1 -45t7.5 -34.5t20.5 -34.5q30 -29 91 -29q129 0 129 156v281zM229 -197v106h90v-106h-90z" />
    <glyph glyph-name="Ygrave" unicode="&#x1ef2;" horiz-adv-x="605" 
d="M342 756h-74l-89 108h100zM257 0v299l-251 401h105l118 -200q32 -54 73 -129q44 79 73 129l118 200h106l-251 -401v-299h-91z" />
    <glyph glyph-name="ygrave" unicode="&#x1ef3;" horiz-adv-x="483" 
d="M292 573h-74l-92 127h101zM383 500h94l-204 -546q-32 -86 -64 -122.5t-82 -36.5q-40 0 -76 10l2 84q33 -11 62 -11q26 0 42.5 26.5t44.5 99.5l-195 496h96l95 -270q15 -44 44 -133q23 70 45 133z" />
    <glyph glyph-name="uni2002" unicode="&#x2002;" horiz-adv-x="500" 
 />
    <glyph glyph-name="uni2003" unicode="&#x2003;" horiz-adv-x="1000" 
 />
    <glyph glyph-name="uni2009" unicode="&#x2009;" horiz-adv-x="125" 
 />
    <glyph glyph-name="uni200A" unicode="&#x200a;" horiz-adv-x="42" 
 />
    <glyph glyph-name="endash" unicode="&#x2013;" horiz-adv-x="597" 
d="M58 243v80h481v-80h-481z" />
    <glyph glyph-name="emdash" unicode="&#x2014;" horiz-adv-x="854" 
d="M58 243v80h738v-80h-738z" />
    <glyph glyph-name="quoteleft" unicode="&#x2018;" horiz-adv-x="198" 
d="M143 702v-46q-42 -17 -42 -75h43v-99h-93v101q0 48 24 79t68 40z" />
    <glyph glyph-name="quoteright" unicode="&#x2019;" horiz-adv-x="189" 
d="M55 479v46q42 17 42 75h-43v99h93v-101q0 -48 -24 -79t-68 -40z" />
    <glyph glyph-name="quotesinglbase" unicode="&#x201a;" horiz-adv-x="211" 
d="M60 -121v46q42 17 42 75h-43v99h93v-101q0 -48 -24 -79t-68 -40z" />
    <glyph glyph-name="quotedblleft" unicode="&#x201c;" horiz-adv-x="349" 
d="M143 702v-46q-42 -17 -42 -75h43v-99h-93v101q0 48 24 79t68 40zM294 702v-46q-42 -17 -42 -75h43v-99h-93v101q0 48 24 79t68 40z" />
    <glyph glyph-name="quotedblright" unicode="&#x201d;" horiz-adv-x="340" 
d="M55 479v46q42 17 42 75h-43v99h93v-101q0 -48 -24 -79t-68 -40zM206 479v46q42 17 42 75h-43v99h93v-101q0 -48 -24 -79t-68 -40z" />
    <glyph glyph-name="quotedblbase" unicode="&#x201e;" horiz-adv-x="362" 
d="M60 -121v46q42 17 42 75h-43v99h93v-101q0 -48 -24 -79t-68 -40zM211 -121v46q42 17 42 75h-43v99h93v-101q0 -48 -24 -79t-68 -40z" />
    <glyph glyph-name="dagger" unicode="&#x2020;" horiz-adv-x="490" 
d="M199 -110v549h-173v73h173v188h86v-188h179v-73h-179v-549h-86z" />
    <glyph glyph-name="daggerdbl" unicode="&#x2021;" horiz-adv-x="538" 
d="M223 -110v188h-173v73h173v288h-173v73h173v188h86v-188h179v-73h-179v-288h179v-73h-179v-188h-86z" />
    <glyph glyph-name="bullet" unicode="&#x2022;" horiz-adv-x="349" 
d="M175 218q-46 0 -75 29.5t-29 75.5q0 45 29 74t75 29q45 0 74 -29t29 -74q0 -46 -29 -75.5t-74 -29.5z" />
    <glyph glyph-name="ellipsis" unicode="&#x2026;" horiz-adv-x="701" 
d="M56 0v106h101v-106h-101zM300 0v106h101v-106h-101zM544 0v106h101v-106h-101z" />
    <glyph glyph-name="perthousand" unicode="&#x2030;" horiz-adv-x="1154" 
d="M186 303q-73 0 -111.5 51.5t-38.5 144.5q0 90 40 144t110 54q69 0 109.5 -54.5t40.5 -143.5q0 -88 -40 -142t-110 -54zM175 0l384 685h83l-383 -685h-84zM186 367q39 0 55.5 30.5t16.5 101.5q0 72 -16 102.5t-56 30.5t-57 -31t-17 -102q0 -70 17 -101t57 -31zM636 -12
q-73 0 -111.5 51.5t-38.5 144.5q0 90 40 144t110 54q69 0 109.5 -54.5t40.5 -143.5q0 -88 -40 -142t-110 -54zM975 -12q-73 0 -111.5 51.5t-38.5 144.5q0 90 40 144t110 54q69 0 109.5 -54.5t40.5 -143.5q0 -88 -40 -142t-110 -54zM636 52q39 0 55.5 30.5t16.5 101.5
q0 72 -16 102.5t-56 30.5t-57 -31t-17 -102q0 -70 17 -101t57 -31zM975 52q39 0 55.5 30.5t16.5 101.5q0 72 -16 102.5t-56 30.5t-57 -31t-17 -102q0 -70 17 -101t57 -31z" />
    <glyph glyph-name="guilsinglleft" unicode="&#x2039;" horiz-adv-x="260" 
d="M197 442v-94l-91 -72l91 -72v-95l-154 122v88z" />
    <glyph glyph-name="guilsinglright" unicode="&#x203a;" horiz-adv-x="260" 
d="M63 442l154 -123v-88l-154 -122v95l91 72l-91 72v94z" />
    <glyph glyph-name="fraction" unicode="&#x2044;" horiz-adv-x="240" 
d="M-178 0l510 700h83l-510 -700h-83z" />
    <glyph glyph-name="uni2070" unicode="&#x2070;" horiz-adv-x="415" 
d="M207 324q-83 0 -127 62t-44 180q0 113 45 177t126 64q82 0 127.5 -64t45.5 -177q0 -115 -45.5 -178.5t-127.5 -63.5zM207 391q50 0 72.5 40.5t22.5 134.5t-22.5 134t-72.5 40q-49 0 -71 -40t-22 -134q0 -96 21.5 -135.5t71.5 -39.5z" />
    <glyph glyph-name="uni2074" unicode="&#x2074;" horiz-adv-x="370" 
d="M217 330v107h-198v66l210 299h59v-301h60v-64h-60v-107h-71zM94 500q18 1 56 1h68v112q0 30 2 70q-21 -39 -46 -72l-37 -53q-39 -53 -43 -58z" />
    <glyph glyph-name="uni2075" unicode="&#x2075;" horiz-adv-x="379" 
d="M194 647q71 0 114 -43t43 -116q0 -75 -45.5 -119.5t-121.5 -44.5q-64 0 -109 42.5t-45 105.5l71 10q0 -42 24.5 -67.5t60.5 -25.5q44 0 69.5 25.5t25.5 73.5q0 42 -26 68t-69 26q-57 0 -87 -43l-63 4l37 259h249v-66h-193l-15 -110q30 21 80 21z" />
    <glyph glyph-name="uni2076" unicode="&#x2076;" horiz-adv-x="392" 
d="M213 643q66 0 106.5 -43t40.5 -113q0 -62 -39 -112.5t-121 -50.5q-164 0 -164 229q0 130 43 192t132 62q57 0 92.5 -32.5t43.5 -91.5l-67 -11q-3 34 -22 52.5t-49 18.5q-98 0 -103 -152q41 52 107 52zM199 389q91 0 91 99q0 92 -88 92q-41 0 -65 -26t-24 -70
q0 -45 23 -70t63 -25z" />
    <glyph glyph-name="uni2077" unicode="&#x2077;" horiz-adv-x="332" 
d="M19 802h300v-65q-75 -71 -122.5 -182.5t-50.5 -224.5h-78q5 109 48.5 214.5t117.5 189.5h-215v68z" />
    <glyph glyph-name="uni2078" unicode="&#x2078;" horiz-adv-x="395" 
d="M198 324q-76 0 -120.5 40.5t-44.5 109.5q0 82 70 114q-50 32 -50 92q0 59 39 93t107 34q67 -1 105 -34.5t38 -92.5t-50 -93q70 -30 70 -114q0 -68 -44 -108.5t-120 -40.5zM198 609q35 0 55 18t20 49q0 32 -19.5 50t-55.5 18t-56 -18t-20 -50q0 -31 20.5 -49t55.5 -18z
M198 388q42 0 67.5 23t25.5 61q0 36 -25 58t-68 22t-68.5 -22t-25.5 -58q0 -38 25.5 -61t68.5 -23z" />
    <glyph glyph-name="uni2079" unicode="&#x2079;" horiz-adv-x="392" 
d="M192 807q164 0 164 -228q0 -130 -43 -192.5t-132 -62.5q-57 0 -94.5 33.5t-45.5 92.5l67 11q4 -34 24 -53t51 -19q98 0 104 151q-40 -51 -108 -51q-65 0 -106 42.5t-41 112.5q0 62 39 112.5t121 50.5zM190 552q42 0 65.5 25.5t23.5 69.5q0 45 -23 70.5t-63 25.5
q-47 0 -69 -24t-22 -76q0 -91 88 -91z" />
    <glyph glyph-name="uni2080" unicode="&#x2080;" horiz-adv-x="415" 
d="M207 -108q-83 0 -127 62t-44 180q0 113 45 177t126 64q82 0 127.5 -64t45.5 -177q0 -115 -45.5 -178.5t-127.5 -63.5zM207 -41q50 0 72.5 40.5t22.5 134.5t-22.5 134t-72.5 40q-49 0 -71 -40t-22 -134q0 -96 21.5 -135.5t71.5 -39.5z" />
    <glyph glyph-name="uni2081" unicode="&#x2081;" horiz-adv-x="264" 
d="M127 -102v352q-17 -14 -49.5 -23t-65.5 -8v68q55 0 89 22.5t39 60.5h62v-472h-75z" />
    <glyph glyph-name="uni2082" unicode="&#x2082;" horiz-adv-x="388" 
d="M111 -34h238v-68h-324q2 43 14 77.5t33.5 60.5t41 42t48.5 36q2 2 26.5 16.5t33 21t24.5 21t22.5 30t6.5 32.5q0 79 -75 79q-82 0 -82 -103l-75 13q0 26 7 50.5t23.5 49t50 39.5t79.5 15q66 0 105.5 -39.5t39.5 -104.5q0 -38 -20.5 -71t-42 -50t-56.5 -39
q-36 -22 -52 -33t-37.5 -32.5t-28.5 -42.5z" />
    <glyph glyph-name="uni2083" unicode="&#x2083;" horiz-adv-x="386" 
d="M289 155q30 -14 47.5 -45t17.5 -70q0 -67 -44.5 -107.5t-118.5 -40.5t-117 43t-43 115l72 10q0 -49 23 -76t65 -27q43 0 66.5 21.5t23.5 60.5q0 72 -86 72h-42v68h34q34 0 54.5 17.5t20.5 45.5q0 34 -19 53.5t-53 19.5q-78 0 -78 -95l-75 11q0 62 43 104.5t110 42.5
t106 -36.5t39 -99.5q0 -54 -46 -87z" />
    <glyph glyph-name="uni2084" unicode="&#x2084;" horiz-adv-x="370" 
d="M211 -102v107h-198v66l210 299h59v-301h60v-64h-60v-107h-71zM88 68q18 1 56 1h68v112q0 30 2 70q-21 -39 -46 -72l-37 -53q-39 -53 -43 -58z" />
    <glyph glyph-name="uni2085" unicode="&#x2085;" horiz-adv-x="379" 
d="M193 215q71 0 114 -43t43 -116q0 -75 -45.5 -119.5t-121.5 -44.5q-64 0 -109 42.5t-45 105.5l71 10q0 -42 24.5 -67.5t60.5 -25.5q44 0 69.5 25.5t25.5 73.5q0 42 -26 68t-69 26q-57 0 -87 -43l-63 4l37 259h249v-66h-193l-15 -110q30 21 80 21z" />
    <glyph glyph-name="uni2086" unicode="&#x2086;" horiz-adv-x="392" 
d="M212 211q66 0 106.5 -43t40.5 -113q0 -62 -39 -112.5t-121 -50.5q-164 0 -164 229q0 130 43 192t132 62q57 0 92.5 -32.5t43.5 -91.5l-67 -11q-3 34 -22 52.5t-49 18.5q-98 0 -103 -152q41 52 107 52zM198 -43q91 0 91 99q0 92 -88 92q-41 0 -65 -26t-24 -70
q0 -45 23 -70t63 -25z" />
    <glyph glyph-name="uni2087" unicode="&#x2087;" horiz-adv-x="332" 
d="M23 370h300v-65q-75 -71 -122.5 -182.5t-50.5 -224.5h-78q5 109 48.5 214.5t117.5 189.5h-215v68z" />
    <glyph glyph-name="uni2088" unicode="&#x2088;" horiz-adv-x="395" 
d="M198 -108q-76 0 -120.5 40.5t-44.5 109.5q0 82 70 114q-50 32 -50 92q0 59 39 93t107 34q67 -1 105 -34.5t38 -92.5t-50 -93q70 -30 70 -114q0 -68 -44 -108.5t-120 -40.5zM198 177q35 0 55 18t20 49q0 32 -19.5 50t-55.5 18t-56 -18t-20 -50q0 -31 20.5 -49t55.5 -18z
M198 -44q42 0 67.5 23t25.5 61q0 36 -25 58t-68 22t-68.5 -22t-25.5 -58q0 -38 25.5 -61t68.5 -23z" />
    <glyph glyph-name="uni2089" unicode="&#x2089;" horiz-adv-x="392" 
d="M193 375q164 0 164 -228q0 -130 -43 -192.5t-132 -62.5q-57 0 -94.5 33.5t-45.5 92.5l67 11q4 -34 24 -53t51 -19q98 0 104 151q-40 -51 -108 -51q-65 0 -106 42.5t-41 112.5q0 62 39 112.5t121 50.5zM191 120q42 0 65.5 25.5t23.5 69.5q0 45 -23 70.5t-63 25.5
q-47 0 -69 -24t-22 -76q0 -91 88 -91z" />
    <glyph glyph-name="uni20A9" unicode="&#x20a9;" horiz-adv-x="983" 
d="M943 379h-97l-22 -83h119v-59h-134l-62 -237h-95l-68 237h-185l-67 -237h-96l-62 237h-134v59h119l-22 83h-97v59h82l-68 262h96l60 -262h164l72 262h92l73 -262h163l59 262h96l-68 -262h82v-59zM490 574q-17 -73 -35 -136h72q-25 88 -36 136h-1zM224 379l19 -83h93
l22 83h-134zM416 296h151l-24 83h-104zM742 296l19 83h-134l23 -83h92zM286 107q14 57 34 130h-63q8 -36 15.5 -72.5t12.5 -57.5h1zM701 107q1 4 28 130h-63q8 -28 34 -130h1z" />
    <glyph glyph-name="Euro" unicode="&#x20ac;" horiz-adv-x="611" 
d="M491 205l89 -23q-57 -194 -239 -194q-218 0 -250 270h-53v59h49q-1 11 -1 34t1 35h-49v59h54q17 123 79 195t170 72q86 0 147 -47.5t83 -129.5l-88 -17q-29 116 -142 116q-74 0 -108.5 -47.5t-43.5 -141.5h207v-59h-211v-35v-34h211v-59h-207q9 -96 43.5 -144t108.5 -48
q64 0 99.5 35t50.5 104z" />
    <glyph glyph-name="uni20B9" unicode="&#x20b9;" horiz-adv-x="551" 
d="M520 629h-138q36 -39 44 -98h94v-70h-93q-4 -45 -22.5 -77.5t-43 -50.5t-60.5 -28.5t-67 -13t-71 -2.5l277 -287l-1 -3h-116l-267 279v85h96q37 0 61.5 2.5t54 11.5t47.5 30t23 54h-282v70h280q-7 34 -24.5 54.5t-48 28.5t-51.5 10t-59 2h-97v73h464v-70z" />
    <glyph glyph-name="uni20BA" unicode="&#x20ba;" horiz-adv-x="584" 
d="M470 265l89 -23q-28 -114 -117.5 -178t-230.5 -64h-80v248l-79 -44v72l79 44v79l-79 -44v72l79 44v229h90v-179l201 111v-72l-201 -111v-79l201 111v-72l-201 -111v-220q208 5 249 187z" />
    <glyph glyph-name="uni20BD" unicode="&#x20bd;" horiz-adv-x="627" 
d="M330 285h-115v-88h224v-66h-224v-131h-90v131h-79v66h79v89h-79v73h79v341h206q42 0 74.5 -3.5t70.5 -16.5t62.5 -35t41.5 -62t17 -95q0 -53 -17 -91.5t-41.5 -59.5t-62.5 -33t-71 -15.5t-75 -3.5zM215 623v-263h115q30 0 50.5 1.5t47 8.5t42.5 20t27.5 38t11.5 60
q0 28 -6 49.5t-15 35.5t-24.5 24t-28.5 15t-34 7.5t-34.5 3t-35.5 0.5h-116z" />
    <glyph glyph-name="uni20BF" unicode="&#x20bf;" horiz-adv-x="634" 
d="M596 193q0 -92 -47 -134.5t-128 -53.5v-73h-72v68h-35h-40v-68h-72v68h-119v700h119v68h72v-68h33q28 0 42 -1v69h72v-77q148 -29 148 -183q0 -102 -88 -150q60 -22 87.5 -61t27.5 -104zM173 622v-226h126q34 0 53 1t47.5 6.5t43.5 17t26.5 33.5t11.5 54q0 33 -11.5 55.5
t-26.5 33.5t-43.5 17t-47 7t-52.5 1h-127zM314 77q33 0 49.5 0.5t44 3.5t41.5 10.5t30 20t22.5 33t6.5 48.5q0 36 -13.5 61t-30 37t-47 18.5t-48.5 7.5t-50 1h-146v-241h141z" />
    <glyph glyph-name="uni2116" unicode="&#x2116;" horiz-adv-x="1106" 
d="M888 343q-81 0 -127 49t-46 133q0 81 47 132t126 51t126.5 -51.5t47.5 -131.5q0 -81 -48 -131.5t-126 -50.5zM83 0v700h97l263 -423q31 -49 88 -158h1q-5 97 -5 178v403h89v-700h-102l-260 423q-32 52 -86 158h-1q5 -112 5 -178v-403h-89zM888 398q100 0 100 127
q0 129 -100 129t-100 -129q0 -127 100 -127zM711 222v62h354v-62h-354z" />
    <glyph glyph-name="uni2117" unicode="&#x2117;" horiz-adv-x="789" 
d="M393 -11q-151 0 -252.5 103t-101.5 258q0 156 101.5 259t252.5 103t254 -103t103 -259q0 -154 -103 -257.5t-254 -103.5zM393 35q131 0 217.5 89.5t86.5 225.5q0 137 -86.5 227.5t-217.5 90.5q-130 0 -216.5 -91t-86.5 -227t86.5 -225.5t216.5 -89.5zM258 142v417h168
q60 0 102.5 -31t42.5 -99q0 -65 -41.5 -94t-101.5 -29h-96v-164h-74zM332 371h80q43 0 63.5 12.5t20.5 48.5q0 62 -84 62h-80v-123z" />
    <glyph glyph-name="trademark" unicode="&#x2122;" horiz-adv-x="787" 
d="M139 351v295h-110v54h281v-54h-110v-295h-61zM358 351v349h83l69 -197l27 -82l27 82l68 197h83v-349h-61v188q0 19 2 61q-3 -9 -10.5 -28t-10.5 -29l-67 -192h-63l-71 199q-2 6 -8.5 22.5t-9.5 27.5q2 -36 2 -56v-193h-60z" />
    <glyph glyph-name="uni2126" unicode="&#x2126;" horiz-adv-x="768" 
d="M716 353q0 -183 -141 -274h127v-79h-276v79q98 23 143 90.5t45 183.5q0 133 -50 201q-25 35 -71.5 57t-108.5 22q-61 0 -107.5 -22t-72.5 -57q-50 -68 -50 -201q0 -116 45 -183.5t143 -90.5v-79h-276v79h127q-141 91 -141 274q0 163 87 261t245 98t245 -98t87 -261z" />
    <glyph glyph-name="uni2153" unicode="&#x2153;" horiz-adv-x="843" 
d="M133 275v317q-37 -31 -104 -28v61q49 0 79.5 20t35.5 55h56v-425h-67zM585 700h83l-510 -700h-83zM750 231q27 -12 43 -40t16 -63q0 -61 -40.5 -97t-106.5 -36q-67 0 -105.5 38.5t-38.5 103.5l65 9q0 -44 20.5 -68.5t58.5 -24.5q39 0 60 19.5t21 54.5q0 65 -77 65h-38v61
h30q31 0 49.5 15.5t18.5 41.5q0 31 -17 48t-48 17q-70 0 -70 -85l-68 10q0 56 39 94t99 38t95.5 -33t35.5 -89q0 -50 -42 -79z" />
    <glyph glyph-name="uni2154" unicode="&#x2154;" horiz-adv-x="945" 
d="M155 469q4 3 24 15t29 19t23 19.5t20 26t6 29.5q0 71 -68 71q-74 0 -74 -92l-67 11q0 53 33 96t111 43q59 0 94.5 -35.5t35.5 -94.5q0 -49 -28.5 -81t-78.5 -63q-33 -21 -47 -30t-33.5 -28.5t-25.5 -38.5h214v-61h-291q3 73 35 115.5t88 78.5zM690 700h83l-510 -700h-83z
M855 231q27 -12 43 -40t16 -63q0 -61 -40.5 -97t-106.5 -36q-67 0 -105.5 38.5t-38.5 103.5l65 9q0 -44 20.5 -68.5t58.5 -24.5q39 0 60 19.5t21 54.5q0 65 -77 65h-38v61h30q31 0 49.5 15.5t18.5 41.5q0 31 -17 48t-48 17q-70 0 -70 -85l-68 10q0 56 39 94t99 38t95.5 -33
t35.5 -89q0 -50 -42 -79z" />
    <glyph glyph-name="uni2155" unicode="&#x2155;" horiz-adv-x="843" 
d="M133 275v317q-37 -31 -104 -28v61q49 0 79.5 20t35.5 55h56v-425h-67zM585 700h83l-510 -700h-83zM666 285q64 0 102.5 -38.5t38.5 -104.5q0 -67 -41 -107t-109 -40q-58 0 -98.5 38t-40.5 95l64 9q0 -38 22 -61t54 -23q40 0 63 23t23 66q0 38 -23 61.5t-63 23.5
q-51 0 -78 -39l-57 4l34 233h224v-60h-174l-14 -99q26 19 73 19z" />
    <glyph glyph-name="uni2156" unicode="&#x2156;" horiz-adv-x="944" 
d="M155 469q4 3 24 15t29 19t23 19.5t20 26t6 29.5q0 71 -68 71q-74 0 -74 -92l-67 11q0 53 33 96t111 43q59 0 94.5 -35.5t35.5 -94.5q0 -49 -28.5 -81t-78.5 -63q-33 -21 -47 -30t-33.5 -28.5t-25.5 -38.5h214v-61h-291q3 73 35 115.5t88 78.5zM690 700h83l-510 -700h-83z
M771 285q63 0 102 -38.5t39 -104.5q0 -67 -41 -107t-109 -40q-58 0 -98.5 38t-40.5 95l64 9q0 -38 22 -61t54 -23q40 0 63 23t23 66q0 38 -23.5 61.5t-62.5 23.5q-51 0 -78 -39l-57 4l34 233h224v-60h-174l-14 -99q26 19 73 19z" />
    <glyph glyph-name="uni2157" unicode="&#x2157;" horiz-adv-x="939" 
d="M322 403q0 -61 -40.5 -97t-106.5 -36q-67 0 -105.5 38.5t-38.5 103.5l65 9q0 -44 20.5 -68.5t58.5 -24.5q39 0 60 19.5t21 54.5q0 65 -77 65h-38v61h30q31 0 49.5 15.5t18.5 41.5q0 31 -17 48t-48 17q-70 0 -70 -85l-68 10q0 56 39 94t99 38t95.5 -33t35.5 -89
q0 -50 -42 -79q27 -12 43 -40t16 -63zM685 700h83l-510 -700h-83zM766 285q64 0 102.5 -38.5t38.5 -104.5q0 -67 -41 -107t-109 -40q-58 0 -98.5 38t-40.5 95l64 9q0 -38 22 -61t54 -23q40 0 63 23t23 66q0 38 -23 61.5t-63 23.5q-51 0 -78 -39l-57 4l34 233h224v-60h-174
l-14 -99q26 19 73 19z" />
    <glyph glyph-name="uni2158" unicode="&#x2158;" horiz-adv-x="938" 
d="M205 275v96h-178v60l189 269h53v-271h54v-58h-54v-96h-64zM677 700h83l-510 -700h-83zM145 429h61v101q0 27 2 63q-19 -35 -41 -65l-34 -48q-21 -30 -38 -52q16 1 50 1zM758 285q64 0 102.5 -38.5t38.5 -104.5q0 -67 -41 -107t-109 -40q-58 0 -98.5 38t-40.5 95l64 9
q0 -38 22 -61t54 -23q40 0 63 23t23 66q0 38 -23 61.5t-63 23.5q-51 0 -78 -39l-57 4l34 233h224v-60h-174l-14 -99q26 19 73 19z" />
    <glyph glyph-name="uni2159" unicode="&#x2159;" horiz-adv-x="830" 
d="M133 275v317q-37 -31 -104 -28v61q49 0 79.5 20t35.5 55h56v-425h-67zM585 700h83l-510 -700h-83zM663 282q59 0 95.5 -39t36.5 -102q0 -56 -35 -101t-109 -45q-148 0 -148 206q0 116 39 172t119 56q51 0 83 -29t39 -82l-60 -10q-3 31 -20 47.5t-44 16.5q-88 0 -93 -137
q38 47 97 47zM650 53q82 0 82 89q0 83 -79 83q-37 0 -58.5 -23t-21.5 -63t20.5 -63t56.5 -23z" />
    <glyph glyph-name="uni215A" unicode="&#x215a;" horiz-adv-x="911" 
d="M320 417q0 -67 -41 -107t-109 -40q-58 0 -98.5 38t-40.5 95l64 9q0 -38 22 -61t54 -23q40 0 63 23t23 66q0 39 -23.5 62t-62.5 23q-51 0 -78 -39l-57 4l34 233h224v-60h-174l-14 -99q26 19 73 19q63 0 102 -39t39 -104zM669 700h83l-510 -700h-83zM747 282q59 0 95.5 -39
t36.5 -102q0 -56 -35 -101t-109 -45q-148 0 -148 206q0 116 39 172t119 56q51 0 83 -29t39 -82l-60 -10q-3 31 -20 47.5t-44 16.5q-88 0 -93 -137q38 47 97 47zM734 53q82 0 82 89q0 83 -79 83q-37 0 -58.5 -23t-21.5 -63t20.5 -63t56.5 -23z" />
    <glyph glyph-name="oneeighth" unicode="&#x215b;" horiz-adv-x="851" 
d="M133 275v317q-37 -31 -104 -28v61q49 0 79.5 20t35.5 55h56v-425h-67zM75 0l510 700h83l-510 -700h-83zM669 -5q-69 0 -108.5 36.5t-39.5 98.5q0 74 63 102q-45 29 -45 83q0 53 35 83.5t96 30.5q60 -1 94.5 -31t34.5 -83t-45 -84q63 -27 63 -102q0 -62 -40 -98t-108 -36z
M669 251q31 0 49.5 16t18.5 44q0 29 -18 45.5t-50 16.5t-50 -16.5t-18 -45.5q0 -28 18.5 -44t49.5 -16zM669 52q38 0 61 21t23 55q0 33 -22.5 52.5t-61.5 19.5t-61.5 -19.5t-22.5 -52.5q0 -34 22.5 -55t61.5 -21z" />
    <glyph glyph-name="threeeighths" unicode="&#x215c;" horiz-adv-x="950" 
d="M324 403q0 -61 -40.5 -97t-106.5 -36q-67 0 -105.5 38.5t-38.5 103.5l65 9q0 -44 20.5 -68.5t58.5 -24.5q39 0 60 19.5t21 54.5q0 65 -77 65h-38v61h30q31 0 49.5 15.5t18.5 41.5q0 31 -17 48t-48 17q-70 0 -70 -85l-68 10q0 56 39 94t99 38t95.5 -33t35.5 -89
q0 -50 -42 -79q27 -12 43 -40t16 -63zM687 700h83l-510 -700h-83zM856 231q63 -27 63 -102q0 -62 -40 -98t-108 -36q-69 0 -108.5 36.5t-39.5 98.5q0 74 63 102q-45 29 -45 83q0 53 35 83.5t96 30.5q60 -1 94.5 -31t34.5 -83t-45 -84zM771 373q-32 0 -50 -16.5t-18 -45.5
q0 -28 18.5 -44t49.5 -16t49.5 16t18.5 44q0 29 -18 45.5t-50 16.5zM771 52q38 0 61 21t23 55q0 33 -22.5 52.5t-61.5 19.5t-61.5 -19.5t-22.5 -52.5q0 -34 22.5 -55t61.5 -21z" />
    <glyph glyph-name="fiveeighths" unicode="&#x215d;" horiz-adv-x="933" 
d="M321 417q0 -67 -41 -107t-109 -40q-58 0 -98.5 38t-40.5 95l64 9q0 -38 22 -61t54 -23q40 0 63 23t23 66q0 39 -23 62t-63 23q-51 0 -78 -39l-57 4l34 233h224v-60h-174l-14 -99q26 19 73 19q64 0 102.5 -39t38.5 -104zM670 700h83l-510 -700h-83zM839 231
q63 -27 63 -102q0 -62 -40 -98t-108 -36q-69 0 -108.5 36.5t-39.5 98.5q0 74 63 102q-45 29 -45 83q0 53 35 83.5t96 30.5q60 -1 94.5 -31t34.5 -83t-45 -84zM754 373q-32 0 -50 -16.5t-18 -45.5q0 -28 18.5 -44t49.5 -16t49.5 16t18.5 44q0 29 -18 45.5t-50 16.5zM754 52
q38 0 61 21t23 55q0 33 -22.5 52.5t-61.5 19.5t-61.5 -19.5t-22.5 -52.5q0 -34 22.5 -55t61.5 -21z" />
    <glyph glyph-name="seveneighths" unicode="&#x215e;" horiz-adv-x="827" 
d="M76 275q5 99 44.5 194t105.5 170h-194v61h270v-59q-68 -64 -110.5 -164t-45.5 -202h-70zM564 700h83l-510 -700h-83zM733 231q63 -27 63 -102q0 -62 -40 -98t-108 -36q-69 0 -108.5 36.5t-39.5 98.5q0 74 63 102q-45 29 -45 83q0 53 35 83.5t96 30.5q60 -1 94.5 -31
t34.5 -83t-45 -84zM648 373q-32 0 -50 -16.5t-18 -45.5q0 -28 18.5 -44t49.5 -16t49.5 16t18.5 44q0 29 -18 45.5t-50 16.5zM648 52q38 0 61 21t23 55q0 33 -22.5 52.5t-61.5 19.5t-61.5 -19.5t-22.5 -52.5q0 -34 22.5 -55t61.5 -21z" />
    <glyph glyph-name="uni215F" unicode="&#x215f;" horiz-adv-x="462" 
d="M149 275v317q-37 -31 -104 -28v61q49 0 79.5 20t35.5 55h56v-425h-67zM91 0l510 700h83l-510 -700h-83z" />
    <glyph glyph-name="arrowleft" unicode="&#x2190;" horiz-adv-x="766" 
d="M371 500l-150 -155q-1 -1 -59 -56q42 1 82 1h484v-80h-484q-39 0 -82 1q19 -18 60 -59l149 -152h-114l-234 250l234 250h114z" />
    <glyph glyph-name="arrowup" unicode="&#x2191;" horiz-adv-x="532" 
d="M226 0v489q0 58 1 90q-32 -37 -54 -59l-145 -151v115l238 238l238 -238v-115l-143 149q-44 46 -56 61q1 -32 1 -90v-489h-80z" />
    <glyph glyph-name="arrowright" unicode="&#x2192;" horiz-adv-x="766" 
d="M395 0l150 155q1 1 59 56q-42 -1 -82 -1h-484v80h484q39 0 82 -1q-19 18 -60 59l-149 152h114l234 -250l-234 -250h-114z" />
    <glyph glyph-name="arrowdown" unicode="&#x2193;" horiz-adv-x="532" 
d="M306 702v-489q0 -58 -1 -90q32 37 54 59l145 151v-115l-238 -238l-238 238v115l143 -149q44 -46 56 -61q-1 32 -1 90v489h80z" />
    <glyph glyph-name="uni2196" unicode="&#x2196;" horiz-adv-x="618" 
d="M540 -39l-346 346q-41 41 -62 64q3 -44 3 -80l4 -209l-81 81v337h337l81 -81l-207 4q-3 0 -34 1t-48 2q45 -43 64 -63l346 -345z" />
    <glyph glyph-name="uni2197" unicode="&#x2197;" horiz-adv-x="618" 
d="M21 18l346 346q41 41 64 62q-44 -3 -80 -3l-209 -4l81 81h337v-337l-81 -81l4 207q0 3 1 34t2 48q-43 -45 -63 -64l-345 -346z" />
    <glyph glyph-name="uni2198" unicode="&#x2198;" horiz-adv-x="618" 
d="M78 539l346 -346q41 -41 62 -64q-3 43 -3 80l-4 209l81 -81v-337h-337l-81 81l207 -4q3 0 34 -1t48 -2q-45 43 -64 63l-346 345z" />
    <glyph glyph-name="uni2199" unicode="&#x2199;" horiz-adv-x="618" 
d="M597 482l-346 -346q-41 -41 -64 -62q43 3 80 3l209 4l-81 -81h-337v337l81 81l-4 -207q0 -3 -1 -34t-2 -48q43 45 63 64l345 346z" />
    <glyph glyph-name="partialdiff" unicode="&#x2202;" horiz-adv-x="536" 
d="M145 711q349 -44 349 -425q0 -77 -25.5 -142.5t-85 -110.5t-143.5 -45q-99 0 -158.5 59.5t-59.5 149.5q0 110 69 183t175 73q42 0 80 -15.5t60 -44.5q-16 107 -81 162.5t-186 76.5zM242 61q73 0 116.5 56.5t43.5 132.5q0 131 -131 131q-72 0 -116 -50.5t-44 -133.5
q0 -63 33.5 -99.5t97.5 -36.5z" />
    <glyph glyph-name="emptyset" unicode="&#x2205;" horiz-adv-x="617" 
d="M576 502l-72 -77q66 -74 66 -175q0 -109 -76 -185.5t-186 -76.5q-92 0 -161 55l-69 -74l-38 35l69 74q-63 74 -63 172q0 109 76 185.5t186 76.5q89 0 157 -52l73 78zM116 250q0 -68 40 -122l264 284q-49 36 -112 36q-81 0 -136.5 -57.5t-55.5 -140.5zM500 250
q0 70 -42 125l-266 -284q52 -39 116 -39q81 0 136.5 58t55.5 140z" />
    <glyph glyph-name="uni2206" unicode="&#x2206;" horiz-adv-x="683" 
d="M378 700l284 -700h-641l284 700h73zM341 567l-196 -486h393z" />
    <glyph glyph-name="product" unicode="&#x220f;" horiz-adv-x="670" 
d="M83 -96v796h504v-796h-91v715h-322v-715h-91z" />
    <glyph glyph-name="summation" unicode="&#x2211;" horiz-adv-x="579" 
d="M141 -12h407v-84h-513v93l266 313v1l-266 301v88h504v-81h-391v-1l253 -285v-39l-260 -305v-1z" />
    <glyph glyph-name="minus" unicode="&#x2212;" horiz-adv-x="567" 
d="M60 287v67h447v-67h-447z" />
    <glyph glyph-name="uni2215" unicode="&#x2215;" horiz-adv-x="240" 
d="M-178 0l510 700h83l-510 -700h-83z" />
    <glyph glyph-name="radical" unicode="&#x221a;" horiz-adv-x="582" 
d="M590 700v-82h-78l-202 -714h-110l-122 319h-74v82h134l64 -173q17 -45 50 -156q7 26 20.5 78t20.5 78l151 568h146z" />
    <glyph glyph-name="infinity" unicode="&#x221e;" horiz-adv-x="733" 
d="M200 138q-71 0 -114 48.5t-43 118.5q0 69 43.5 117.5t113.5 48.5q94 0 169 -110q73 110 162 110q68 0 113.5 -46.5t45.5 -119.5q0 -75 -45 -121t-114 -46q-91 0 -162 111q-73 -111 -169 -111zM205 212q63 0 120 92q-56 93 -120 93q-38 0 -61 -26t-23 -66t23 -66.5
t61 -26.5zM527 212q38 0 61.5 26.5t23.5 66.5t-23.5 66t-61.5 26q-54 0 -112 -93q59 -92 112 -92z" />
    <glyph glyph-name="integral" unicode="&#x222b;" horiz-adv-x="340" 
d="M70 -199q-42 0 -75 10l2 76q25 -11 59 -11q69 0 69 71v617q0 144 145 144q44 0 75 -9l-2 -76q-27 10 -60 10q-68 0 -68 -72v-614q0 -75 -39.5 -110.5t-105.5 -35.5z" />
    <glyph glyph-name="approxequal" unicode="&#x2248;" horiz-adv-x="576" 
d="M64 343q1 52 30 81t76 29q42 0 126.5 -18.5t106.5 -18.5q43 0 45 43h67q-2 -50 -29 -79.5t-77 -29.5q-41 0 -127 18.5t-111 18.5q-40 0 -42 -44h-65zM64 184q1 52 30 81t76 29q42 0 126.5 -18.5t106.5 -18.5q43 0 45 43h67q-2 -51 -29 -80t-77 -29q-41 0 -127 18.5
t-111 18.5q-40 0 -42 -44h-65z" />
    <glyph glyph-name="notequal" unicode="&#x2260;" horiz-adv-x="569" 
d="M508 369h-177l-48 -93h225v-67h-259l-50 -98h-59l50 98h-129v67h163l47 93h-210v67h244l51 100h60l-51 -100h143v-67z" />
    <glyph glyph-name="lessequal" unicode="&#x2264;" horiz-adv-x="504" 
d="M448 113l-399 158v74l399 158v-74l-213 -82q-36 -13 -121 -39q75 -22 120 -39l214 -82v-74zM448 0h-399v67h399v-67z" />
    <glyph glyph-name="greaterequal" unicode="&#x2265;" horiz-adv-x="504" 
d="M56 113v74l214 82q45 17 120 39q-85 26 -121 39l-213 82v74l399 -158v-74zM56 0v67h399v-67h-399z" />
    <glyph glyph-name="angleleft" unicode="&#x2329;" horiz-adv-x="316" 
d="M101 295l213 -455h-91l-215 452l210 448h91z" />
    <glyph glyph-name="angleright" unicode="&#x232a;" horiz-adv-x="316" 
d="M98 740l210 -448l-215 -452h-91l213 455l-208 445h91z" />
    <glyph glyph-name="uni2460" unicode="&#x2460;" horiz-adv-x="789" 
d="M393 -11q-151 0 -252.5 103t-101.5 258q0 156 101.5 259t252.5 103t254 -103t103 -259q0 -154 -103 -257.5t-254 -103.5zM393 35q131 0 217.5 89.5t86.5 225.5q0 137 -86.5 227.5t-217.5 90.5q-130 0 -216.5 -91t-86.5 -227t86.5 -225.5t216.5 -89.5zM374 142v317
q-37 -31 -104 -28v61q49 0 79.5 20t35.5 55h56v-425h-67z" />
    <glyph glyph-name="uni2461" unicode="&#x2461;" horiz-adv-x="789" 
d="M393 712q151 0 254 -103t103 -259q0 -154 -103 -257.5t-254 -103.5t-252.5 103t-101.5 258q0 156 101.5 259t252.5 103zM393 35q131 0 217.5 89.5t86.5 225.5q0 137 -86.5 227.5t-217.5 90.5q-130 0 -216.5 -91t-86.5 -227t86.5 -225.5t216.5 -89.5zM427 300
q-33 -21 -47 -30t-33.5 -28.5t-25.5 -38.5h214v-61h-291q3 73 35 115.5t88 78.5q4 3 24 15t29 19t23 19.5t20 26t6 29.5q0 71 -68 71q-74 0 -74 -92l-67 11q0 53 33 96t111 43q59 0 94.5 -35.5t35.5 -94.5q0 -49 -28.5 -81t-78.5 -63z" />
    <glyph glyph-name="uni2462" unicode="&#x2462;" horiz-adv-x="789" 
d="M393 712q151 0 254 -103t103 -259q0 -154 -103 -257.5t-254 -103.5t-252.5 103t-101.5 258q0 156 101.5 259t252.5 103zM393 35q131 0 217.5 89.5t86.5 225.5q0 137 -86.5 227.5t-217.5 90.5q-130 0 -216.5 -91t-86.5 -227t86.5 -225.5t216.5 -89.5zM480 373
q27 -12 43 -40t16 -63q0 -61 -40.5 -97t-106.5 -36q-67 0 -105.5 38.5t-38.5 103.5l65 9q0 -44 20.5 -68.5t58.5 -24.5q39 0 60 19.5t21 54.5q0 65 -77 65h-38v61h30q31 0 49.5 15.5t18.5 41.5q0 31 -17 48t-48 17q-70 0 -70 -85l-68 10q0 56 39 94t99 38t95.5 -33t35.5 -89
q0 -50 -42 -79z" />
    <glyph glyph-name="uni2463" unicode="&#x2463;" horiz-adv-x="789" 
d="M393 -11q-151 0 -252.5 103t-101.5 258q0 156 101.5 259t252.5 103t254 -103t103 -259q0 -154 -103 -257.5t-254 -103.5zM393 35q131 0 217.5 89.5t86.5 225.5q0 137 -86.5 227.5t-217.5 90.5q-130 0 -216.5 -91t-86.5 -227t86.5 -225.5t216.5 -89.5zM404 142v96h-178v60
l189 269h53v-271h54v-58h-54v-96h-64zM294 295q16 1 50 1h61v101q0 27 2 63q-19 -35 -41 -65l-34 -48q-21 -30 -38 -52z" />
    <glyph glyph-name="uni2464" unicode="&#x2464;" horiz-adv-x="789" 
d="M393 712q151 0 254 -103t103 -259q0 -154 -103 -257.5t-254 -103.5t-252.5 103t-101.5 258q0 156 101.5 259t252.5 103zM393 35q131 0 217.5 89.5t86.5 225.5q0 137 -86.5 227.5t-217.5 90.5q-130 0 -216.5 -91t-86.5 -227t86.5 -225.5t216.5 -89.5zM392 427
q64 0 102.5 -38.5t38.5 -104.5q0 -67 -41 -107t-109 -40q-58 0 -98.5 38t-40.5 95l64 9q0 -38 22 -61t54 -23q40 0 63 23t23 66q0 38 -23 61.5t-63 23.5q-51 0 -78 -39l-57 4l34 233h224v-60h-174l-14 -99q26 19 73 19z" />
    <glyph glyph-name="uni2465" unicode="&#x2465;" horiz-adv-x="789" 
d="M393 712q151 0 254 -103t103 -259q0 -154 -103 -257.5t-254 -103.5t-252.5 103t-101.5 258q0 156 101.5 259t252.5 103zM393 35q131 0 217.5 89.5t86.5 225.5q0 137 -86.5 227.5t-217.5 90.5q-130 0 -216.5 -91t-86.5 -227t86.5 -225.5t216.5 -89.5zM399 424
q59 0 95.5 -39t36.5 -102q0 -56 -35 -101t-109 -45q-148 0 -148 206q0 116 39 172t119 56q51 0 83 -29t39 -82l-60 -10q-3 31 -20 47.5t-44 16.5q-88 0 -93 -137q38 47 97 47zM386 195q82 0 82 89q0 83 -79 83q-37 0 -58.5 -23t-21.5 -63t20.5 -63t56.5 -23z" />
    <glyph glyph-name="uni2466" unicode="&#x2466;" horiz-adv-x="789" 
d="M393 712q151 0 254 -103t103 -259q0 -154 -103 -257.5t-254 -103.5t-252.5 103t-101.5 258q0 156 101.5 259t252.5 103zM393 35q131 0 217.5 89.5t86.5 225.5q0 137 -86.5 227.5t-217.5 90.5q-130 0 -216.5 -91t-86.5 -227t86.5 -225.5t216.5 -89.5zM268 501v61h270v-59
q-68 -64 -110.5 -164t-45.5 -202h-70q5 99 44.5 194t105.5 170h-194z" />
    <glyph glyph-name="uni2467" unicode="&#x2467;" horiz-adv-x="789" 
d="M393 -11q-151 0 -252.5 103t-101.5 258q0 156 101.5 259t252.5 103t254 -103t103 -259q0 -154 -103 -257.5t-254 -103.5zM393 35q131 0 217.5 89.5t86.5 225.5q0 137 -86.5 227.5t-217.5 90.5q-130 0 -216.5 -91t-86.5 -227t86.5 -225.5t216.5 -89.5zM394 137
q-69 0 -108.5 36.5t-39.5 98.5q0 74 63 102q-45 29 -45 83q0 53 35 83.5t96 30.5q60 -1 94.5 -31t34.5 -83t-45 -84q63 -27 63 -102q0 -62 -40 -98t-108 -36zM394 393q31 0 49.5 16t18.5 44q0 29 -18 45.5t-50 16.5t-50 -16.5t-18 -45.5q0 -28 18.5 -44t49.5 -16zM394 194
q38 0 61 21t23 55q0 33 -22.5 52.5t-61.5 19.5t-61.5 -19.5t-22.5 -52.5q0 -34 22.5 -55t61.5 -21z" />
    <glyph glyph-name="uni2468" unicode="&#x2468;" horiz-adv-x="789" 
d="M393 712q151 0 254 -103t103 -259q0 -154 -103 -257.5t-254 -103.5t-252.5 103t-101.5 258q0 156 101.5 259t252.5 103zM393 35q131 0 217.5 89.5t86.5 225.5q0 137 -86.5 227.5t-217.5 90.5q-130 0 -216.5 -91t-86.5 -227t86.5 -225.5t216.5 -89.5zM393 571
q147 0 147 -205q0 -117 -38.5 -173t-118.5 -56q-51 0 -85 30t-41 83l60 10q4 -31 22 -48t46 -17q88 0 93 136q-37 -46 -97 -46q-59 0 -95.5 38.5t-36.5 101.5q0 56 35 101t109 45zM391 342q37 0 58.5 22.5t21.5 62.5q0 41 -20.5 64t-56.5 23q-82 0 -82 -90q0 -82 79 -82z
" />
    <glyph glyph-name="uni24EA" unicode="&#x24ea;" horiz-adv-x="789" 
d="M393 -11q-151 0 -252.5 103t-101.5 258q0 156 101.5 259t252.5 103t254 -103t103 -259q0 -154 -103 -257.5t-254 -103.5zM393 35q131 0 217.5 89.5t86.5 225.5q0 137 -86.5 227.5t-217.5 90.5q-130 0 -216.5 -91t-86.5 -227t86.5 -225.5t216.5 -89.5zM393 137
q-75 0 -114.5 55.5t-39.5 161.5q0 102 40.5 159.5t113.5 57.5t114.5 -57.5t41.5 -159.5q0 -103 -41 -160t-115 -57zM393 197q45 0 65.5 36.5t20.5 120.5q0 85 -20 121t-66 36q-44 0 -63.5 -36t-19.5 -121q0 -86 19.5 -121.5t63.5 -35.5z" />
    <glyph glyph-name="lozenge" unicode="&#x25ca;" horiz-adv-x="551" 
d="M226 0l-196 351l195 349h100l196 -352l-195 -348h-100zM277 71q27 53 55 107l90 168l-92 175q-10 19 -55 112q-5 -9 -25 -49.5t-32 -62.5l-90 -168l92 -175z" />
    <glyph glyph-name="uni25CF" unicode="&#x25cf;" horiz-adv-x="800" 
d="M400 -12q-150 0 -256 105.5t-106 256.5q0 150 106.5 256t255.5 106q151 0 256.5 -106t105.5 -256t-105.5 -256t-256.5 -106z" />
    <glyph glyph-name="uni300A" unicode="&#x300a;" horiz-adv-x="526" 
d="M307 740l-208 -445l213 -455h-89l-215 452l210 448h89zM311 295l213 -455h-89l-215 452l210 448h89z" />
    <glyph glyph-name="uni300B" unicode="&#x300b;" horiz-adv-x="526" 
d="M96 740l210 -448l-215 -452h-89l213 455l-208 445h89zM308 740l210 -448l-215 -452h-89l213 455l-208 445h89z" />
    <glyph glyph-name="uni300C" unicode="&#x300c;" horiz-adv-x="335" 
d="M75 298v442h255v-70h-168v-372h-87z" />
    <glyph glyph-name="uni300D" unicode="&#x300d;" horiz-adv-x="311" 
d="M251 282v-442h-255v70h168v372h87z" />
    <glyph glyph-name="uni300E" unicode="&#x300e;" horiz-adv-x="466" 
d="M77 209v531h363v-202h-159v-329h-204zM149 269h60v329h159v82h-219v-411z" />
    <glyph glyph-name="uni300F" unicode="&#x300f;" horiz-adv-x="454" 
d="M388 371v-531h-363v202h159v329h204zM316 311h-60v-329h-159v-82h219v411z" />
    <glyph glyph-name="uni3010" unicode="&#x3010;" horiz-adv-x="327" 
d="M78 -160v900h252v-3q-93 -107 -135 -209.5t-42 -236.5t41.5 -237t135.5 -211v-3h-252z" />
    <glyph glyph-name="uni3011" unicode="&#x3011;" horiz-adv-x="327" 
d="M249 -160h-252v3q94 108 135.5 211t41.5 237t-42 236.5t-135 209.5v3h252v-900z" />
    <glyph glyph-name="uni3014" unicode="&#x3014;" horiz-adv-x="269" 
d="M141 552v-521l118 -156l-64 -46l-141 185v553l143 187l63 -46z" />
    <glyph glyph-name="uni3015" unicode="&#x3015;" horiz-adv-x="269" 
d="M72 754l143 -187v-553l-141 -185l-64 46l118 156v521l-119 156z" />
    <glyph glyph-name="uniF8FF" unicode="&#xf8ff;" horiz-adv-x="674" 
d="M619 435q14 -103 14 -116v-64q0 -26 -3 -47q-4 -26 -4 -50v-43q0 -59 -11 -103q-6 -24 -19 -24q-8 0 -13.5 9.5t-14.5 34.5q-2 7 -4 12t-4 11q-12 31 -14 41q-3 10 -3.5 16t-3.5 27.5t-9 56.5q-6 30 -8 30q-7 0 -7 -50q0 -44 -11 -115q-4 -21 -14 -38q-12 -20 -25 -20
q-16 0 -22 35q-3 19 -4 42q-3 60 -13 117q-7 37 -7 65t7 70q0 3 4 63q1 11 2 18t1 9q0 16 -11 18q0 -4 -1 -19.5t-3 -29t-6 -23.5q-11 -28 -30 -28q-17 2 -21 16q-5 20 -5 37q0 23 6 37q-15 -7 -16 -34q0 -3 0.5 -9t0.5 -8q0 -24 -10 -37q-8 -14 -19 -14q-8 0 -16 8t-8 20
l-3 6q-3 5 -6.5 11t-4.5 9q-9 18 -9 56q0 17 -15 17q-8 0 -13 -26q-1 -6 -10 -27q-12 -26 -19 -50q-6 -22 -39 -38.5t-59 -16.5q-33 0 -63 35q-23 26 -23 66q0 21 5 35q2 6 10 22q9 18 12 27q3 10 11 10q13 0 13 -11q0 -7 -15 -37q-8 -17 -10 -23q-2 -8 -2 -22q0 -31 16 -50
q23 -28 48 -28q16 0 41.5 10.5t30.5 27.5q6 19 21 53q7 15 9 24q7 43 36 43q16 0 27 -10.5t12 -30.5q0 -38 5 -44l5 -8q10 -15 13 -32q4 8 4 25v20q8 55 45 55q21 0 21 -18q0 -9 -5 -19q-3 -11 -3 -25q0 -16 3 -25q2 1 6 11q2 6 3.5 17t2.5 22.5t1 12.5q3 25 13 32q6 4 13 4
q13 0 24 -12.5t11 -28.5q0 -4 -1.5 -13.5t-1.5 -18.5q0 -31 -5 -65q-6 -42 -6 -67q0 -22 7 -59q8 -41 13 -121q2 -27 6 -46q7 11 12 34q9 39 10 107v9.5t0.5 11t1 10.5t1.5 11.5t2 10t3.5 9t5.5 7t7 5t9 1.5q27 0 33 -53q8 -67 15 -96q1 -5 13 -37q5 -13 12 -34q8 54 8 85
q0 15 -0.5 25.5t-0.5 11.5q0 7 5 57q3 27 3 88v21q0 13 -3 37t-7.5 48t-4.5 28q-7 52 -22 99q-17 56 -43 84q-46 50 -95 62q-44 11 -80 11q-10 0 -25 -2q-32 -5 -54 -29q-35 -38 -47 -75q-1 -2 -3.5 -11.5t-4 -14t-5.5 -13t-8 -14t-11 -11t-15 -9.5l-20 -9q-51 -23 -58 -25
q-1 0 -3 -1q-9 0 -11 10q-1 2 -1 5q0 6 8 9q18 6 54 24q26 13 36 24.5t19 40.5l3 10q12 39 55 82q33 33 97 33q37 0 76 -12q57 -8 110 -67q32 -34 55 -117q13 -49 18 -81zM153 439q0 -10 -8 -10q-5 0 -8 6.5t1 10.5q2 2 5 2q10 0 10 -9zM117 430q4 -3 4 -7q0 -5 -7 -6h-3
q-6 0 -9 5t-1 8q5 5 8 5t8 -5zM126 381q4 0 8 4q8 8 12 23q2 11 10 11q10 0 10 -10q-6 -28 -24 -40q-9 -6 -14 -6q-7 0 -18 6q-7 3 -7 8q0 9 8 9q3 0 7.5 -2.5t7.5 -2.5z" />
    <glyph glyph-name="i.loclTRK" horiz-adv-x="222" 
d="M66 594v106h90v-106h-90zM66 0v500h90v-500h-90z" />
    <glyph glyph-name="a.ss01" horiz-adv-x="581" 
d="M425 500h90v-500h-90v65q-55 -77 -161 -77q-102 0 -164.5 72t-62.5 190q0 120 64.5 191.5t165.5 71.5q102 0 158 -86v73zM285 60q44 0 73.5 16t44 45.5t20 60t5.5 69.5q0 191 -145 191q-83 0 -115 -48.5t-32 -143.5t34 -142.5t115 -47.5z" />
    <glyph glyph-name="aacute.ss01" horiz-adv-x="581" 
d="M407 700l-92 -127h-74l65 127h101zM425 500h90v-500h-90v65q-55 -77 -161 -77q-102 0 -164.5 72t-62.5 190q0 120 64.5 191.5t165.5 71.5q102 0 158 -86v73zM285 60q44 0 73.5 16t44 45.5t20 60t5.5 69.5q0 191 -145 191q-83 0 -115 -48.5t-32 -143.5t34 -142.5
t115 -47.5z" />
    <glyph glyph-name="abreve.ss01" horiz-adv-x="581" 
d="M285 585q-50 0 -84.5 31.5t-36.5 83.5h62q7 -50 58 -50q55 0 62 50h60q-2 -49 -36 -82t-85 -33zM425 500h90v-500h-90v65q-55 -77 -161 -77q-102 0 -164.5 72t-62.5 190q0 120 64.5 191.5t165.5 71.5q102 0 158 -86v73zM285 60q44 0 73.5 16t44 45.5t20 60t5.5 69.5
q0 191 -145 191q-83 0 -115 -48.5t-32 -143.5t34 -142.5t115 -47.5z" />
    <glyph glyph-name="acircumflex.ss01" horiz-adv-x="581" 
d="M283 641l-58 -56h-75l93 101h83l93 -101h-80zM425 500h90v-500h-90v65q-55 -77 -161 -77q-102 0 -164.5 72t-62.5 190q0 120 64.5 191.5t165.5 71.5q102 0 158 -86v73zM285 60q44 0 73.5 16t44 45.5t20 60t5.5 69.5q0 191 -145 191q-83 0 -115 -48.5t-32 -143.5
t34 -142.5t115 -47.5z" />
    <glyph glyph-name="adieresis.ss01" horiz-adv-x="581" 
d="M234 682v-97h-82v97h82zM417 682v-97h-82v97h82zM425 500h90v-500h-90v65q-55 -77 -161 -77q-102 0 -164.5 72t-62.5 190q0 120 64.5 191.5t165.5 71.5q102 0 158 -86v73zM285 60q44 0 73.5 16t44 45.5t20 60t5.5 69.5q0 191 -145 191q-83 0 -115 -48.5t-32 -143.5
t34 -142.5t115 -47.5z" />
    <glyph glyph-name="uni0227.ss01" horiz-adv-x="581" 
d="M330 700v-106h-90v106h90zM425 500h90v-500h-90v65q-55 -77 -161 -77q-102 0 -164.5 72t-62.5 190q0 120 64.5 191.5t165.5 71.5q102 0 158 -86v73zM285 60q44 0 73.5 16t44 45.5t20 60t5.5 69.5q0 191 -145 191q-83 0 -115 -48.5t-32 -143.5t34 -142.5t115 -47.5z" />
    <glyph glyph-name="uni1EA1.ss01" horiz-adv-x="581" 
d="M425 500h90v-500h-90v65q-55 -77 -161 -77q-102 0 -164.5 72t-62.5 190q0 120 64.5 191.5t165.5 71.5q102 0 158 -86v73zM285 60q44 0 73.5 16t44 45.5t20 60t5.5 69.5q0 191 -145 191q-83 0 -115 -48.5t-32 -143.5t34 -142.5t115 -47.5zM240 -197v106h90v-106h-90z" />
    <glyph glyph-name="agrave.ss01" horiz-adv-x="581" 
d="M333 573h-74l-92 127h101zM425 500h90v-500h-90v65q-55 -77 -161 -77q-102 0 -164.5 72t-62.5 190q0 120 64.5 191.5t165.5 71.5q102 0 158 -86v73zM285 60q44 0 73.5 16t44 45.5t20 60t5.5 69.5q0 191 -145 191q-83 0 -115 -48.5t-32 -143.5t34 -142.5t115 -47.5z" />
    <glyph glyph-name="amacron.ss01" horiz-adv-x="581" 
d="M413 667v-70h-256v70h256zM425 500h90v-500h-90v65q-55 -77 -161 -77q-102 0 -164.5 72t-62.5 190q0 120 64.5 191.5t165.5 71.5q102 0 158 -86v73zM285 60q44 0 73.5 16t44 45.5t20 60t5.5 69.5q0 191 -145 191q-83 0 -115 -48.5t-32 -143.5t34 -142.5t115 -47.5z" />
    <glyph glyph-name="aogonek.ss01" horiz-adv-x="581" 
d="M534 -110l3 -63q-26 -8 -56 -8q-52 0 -78 23.5t-26 60.5q0 57 75 97h-27v65q-55 -77 -161 -77q-102 0 -164.5 72t-62.5 190q0 120 64.5 191.5t165.5 71.5q102 0 158 -86v73h90v-500q-60 -49 -60 -84q0 -33 41 -33q20 0 38 7zM285 60q44 0 73.5 16t44 45.5t20 60t5.5 69.5
q0 191 -145 191q-83 0 -115 -48.5t-32 -143.5t34 -142.5t115 -47.5z" />
    <glyph glyph-name="aring.ss01" horiz-adv-x="581" 
d="M285 553q-40 0 -68 27t-28 65t28 65t68 27t68 -27t28 -65t-28 -65t-68 -27zM285 698q-22 0 -36.5 -15.5t-14.5 -37.5q0 -23 14.5 -38.5t36.5 -15.5q23 0 36.5 15t13.5 39q0 22 -13.5 37.5t-36.5 15.5zM425 500h90v-500h-90v65q-55 -77 -161 -77q-102 0 -164.5 72
t-62.5 190q0 120 64.5 191.5t165.5 71.5q102 0 158 -86v73zM285 60q44 0 73.5 16t44 45.5t20 60t5.5 69.5q0 191 -145 191q-83 0 -115 -48.5t-32 -143.5t34 -142.5t115 -47.5z" />
    <glyph glyph-name="aringacute.ss01" horiz-adv-x="581" 
d="M415 886l-92 -127h-74l65 127h101zM285 553q-40 0 -68 27t-28 65t28 65t68 27t68 -27t28 -65t-28 -65t-68 -27zM285 698q-22 0 -36.5 -15.5t-14.5 -37.5q0 -23 14.5 -38.5t36.5 -15.5q23 0 36.5 15t13.5 39q0 22 -13.5 37.5t-36.5 15.5zM425 500h90v-500h-90v65
q-55 -77 -161 -77q-102 0 -164.5 72t-62.5 190q0 120 64.5 191.5t165.5 71.5q102 0 158 -86v73zM285 60q44 0 73.5 16t44 45.5t20 60t5.5 69.5q0 191 -145 191q-83 0 -115 -48.5t-32 -143.5t34 -142.5t115 -47.5z" />
    <glyph glyph-name="atilde.ss01" horiz-adv-x="581" 
d="M226 611q-36 0 -41 -38h-55q0 41 27 70q29 31 75 31q26 0 61 -21t50 -21q10 0 16 2t10.5 9.5t6 10.5t5.5 15h59q-7 -51 -30 -73q-27 -26 -67 -26q-31 0 -65.5 20.5t-51.5 20.5zM425 500h90v-500h-90v65q-55 -77 -161 -77q-102 0 -164.5 72t-62.5 190q0 120 64.5 191.5
t165.5 71.5q102 0 158 -86v73zM285 60q44 0 73.5 16t44 45.5t20 60t5.5 69.5q0 191 -145 191q-83 0 -115 -48.5t-32 -143.5t34 -142.5t115 -47.5z" />
    <glyph glyph-name="r.ss02" horiz-adv-x="408" 
d="M343 512q31 0 62 -11l-20 -88q-22 7 -45 7q-85 0 -134.5 -83t-49.5 -215v-122h-90v500h90v-163q19 76 71.5 125.5t115.5 49.5z" />
    <glyph glyph-name="racute.ss02" horiz-adv-x="408" 
d="M318 700l-92 -127h-74l65 127h101zM343 512q31 0 62 -11l-20 -88q-22 7 -45 7q-85 0 -134.5 -83t-49.5 -215v-122h-90v500h90v-163q19 76 71.5 125.5t115.5 49.5z" />
    <glyph glyph-name="rcaron.ss02" horiz-adv-x="408" 
d="M237 585h-83l-93 101h75l58 -56l56 56h80zM343 512q31 0 62 -11l-20 -88q-22 7 -45 7q-85 0 -134.5 -83t-49.5 -215v-122h-90v500h90v-163q19 76 71.5 125.5t115.5 49.5z" />
    <glyph glyph-name="uni0157.ss02" horiz-adv-x="408" 
d="M343 512q31 0 62 -11l-20 -88q-22 7 -45 7q-85 0 -134.5 -83t-49.5 -215v-122h-90v500h90v-163q19 76 71.5 125.5t115.5 49.5zM64 -151v85h95v-79q0 -87 -96 -92v39q48 6 48 47h-47z" />
    <glyph glyph-name="r.ss03" horiz-adv-x="438" 
d="M331 513q55 0 103 -22l-18 -93q-39 29 -100 29q-83 0 -121.5 -68.5t-38.5 -177.5v-181h-90v500h90v-115q21 58 67 93t108 35z" />
    <glyph glyph-name="racute.ss03" horiz-adv-x="438" 
d="M319 700l-92 -127h-74l65 127h101zM331 513q55 0 103 -22l-18 -93q-39 29 -100 29q-83 0 -121.5 -68.5t-38.5 -177.5v-181h-90v500h90v-115q21 58 67 93t108 35z" />
    <glyph glyph-name="rcaron.ss03" horiz-adv-x="438" 
d="M238 585h-83l-93 101h75l58 -56l56 56h80zM331 513q55 0 103 -22l-18 -93q-39 29 -100 29q-83 0 -121.5 -68.5t-38.5 -177.5v-181h-90v500h90v-115q21 58 67 93t108 35z" />
    <glyph glyph-name="uni0157.ss03" horiz-adv-x="438" 
d="M331 513q55 0 103 -22l-18 -93q-39 29 -100 29q-83 0 -121.5 -68.5t-38.5 -177.5v-181h-90v500h90v-115q21 58 67 93t108 35zM64 -151v85h95v-79q0 -87 -96 -92v39q48 6 48 47h-47z" />
    <glyph glyph-name="ordfeminine.lf" horiz-adv-x="419" 
d="M378 404l2 -51q-16 -4 -40 -4q-58 0 -66 48q-32 -54 -115 -54q-48 0 -83 26.5t-35 75.5q0 50 32.5 72.5t86.5 33.5l111 22q0 42 -11 57q-15 22 -58 22t-62.5 -17t-19.5 -53l-67 10q1 63 44 91q37 25 108 25q133 0 133 -114v-168q0 -14 3.5 -20t15.5 -6q10 0 21 4z
M271 484v39l-99 -23q-32 -7 -46.5 -18t-14.5 -37q0 -23 17 -35.5t43 -12.5q50 0 75 24t25 63z" />
    <glyph glyph-name="ordmasculine.lf" horiz-adv-x="420" 
d="M210 343q-81 0 -127 49t-46 133q0 81 47 132t126 51t126.5 -51.5t47.5 -131.5q0 -81 -48 -131.5t-126 -50.5zM210 398q100 0 100 127q0 129 -100 129t-100 -129q0 -127 100 -127z" />
    <glyph glyph-name="zero.lf" horiz-adv-x="597" 
d="M298 -12q-123 0 -187.5 92t-64.5 271q0 165 64 263t188 98t189 -98.5t65 -262.5q0 -167 -64.5 -265t-189.5 -98zM298 64q88 0 122 70t34 217q0 146 -33 214.5t-123 68.5q-88 0 -121 -68.5t-33 -214.5q0 -150 33 -218.5t121 -68.5z" />
    <glyph glyph-name="one.lf" horiz-adv-x="366" 
d="M212 700h71v-700h-91v538q-39 -47 -148 -47q-4 0 -13 0.5t-14 0.5l-1 2v75l1 2q171 0 195 129z" />
    <glyph glyph-name="two.lf" horiz-adv-x="539" 
d="M130 81h364v-81h-467q4 61 21.5 110.5t48 86t59.5 61t71 51.5q8 5 35 21.5t40.5 26t36 27.5t34 34t20.5 39t9 47q0 64 -31 98t-91 34q-135 0 -135 -155l-91 15q0 36 10.5 71.5t35 69t72 54.5t112.5 21q95 0 152 -56.5t57 -152.5q0 -43 -14.5 -79.5t-43.5 -65.5
t-53.5 -47.5t-63.5 -42.5q-41 -25 -63 -40t-53 -40t-48.5 -51t-23.5 -56z" />
    <glyph glyph-name="three.lf" horiz-adv-x="551" 
d="M395 377q57 -16 85.5 -65.5t28.5 -109.5q0 -103 -67.5 -158.5t-170.5 -55.5q-110 0 -172 63t-60 164l89 13q-1 -72 35.5 -118t107.5 -46t109 35.5t38 101.5q0 65 -38.5 94.5t-102.5 29.5h-57v82h45q53 0 89 29.5t36 80.5q0 56 -31.5 88t-88.5 32q-41 0 -69.5 -17.5
t-40.5 -44t-16.5 -49t-3.5 -41.5l-92 15q2 93 63.5 152.5t158.5 59.5q90 0 150 -49.5t60 -146.5q0 -42 -23 -80t-62 -59z" />
    <glyph glyph-name="four.lf" horiz-adv-x="533" 
d="M502 238v-79h-90v-159h-91v159h-302v90l317 451h76v-462h90zM202 238h119v180q0 93 2 144q-34 -63 -81 -126l-63 -92l-77 -108q72 2 100 2z" />
    <glyph glyph-name="five.lf" horiz-adv-x="542" 
d="M277 461q100 0 164.5 -59t64.5 -176q0 -103 -64.5 -170.5t-182.5 -67.5q-100 0 -161 62t-61 163l89 13q0 -77 39 -119.5t98 -42.5q156 0 156 169q0 71 -40.5 109t-114.5 38q-87 0 -135 -64l-78 6l54 378h364v-81h-289l-31 -207q46 49 128 49z" />
    <glyph glyph-name="six.lf" horiz-adv-x="565" 
d="M308 457q99 0 157 -65t58 -166q0 -42 -12.5 -82t-38.5 -76t-73.5 -58t-110.5 -22q-241 0 -241 341q0 184 58.5 283.5t199.5 99.5q91 0 140.5 -51t60.5 -131l-85 -14q-11 120 -119 120q-170 0 -170 -277q55 98 176 98zM287 64q76 0 112.5 39.5t36.5 123.5q0 151 -144 151
q-69 0 -108.5 -42t-39.5 -114q0 -70 36 -114t107 -44z" />
    <glyph glyph-name="seven.lf" horiz-adv-x="470" 
d="M17 700h439v-85q-112 -108 -185.5 -275.5t-81.5 -339.5h-95q11 169 80 331t186 288h-343v81z" />
    <glyph glyph-name="eight.lf" horiz-adv-x="567" 
d="M407 381q117 -37 117 -173q0 -105 -66 -162.5t-174 -57.5q-112 0 -176.5 59.5t-64.5 160.5q0 137 116 173q-86 44 -86 146q0 80 52 132.5t160 52.5q106 0 158 -52.5t52 -132.5q0 -104 -88 -146zM284 636q-60 0 -92 -30t-32 -85q0 -53 33 -82.5t91 -29.5t90.5 29.5
t32.5 82.5q0 55 -32 85t-91 30zM284 64q68 0 109 39t41 102q0 60 -40.5 95.5t-109.5 35.5q-68 0 -109.5 -34.5t-41.5 -96.5q0 -63 41.5 -102t109.5 -39z" />
    <glyph glyph-name="nine.lf" horiz-adv-x="566" 
d="M278 712q241 0 241 -343q0 -182 -58.5 -281.5t-198.5 -99.5q-92 0 -141.5 53.5t-58.5 138.5l83 14q3 -56 33 -93t87 -37q162 0 168 270q-66 -97 -174 -97q-99 0 -157.5 66t-58.5 169q0 43 12.5 83t38.5 76.5t73.5 58.5t110.5 22zM274 317q69 0 108.5 43t39.5 117
q0 70 -36 114.5t-107 44.5q-149 0 -149 -166q0 -153 144 -153z" />
    <glyph glyph-name="zero.tf" 
d="M309 -12q-123 0 -187.5 92t-64.5 271q0 165 64 263t188 98t189 -98.5t65 -262.5q0 -167 -64.5 -265t-189.5 -98zM309 64q88 0 122 70t34 217q0 146 -33 214.5t-123 68.5q-88 0 -121 -68.5t-33 -214.5q0 -150 33 -218.5t121 -68.5z" />
    <glyph glyph-name="one.tf" 
d="M383 79h165v-79h-437v79h181v459q-39 -47 -148 -47q-4 0 -13 0.5t-14 0.5l-1 2v75l1 2q171 0 195 129h71v-621z" />
    <glyph glyph-name="two.tf" 
d="M170 81h364v-81h-467q4 61 21.5 110.5t48 86t59.5 61t71 51.5q8 5 35 21.5t40.5 26t36 27.5t34 34t20.5 39t9 47q0 64 -31 98t-91 34q-135 0 -135 -155l-91 15q0 36 10.5 71.5t35 69t72 54.5t112.5 21q95 0 152 -56.5t57 -152.5q0 -43 -14.5 -79.5t-43.5 -65.5
t-53.5 -47.5t-63.5 -42.5q-41 -25 -63 -40t-53 -40t-48.5 -51t-23.5 -56z" />
    <glyph glyph-name="three.tf" 
d="M429 377q57 -16 85.5 -65.5t28.5 -109.5q0 -103 -67.5 -158.5t-170.5 -55.5q-110 0 -172 63t-60 164l89 13q-1 -72 35.5 -118t107.5 -46t109 35.5t38 101.5q0 65 -38.5 94.5t-102.5 29.5h-57v82h45q53 0 89 29.5t36 80.5q0 56 -31.5 88t-88.5 32q-41 0 -69.5 -17.5
t-40.5 -44t-16.5 -49t-3.5 -41.5l-92 15q2 93 63.5 152.5t158.5 59.5q90 0 150 -49.5t60 -146.5q0 -42 -23 -80t-62 -59z" />
    <glyph glyph-name="four.tf" 
d="M543 238v-79h-90v-159h-91v159h-302v90l317 451h76v-462h90zM243 238h119v180q0 93 2 144q-34 -63 -81 -126l-63 -92l-77 -108q72 2 100 2z" />
    <glyph glyph-name="five.tf" 
d="M316 461q100 0 164.5 -59t64.5 -176q0 -103 -64.5 -170.5t-182.5 -67.5q-100 0 -161 62t-61 163l89 13q0 -77 39 -119.5t98 -42.5q156 0 156 169q0 71 -40.5 109t-114.5 38q-87 0 -135 -64l-78 6l54 378h364v-81h-289l-31 -207q46 49 128 49z" />
    <glyph glyph-name="six.tf" 
d="M335 457q99 0 157 -65t58 -166q0 -42 -12.5 -82t-38.5 -76t-73.5 -58t-110.5 -22q-241 0 -241 341q0 184 58.5 283.5t199.5 99.5q91 0 140.5 -51t60.5 -131l-85 -14q-11 120 -119 120q-170 0 -170 -277q55 98 176 98zM314 64q76 0 112.5 39.5t36.5 123.5q0 151 -144 151
q-69 0 -108.5 -42t-39.5 -114q0 -70 36 -114t107 -44z" />
    <glyph glyph-name="seven.tf" 
d="M97 700h439v-85q-112 -108 -185.5 -275.5t-81.5 -339.5h-95q11 169 80 331t186 288h-343v81z" />
    <glyph glyph-name="eight.tf" 
d="M433 381q117 -37 117 -173q0 -105 -66 -162.5t-174 -57.5q-112 0 -176.5 59.5t-64.5 160.5q0 137 116 173q-86 44 -86 146q0 80 52 132.5t160 52.5q106 0 158 -52.5t52 -132.5q0 -104 -88 -146zM310 636q-60 0 -92 -30t-32 -85q0 -53 33 -82.5t91 -29.5t90.5 29.5
t32.5 82.5q0 55 -32 85t-91 30zM310 64q68 0 109 39t41 102q0 60 -40.5 95.5t-109.5 35.5q-68 0 -109.5 -34.5t-41.5 -96.5q0 -63 41.5 -102t109.5 -39z" />
    <glyph glyph-name="nine.tf" 
d="M305 712q241 0 241 -343q0 -182 -58.5 -281.5t-198.5 -99.5q-92 0 -141.5 53.5t-58.5 138.5l83 14q3 -56 33 -93t87 -37q162 0 168 270q-66 -97 -174 -97q-99 0 -157.5 66t-58.5 169q0 43 12.5 83t38.5 76.5t73.5 58.5t110.5 22zM301 317q69 0 108.5 43t39.5 117
q0 70 -36 114.5t-107 44.5q-149 0 -149 -166q0 -153 144 -153z" />
    <glyph glyph-name="zero.tosf" 
d="M310 -12q-121 0 -184 90t-63 265q0 162 63 258t184 96t184.5 -96.5t63.5 -257.5q0 -163 -63 -259t-185 -96zM310 63q86 0 119 68.5t33 211.5t-32 210t-120 67q-87 0 -119 -67t-32 -210q0 -146 32.5 -213t118.5 -67z" />
    <glyph glyph-name="one.tosf" 
d="M375 79h170v-79h-437v79h178v447q-38 -46 -145 -46q-5 0 -13 0.5t-13 0.5l-1 2v74l1 2q168 0 190 126h70v-606z" />
    <glyph glyph-name="two.tosf" 
d="M173 79h356v-79h-457q4 60 21.5 108.5t47 84t58 60t69.5 49.5q7 5 34 21.5t40 25t35 27t33 33.5t20 37.5t9 46.5q0 63 -30.5 96t-88.5 33q-42 0 -70.5 -15.5t-40.5 -41.5t-16.5 -47.5t-4.5 -46.5l-89 14q0 36 10.5 70t34.5 67.5t70.5 54t109.5 20.5q93 0 148.5 -55.5
t55.5 -149.5q0 -42 -14 -77.5t-42.5 -64t-52.5 -46.5t-62 -42q-41 -25 -62 -39t-51.5 -39t-47.5 -50.5t-23 -54.5z" />
    <glyph glyph-name="three.tosf" 
d="M427 369q54 -16 82.5 -64t28.5 -107q0 -101 -66 -155.5t-167 -54.5q-108 0 -168.5 62t-58.5 160l87 13q-1 -70 35 -115t105 -45t106.5 35t37.5 99q0 63 -37.5 92t-100.5 29h-56v80h44q52 0 87.5 29t35.5 79q0 54 -31 85.5t-87 31.5q-40 0 -68 -17t-39.5 -43t-16 -47.5
t-3.5 -40.5l-90 14q2 92 62.5 150t154.5 58q89 0 147.5 -48.5t58.5 -143.5q0 -42 -22 -78.5t-61 -57.5z" />
    <glyph glyph-name="four.tosf" 
d="M539 233v-77h-88v-156h-89v156h-295v88l310 441h74v-452h88zM246 233h116v176q0 90 2 140q-36 -64 -79 -122l-62 -90q-33 -48 -74 -106q68 2 97 2z" />
    <glyph glyph-name="five.tosf" 
d="M316 451q97 0 160.5 -57.5t63.5 -172.5q0 -101 -63.5 -167t-178.5 -66q-97 0 -157 61t-60 159l87 13q0 -75 38 -116.5t96 -41.5q153 0 153 165q0 70 -39.5 107t-112.5 37q-85 0 -132 -63l-76 6l53 370h356v-79h-283l-30 -202q44 47 125 47z" />
    <glyph glyph-name="six.tosf" 
d="M334 447q96 0 153.5 -63.5t57.5 -162.5q0 -41 -12.5 -80t-37.5 -74.5t-72 -57t-108 -21.5q-236 0 -236 334q0 87 12.5 153t40.5 117.5t78 78t121 26.5q90 0 138 -50t59 -128l-83 -14q-11 117 -117 117q-166 0 -166 -271q54 96 172 96zM314 63q74 0 110 38.5t36 120.5
q0 148 -141 148q-67 0 -106 -41t-39 -112q0 -68 35.5 -111t104.5 -43z" />
    <glyph glyph-name="seven.tosf" 
d="M98 685h429v-83q-110 -105 -181.5 -269t-79.5 -333h-93q11 166 79 325t182 281h-336v79z" />
    <glyph glyph-name="eight.tosf" 
d="M431 373q114 -36 114 -169q0 -103 -65 -159.5t-170 -56.5q-109 0 -172.5 58t-63.5 158q0 133 113 169q-84 44 -84 143q0 78 51 129.5t157 51.5q104 0 154.5 -51.5t50.5 -129.5q0 -100 -85 -143zM310 622q-58 0 -89.5 -29.5t-31.5 -82.5q0 -52 32 -81t89 -29q56 0 88 29
t32 81q0 54 -31.5 83t-88.5 29zM310 63q67 0 107 38t40 100q0 59 -40 93.5t-107 34.5q-66 0 -107 -34t-41 -94q0 -62 40.5 -100t107.5 -38z" />
    <glyph glyph-name="nine.tosf" 
d="M305 697q236 0 236 -336q0 -178 -57.5 -275.5t-194.5 -97.5q-90 0 -138.5 52.5t-56.5 135.5l81 14q3 -55 32 -91t85 -36q159 0 165 265q-65 -96 -171 -96q-97 0 -154 64.5t-57 165.5q0 42 12.5 81t37.5 75t72 57.5t108 21.5zM301 310q67 0 106 42.5t39 114.5
q0 68 -35.5 111.5t-104.5 43.5q-146 0 -146 -162q0 -150 141 -150z" />
    <glyph glyph-name="zero.dnom" horiz-adv-x="382" 
d="M190 -5q-75 0 -114.5 55.5t-39.5 161.5q0 102 40.5 159.5t113.5 57.5t114.5 -57.5t41.5 -159.5q0 -103 -41 -160t-115 -57zM190 55q45 0 65.5 36.5t20.5 120.5q0 85 -20 121t-66 36q-44 0 -63.5 -36t-19.5 -121q0 -86 19.5 -121.5t63.5 -35.5z" />
    <glyph glyph-name="one.dnom" horiz-adv-x="246" 
d="M123 0v317q-37 -31 -104 -28v61q49 0 79.5 20t35.5 55h56v-425h-67z" />
    <glyph glyph-name="two.dnom" horiz-adv-x="359" 
d="M106 61h214v-61h-291q3 73 35 115.5t88 78.5q4 3 24 15t29 19t23 19.5t20 26t6 29.5q0 71 -68 71q-74 0 -74 -92l-67 11q0 53 33 96t111 43q59 0 94.5 -35.5t35.5 -94.5q0 -49 -28.5 -81t-78.5 -63q-33 -21 -47 -30t-33.5 -28.5t-25.5 -38.5z" />
    <glyph glyph-name="three.dnom" horiz-adv-x="358" 
d="M265 231q27 -12 43 -40t16 -63q0 -61 -40.5 -97t-106.5 -36q-67 0 -105.5 38.5t-38.5 103.5l65 9q0 -44 20.5 -68.5t58.5 -24.5q39 0 60 19.5t21 54.5q0 65 -77 65h-38v61h30q31 0 49.5 15.5t18.5 41.5q0 31 -17 48t-48 17q-70 0 -70 -85l-68 10q0 56 39 94t99 38
t95.5 -33t35.5 -89q0 -50 -42 -79z" />
    <glyph glyph-name="four.dnom" horiz-adv-x="341" 
d="M199 0v96h-178v60l189 269h53v-271h54v-58h-54v-96h-64zM89 153q16 1 50 1h61v101q0 27 2 63q-19 -35 -41 -65l-34 -48q-21 -30 -38 -52z" />
    <glyph glyph-name="five.dnom" horiz-adv-x="351" 
d="M180 285q64 0 102.5 -38.5t38.5 -104.5q0 -67 -41 -107t-109 -40q-58 0 -98.5 38t-40.5 95l64 9q0 -38 22 -61t54 -23q40 0 63 23t23 66q0 38 -23 61.5t-63 23.5q-51 0 -78 -39l-57 4l34 233h224v-60h-174l-14 -99q26 19 73 19z" />
    <glyph glyph-name="six.dnom" horiz-adv-x="363" 
d="M197 282q59 0 95.5 -39t36.5 -102q0 -56 -35 -101t-109 -45q-148 0 -148 206q0 116 39 172t119 56q51 0 83 -29t39 -82l-60 -10q-3 31 -20 47.5t-44 16.5q-88 0 -93 -137q38 47 97 47zM184 53q82 0 82 89q0 83 -79 83q-37 0 -58.5 -23t-21.5 -63t20.5 -63t56.5 -23z" />
    <glyph glyph-name="seven.dnom" horiz-adv-x="306" 
d="M22 425h270v-59q-68 -64 -110.5 -164t-45.5 -202h-70q5 99 44.5 194t105.5 170h-194v61z" />
    <glyph glyph-name="eight.dnom" horiz-adv-x="364" 
d="M182 -5q-69 0 -108.5 36.5t-39.5 98.5q0 74 63 102q-45 29 -45 83q0 53 35 83.5t96 30.5q60 -1 94.5 -31t34.5 -83t-45 -84q63 -27 63 -102q0 -62 -40 -98t-108 -36zM182 251q31 0 49.5 16t18.5 44q0 29 -18 45.5t-50 16.5t-50 -16.5t-18 -45.5q0 -28 18.5 -44t49.5 -16z
M182 52q38 0 61 21t23 55q0 33 -22.5 52.5t-61.5 19.5t-61.5 -19.5t-22.5 -52.5q0 -34 22.5 -55t61.5 -21z" />
    <glyph glyph-name="nine.dnom" horiz-adv-x="363" 
d="M179 429q147 0 147 -205q0 -117 -38.5 -173t-118.5 -56q-51 0 -85 30t-41 83l60 10q4 -31 22 -48t46 -17q88 0 93 136q-37 -46 -97 -46q-59 0 -95.5 38.5t-36.5 101.5q0 56 35 101t109 45zM177 200q37 0 58.5 22.5t21.5 62.5q0 41 -20.5 64t-56.5 23q-82 0 -82 -90
q0 -82 79 -82z" />
    <glyph glyph-name="zero.numr" horiz-adv-x="382" 
d="M190 270q-75 0 -114.5 55.5t-39.5 161.5q0 102 40.5 159.5t113.5 57.5t114.5 -57.5t41.5 -159.5q0 -103 -41 -160t-115 -57zM190 330q45 0 65.5 36.5t20.5 120.5q0 85 -20 121t-66 36q-44 0 -63.5 -36t-19.5 -121q0 -86 19.5 -121.5t63.5 -35.5z" />
    <glyph glyph-name="one.numr" horiz-adv-x="246" 
d="M123 275v317q-37 -31 -104 -28v61q49 0 79.5 20t35.5 55h56v-425h-67z" />
    <glyph glyph-name="two.numr" horiz-adv-x="359" 
d="M106 336h214v-61h-291q3 73 35 115.5t88 78.5q4 3 24 15t29 19t23 19.5t20 26t6 29.5q0 71 -68 71q-74 0 -74 -92l-67 11q0 53 33 96t111 43q59 0 94.5 -35.5t35.5 -94.5q0 -49 -28.5 -81t-78.5 -63q-33 -21 -47 -30t-33.5 -28.5t-25.5 -38.5z" />
    <glyph glyph-name="three.numr" horiz-adv-x="358" 
d="M265 506q27 -12 43 -40t16 -63q0 -61 -40.5 -97t-106.5 -36q-67 0 -105.5 38.5t-38.5 103.5l65 9q0 -44 20.5 -68.5t58.5 -24.5q39 0 60 19.5t21 54.5q0 65 -77 65h-38v61h30q31 0 49.5 15.5t18.5 41.5q0 31 -17 48t-48 17q-70 0 -70 -85l-68 10q0 56 39 94t99 38
t95.5 -33t35.5 -89q0 -50 -42 -79z" />
    <glyph glyph-name="four.numr" horiz-adv-x="341" 
d="M198 275v96h-178v60l189 269h53v-271h54v-58h-54v-96h-64zM88 428q16 1 50 1h61v101q0 27 2 63q-19 -35 -41 -65l-34 -48q-21 -30 -38 -52z" />
    <glyph glyph-name="five.numr" horiz-adv-x="351" 
d="M180 560q64 0 102.5 -39t38.5 -104q0 -67 -41 -107t-109 -40q-58 0 -98.5 38t-40.5 95l64 9q0 -38 22 -61t54 -23q40 0 63 23t23 66q0 39 -23 62t-63 23q-51 0 -78 -39l-57 4l34 233h224v-60h-174l-14 -99q26 19 73 19z" />
    <glyph glyph-name="six.numr" horiz-adv-x="363" 
d="M197 557q59 0 95.5 -39t36.5 -102q0 -56 -35 -101t-109 -45q-148 0 -148 206q0 116 39 172t119 56q51 0 83 -29t39 -82l-60 -10q-3 31 -20 47.5t-44 16.5q-88 0 -93 -137q38 47 97 47zM184 328q82 0 82 89q0 83 -79 83q-37 0 -58.5 -23t-21.5 -63t20.5 -63t56.5 -23z" />
    <glyph glyph-name="seven.numr" horiz-adv-x="306" 
d="M21 700h270v-59q-68 -64 -110.5 -164t-45.5 -202h-70q5 99 44.5 194t105.5 170h-194v61z" />
    <glyph glyph-name="eight.numr" horiz-adv-x="364" 
d="M182 270q-69 0 -108.5 36.5t-39.5 98.5q0 74 63 102q-45 29 -45 83q0 53 35 83.5t96 30.5q60 -1 94.5 -31t34.5 -83t-45 -84q63 -27 63 -102q0 -62 -40 -98t-108 -36zM182 526q31 0 49.5 16t18.5 44q0 29 -18 45.5t-50 16.5t-50 -16.5t-18 -45.5q0 -28 18.5 -44t49.5 -16
zM182 327q38 0 61 21t23 55q0 33 -22.5 52.5t-61.5 19.5t-61.5 -19.5t-22.5 -52.5q0 -34 22.5 -55t61.5 -21z" />
    <glyph glyph-name="nine.numr" horiz-adv-x="363" 
d="M179 704q147 0 147 -205q0 -117 -38.5 -173t-118.5 -56q-51 0 -85 30t-41 83l60 10q4 -31 22 -48t46 -17q88 0 93 136q-37 -46 -97 -46q-59 0 -95.5 38.5t-36.5 101.5q0 56 35 101t109 45zM177 475q37 0 58.5 22.5t21.5 62.5q0 41 -20.5 64t-56.5 23q-82 0 -82 -90
q0 -82 79 -82z" />
    <glyph glyph-name="exclamdown.case" horiz-adv-x="251" 
d="M175 700v-106h-101v106h101zM158 533l12 -287v-246h-89v246l12 287h65z" />
    <glyph glyph-name="questiondown.case" horiz-adv-x="496" 
d="M296 700v-106h-101v106h101zM290 533v-58q0 -44 -19.5 -80.5t-66.5 -80.5q-27 -25 -38.5 -37t-24.5 -37t-13 -52q0 -125 119 -125q133 0 133 148l89 -15q0 -35 -11 -68.5t-35 -66.5t-70.5 -53t-109.5 -20q-93 0 -148.5 54.5t-55.5 146.5q0 56 21 90t66 75q27 24 40 38.5
t26 42.5t13 62v36h85z" />
    <glyph glyph-name="bullet.case" horiz-adv-x="349" 
d="M175 233q-46 0 -75 29.5t-29 75.5q0 45 29 74t75 29q45 0 74 -29t29 -74q0 -46 -29 -75.5t-74 -29.5z" />
    <glyph glyph-name="numbersign.lf" horiz-adv-x="589" 
d="M549 433h-92l-22 -150h92l-10 -75h-93l-31 -208h-80l30 208h-135l-31 -208h-81l30 208h-95l10 75h96l22 150h-97l12 75h96l28 192h81l-28 -192h136l28 192h81l-28 -192h91zM217 283h136l22 150h-136z" />
    <glyph glyph-name="period.tf" 
d="M250 0v127h121v-127h-121z" />
    <glyph glyph-name="comma.tf" 
d="M251 -157v60q54 18 55 97h-56v130h121v-132q0 -64 -31.5 -104t-88.5 -51z" />
    <glyph glyph-name="colon.tf" 
d="M250 338v127h121v-127h-121zM250 0v127h121v-127h-121z" />
    <glyph glyph-name="semicolon.tf" 
d="M250 338v127h121v-127h-121zM251 -157v60q54 18 55 97h-56v130h121v-132q0 -64 -31.5 -104t-88.5 -51z" />
    <glyph glyph-name="periodcentered.tf" 
d="M249 261v127h121v-127h-121z" />
    <glyph glyph-name="asterisk.tf" 
d="M466 562l-110 -34l71 -101l-46 -32l-71 106l-71 -105l-46 32l70 100l-109 34l17 54l111 -39v123h55v-123l112 39z" />
    <glyph glyph-name="numbersign.tf" 
d="M567 433h-92l-22 -150h92l-10 -75h-93l-31 -208h-80l30 208h-135l-31 -208h-81l30 208h-95l10 75h96l22 150h-97l12 75h96l28 192h81l-28 -192h136l28 192h81l-28 -192h91zM235 283h136l22 150h-136z" />
    <glyph glyph-name="parenleft.case" horiz-adv-x="274" 
d="M182 -100q-143 237 -143 456q0 116 37.5 233t105.5 213h73l1 -3q-122 -206 -122 -443q0 -243 121 -453l-1 -3h-72z" />
    <glyph glyph-name="parenright.case" horiz-adv-x="274" 
d="M92 -100h-72l-1 3q121 210 121 453q0 237 -122 443l1 3h73q68 -96 105.5 -213t37.5 -233q0 -219 -143 -456z" />
    <glyph glyph-name="braceleft.case" horiz-adv-x="321" 
d="M272 -100q-85 0 -126 38t-41 128v178q0 36 -19 54t-62 19v73q43 2 62 19.5t19 52.5v175q0 91 40.5 127t126.5 36h28v-75h-27q-43 0 -61.5 -19.5t-18.5 -72.5v-180q0 -82 -64 -100q34 -11 48.5 -33.5t14.5 -65.5v-184q0 -54 18.5 -74.5t62.5 -20.5h27v-75h-28z" />
    <glyph glyph-name="braceright.case" horiz-adv-x="321" 
d="M49 -100h-28v75h27q44 0 62.5 20.5t18.5 74.5v184q0 43 14.5 65.5t48.5 33.5q-64 18 -64 100v180q0 53 -18.5 72.5t-61.5 19.5h-27v75h28q86 0 126.5 -36t40.5 -127v-175q0 -35 19 -52.5t62 -19.5v-73q-43 -1 -62 -19t-19 -54v-178q0 -90 -41 -128t-126 -38z" />
    <glyph glyph-name="bracketleft.case" horiz-adv-x="308" 
d="M78 -100v900h213v-70h-126v-760h126v-70h-213z" />
    <glyph glyph-name="bracketright.case" horiz-adv-x="308" 
d="M230 -100h-213v70h126v760h-126v70h213v-900z" />
    <glyph glyph-name="angleleft.case" horiz-adv-x="328" 
d="M111 355l213 -455h-91l-215 452l210 448h91z" />
    <glyph glyph-name="angleright.case" horiz-adv-x="328" 
d="M100 800l210 -448l-215 -452h-91l213 455l-208 445h91z" />
    <glyph glyph-name="uni3010.case" horiz-adv-x="327" 
d="M78 -100v900h252v-3q-93 -107 -135 -209.5t-42 -236.5t41.5 -237t135.5 -211v-3h-252z" />
    <glyph glyph-name="uni3011.case" horiz-adv-x="327" 
d="M249 -100h-252v3q94 108 135.5 211t41.5 237t-42 236.5t-135 209.5v3h252v-900z" />
    <glyph glyph-name="uni300C.case" horiz-adv-x="326" 
d="M65 358v442h255v-70h-168v-372h-87z" />
    <glyph glyph-name="uni300D.case" horiz-adv-x="328" 
d="M262 342v-442h-255v70h168v372h87z" />
    <glyph glyph-name="uni300A.case" horiz-adv-x="538" 
d="M317 800l-208 -445l213 -455h-89l-215 452l210 448h89zM321 355l213 -455h-89l-215 452l210 448h89z" />
    <glyph glyph-name="uni300B.case" horiz-adv-x="538" 
d="M98 800l210 -448l-215 -452h-89l213 455l-208 445h89zM310 800l210 -448l-215 -452h-89l213 455l-208 445h89z" />
    <glyph glyph-name="uni3014.case" horiz-adv-x="269" 
d="M141 612v-521l118 -156l-64 -46l-141 185v553l143 187l63 -46z" />
    <glyph glyph-name="uni3015.case" horiz-adv-x="269" 
d="M72 814l143 -187v-553l-141 -185l-64 46l118 156v521l-119 156z" />
    <glyph glyph-name="uni300E.case" horiz-adv-x="458" 
d="M67 269v531h363v-202h-159v-329h-204zM139 329h60v329h159v82h-219v-411z" />
    <glyph glyph-name="uni300F.case" horiz-adv-x="466" 
d="M390 431v-531h-363v202h159v329h204zM318 371h-60v-329h-159v-82h219v411z" />
    <glyph glyph-name="hyphen.case" horiz-adv-x="396" 
d="M58 305v80h280v-80h-280z" />
    <glyph glyph-name="uni00AD.case" horiz-adv-x="396" 
d="M58 305v80h280v-80h-280z" />
    <glyph glyph-name="endash.case" horiz-adv-x="597" 
d="M58 305v80h481v-80h-481z" />
    <glyph glyph-name="emdash.case" horiz-adv-x="854" 
d="M58 305v80h738v-80h-738z" />
    <glyph glyph-name="hyphen.tf" 
d="M160 243v80h300v-80h-300z" />
    <glyph glyph-name="endash.tf" 
d="M64 243v80h492v-80h-492z" />
    <glyph glyph-name="hyphen.case.tf" 
d="M160 305v80h300v-80h-300z" />
    <glyph glyph-name="endash.case.tf" 
d="M64 305v80h492v-80h-492z" />
    <glyph glyph-name="guillemotleft.case" horiz-adv-x="447" 
d="M48 291v88l154 123v-94l-91 -72l91 -72v-95zM380 502v-94l-91 -72l91 -72v-95l-154 122v88z" />
    <glyph glyph-name="guillemotright.case" horiz-adv-x="447" 
d="M67 408v94l154 -123v-88l-154 -122v95l91 72zM245 502l154 -123v-88l-154 -122v95l91 72l-91 72v94z" />
    <glyph glyph-name="guilsinglleft.case" horiz-adv-x="269" 
d="M202 502v-94l-91 -72l91 -72v-95l-154 122v88z" />
    <glyph glyph-name="guilsinglright.case" horiz-adv-x="269" 
d="M67 502l154 -123v-88l-154 -122v95l91 72l-91 72v94z" />
    <glyph glyph-name="bullet_white_numbers" horiz-adv-x="789" 
d="M393 -11q-151 0 -252.5 103t-101.5 258q0 156 101.5 259t252.5 103t254 -103t103 -259q0 -154 -103 -257.5t-254 -103.5zM393 35q131 0 217.5 89.5t86.5 225.5q0 137 -86.5 227.5t-217.5 90.5q-130 0 -216.5 -91t-86.5 -227t86.5 -225.5t216.5 -89.5z" />
    <glyph glyph-name="space.tf" 
 />
    <glyph glyph-name="uni20BF.tf" 
d="M589 193q0 -92 -47 -134.5t-128 -53.5v-73h-72v68h-35h-40v-68h-72v68h-119v700h119v68h72v-68h33q28 0 42 -1v69h72v-77q148 -29 148 -183q0 -102 -88 -150q60 -22 87.5 -61t27.5 -104zM166 622v-226h126q34 0 53 1t47.5 6.5t43.5 17t26.5 33.5t11.5 54q0 33 -11.5 55.5
t-26.5 33.5t-43.5 17t-47 7t-52.5 1h-127zM307 77q33 0 49.5 0.5t44 3.5t41.5 10.5t30 20t22.5 33t6.5 48.5q0 36 -13.5 61t-30 37t-47 18.5t-48.5 7.5t-50 1h-146v-241h141z" />
    <glyph glyph-name="cent.tf" 
d="M549 153q-12 -69 -64 -112.5t-128 -51.5v-83h-65v84q-100 11 -156 79t-56 181q0 107 57 177.5t155 82.5v85h65v-84q79 -8 127.5 -54.5t62.5 -115.5l-84 -16q-25 100 -106 113v-376q84 10 107 100zM179 250q0 -83 24.5 -130t88.5 -57v374q-64 -10 -88.5 -57.5
t-24.5 -129.5z" />
    <glyph glyph-name="currency.tf" 
d="M545 155l-44 -44l-59 59q-54 -43 -132 -43q-82 0 -134 41l-58 -57l-44 44l60 60q-31 53 -31 126q0 72 35 128l-59 59l44 45l58 -58q54 41 129 41q74 0 128 -41l58 58l44 -45l-59 -59q36 -55 36 -128q0 -71 -34 -124zM310 191q125 0 125 150q0 151 -125 151t-125 -151
q0 -150 125 -150z" />
    <glyph glyph-name="dollar.tf" 
d="M595 204q0 -56 -20.5 -97.5t-56.5 -65.5t-77.5 -36.5t-91.5 -15.5v-57h-75v58q-109 10 -179.5 71t-70.5 167l96 10q0 -72 42 -117t112 -55v251h-2q-50 12 -83.5 24t-70.5 34t-56 57t-19 83q0 94 68.5 143t162.5 54v56h75v-59q203 -26 221 -220l-94 -17q-1 63 -34 104
t-93 55v-233q60 -10 96.5 -20t75 -30.5t56.5 -56t18 -87.5zM136 519q0 -75 138 -107v224q-55 -3 -96.5 -33.5t-41.5 -83.5zM349 66q152 13 152 131q0 21 -9 37.5t-21 27t-34.5 18.5t-40 12t-47.5 10v-236z" />
    <glyph glyph-name="Euro.tf" 
d="M495 205l89 -23q-57 -194 -239 -194q-218 0 -250 270h-53v59h49q-1 11 -1 34t1 35h-49v59h54q17 123 79 195t170 72q86 0 147 -47.5t83 -129.5l-88 -17q-29 116 -142 116q-74 0 -108.5 -47.5t-43.5 -141.5h207v-59h-211v-35v-34h211v-59h-207q9 -96 43.5 -144t108.5 -48
q64 0 99.5 35t50.5 104z" />
    <glyph glyph-name="florin.tf" 
d="M463 706q24 0 51 -3l-2 -78q-26 2 -36 2q-43 0 -62.5 -15t-24.5 -52l-21 -149h103v-75h-114l-57 -406q-9 -65 -40 -96t-101 -31q-25 0 -52 3l2 75q8 -1 22 -1q32 0 50 12.5t23 44.5l58 399h-100v75h111l23 161q9 60 38 92q39 42 129 42z" />
    <glyph glyph-name="uni20BA.tf" 
d="M488 265l89 -23q-28 -114 -117.5 -178t-230.5 -64h-80v248l-79 -44v72l79 44v79l-79 -44v72l79 44v229h90v-179l201 111v-72l-201 -111v-79l201 111v-72l-201 -111v-220q208 5 249 187z" />
    <glyph glyph-name="uni20BD.tf" 
d="M326 285h-115v-88h224v-66h-224v-131h-90v131h-79v66h79v89h-79v73h79v341h206q42 0 74.5 -3.5t70.5 -16.5t62.5 -35t41.5 -62t17 -95q0 -53 -17 -91.5t-41.5 -59.5t-62.5 -33t-71 -15.5t-75 -3.5zM211 623v-263h115q30 0 50.5 1.5t47 8.5t42.5 20t27.5 38t11.5 60
q0 28 -6 49.5t-15 35.5t-24.5 24t-28.5 15t-34 7.5t-34.5 3t-35.5 0.5h-116z" />
    <glyph glyph-name="uni20B9.tf" 
d="M554 629h-138q36 -39 44 -98h94v-70h-93q-4 -45 -22.5 -77.5t-43 -50.5t-60.5 -28.5t-67 -13t-71 -2.5l277 -287l-1 -3h-116l-267 279v85h96q37 0 61.5 2.5t54 11.5t47.5 30t23 54h-282v70h280q-7 34 -24.5 54.5t-48 28.5t-51.5 10t-59 2h-97v73h464v-70z" />
    <glyph glyph-name="sterling.tf" 
d="M523 121l52 -70q-70 -63 -159 -63q-47 0 -108 26t-98 26q-38 0 -100 -44l-54 75q59 45 82.5 81t23.5 82q0 25 -11 69h-85v72h60q-33 78 -33 137q0 90 64 145t169 55q102 0 163.5 -56.5t66.5 -159.5l-91 -17q-1 77 -40 117t-101 40t-97.5 -34t-35.5 -92q0 -40 33 -135h143
v-72h-123q6 -27 6 -54q0 -87 -87 -160q44 24 88 24q38 0 89 -20t78 -20q51 0 105 48z" />
    <glyph glyph-name="uni20A9.tf" 
d="M600 379h-64l-9 -83h73v-59h-80l-27 -237h-111l-48 393q-23 191 -23 193h-3q-4 -25 -10 -94.5t-10 -99.5l-49 -392h-112l-27 237h-80v59h73l-9 83h-64v59h57l-30 262h89l33 -421q8 -100 14 -172h3q3 25 11 89.5t10 82.5l53 421h102l54 -421q5 -40 11.5 -96t9.5 -76h3
q3 25 7 88.5t5 83.5l32 421h89l-30 -262h57v-59z" />
    <glyph glyph-name="yen.tf" 
d="M587 700l-200 -347h122v-64h-153v-56h152v-64h-152v-169h-91v169h-153v64h153v56h-152v64h121l-200 347h105l106 -200q43 -81 65 -129q32 69 65 130l106 199h106z" />
    <glyph glyph-name="plus.alt" horiz-adv-x="737" 
d="M324 0v313h-296v81h296v306h91v-306h294v-81h-294v-313h-91z" />
    <glyph glyph-name="minus.alt" horiz-adv-x="803" 
d="M61 313v81h681v-81h-681z" />
    <glyph glyph-name="multiply.alt" horiz-adv-x="756" 
d="M725 628l-286 -286l285 -285l-61 -60l-285 285l-285 -285l-61 60l285 285l-286 286l60 61l287 -287l288 288z" />
    <glyph glyph-name="plus.case" horiz-adv-x="510" 
d="M220 126v190h-189v67h189v191h71v-191h188v-67h-188v-190h-71z" />
    <glyph glyph-name="minus.case" horiz-adv-x="569" 
d="M61 316v67h447v-67h-447z" />
    <glyph glyph-name="multiply.case" horiz-adv-x="456" 
d="M410 484l-134 -134l134 -135l-48 -47l-134 134l-134 -134l-48 47l135 135l-135 134l47 48l135 -135l135 135z" />
    <glyph glyph-name="divide.case" horiz-adv-x="537" 
d="M218 474v106h101v-106h-101zM45 316v67h447v-67h-447zM218 122v106h101v-106h-101z" />
    <glyph glyph-name="equal.case" horiz-adv-x="569" 
d="M61 398v67h447v-67h-447zM61 238v67h447v-67h-447z" />
    <glyph glyph-name="notequal.case" horiz-adv-x="569" 
d="M508 398h-177l-48 -93h225v-67h-259l-50 -98h-59l50 98h-129v67h163l47 93h-210v67h244l51 100h60l-51 -100h143v-67z" />
    <glyph glyph-name="greater.case" horiz-adv-x="487" 
d="M58 142v79l214 87q39 16 120 42q-89 29 -121 42l-213 87v79l399 -169v-78z" />
    <glyph glyph-name="less.case" horiz-adv-x="487" 
d="M429 142l-399 169v78l399 169v-79l-213 -87q-32 -13 -121 -42q81 -26 120 -42l214 -87v-79z" />
    <glyph glyph-name="greaterequal.case" horiz-adv-x="525" 
d="M69 191v74l214 82q45 17 120 39q-85 26 -121 39l-213 82v74l399 -158v-74zM69 78v67h399v-67h-399z" />
    <glyph glyph-name="lessequal.case" horiz-adv-x="525" 
d="M456 191l-399 158v74l399 158v-74l-213 -82q-36 -13 -121 -39q75 -22 120 -39l214 -82v-74zM456 78h-399v67h399v-67z" />
    <glyph glyph-name="plusminus.case" horiz-adv-x="566" 
d="M250 215v170h-191v67h191v171h67v-171h190v-67h-190v-170h-67zM59 78v67h448v-67h-448z" />
    <glyph glyph-name="approxequal.case" horiz-adv-x="563" 
d="M59 372q1 52 30 81t76 29q42 0 126.5 -18.5t106.5 -18.5q43 0 45 43h67q-2 -50 -29 -79.5t-77 -29.5q-41 0 -127 18.5t-111 18.5q-40 0 -42 -44h-65zM59 213q1 52 30 81t76 29q42 0 126.5 -18.5t106.5 -18.5q43 0 45 43h67q-2 -51 -29 -80t-77 -29q-41 0 -127 18.5
t-111 18.5q-40 0 -42 -44h-65z" />
    <glyph glyph-name="logicalnot.case" horiz-adv-x="516" 
d="M380 199v167h-332v67h403v-234h-71z" />
    <glyph glyph-name="percent.lf" horiz-adv-x="838" 
d="M189 310q-74 0 -113.5 52.5t-39.5 147.5q0 93 40.5 147.5t112.5 54.5q71 0 112 -55t41 -147q0 -90 -41 -145t-112 -55zM178 0l392 700h85l-391 -700h-86zM189 375q40 0 57 31.5t17 103.5q0 73 -16.5 104.5t-57.5 31.5q-40 0 -58 -32t-18 -104q0 -71 18 -103t58 -32z
M649 -12q-74 0 -113.5 52.5t-39.5 147.5q0 93 40.5 147.5t112.5 54.5q71 0 112 -55t41 -147q0 -90 -41 -145t-112 -55zM649 53q40 0 57 31.5t17 103.5q0 73 -16.5 104.5t-57.5 31.5q-40 0 -58 -32t-18 -104q0 -71 18 -103t58 -32z" />
    <glyph glyph-name="perthousand.lf" horiz-adv-x="1164" 
d="M189 310q-74 0 -113.5 52.5t-39.5 147.5q0 93 40.5 147.5t112.5 54.5q71 0 112 -55t41 -147q0 -90 -41 -145t-112 -55zM178 0l392 700h85l-391 -700h-86zM189 375q40 0 57 31.5t17 103.5q0 73 -16.5 104.5t-57.5 31.5q-40 0 -58 -32t-18 -104q0 -71 18 -103t58 -32z
M649 -12q-74 0 -113.5 52.5t-39.5 147.5q0 93 40.5 147.5t112.5 54.5q71 0 112 -55t41 -147q0 -90 -41 -145t-112 -55zM995 -12q-74 0 -113.5 52.5t-39.5 147.5q0 93 40.5 147.5t112.5 54.5q71 0 112.5 -55t41.5 -147q0 -91 -41 -145.5t-113 -54.5zM649 53q40 0 57 31.5
t17 103.5q0 73 -16.5 104.5t-57.5 31.5q-40 0 -58 -32t-18 -104q0 -71 18 -103t58 -32zM995 53q41 0 57.5 31.5t16.5 103.5q0 73 -16.5 104.5t-57.5 31.5q-40 0 -57.5 -32t-17.5 -104t17.5 -103.5t57.5 -31.5z" />
    <glyph glyph-name="plus.case.tf" 
d="M275 116v200h-198v67h198v200h71v-200h198v-67h-198v-200h-71z" />
    <glyph glyph-name="minus.case.tf" 
d="M79 316v67h462v-67h-462z" />
    <glyph glyph-name="multiply.case.tf" 
d="M502 494l-144 -144l144 -145l-48 -47l-144 144l-144 -144l-48 47l145 145l-145 144l47 48l145 -145l145 145z" />
    <glyph glyph-name="divide.case.tf" 
d="M253 479v121h115v-121h-115zM79 316v67h462v-67h-462zM253 102v121h115v-121h-115z" />
    <glyph glyph-name="equal.case.tf" 
d="M79 415v67h462v-67h-462zM79 221v67h462v-67h-462z" />
    <glyph glyph-name="notequal.case.tf" 
d="M541 415h-176l-64 -127h240v-67h-274l-49 -96h-59l49 96h-129v67h162l65 127h-227v67h260l50 98h60l-50 -98h142v-67z" />
    <glyph glyph-name="greater.case.tf" 
d="M123 142v79l214 87q39 16 120 42q-89 29 -121 42l-213 87v79l399 -169v-78z" />
    <glyph glyph-name="less.case.tf" 
d="M522 142l-399 169v78l399 169v-79l-213 -87q-32 -13 -121 -42q81 -26 120 -42l214 -87v-79z" />
    <glyph glyph-name="greaterequal.case.tf" 
d="M112 189v74l214 82q45 17 120 39q-85 26 -121 39l-213 82v74l399 -158v-74zM112 76v67h399v-67h-399z" />
    <glyph glyph-name="lessequal.case.tf" 
d="M508 189l-399 158v74l399 158v-74l-213 -82q-36 -13 -121 -39q75 -22 120 -39l214 -82v-74zM508 76h-399v67h399v-67z" />
    <glyph glyph-name="plusminus.case.tf" 
d="M277 213v170h-191v67h191v171h67v-171h190v-67h-190v-170h-67zM86 76v67h448v-67h-448z" />
    <glyph glyph-name="approxequal.case.tf" 
d="M87 382q1 52 30 81t76 29q42 0 126.5 -18.5t106.5 -18.5q43 0 45 43h67q-2 -50 -29 -79.5t-77 -29.5q-41 0 -127 18.5t-111 18.5q-40 0 -42 -44h-65zM87 203q1 52 30 81t76 29q42 0 126.5 -18.5t106.5 -18.5q43 0 45 43h67q-2 -51 -29 -80t-77 -29q-41 0 -127 18.5
t-111 18.5q-40 0 -42 -44h-65z" />
    <glyph glyph-name="logicalnot.case.tf" 
d="M433 199v167h-332v67h403v-234h-71z" />
    <glyph glyph-name="plus.tf" 
d="M275 87v200h-198v67h198v200h71v-200h198v-67h-198v-200h-71z" />
    <glyph glyph-name="minus.tf" 
d="M79 287v67h462v-67h-462z" />
    <glyph glyph-name="multiply.tf" 
d="M502 465l-144 -144l144 -145l-48 -47l-144 144l-144 -144l-48 47l145 145l-145 144l47 48l145 -145l145 145z" />
    <glyph glyph-name="divide.tf" 
d="M253 450v121h115v-121h-115zM79 287v67h462v-67h-462zM253 73v121h115v-121h-115z" />
    <glyph glyph-name="equal.tf" 
d="M79 386v67h462v-67h-462zM79 192v67h462v-67h-462z" />
    <glyph glyph-name="notequal.tf" 
d="M541 386h-176l-64 -127h240v-67h-274l-49 -96h-59l49 96h-129v67h162l65 127h-227v67h260l50 98h60l-50 -98h142v-67z" />
    <glyph glyph-name="greater.tf" 
d="M123 88v79l214 87q39 16 120 42q-89 29 -121 42l-213 87v79l399 -169v-78z" />
    <glyph glyph-name="less.tf" 
d="M522 88l-399 169v78l399 169v-79l-213 -87q-32 -13 -121 -42q81 -26 120 -42l214 -87v-79z" />
    <glyph glyph-name="greaterequal.tf" 
d="M112 113v74l214 82q45 17 120 39q-85 26 -121 39l-213 82v74l399 -158v-74zM112 0v67h399v-67h-399z" />
    <glyph glyph-name="lessequal.tf" 
d="M508 113l-399 158v74l399 158v-74l-213 -82q-36 -13 -121 -39q75 -22 120 -39l214 -82v-74zM508 0h-399v67h399v-67z" />
    <glyph glyph-name="plusminus.tf" 
d="M277 137v170h-191v67h191v171h67v-171h190v-67h-190v-170h-67zM86 0v67h448v-67h-448z" />
    <glyph glyph-name="approxequal.tf" 
d="M87 353q1 52 30 81t76 29q42 0 126.5 -18.5t106.5 -18.5q43 0 45 43h67q-2 -50 -29 -79.5t-77 -29.5q-41 0 -127 18.5t-111 18.5q-40 0 -42 -44h-65zM87 174q1 52 30 81t76 29q42 0 126.5 -18.5t106.5 -18.5q43 0 45 43h67q-2 -51 -29 -80t-77 -29q-41 0 -127 18.5
t-111 18.5q-40 0 -42 -44h-65z" />
    <glyph glyph-name="logicalnot.tf" 
d="M433 170v167h-332v67h403v-234h-71z" />
    <glyph glyph-name="percent.tf" 
d="M154 375q-61 0 -93.5 44t-32.5 122q0 77 33.5 123t92.5 46q58 0 91.5 -46t33.5 -123q0 -75 -33.5 -120.5t-91.5 -45.5zM82 0l375 700h81l-375 -700h-81zM154 434q29 0 41 25t12 82q0 59 -11.5 83.5t-41.5 24.5t-42.5 -25t-12.5 -83q0 -57 12.5 -82t42.5 -25zM467 -10
q-61 0 -93.5 44t-32.5 122q0 77 33.5 123t92.5 46q58 0 91.5 -46t33.5 -123q0 -75 -33.5 -120.5t-91.5 -45.5zM467 49q29 0 41 25t12 82q0 59 -11.5 83.5t-41.5 24.5t-42.5 -25t-12.5 -83q0 -57 12.5 -82t42.5 -25z" />
    <glyph glyph-name="perthousand.tf" 
d="M125 384q-53 0 -82 42.5t-29 119.5q0 75 29.5 120t81.5 45q51 0 80.5 -45t29.5 -120q0 -73 -29.5 -117.5t-80.5 -44.5zM385 700h77l-373 -700h-77zM125 650q-22 0 -31 -24t-9 -80q0 -55 9 -79t31 -24q21 0 29.5 24t8.5 79q0 56 -8.5 80t-29.5 24zM498 317q51 0 80.5 -45
t29.5 -120q0 -73 -29.5 -117.5t-80.5 -44.5q-50 0 -75 40q-26 -40 -73 -40q-53 0 -82 42.5t-29 119.5q0 75 29.5 120t81.5 45q47 0 73 -42q28 42 75 42zM350 48q21 0 29.5 24.5t8.5 79.5q0 56 -8.5 80.5t-29.5 24.5q-22 0 -31.5 -24.5t-9.5 -80.5q0 -55 9.5 -79.5
t31.5 -24.5zM498 48q21 0 30 24.5t9 79.5q0 56 -9 80.5t-30 24.5q-22 0 -31 -24.5t-9 -80.5q0 -55 9 -79.5t31 -24.5z" />
    <glyph glyph-name="uni2197.case" horiz-adv-x="628" 
d="M26 137l346 346q41 41 64 62q-43 -3 -80 -3l-209 -4l81 81h337v-337l-81 -81l4 207q0 3 1 34t2 48q-43 -45 -63 -64l-345 -346z" />
    <glyph glyph-name="arrowright.case" horiz-adv-x="769" 
d="M394 100l150 155q1 1 59 56q-42 -1 -82 -1h-484v80h484q39 0 82 -1q-19 18 -60 59l-149 152h114l234 -250l-234 -250h-114z" />
    <glyph glyph-name="uni2198.case" horiz-adv-x="628" 
d="M83 620l346 -346q41 -41 62 -64q-3 43 -3 80l-4 209l81 -81v-337h-337l-81 81l207 -4q3 0 34 -1t48 -2q-45 43 -64 63l-346 345z" />
    <glyph glyph-name="uni2199.case" horiz-adv-x="628" 
d="M602 563l-346 -346q-41 -41 -64 -62q43 3 80 3l209 4l-81 -81h-337v337l81 81l-4 -207q0 -3 -1 -34t-2 -48q43 45 63 64l345 346z" />
    <glyph glyph-name="arrowleft.case" horiz-adv-x="769" 
d="M375 600l-150 -155q-1 -1 -59 -56q42 1 82 1h484v-80h-484q-39 0 -82 1q19 -18 60 -59l149 -152h-114l-234 250l234 250h114z" />
    <glyph glyph-name="uni2196.case" horiz-adv-x="628" 
d="M545 80l-346 346q-41 41 -62 64q3 -43 3 -80l4 -209l-81 81v337h337l81 -81l-207 4q-3 0 -34 1t-48 2q45 -43 64 -63l346 -345z" />
    <glyph glyph-name="at.case" horiz-adv-x="774" 
d="M409 56q73 0 139.5 28.5t102.5 83.5l68 -18q-47 -78 -132.5 -120.5t-182.5 -42.5q-156 0 -261.5 102t-105.5 261q0 156 104.5 259t261.5 103q142 0 237.5 -84.5t95.5 -213.5q0 -65 -24 -119t-60 -84.5t-74 -47t-70 -16.5q-27 0 -46 14t-21 45q-45 -58 -110 -58
q-61 0 -95.5 38t-34.5 106q0 107 54.5 182t153.5 75q87 0 103 -75l18 53h64l-75 -247q-11 -33 -11 -47q0 -19 21 -19q46 0 88 60.5t42 134.5q0 109 -75 173.5t-181 64.5q-126 0 -206 -86.5t-80 -214.5t84 -209t208 -81zM341 219q62 0 100.5 57.5t38.5 122.5q0 81 -76 81
q-63 0 -96 -55t-33 -124q0 -82 66 -82z" />
    <glyph glyph-name="registered.case" horiz-adv-x="789" 
d="M393 712q151 0 254 -103t103 -259q0 -154 -103 -257.5t-254 -103.5t-252.5 103t-101.5 258q0 156 101.5 259t252.5 103zM393 35q131 0 217.5 89.5t86.5 225.5q0 137 -86.5 227.5t-217.5 90.5q-130 0 -216.5 -91t-86.5 -227t86.5 -225.5t216.5 -89.5zM498 337
q48 -25 48 -86q0 -43 5.5 -63.5t20.5 -36.5v-9h-79q-15 22 -19 96q-1 10 -1 16q-2 29 -20.5 40.5t-71.5 11.5h-68v-164h-74v417h174q58 0 100.5 -30t42.5 -95q0 -66 -58 -97zM397 371q42 0 63 12.5t21 50.5q0 60 -84 60h-84v-123h84z" />
    <glyph glyph-name="bar.case" horiz-adv-x="243" 
d="M78 -80v860h87v-860h-87z" />
    <glyph glyph-name="brokenbar.case" horiz-adv-x="243" 
d="M78 460v320h87v-320h-87zM78 -80v320h87v-320h-87z" />
    <glyph glyph-name="section.tf" 
d="M567 221q0 -48 -29 -86t-80 -57q61 -53 61 -122q0 -72 -54.5 -114t-144.5 -42q-97 0 -154 47t-63 131l96 10q1 -52 34.5 -84t86.5 -32q105 0 105 80q0 12 -2.5 22.5t-9 20t-12.5 17.5t-18 17t-21 15t-26.5 15.5t-28.5 15l-33 16.5l-34 17q-94 46 -139.5 89.5t-45.5 116.5
q0 50 32.5 85.5t81.5 48.5q-50 46 -50 108q0 71 58.5 113.5t139.5 42.5q88 0 142 -46t60 -126l-92 -17q-1 49 -30 83t-81 34q-50 0 -77.5 -21t-27.5 -58q0 -21 11 -39.5t35 -36t47 -30t62 -32.5l24 -12q88 -45 132.5 -86.5t44.5 -103.5zM402 118q36 13 56 37t20 54
q0 20 -8.5 36.5t-29.5 32t-32.5 23t-41.5 23.5q-90 48 -144 83q-36 -10 -58 -34.5t-22 -54.5q0 -21 10.5 -40t31 -35t37 -26t41.5 -23q117 -62 140 -76z" />
    <glyph glyph-name="degree.tf" 
d="M310 401q-63 0 -106.5 42t-43.5 102t43.5 102.5t106.5 42.5t107 -42.5t44 -102.5t-43.5 -102t-107.5 -42zM310 454q39 0 62 25.5t23 65.5q0 39 -23 65t-62 26q-37 0 -61 -26t-24 -65t24 -65t61 -26z" />
    <glyph glyph-name="uni02BA.tf" 
d="M123 438l78 262h106l-108 -262h-76zM313 438l78 262h106l-108 -262h-76z" />
    <glyph glyph-name="uni02B9.tf" 
d="M218 438l78 262h106l-108 -262h-76z" />
    <glyph glyph-name="caroncomb.alt" horiz-adv-x="0" 
d="M-142 538v37q46 6 46 45h-45v80h91v-75q0 -82 -92 -87z" />
    <glyph glyph-name="uni0308.caps" horiz-adv-x="0" 
d="M-432 756v97h82v-97h-82zM-249 756v97h82v-97h-82z" />
    <glyph glyph-name="uni0307.caps" horiz-adv-x="0" 
d="M-290 756v106h90v-106h-90z" />
    <glyph glyph-name="gravecomb.caps" horiz-adv-x="0" 
d="M-232 756h-74l-89 108h100z" />
    <glyph glyph-name="acutecomb.caps" horiz-adv-x="0" 
d="M-348 756l63 108h100l-89 -108h-74z" />
    <glyph glyph-name="uni030B.caps" horiz-adv-x="0" 
d="M-400 756l33 109h82l-54 -109h-61zM-275 756l33 109h82l-54 -109h-61z" />
    <glyph glyph-name="uni0302.caps" horiz-adv-x="0" 
d="M-434 756l93 101h83l93 -101h-80l-56 56l-58 -56h-75z" />
    <glyph glyph-name="uni030C.caps" horiz-adv-x="0" 
d="M-319 857h75l58 -56l56 56h80l-93 -101h-83z" />
    <glyph glyph-name="uni0306.caps" horiz-adv-x="0" 
d="M-185 750q-50 0 -84.5 31.5t-36.5 83.5h62q7 -50 58 -50q55 0 62 50h60q-2 -49 -36 -82t-85 -33z" />
    <glyph glyph-name="uni030A.caps" horiz-adv-x="0" 
d="M-245 739q-40 0 -68 27t-28 65t28 65t68 27t68 -27t28 -65t-28 -65t-68 -27zM-245 777q23 0 36.5 15t13.5 39q0 22 -13.5 37.5t-36.5 15.5q-22 0 -36.5 -15.5t-14.5 -37.5q0 -23 14.5 -38.5t36.5 -15.5z" />
    <glyph glyph-name="tildecomb.caps" horiz-adv-x="0" 
d="M-261 753q-31 0 -65.5 20.5t-51.5 20.5q-36 0 -41 -38h-55q0 42 27 70q29 31 75 31q26 0 61 -21t50 -21q10 0 16 2t10.5 9.5t6 10.5t5.5 15h59q-7 -51 -30 -73q-27 -26 -67 -26z" />
    <glyph glyph-name="uni0304.caps" horiz-adv-x="0" 
d="M-306 768v70h256v-70h-256z" />
    <glyph glyph-name="uni0326.caps" horiz-adv-x="0" 
d="M-146 -237v39q48 6 48 47h-47v85h95v-79q0 -87 -96 -92z" />
    <glyph glyph-name="uni0328.caps" horiz-adv-x="0" 
d="M-106 -181q-52 0 -78 23.5t-26 60.5q0 57 75 97h63q-60 -49 -60 -84q0 -33 41 -33q21 0 38 7l3 -63q-26 -8 -56 -8z" />
    <glyph glyph-name="uni0337.caps" horiz-adv-x="0" 
d="M-460 152v77l410 225v-77z" />
    <glyph glyph-name="uni0338.caps" horiz-adv-x="0" 
d="M-671 -19l-41 36l645 694l41 -38z" />
    <glyph glyph-name="ringacutecomb" horiz-adv-x="326" 
d="M110 759l65 127h101l-92 -127h-74zM146 553q-40 0 -68 27t-28 65t28 65t68 27t68 -27t28 -65t-28 -65t-68 -27zM146 591q23 0 36.5 15t13.5 39q0 22 -13.5 37.5t-36.5 15.5q-22 0 -36.5 -15.5t-14.5 -37.5q0 -23 14.5 -38.5t36.5 -15.5z" />
    <glyph glyph-name="ringacutecomb.case" horiz-adv-x="315" 
d="M110 945l57 98h98l-81 -98h-74zM146 739q-40 0 -68 27t-28 65t28 65t68 27t68 -27t28 -65t-28 -65t-68 -27zM146 777q23 0 36.5 15t13.5 39q0 22 -13.5 37.5t-36.5 15.5q-22 0 -36.5 -15.5t-14.5 -37.5q0 -23 14.5 -38.5t36.5 -15.5z" />
    </font>
</defs>
</svg>
